<svg xmlns="http://www.w3.org/2000/svg" fill="none" viewBox="0 0 46 46"><circle cx="23" cy="23" r="23" fill="#2B289C"/><path fill="#946FE4" d="m19.7 29.82 3.3-1.1v3.24l-2.29.78.28.83a4.19 4.19 0 0 1-2.53 5.5c-1.01.34-2.11.29-3.08-.17a4.15 4.15 0 0 1-1.9-5.51 4.16 4.16 0 0 1 2.55-2.23l.82-.3-.82-2.29 2.48-2.03 1.19 3.28Zm-3.03 6.31c.24.1.52.1.76 0a1.08 1.08 0 0 0 .64-.55 1.12 1.12 0 0 0 0-.91v-.1l-.27-.82-.83.29h-.1a1.08 1.08 0 0 0-.69.59c-.1.26-.1.56 0 .83a1.08 1.08 0 0 0 .48.67h.01Z"/><path fill="#ED4023" d="m26.3 29.8 1.19-3.26 2.48 2.02-.83 2.3.83.3a4.13 4.13 0 0 1 2.94 3.81 4.19 4.19 0 0 1-2.29 3.94 4.18 4.18 0 0 1-4.48-.65 4.16 4.16 0 0 1-1.42-2.98c-.02-.59.07-1.17.29-1.71l.28-.84-2.29-.77V28.7l3.3 1.1Zm3.03 6.33c.23-.13.4-.34.5-.6a1.09 1.09 0 0 0 0-.82 1.1 1.1 0 0 0-.69-.6h-.09l-.82-.29-.28.84v.09a1.1 1.1 0 0 0 0 .91c.13.26.36.46.63.56.25.06.52.03.75-.1Z"/><path fill="#00BFFF" d="m30.16 25.03-1.8-2.77 3.15-.68 1.26 1.95.75-.44a4.33 4.33 0 0 1 5.86 1.18c.56.85.75 1.88.53 2.86a3.9 3.9 0 0 1-1.79 2.33 4.27 4.27 0 0 1-3.13.53 4.25 4.25 0 0 1-1.56-.66 3.97 3.97 0 0 1-1.15-1.2l-.48-.7-2.03 1.23-2.52-1.9 2.91-1.73Zm6.78 1.46c.05-.25 0-.5-.15-.7a1.07 1.07 0 0 0-.68-.47 1.14 1.14 0 0 0-.88.16l-.08.04-.72.42.46.68.05.08c.07.13.18.24.3.33.13.08.27.14.42.17a1.14 1.14 0 0 0 .83-.14c.2-.14.35-.34.42-.57h.03Z"/><path fill="#039947" d="m28.53 18.8-3.4-.44 1.39-2.94 2.38.3.12-.88a4.24 4.24 0 0 1 1.57-3.01 4.07 4.07 0 0 1 6.55 3.66 4.23 4.23 0 0 1-3.02 3.63c-.56.16-1.14.19-1.71.1l-.87-.09-.24 2.43-3.13.73.36-3.5Zm5.41-4.4c-.17-.2-.41-.32-.67-.36a1.05 1.05 0 0 0-.82.23 1.1 1.1 0 0 0-.41.84v.1l-.11.83.82.09h.1a1.05 1.05 0 0 0 .86-.24 1.05 1.05 0 0 0 .4-.75c.02-.25-.03-.5-.17-.71v-.03Z"/><path fill="#fff" d="M25.91 13.05a4.1 4.1 0 0 0 1.34-3.03 3.96 3.96 0 0 0-1.26-2.86A4.19 4.19 0 0 0 23.16 6a4.19 4.19 0 0 0-3.77 2.47 3.96 3.96 0 0 0 1 4.58l.62.62-1.73 1.61-2.4.3-.11-.82a3.97 3.97 0 0 0-1.59-2.91 4.18 4.18 0 0 0-3.07-.81 4.16 4.16 0 0 0-2.7 1.45 3.97 3.97 0 0 0-.36 4.4 4.06 4.06 0 0 0 2.6 2 4.3 4.3 0 0 0 1.75.1l.87-.09.24 2.34-1.26 2.02-.76-.45a4.23 4.23 0 0 0-5.88 1.24A3.96 3.96 0 0 0 6.1 27a4.2 4.2 0 0 0 7.65 1.03l.47-.72 2.04 1.27 2.53-1.96-2.9-1.83 1.8-2.87-.36-3.35 3.43-.42 2.48-2.36 2.48 2.36 1.4-2.85-1.73-1.65.53-.6ZM12.98 16h-.09a1.1 1.1 0 0 1-1.28-.94c-.02-.26.05-.52.2-.73.17-.2.41-.32.68-.35a1.13 1.13 0 0 1 .82.22 1.07 1.07 0 0 1 .42.8v.1l.11.81-.86.1Zm-1.92 10.46-.05.08a1.07 1.07 0 0 1-.72.54c-.28.05-.58 0-.82-.16a1.04 1.04 0 0 1-.46-.6c-.04-.25.01-.51.15-.73a1.05 1.05 0 0 1 .68-.48 1.13 1.13 0 0 1 .9.16l.07.06.72.43-.47.7Zm12.76-15.59-.07.07-.6.6-.6-.6-.06-.07a1.04 1.04 0 0 1-.04-1.56c.2-.18.44-.29.7-.3.27.01.51.12.7.3a1.02 1.02 0 0 1 .33.75 1.02 1.02 0 0 1-.36.81Z"/></svg>