<svg xmlns="http://www.w3.org/2000/svg" fill="none" viewBox="0 0 52 31"><g clip-path="url(#a)"><path fill="#4696B1" d="M51.863.312H.137V9.89h51.726V.312Z"/><path fill="#BC1733" d="M51.863 9.89H.137v.599h51.726V9.89Z"/><path fill="#fff" d="M51.863 10.489H.137v9.578h51.726V10.49Z"/><path fill="#BC1733" d="M51.863 20.055H.137v.599h51.726v-.599Z"/><path fill="#55B041" d="M51.863 20.654H.137v9.49h51.726v-9.49Z"/><path fill="#fff" d="M12.108 5.101a3.592 3.592 0 1 1-7.183 0 3.592 3.592 0 0 1 7.183 0Z"/><path fill="#4696B1" d="M13.094 5.101A2.994 2.994 0 1 1 10.1 2.108 2.98 2.98 0 0 1 13.094 5.1Z"/><path fill="#fff" d="m17.383 2.195.337.112-.112-.798-.225.686Z"/><path fill="#fff" d="m17.483 2.307.337-.112-.212-.686-.125.798Z"/><path fill="#fff" d="M17.57 2.008v.362l.711-.362h-.71Z"/><path fill="#fff" d="m17.495 2.133.212.299.574-.424-.786.125Z"/><path fill="#fff" d="m17.508 2.432.212-.3-.798-.124.586.424Z"/><path fill="#fff" d="m16.922 2.008.723.362v-.362h-.723Z"/><path fill="#fff" d="m17.47 2.232.562.574-.225-.686-.336.112Z"/><path fill="#fff" d="m17.446 2.382.586.424-.375-.71-.211.286Z"/><path fill="#fff" d="m17.184 2.806.573-.424-.2-.287-.373.711Z"/><path fill="#fff" d="m17.184 2.806.56-.574-.336-.112-.224.686ZM20.251 2.195l.35.112-.125-.798-.225.686Z"/><path fill="#fff" d="m20.351 2.307.35-.112-.225-.686-.125.798Z"/><path fill="#fff" d="M20.439 2.008v.362l.723-.362h-.723Z"/><path fill="#fff" d="m20.363 2.133.213.299.586-.424-.799.125Z"/><path fill="#fff" d="m20.376 2.432.212-.3-.798-.124.586.424Z"/><path fill="#fff" d="m19.79 2.008.723.362v-.362h-.723Z"/><path fill="#fff" d="m20.339 2.232.56.574-.224-.686-.336.112Z"/><path fill="#fff" d="m20.314 2.382.586.424-.374-.71-.212.286Z"/><path fill="#fff" d="m20.052 2.806.586-.424-.212-.287-.374.711Z"/><path fill="#fff" d="m20.052 2.806.56-.574-.336-.112-.224.686ZM23.132 2.195l.336.112-.124-.798-.212.686Z"/><path fill="#fff" d="m23.232 2.307.336-.112-.224-.686-.112.798Z"/><path fill="#fff" d="M23.319 2.008v.362l.71-.362h-.71Z"/><path fill="#fff" d="m23.244 2.133.2.299.586-.424-.786.125Z"/><path fill="#fff" d="m23.244 2.432.212-.3-.786-.124.574.424Z"/><path fill="#fff" d="m22.67 2.008.711.362v-.362h-.71Z"/><path fill="#fff" d="m23.207 2.232.56.574-.223-.686-.337.112Z"/><path fill="#fff" d="m23.194 2.382.574.424-.362-.71-.212.286Z"/><path fill="#fff" d="m22.932 2.806.574-.424-.212-.287-.362.711Z"/><path fill="#fff" d="m22.932 2.806.562-.574-.35-.112-.212.686ZM14.515 5.064l.337.112-.125-.786-.212.674Z"/><path fill="#fff" d="m14.615 5.176.336-.112-.224-.674-.112.786Z"/><path fill="#fff" d="M14.702 4.877v.361l.71-.361h-.71Z"/><path fill="#fff" d="m14.627 5.014.212.287.574-.424-.786.137Z"/><path fill="#fff" d="m14.627 5.3.212-.286-.785-.137.573.424Z"/><path fill="#fff" d="m14.054 4.877.71.361v-.361h-.71Z"/><path fill="#fff" d="m14.59 5.114.561.56-.224-.673-.337.113Z"/><path fill="#fff" d="m14.577 5.263.574.412-.362-.711-.212.3Z"/><path fill="#fff" d="m14.303 5.675.586-.412-.212-.3-.374.712Z"/><path fill="#fff" d="m14.303 5.675.574-.561-.35-.113-.224.674ZM17.383 5.064l.337.112-.112-.786-.225.674Z"/><path fill="#fff" d="m17.483 5.176.337-.112-.212-.674-.125.786Z"/><path fill="#fff" d="M17.57 4.877v.361l.711-.361h-.71Z"/><path fill="#fff" d="m17.495 5.014.212.287.574-.424-.786.137Z"/><path fill="#fff" d="m17.508 5.3.212-.286-.798-.137.586.424Z"/><path fill="#fff" d="m16.922 4.877.723.361v-.361h-.723Z"/><path fill="#fff" d="m17.47 5.114.562.56-.225-.673-.336.113Z"/><path fill="#fff" d="m17.446 5.263.586.412-.375-.711-.211.3Z"/><path fill="#fff" d="m17.184 5.675.573-.412-.2-.3-.373.712Z"/><path fill="#fff" d="m17.184 5.675.56-.561L17.409 5l-.224.674ZM20.251 5.064l.35.112-.125-.786-.225.674Z"/><path fill="#fff" d="m20.351 5.176.35-.112-.225-.674-.125.786Z"/><path fill="#fff" d="M20.439 4.877v.361l.723-.361h-.723Z"/><path fill="#fff" d="m20.363 5.014.213.287.586-.424-.799.137Z"/><path fill="#fff" d="m20.376 5.3.212-.286-.798-.137.586.424Z"/><path fill="#fff" d="m19.79 4.877.723.361v-.361h-.723Z"/><path fill="#fff" d="m20.339 5.114.56.56-.224-.673-.336.113Z"/><path fill="#fff" d="m20.314 5.263.586.412-.374-.711-.212.3Z"/><path fill="#fff" d="m20.052 5.675.586-.412-.212-.3-.374.712Z"/><path fill="#fff" d="m20.052 5.675.56-.561L20.277 5l-.224.674ZM23.132 5.064l.336.112-.124-.786-.212.674Z"/><path fill="#fff" d="m23.232 5.176.336-.112-.224-.674-.112.786Z"/><path fill="#fff" d="M23.319 4.877v.361l.71-.361h-.71Z"/><path fill="#fff" d="m23.244 5.014.2.287.586-.424-.786.137Z"/><path fill="#fff" d="m23.244 5.3.212-.286-.786-.137.574.424Z"/><path fill="#fff" d="m22.67 4.877.711.361v-.361h-.71Z"/><path fill="#fff" d="m23.207 5.114.56.56-.223-.673-.337.113Z"/><path fill="#fff" d="m23.194 5.263.574.412-.362-.711-.212.3Z"/><path fill="#fff" d="m22.932 5.675.574-.412-.212-.3-.362.712Z"/><path fill="#fff" d="m22.932 5.675.562-.561-.35-.113-.212.674ZM11.634 7.945l.35.1-.125-.786-.225.686Z"/><path fill="#fff" d="m11.747 8.044.337-.1-.225-.685-.112.785Z"/><path fill="#fff" d="M11.822 7.745v.362l.723-.362h-.723Z"/><path fill="#fff" d="m11.747 7.882.212.287.586-.424-.798.137Z"/><path fill="#fff" d="m11.76 8.17.211-.288-.798-.137.586.424Z"/><path fill="#fff" d="m11.173 7.745.723.362v-.362h-.723Z"/><path fill="#fff" d="m11.722 7.982.561.574-.224-.686-.337.112Z"/><path fill="#fff" d="m11.697 8.132.586.424-.374-.711-.212.287Z"/><path fill="#fff" d="m11.435 8.556.586-.424-.212-.287-.374.71Z"/><path fill="#fff" d="m11.435 8.556.574-.574-.35-.112-.224.686ZM14.515 7.945l.337.1-.125-.786-.212.686Z"/><path fill="#fff" d="m14.615 8.044.336-.1-.224-.685-.112.785Z"/><path fill="#fff" d="M14.702 7.745v.362l.71-.362h-.71Z"/><path fill="#fff" d="m14.627 7.882.212.287.574-.424-.786.137Z"/><path fill="#fff" d="m14.627 8.17.212-.288-.785-.137.573.424Z"/><path fill="#fff" d="m14.054 7.745.71.362v-.362h-.71Z"/><path fill="#fff" d="m14.59 7.982.561.574-.224-.686-.337.112Z"/><path fill="#fff" d="m14.577 8.132.574.424-.362-.711-.212.287Z"/><path fill="#fff" d="m14.303 8.556.586-.424-.212-.287-.374.71Z"/><path fill="#fff" d="m14.303 8.556.574-.574-.35-.112-.224.686ZM17.383 7.945l.337.1-.112-.786-.225.686Z"/><path fill="#fff" d="m17.483 8.044.337-.1-.212-.685-.125.785Z"/><path fill="#fff" d="M17.57 7.745v.362l.711-.362h-.71Z"/><path fill="#fff" d="m17.495 7.882.212.287.574-.424-.786.137Z"/><path fill="#fff" d="m17.508 8.17.212-.288-.798-.137.586.424Z"/><path fill="#fff" d="m16.922 7.745.723.362v-.362h-.723Z"/><path fill="#fff" d="m17.47 7.982.562.574-.225-.686-.336.112Z"/><path fill="#fff" d="m17.446 8.132.586.424-.375-.711-.211.287Z"/><path fill="#fff" d="m17.184 8.556.573-.424-.2-.287-.373.71Z"/><path fill="#fff" d="m17.184 8.556.56-.574-.336-.112-.224.686ZM20.251 7.945l.35.1-.125-.786-.225.686Z"/><path fill="#fff" d="m20.351 8.044.35-.1-.225-.685-.125.785Z"/><path fill="#fff" d="M20.439 7.745v.362l.723-.362h-.723Z"/><path fill="#fff" d="m20.363 7.882.213.287.586-.424-.799.137Z"/><path fill="#fff" d="m20.376 8.17.212-.288-.798-.137.586.424Z"/><path fill="#fff" d="m19.79 7.745.723.362v-.362h-.723Z"/><path fill="#fff" d="m20.339 7.982.56.574-.224-.686-.336.112Z"/><path fill="#fff" d="m20.314 8.132.586.424-.374-.711-.212.287Z"/><path fill="#fff" d="m20.052 8.556.586-.424-.212-.287-.374.71Z"/><path fill="#fff" d="m20.052 8.556.56-.574-.336-.112-.224.686ZM23.132 7.945l.336.1-.124-.786-.212.686Z"/><path fill="#fff" d="m23.232 8.044.336-.1-.224-.685-.112.785Z"/><path fill="#fff" d="M23.319 7.745v.362l.71-.362h-.71Z"/><path fill="#fff" d="m23.244 7.882.2.287.586-.424-.786.137Z"/><path fill="#fff" d="m23.244 8.17.212-.288-.786-.137.574.424Z"/><path fill="#fff" d="m22.67 7.745.711.362v-.362h-.71Z"/><path fill="#fff" d="m23.207 7.982.56.574-.223-.686-.337.112Z"/><path fill="#fff" d="m23.194 8.132.574.424-.362-.711-.212.287Z"/><path fill="#fff" d="m22.932 8.556.574-.424-.212-.287-.362.71Z"/><path fill="#fff" d="m22.932 8.556.562-.574-.35-.112-.212.686Z"/><path stroke="#878787" stroke-width=".18" d="M51.888.112H.112v29.92h51.776V.113Z"/></g><defs><clipPath id="a"><path fill="#fff" d="M0 0h52v30.145H0z"/></clipPath></defs></svg>