<svg xmlns="http://www.w3.org/2000/svg" fill="none" viewBox="0 0 61 32"><g clip-path="url(#a)"><path fill="#fff" d="M60.3 0H0v31.95h60.3V0Z"/><path fill="#CE1124" d="M60.3 12.79H33.75V0H26.5V12.8H.03v6.38H26.5v12.78h7.25V19.17H60.3V12.8Z"/><path fill="#00247D" d="M0 3.72v6.96h13.15L0 3.72ZM7.26 0l-.2.01 17.05 9.07V0H7.26Z"/><path fill="#CE1124" d="M20.24 10.63 0 0v2.5l15.42 8.13h4.82ZM40.07 21.31l20.24 10.63v-2.5L44.89 21.3h-4.82Z"/><path fill="#00247D" d="M0 28.28v-6.96h13.15L0 28.28ZM7.26 32h-.2l17.05-9.08V32H7.26Z"/><path fill="#CE1124" d="M20.13 21.31.01 31.94h4.7l19.42-10.2v-.43h-4Z"/><path fill="#00247D" d="M60.3 3.72v6.96H47.17L60.3 3.72ZM53.05 0h.2L36.19 9.09V0h16.86Z"/><path fill="#CE1124" d="M60.29.01h-4.53L36.21 10.3v.36h4.14L60.29 0Z"/><path fill="#00247D" d="M60.3 28.28v-6.96H47.17l13.15 6.96ZM53.05 32l.2-.01-17.06-9.07V32h16.86Z"/></g><defs><clipPath id="a"><path fill="#fff" d="M0 0h60.31v32H0z"/></clipPath></defs></svg>