<svg xmlns="http://www.w3.org/2000/svg" fill="none" viewBox="0 0 52 30"><g clip-path="url(#a)"><path fill="#4F9E2E" d="M52 0H0v30h52V0Z"/><path fill="#F03340" d="M52 0H0v19.996h52V0Z"/><path fill="#00B5E3" d="M52 0H0v10.004h52V0Z"/><path fill="#fff" d="M24.503 10.5c.896 0 1.771.265 2.515.76a4.51 4.51 0 0 1 1.668 2.022 4.486 4.486 0 0 1-.982 4.91 4.546 4.546 0 0 1-4.933.977 4.522 4.522 0 0 1-2.031-1.66 4.49 4.49 0 0 1 .563-5.689c.848-.845 2-1.32 3.2-1.32Z"/><path fill="#F03340" d="M25.501 11.258c.74 0 1.463.218 2.079.627.615.41 1.095.991 1.378 1.671a3.707 3.707 0 0 1-.811 4.058 3.747 3.747 0 0 1-4.077.808 3.736 3.736 0 0 1-1.68-1.372 3.71 3.71 0 0 1 .466-4.702 3.75 3.75 0 0 1 2.645-1.09Z"/><path fill="#fff" d="m29.517 12.499.486 1.34 1.284-.608-.61 1.291 1.346.484-1.347.472.611 1.29-1.284-.607-.486 1.34-.474-1.34-1.297.608.61-1.291-1.346-.472 1.347-.484-.611-1.29 1.297.607.474-1.34Z"/></g><defs><clipPath id="a"><path fill="#fff" d="M0 0h52v30H0z"/></clipPath></defs></svg>