<svg width="105" height="103" viewBox="0 0 105 103" fill="none" xmlns="http://www.w3.org/2000/svg">
<path d="M42.324 74.1541L52.4062 70.8064V80.6231L45.4242 82.9892L46.2812 85.5063C46.9375 87.1518 47.2386 88.9172 47.1648 90.6869C47.0909 92.4566 46.6439 94.1908 45.8528 95.7762C45.116 97.2672 44.0907 98.5976 42.8361 99.6907C41.5815 100.784 40.1224 101.618 38.5431 102.144C35.4694 103.189 32.1106 103.009 29.1668 101.641C26.2583 100.2 24.0189 97.693 22.9157 94.6434C22.3455 93.0785 22.0921 91.4161 22.17 89.7526C22.2479 88.0891 22.6555 86.4575 23.3694 84.9525C24.1153 83.346 25.1924 81.9147 26.5302 80.7523C27.868 79.5898 29.4363 78.7224 31.1327 78.2067L33.6533 77.3005L31.1327 70.3785L38.6944 64.2367L42.324 74.1541ZM33.0988 93.259C33.8422 93.5612 34.6743 93.5612 35.4177 93.259C35.8377 93.1219 36.226 92.902 36.5593 92.6123C36.8927 92.3226 37.1645 91.969 37.3586 91.5725C37.551 91.1407 37.6504 90.6734 37.6504 90.2008C37.6504 89.7281 37.551 89.2607 37.3586 88.8289V88.5521L36.5267 86.0349L34.0062 86.9159H33.7289C33.2674 87.0427 32.8389 87.2682 32.4733 87.5768C32.1077 87.8854 31.8137 88.2697 31.6116 88.7031C31.2837 89.5102 31.2837 90.4131 31.6116 91.2202C31.7078 91.6398 31.8866 92.0362 32.1376 92.3862C32.3886 92.7362 32.7067 93.0329 33.0736 93.259H33.0988Z" fill="#946FE4"/>
<path d="M62.2111 74.1542L65.8155 64.2871L73.3771 70.4037L70.8566 77.3257L73.3771 78.2571C75.0782 78.7697 76.6515 79.6357 77.9938 80.7983C79.3361 81.9609 80.4169 83.3938 81.1656 85.003C81.872 86.5062 82.2735 88.1342 82.3471 89.7931C82.4206 91.452 82.1648 93.109 81.5942 94.6687C80.489 97.7152 78.2626 100.227 75.3683 101.691C72.4188 103.036 69.0688 103.216 65.9919 102.195C64.4105 101.665 62.95 100.827 61.6953 99.7299C60.4405 98.6324 59.4164 97.2971 58.6823 95.8013C57.8912 94.216 57.4442 92.4818 57.3703 90.7121C57.2965 88.9424 57.5976 87.1771 58.2538 85.5315L59.1107 83.0144L52.1289 80.6735V70.8316L62.2111 74.1542ZM71.4363 93.2842C72.1363 92.8861 72.6723 92.2528 72.9487 91.4971C73.1151 91.0983 73.2007 90.6706 73.2007 90.2385C73.2007 89.8065 73.1151 89.3788 72.9487 88.98C72.7465 88.5512 72.4554 88.1702 72.0947 87.8621C71.7341 87.554 71.3121 87.3259 70.8566 87.1928H70.5794L68.0588 86.3118L67.227 88.829V89.1058C67.0276 89.5402 66.9244 90.0124 66.9244 90.4903C66.9244 90.9681 67.0276 91.4403 67.227 91.8746C67.6242 92.6622 68.3104 93.2664 69.1426 93.5611C69.9161 93.7388 70.7274 93.6408 71.4363 93.2842Z" fill="#ED4023"/>
<path d="M74.6379 58.5983L69.1431 49.6374L78.7464 47.4475L82.6027 53.7403L84.8965 52.3307C86.3572 51.3419 88.007 50.6659 89.7423 50.3453C91.4775 50.0247 93.2605 50.0665 94.9787 50.468C96.5966 50.8528 98.1222 51.5536 99.4675 52.5299C100.813 53.5063 101.951 54.7389 102.818 56.1567C104.527 58.9135 105.105 62.2227 104.431 65.3945C103.642 68.5179 101.685 71.2205 98.9611 72.9459C97.5629 73.8518 95.9987 74.4718 94.3589 74.7699C92.7191 75.068 91.0365 75.0384 89.4083 74.6827C87.6768 74.3103 86.0434 73.5775 84.6145 72.5323C83.1857 71.487 81.9935 70.1527 81.1157 68.6164L79.6537 66.3762L73.4531 70.3533L65.7402 64.2115L74.6379 58.5983ZM95.3567 63.3305C95.5027 62.5371 95.3405 61.7181 94.903 61.0399C94.6824 60.6587 94.3848 60.3275 94.0289 60.0675C93.6731 59.8075 93.2668 59.6243 92.8362 59.5297C92.375 59.4192 91.8954 59.4092 91.4301 59.5004C90.9647 59.5916 90.5243 59.7819 90.1392 60.0583L89.8872 60.2093L87.6691 61.5685L89.0806 63.7584L89.2318 64.0101C89.4616 64.4264 89.7788 64.7881 90.1616 65.0705C90.5445 65.3529 90.9839 65.5493 91.4499 65.6462C91.8791 65.7421 92.3232 65.7515 92.756 65.6737C93.1889 65.5959 93.6017 65.4325 93.9705 65.1932C94.6039 64.7415 95.0588 64.0824 95.256 63.3305H95.3567Z" fill="#00BFFF"/>
<path d="M70.226 39.116L59.7656 37.8323L64.0506 28.972L71.3603 29.8782L71.713 27.21C71.8364 25.4447 72.3312 23.7253 73.1651 22.1639C73.999 20.6025 75.1533 19.2342 76.5526 18.1484C77.8681 17.1338 79.3714 16.389 80.9763 15.957C82.5812 15.525 84.2558 15.4143 85.9037 15.6313C89.1338 16.0224 92.0873 17.646 94.146 20.1621C96.1145 22.7308 97.0172 25.9578 96.6665 29.1734C96.5009 30.8296 96.008 32.4367 95.2163 33.9014C94.4245 35.3661 93.3496 36.6594 92.0539 37.7064C90.6815 38.8278 89.0876 39.6473 87.3763 40.1114C85.665 40.5755 83.8748 40.6737 82.1229 40.3997L79.4511 40.148L78.7202 47.4728L69.1169 49.6627L70.226 39.116ZM86.8363 25.9011C86.3052 25.2974 85.569 24.9117 84.7696 24.8188C84.3253 24.7535 83.8722 24.7802 83.4386 24.8971C83.005 25.014 82.6001 25.2187 82.2491 25.4984C81.8674 25.8003 81.5565 26.1822 81.3388 26.6171C81.121 27.0521 81.0016 27.5294 80.9888 28.0155V28.3176L80.6611 30.8347L83.1817 31.0864H83.4589C83.9287 31.1703 84.4113 31.1508 84.8728 31.029C85.3343 30.9073 85.7636 30.6863 86.1307 30.3816C86.4793 30.1091 86.7671 29.7667 86.9754 29.3766C87.1838 28.9865 87.3081 28.5572 87.3405 28.1162C87.4288 27.3661 87.2503 26.6088 86.8363 25.9767V25.9011Z" fill="#039947"/>
<path d="M60.6735 21.9744C61.9712 20.7689 63.0041 19.3075 63.707 17.6827C64.4098 16.0579 64.7674 14.3051 64.7568 12.5352C64.74 10.8707 64.3926 9.22615 63.735 7.69664C63.0773 6.16712 62.1224 4.78305 60.9255 3.62461C58.6177 1.35094 55.5214 0.0528162 52.28 0C49.0299 0.046363 45.9233 1.34496 43.6093 3.62461C42.4124 4.78305 41.4575 6.16712 40.7998 7.69664C40.1422 9.22615 39.7948 10.8707 39.778 12.5352C39.7674 14.3051 40.1248 16.0579 40.8277 17.6827C41.5306 19.3075 42.5636 20.7689 43.8613 21.9744L45.7517 23.8874L40.4838 28.9216L33.149 29.8278L32.8213 27.3106C32.7013 25.541 32.2082 23.8166 31.3742 22.2507C30.5402 20.6847 29.3841 19.3124 27.9819 18.2239C26.6664 17.2092 25.1629 16.4645 23.558 16.0325C21.9531 15.6005 20.2785 15.4898 18.6305 15.7068C15.4043 16.0914 12.4515 17.7057 10.3884 20.2124C8.4199 22.7811 7.51728 26.0081 7.86789 29.2237C8.03036 30.8781 8.51941 32.4839 9.30678 33.9485C10.0942 35.4131 11.1643 36.7074 12.4553 37.7567C13.8502 38.8918 15.4691 39.7206 17.2063 40.189C18.9435 40.6574 20.7601 40.7549 22.5375 40.4751L25.2093 40.1983L25.9402 47.4979L22.0837 53.7907L19.7901 52.3811C18.3307 51.3895 16.6808 50.7118 14.9451 50.3911C13.2094 50.0705 11.4259 50.1138 9.70785 50.5184C8.08793 50.9062 6.56101 51.6109 5.2155 52.5916C3.86998 53.5724 2.73261 54.8098 1.86897 56.2323C0.168379 58.9925 -0.400435 62.3015 0.281006 65.4701C1.06318 68.5893 3.01118 71.2913 5.72533 73.0214C7.12353 73.9274 8.68791 74.5473 10.3277 74.8455C11.9674 75.1436 13.6501 75.1139 15.2783 74.7582C17.0166 74.3862 18.6562 73.6511 20.0897 72.6012C21.5233 71.5514 22.7183 70.2106 23.5961 68.6668L25.0328 66.4266L31.2333 70.4036L38.9462 64.287L30.0992 58.5732L35.5687 49.6374L34.5102 39.1914L44.9451 37.8825L52.5068 30.5326L60.0684 37.8825L64.3534 29.0223L59.0603 23.8622L60.6735 21.9744ZM21.2773 31.1367H20.9999C20.53 31.2206 20.0476 31.201 19.5861 31.0793C19.1246 30.9576 18.6952 30.7366 18.3281 30.4319C17.9832 30.1594 17.6964 29.8209 17.4843 29.4362C17.2722 29.0515 17.1392 28.6284 17.093 28.1917C17.0236 27.3891 17.2376 26.5876 17.698 25.9262C18.229 25.3225 18.9655 24.9368 19.7648 24.8439C20.2091 24.7831 20.6612 24.8118 21.0942 24.9286C21.5271 25.0453 21.9321 25.2476 22.2854 25.5235C22.6717 25.823 22.9873 26.2038 23.2095 26.6388C23.4317 27.0739 23.555 27.5525 23.5709 28.0406V28.3427L23.8986 30.8598L21.2773 31.1367ZM15.4296 63.7333L15.2783 63.985C15.054 64.4031 14.7419 64.768 14.3634 65.0547C13.985 65.3414 13.5491 65.5432 13.0855 65.6463C12.215 65.8269 11.3083 65.6549 10.5649 65.168C9.88881 64.7389 9.39502 64.0756 9.17848 63.3054C9.0518 62.5123 9.21282 61.7 9.63231 61.0148C9.8565 60.6364 10.1552 60.3075 10.5104 60.0479C10.8657 59.7883 11.2701 59.6034 11.699 59.5045C12.1644 59.3952 12.6477 59.3858 13.117 59.477C13.5863 59.5681 14.0308 59.7576 14.4213 60.0331L14.6482 60.2093L16.8663 61.5434L15.4296 63.7333ZM54.2964 15.153L54.0947 15.3544L52.28 17.217L50.4399 15.3544L50.2384 15.153C49.8804 14.84 49.5954 14.4524 49.4038 14.0175C49.2122 13.5826 49.1185 13.1109 49.1293 12.6359C49.1262 12.1973 49.2141 11.7628 49.3876 11.3598C49.5612 10.9569 49.8164 10.5943 50.1375 10.295C50.7102 9.72491 51.4727 9.38455 52.28 9.33847C53.0785 9.39056 53.8308 9.73048 54.3972 10.295C54.7182 10.5943 54.9736 10.9569 55.1472 11.3598C55.3207 11.7628 55.4086 12.1973 55.4055 12.6359C55.4163 13.1109 55.3227 13.5826 55.131 14.0175C54.9394 14.4524 54.6544 14.84 54.2964 15.153Z" fill="#171C6B"/>
</svg>
