<svg xmlns="http://www.w3.org/2000/svg" fill="none" viewBox="0 0 313 124"><path fill="#171C6B" d="M154.6 43.42c-1.72.03-3.4-.33-4.96-1.05a8.15 8.15 0 0 1-3.39-3 8.17 8.17 0 0 1-1.24-4.45 8.17 8.17 0 0 1 1.24-4.45c.83-1.3 2-2.33 3.4-3a11.26 11.26 0 0 1 4.94-1.05l-.07 4.02a6 6 0 0 0-2.63.55c-.73.33-1.35.88-1.77 1.56a4.36 4.36 0 0 0-.63 2.37c-.02.84.2 1.66.63 2.38a4.04 4.04 0 0 0 1.77 1.57c.83.38 1.73.56 2.63.55l.07 4Zm-1.02 2.61v-4.21l.08-.86V29.02l-.08-.62v-4.53h4.44v4.53l-.08.62v11.94l.09.86v4.21h-4.45Zm3.5-6.61c.9.01 1.8-.17 2.62-.55a4.06 4.06 0 0 0 1.79-1.57c.43-.72.65-1.54.63-2.38A4.12 4.12 0 0 0 159.7 31a5.97 5.97 0 0 0-2.62-.55l-.08-4.01c1.7-.03 3.4.33 4.95 1.05a8.43 8.43 0 0 1 3.4 3 8.19 8.19 0 0 1 1.23 4.45 8.18 8.18 0 0 1-1.23 4.45 8.2 8.2 0 0 1-3.4 3 11.27 11.27 0 0 1-4.95 1.04l.08-4.01Zm11.85 4.86v-18.7h12.75v3.68h-10.35l2.14-1.95v15.23l-2.14-2.01h10.68v3.75h-13.08Zm2.51-7.62v-3.63h9.54v3.6l-9.53.03Zm21.6 7.95a9.86 9.86 0 0 1-5.05-1.25 8.78 8.78 0 0 1-3.38-3.45 10.26 10.26 0 0 1-1.2-4.99c-.03-1.72.38-3.42 1.19-4.94a8.78 8.78 0 0 1 3.34-3.49 9.86 9.86 0 0 1 5.01-1.26c1.48-.01 2.95.3 4.3.91 1.39.68 2.62 1.63 3.62 2.81l-2.81 3a6.59 6.59 0 0 0-2.2-1.83 5.63 5.63 0 0 0-5.27.07 4.83 4.83 0 0 0-1.81 1.94 6.16 6.16 0 0 0-.64 2.8c-.01.98.21 1.94.65 2.82a4.8 4.8 0 0 0 1.84 1.93c.82.48 1.76.72 2.7.7a6 6 0 0 0 2.82-.68 7.2 7.2 0 0 0 2.3-1.91l2.82 2.96a9.55 9.55 0 0 1-3.66 2.9c-1.44.63-3 .96-4.57.96Zm9.42-14.79v-4.21h15.47v4.21h-15.47Zm5.43 14.46V27.42h4.66v16.86h-4.66Zm12.28 0v-18.7h4.56v15.54l-1.66-2.05 9.7-13.49h3.94v18.7h-4.55V28.73l1.63 2.1-9.68 13.45h-3.94Zm19.92 0v-18.7h8.57a6.87 6.87 0 0 1 2.96.6 4.67 4.67 0 0 1 2.68 4.33 4.8 4.8 0 0 1-.78 2.68c-.6.83-1.4 1.5-2.33 1.91l-.1-.92c1.12.3 2.1.97 2.81 1.88.7.88 1.07 1.97 1.06 3.09a4.9 4.9 0 0 1-.75 2.68c-.5.8-1.23 1.43-2.1 1.82-.96.44-2.01.66-3.07.64l-8.95-.01Zm4.44-1.69-2.06-1.74h5.43c.69.05 1.38-.15 1.92-.58a1.97 1.97 0 0 0 .7-1.61 2 2 0 0 0-.7-1.62 2.94 2.94 0 0 0-1.92-.57H243v-3.28h4.6c.45.02.9-.07 1.31-.26.35-.15.64-.41.84-.73.2-.34.3-.73.3-1.13a1.94 1.94 0 0 0-.75-1.47 2.6 2.6 0 0 0-1.8-.58h-5.07l2.06-1.74.04 15.31Zm11.17 1.69 7.26-18.7h4.95l7.16 18.7h-4.78l-1.77-4.83-.07-.83-3.62-10.03h1.25l-3.77 10.18v.72l-1.73 4.79h-4.88Zm4.3-3.02 1-3.35h9.05l1.01 3.35H260Zm16.27-.94a7.57 7.57 0 0 0 2.24-.86c.5-.3.88-.76 1.1-1.3a8 8 0 0 0 .44-2.32l.75-10.26h13.91v18.7h-4.61V27.95l2.02 1.9h-8.9l2.01-1.9-.62 8.66a10.9 10.9 0 0 1-.97 4.09 6.15 6.15 0 0 1-2.36 2.54 10.6 10.6 0 0 1-3.9 1.25l-1.11-4.17Zm21.86 3.96v-18.7h4.63v16.66l-2.2-1.81h4.8c.83.06 1.65-.18 2.32-.66a2.4 2.4 0 0 0 .77-1.93 2.42 2.42 0 0 0-.77-1.93 3.4 3.4 0 0 0-2.32-.7h-5.42v-3.76h5.9a8.7 8.7 0 0 1 3.8.77 5.7 5.7 0 0 1 2.49 2.24c.6 1.04.9 2.22.87 3.43.03 1.2-.26 2.4-.86 3.45a5.62 5.62 0 0 1-2.46 2.22 9 9 0 0 1-3.84.77l-7.71-.05ZM145.9 67.86v-18.7h12.07v4.2h-9.4l1.99-2v16.46l-4.66.04Zm22.83.34c-1.79.03-3.55-.4-5.12-1.25-1.48-.81-2.7-2-3.56-3.46a9.6 9.6 0 0 1-1.3-4.98 9.6 9.6 0 0 1 1.3-4.99 9.33 9.33 0 0 1 3.56-3.46 10.35 10.35 0 0 1 5.12-1.25c1.8-.03 3.57.4 5.15 1.25a9.28 9.28 0 0 1 4.85 8.45 9.27 9.27 0 0 1-4.85 8.44 10.5 10.5 0 0 1-5.15 1.25Zm0-4.21a5 5 0 0 0 4.6-2.65c.45-.88.67-1.84.66-2.82a5.98 5.98 0 0 0-.66-2.8 4.86 4.86 0 0 0-1.87-1.95 5.24 5.24 0 0 0-2.73-.71 5.18 5.18 0 0 0-4.59 2.65 5.97 5.97 0 0 0-.66 2.81c-.01.98.22 1.94.66 2.81.44.82 1.09 1.5 1.89 1.98.82.46 1.75.7 2.7.68Zm12.42 3.87v-18.7h7.48a8.7 8.7 0 0 1 3.89.8 5.94 5.94 0 0 1 2.51 2.32c.6 1.1.91 2.34.88 3.59a7.01 7.01 0 0 1-.88 3.55 5.94 5.94 0 0 1-2.51 2.33 8.45 8.45 0 0 1-3.89.82h-5.62l.12-3.82h5.04c.83.04 1.64-.23 2.28-.75a2.68 2.68 0 0 0 .83-2.08 2.68 2.68 0 0 0-.83-2.1 3.33 3.33 0 0 0-2.28-.73h-4.47l2.06-1.84V67.8l-4.61.05Zm16.95 0v-18.7h4.66v18.7h-4.66Zm2.67-7.37V56.2h10.85v4.3l-10.85-.01Zm8.86 7.37v-18.7h4.66v18.7h-4.66Zm8.05 0v-18.7h4.66v16.61l-2.2-1.81h4.8c.83.06 1.65-.18 2.32-.68a2.36 2.36 0 0 0 .78-1.9 2.42 2.42 0 0 0-.78-1.95 3.4 3.4 0 0 0-2.32-.68h-5.39v-3.77h5.84a8.7 8.7 0 0 1 3.81.77 5.75 5.75 0 0 1 2.5 2.24 6.6 6.6 0 0 1 .85 3.43 6.8 6.8 0 0 1-.84 3.45 5.76 5.76 0 0 1-2.48 2.22 9 9 0 0 1-3.84.77h-7.7Zm17.44 0v-18.7h4.66v18.7h-4.66Zm6.73 0 7.03-10.8.96-.34 2.7-4.62 1.8-2.95h5.25l-6.43 10.07-.89.27-3.2 5.35-1.85 3.02h-5.37Zm12.74 0-1.85-3.02-3.28-5.53-.97-.45-6.2-9.7h5.25l1.86 2.94 2.91 4.96.86.3 6.71 10.5h-5.29ZM145.9 91.4V72.75h4.66V91.4h-4.66Zm3.64-7.37v-4.11h3.62v4.11h-3.62Zm7.04 7.38-5.81-9.47 5.62-9.24h5.4l-6.4 10.1v-1.82l6.56 10.43h-5.37Zm13.67-4.7-6.95-14.04h5.13l1.8 3.85 2.54 5.5-2.52 4.7Zm-2 5.05a9.55 9.55 0 0 1-3.1-.48l.9-4c.57.18 1.17.28 1.76.3.5 0 .99-.13 1.41-.39.42-.28.74-.68.92-1.15l.45-1.04 1-1.52 2.9-6.9 1.64-3.84h5.05l-7.03 15.1a7.03 7.03 0 0 1-2.4 3.02 6.38 6.38 0 0 1-3.5.9Zm14.94-.36V72.75h7.48a8.7 8.7 0 0 1 3.89.8 5.86 5.86 0 0 1 2.51 2.33c.6 1.1.91 2.33.88 3.58a7.01 7.01 0 0 1-.88 3.56 6 6 0 0 1-2.51 2.33 8.45 8.45 0 0 1-3.89.81h-5.62l.12-3.82h5.05c.83.04 1.64-.22 2.28-.74a2.7 2.7 0 0 0 .83-2.1 2.68 2.68 0 0 0-.83-2.09 3.34 3.34 0 0 0-2.28-.73h-4.47l2.07-1.84V91.4l-4.63.02Zm26.53.39a10.4 10.4 0 0 1-5.1-1.25 9.3 9.3 0 0 1-3.58-3.46 9.6 9.6 0 0 1-1.3-4.99 9.6 9.6 0 0 1 1.3-4.98 9.27 9.27 0 0 1 3.57-3.46 10.26 10.26 0 0 1 5.11-1.25c1.8-.03 3.57.4 5.15 1.25a9.27 9.27 0 0 1 4.85 8.44 9.27 9.27 0 0 1-4.85 8.44 10.62 10.62 0 0 1-5.15 1.26Zm0-4.22c.96.02 1.9-.23 2.73-.71a4.87 4.87 0 0 0 1.87-1.94c.45-.87.68-1.84.66-2.81a5.7 5.7 0 0 0-.66-2.81 5.01 5.01 0 0 0-4.6-2.64 5.3 5.3 0 0 0-2.7.7 4.9 4.9 0 0 0-1.87 1.95 5.82 5.82 0 0 0-.68 2.81c-.01.98.22 1.95.68 2.81a4.78 4.78 0 0 0 1.87 1.94c.82.48 1.75.72 2.7.7Zm12.42 3.83V72.75h7.47a8.7 8.7 0 0 1 3.88.8 5.86 5.86 0 0 1 2.52 2.33 7 7 0 0 1 .89 3.58 7.01 7.01 0 0 1-.89 3.56 6.1 6.1 0 0 1-2.52 2.33 8.45 8.45 0 0 1-3.88.81h-5.63l.14-3.82h5.03c.82.05 1.63-.22 2.28-.74a2.7 2.7 0 0 0 .82-2.1 2.7 2.7 0 0 0-.82-2.09 3.31 3.31 0 0 0-2.28-.73h-4.46l2.05-1.84V91.4l-4.6.02ZM238.28 77v-4.22h15.47v4.21h-15.47Zm5.4 14.4V74.56h4.65v16.86h-4.65Zm20.89.39a10.5 10.5 0 0 1-5.13-1.25 9.34 9.34 0 0 1-4.86-8.45 9.34 9.34 0 0 1 4.87-8.44 10.35 10.35 0 0 1 5.12-1.25c1.8-.03 3.56.4 5.14 1.25a9.27 9.27 0 0 1 4.86 8.44 9.27 9.27 0 0 1-4.85 8.44 10.66 10.66 0 0 1-5.15 1.26Zm0-4.22c.95.02 1.9-.23 2.73-.71a4.87 4.87 0 0 0 1.87-1.94c.44-.87.67-1.84.66-2.81a5.97 5.97 0 0 0-.66-2.81 5 5 0 0 0-4.6-2.66 5.03 5.03 0 0 0-4.59 2.66 5.97 5.97 0 0 0-.66 2.8 6 6 0 0 0 .66 2.82 5.18 5.18 0 0 0 4.59 2.65Zm12.42 3.83V72.75h8.55a6.77 6.77 0 0 1 2.97.62c.82.37 1.5.97 1.98 1.74s.72 1.67.7 2.58c.02.95-.25 1.88-.78 2.67-.6.83-1.4 1.5-2.33 1.93l-.1-.93c1.1.3 2.1.97 2.8 1.88.7.88 1.06 1.96 1.05 3.08.02.95-.24 1.88-.73 2.7a5.08 5.08 0 0 1-2.07 1.8c-1 .43-2.07.64-3.15.6h-8.9Zm4.43-1.68-2.06-1.74h5.38c.69.05 1.38-.15 1.92-.58a1.96 1.96 0 0 0 .7-1.61 1.99 1.99 0 0 0-.7-1.62 2.94 2.94 0 0 0-1.92-.57h-4.9v-3.3h4.63c.45.02.9-.07 1.3-.24a1.92 1.92 0 0 0 1.14-1.86 1.93 1.93 0 0 0-.64-1.5 2.56 2.56 0 0 0-1.8-.58h-5.08l2.06-1.74-.03 15.34Zm-135.52 25.3v-18.7h12.76v3.7H148.3l2.13-1.95v15.22l-2.13-2h10.67v3.73H145.9Zm2.52-7.61v-3.63h9.55v3.63h-9.55Zm13.05 7.61v-18.7h8.55c1.03-.02 2.04.2 2.97.62a4.53 4.53 0 0 1 2.67 4.33c.03.95-.24 1.88-.77 2.67a6 6 0 0 1-2.32 1.92l-.11-.93c1.11.31 2.1.97 2.81 1.89a4.92 4.92 0 0 1 1.04 3.07 4.78 4.78 0 0 1-2.81 4.49c-.96.45-2.01.66-3.07.64h-8.96Zm4.43-1.67-2.05-1.74h5.37c.7.03 1.37-.17 1.93-.58a1.95 1.95 0 0 0 .69-1.61 1.97 1.97 0 0 0-.69-1.62 2.97 2.97 0 0 0-1.93-.58h-4.9v-3.28h4.6c.45 0 .9-.08 1.3-.26.35-.15.65-.4.84-.73.2-.34.3-.73.3-1.12a1.92 1.92 0 0 0-.63-1.5 2.56 2.56 0 0 0-1.8-.58h-5.08l2.05-1.74v15.34Zm12.83 1.67v-18.7h7.49a8.7 8.7 0 0 1 3.88.8 5.77 5.77 0 0 1 2.52 2.34c.6 1.1.9 2.33.87 3.58a6.88 6.88 0 0 1-.88 3.54 5.89 5.89 0 0 1-2.51 2.34 8.45 8.45 0 0 1-3.88.82h-5.63l.13-3.82h5.03c.83.04 1.64-.23 2.28-.75a2.69 2.69 0 0 0 .81-2.09 2.65 2.65 0 0 0-.81-2.1 3.33 3.33 0 0 0-2.28-.72h-4.47l2.06-1.84v16.54l-4.6.06Zm14.31 0 7.24-18.7h4.95l7.18 18.7h-4.79l-1.77-4.83-.08-.83-3.6-10.02h1.25l-3.77 10.19v.71l-1.75 4.78h-4.86Zm4.22-3 1.02-3.35h9.03l1.03 3.34h-11.08Zm23.73 3.27a12.47 12.47 0 0 1-7.51-2.52l2.13-3.2a8.11 8.11 0 0 0 5.05 1.7c.85.06 1.69-.12 2.44-.5a1.64 1.64 0 0 0 .78-1.41c0-.37-.1-.72-.3-1.03a1.9 1.9 0 0 0-.9-.64 3.68 3.68 0 0 0-1.41-.23h-3.69v-3.72h3.34c.6.03 1.2-.14 1.69-.5a1.63 1.63 0 0 0 .61-1.4 1.51 1.51 0 0 0-.71-1.33 3.76 3.76 0 0 0-2.07-.48 7.68 7.68 0 0 0-4.66 1.6l-2.05-3.1a11.58 11.58 0 0 1 10.83-1.8 5.2 5.2 0 0 1 2.35 1.76 5.07 5.07 0 0 1-.08 5.58 6.04 6.04 0 0 1-2.54 2.04v-1.25a6.04 6.04 0 0 1 3.01 1.98c.71.88 1.1 1.97 1.09 3.1a4.67 4.67 0 0 1-1.89 3.89 8.88 8.88 0 0 1-5.51 1.46Zm9.83-.27v-18.7h4.54v15.55l-1.66-2.05 9.71-13.5h3.94v18.7h-4.54V99.48l1.63 2.11-9.7 13.43h-3.92Zm19.89 0v-18.7h4.56v15.55l-1.66-2.05 9.7-13.5h3.94v18.7h-4.56V99.48l1.64 2.11-9.68 13.43h-3.94Z"/><path fill="#946FE4" d="m20.37 113.88-10.13-11.97 24.3-20.5-17.88-5A22.68 22.68 0 0 1 1.8 63.3a22.7 22.7 0 0 1 1.03-19.83l.2-.38a22.36 22.36 0 0 1 30.04-9l17.53 9.32a1.14 1.14 0 0 0 1.4-.21 1.4 1.4 0 0 0 .13-1.33l-7.51-20.46 14.73-5.4 7.88 21.43a15.43 15.43 0 0 1-.37 11.62 17.18 17.18 0 0 1-10.06 9.26 17.14 17.14 0 0 1-13.6-1.07l-17.56-9.32a6.62 6.62 0 0 0-8.89 2.67l-.2.38a7.16 7.16 0 0 0 1.5 8.8c.8.7 1.75 1.22 2.78 1.5l24.89 6.95a11.86 11.86 0 0 1 8.44 8.88 11.82 11.82 0 0 1-3.93 11.55l-29.86 25.21Z"/><path fill="#ED4023" d="M86.74 54.3A12.32 12.32 0 0 1 74.7 39.34L83.2 0l15.34 3.3-7.12 33 17.73-7.77 6.31 14.34-23.7 10.4c-1.59.7-3.3 1.05-5.03 1.04Z"/><path fill="#00BFFF" d="M97.38 123.25a22.23 22.23 0 0 1-15.65-6.39l-.13-.13-12.66-12.98a2.22 2.22 0 0 0-2.1-.66 2.26 2.26 0 0 0-1.8 1.76l-3.95 18.14-15.33-3.32 3.92-18.08A17.9 17.9 0 0 1 63.7 87.71a17.93 17.93 0 0 1 16.58 5.1l12.56 12.9a6.7 6.7 0 0 0 9.3-.07 7.74 7.74 0 0 0-1.8-11.78L79.68 81.42a10.86 10.86 0 0 1-5.12-11.34 10.85 10.85 0 0 1 8.82-8.8l41.98-7.58 2.81 15.46-29.62 5.39 9.84 5.96a23.38 23.38 0 0 1 10.32 26.96 23.3 23.3 0 0 1-5.13 8.91l-.18.19a22.19 22.19 0 0 1-15.75 6.72l-.26-.04Z"/></svg>