<svg xmlns="http://www.w3.org/2000/svg" fill="none" viewBox="0 0 361 72"><path fill="#171C6B" d="M120.79 17.7h1.49l4.52 7.3h5.42l-6-9.47 5.8-9.06h-5.4l-4.39 7.14h-1.44V6.47h-4.65V25h4.65v-7.3Z"/><path fill="#171C6B" d="M147.24 7.38a10.56 10.56 0 0 0-5.14-1.26 10.2 10.2 0 0 0-5.1 1.26 9.04 9.04 0 0 0-3.57 3.42 9.98 9.98 0 0 0 0 9.87 9.18 9.18 0 0 0 3.57 3.44c1.57.84 3.32 1.27 5.1 1.24 1.8.02 3.56-.4 5.14-1.24a9.18 9.18 0 0 0 3.57-3.44 10.17 10.17 0 0 0 0-9.87 9.04 9.04 0 0 0-3.57-3.42Zm-.54 11.13a4.97 4.97 0 0 1-4.6 2.63 5.2 5.2 0 0 1-2.7-.7 4.88 4.88 0 0 1-1.86-1.93 6.12 6.12 0 0 1 0-5.57 4.88 4.88 0 0 1 1.86-1.93c.82-.47 1.76-.7 2.7-.7a5.02 5.02 0 0 1 4.6 2.63 6.23 6.23 0 0 1 0 5.57Zm12.46 1.29h2.8a8.75 8.75 0 0 0 3.89-.81 5.87 5.87 0 0 0 2.51-2.33c.6-1.07.9-2.3.87-3.52a6.91 6.91 0 0 0-.87-3.55 5.8 5.8 0 0 0-2.51-2.3 8.75 8.75 0 0 0-3.88-.8h-7.48v18.54h4.65l.02-5.24Zm4.62-8.68a3 3 0 0 1 0 4.18 3.3 3.3 0 0 1-2.28.75h-2.4v-5.57h2.4c.81-.08 1.62.14 2.28.61v.03Zm12.31-.42h6.87V25h4.65V6.47h-16.17V25h4.65V10.7Zm32.66 9.97a10.17 10.17 0 0 0 0-9.87 9.04 9.04 0 0 0-3.56-3.42 10.56 10.56 0 0 0-5.15-1.26 10.2 10.2 0 0 0-5.1 1.26 9.04 9.04 0 0 0-3.57 3.42 9.99 9.99 0 0 0 0 9.87 9.18 9.18 0 0 0 3.52 3.44 10.4 10.4 0 0 0 5.1 1.24c1.79.02 3.56-.4 5.14-1.24a9.18 9.18 0 0 0 3.62-3.44Zm-4.11-2.14a4.97 4.97 0 0 1-4.6 2.63 5.2 5.2 0 0 1-2.7-.7 4.88 4.88 0 0 1-1.86-1.93 6.12 6.12 0 0 1 0-5.57 4.88 4.88 0 0 1 1.87-1.94c.82-.46 1.75-.7 2.7-.7a4.97 4.97 0 0 1 4.6 2.63 6.22 6.22 0 0 1-.01 5.58Zm12.46 1.27h2.81a8.75 8.75 0 0 0 3.88-.81 5.87 5.87 0 0 0 2.51-2.33 6.8 6.8 0 0 0 .89-3.52 6.9 6.9 0 0 0-.89-3.55 5.8 5.8 0 0 0-2.51-2.3 8.75 8.75 0 0 0-3.88-.8h-7.46v18.54h4.65v-5.24Zm4.62-8.68a3 3 0 0 1 0 4.18 3.3 3.3 0 0 1-2.27.75h-2.4v-5.57h2.4c.8-.08 1.61.14 2.27.61v.03Zm17.14-4.65h-4.93L226.68 25h4.85l1.1-3h7.51l1.11 3h4.78l-7.17-18.53Zm-2.44 4.7 2.74 7.52h-5.55l2.8-7.53Zm8.25-.5h5.42V25h4.65V10.67h5.4v-4.2h-15.47v4.2Zm22.23 6.88V6.47h-4.54V25h3.91l8.06-11.07V25h4.53V6.47h-3.92l-8.05 11.08Zm29.41 5.03a5.11 5.11 0 0 0-.3-5.72 5.14 5.14 0 0 0-1.79-1.4 5.66 5.66 0 0 0 1.4-1.39c.53-.78.8-1.7.78-2.64a4.8 4.8 0 0 0-.69-2.58 4.57 4.57 0 0 0-1.98-1.71 6.87 6.87 0 0 0-2.97-.61h-8.54v18.53h8.92c1.06.02 2.11-.2 3.08-.63a4.99 4.99 0 0 0 2.1-1.85Zm-4.81-12.16a1.93 1.93 0 0 1 .63 1.5 1.96 1.96 0 0 1-1.13 1.85c-.4.17-.86.26-1.3.25h-3.02V9.84h3.02c.65-.03 1.29.17 1.8.58Zm.42 10.63c-.56.4-1.24.6-1.93.57h-3.31v-4.35h3.31c.7-.04 1.37.16 1.93.57a2.2 2.2 0 0 1 .7 1.6 2.17 2.17 0 0 1-.7 1.6ZM311 13.46h-6.86V6.47h-4.65V25h4.65v-7.3H311V25h4.65V6.47H311v6.99Zm19.57-.45c-1.2-.53-2.5-.8-3.81-.76h-3.08V6.47h-4.63V25h7.71a8.84 8.84 0 0 0 3.84-.77 5.6 5.6 0 0 0 2.47-2.2c.6-1.03.9-2.21.86-3.4a6.56 6.56 0 0 0-.88-3.42 5.6 5.6 0 0 0-2.48-2.2Zm-2.01 7.47a3.5 3.5 0 0 1-2.33.65h-2.59v-5.15h2.59a3.5 3.5 0 0 1 2.33.67 2.46 2.46 0 0 1 .77 1.92 2.38 2.38 0 0 1-.77 1.9ZM341.1 6.47h-4.65V25h4.66V6.47Zm15.98 0-8.05 11.08V6.47h-4.54V25h3.92l8.05-11.07V25H361V6.47h-3.92Zm-4.14-1.78a4.84 4.84 0 0 0 3.02-.84 3.87 3.87 0 0 0 1.3-2.57l-2.8-.53c-.03.4-.2.8-.48 1.1a1.4 1.4 0 0 1-1.05.36c-.38.02-.76-.1-1.05-.36-.3-.3-.46-.69-.48-1.1l-2.8.53a3.8 3.8 0 0 0 1.29 2.57c.89.62 1.96.91 3.05.84ZM120.58 44.17c-.43.24-.91.37-1.4.36-.6 0-1.2-.1-1.76-.29l-.92 3.98a10 10 0 0 0 3.1.47 6.5 6.5 0 0 0 3.6-.9 6.97 6.97 0 0 0 2.36-3l7.03-14.95h-5.14l-1.6 3.88-2.05 4.84-2.25-4.84-1.8-3.82h-5.13l6.73 13.42c-.18.34-.45.63-.77.85Zm25.45-7.34h-6.85v-6.98h-4.65v18.52h4.65v-7.3h6.85v7.3h4.66V29.85h-4.66v6.98Zm24.57 11.54V29.85h-3.94l-8.04 11.08V29.84h-4.53v18.53H158l8.05-11.06v11.06h4.53Zm15.34-9.6a5.27 5.27 0 0 0 1.4-1.4c.53-.78.8-1.7.78-2.64a4.57 4.57 0 0 0-2.67-4.29 6.67 6.67 0 0 0-2.97-.6h-8.55v18.52h8.93a7 7 0 0 0 3.06-.64c.86-.38 1.58-1 2.08-1.78a5.11 5.11 0 0 0-2.06-7.17Zm-2.73-4.97a1.9 1.9 0 0 1 .65 1.5c0 .39-.1.77-.3 1.1-.2.33-.49.58-.84.74-.4.17-.85.26-1.3.25h-3.01v-4.18h3.02c.64-.03 1.28.18 1.78.59Zm.44 10.62c-.56.4-1.24.6-1.93.57h-3.31v-4.31h3.31c.7-.05 1.38.15 1.93.57a2.21 2.21 0 0 1 0 3.2v-.03Zm12.11-3.59h7.5v-3.6h-7.5v-3.74h8.19v-3.65H191.2v18.53h13.06v-3.7h-8.51v-3.84Zm22.35-10.19a8.75 8.75 0 0 0-3.88-.8h-7.47v18.53h4.65v-5.23h2.81a8.75 8.75 0 0 0 3.88-.8 5.95 5.95 0 0 0 2.5-2.34 6.8 6.8 0 0 0 .97-3.51 6.9 6.9 0 0 0-.88-3.55 5.81 5.81 0 0 0-2.59-2.31Zm-2.08 7.96c-.63.53-1.45.8-2.27.74h-2.4v-5.57h2.4a3.3 3.3 0 0 1 2.27.74 3 3 0 0 1 0 4.18v-.09ZM236 43.88a6.05 6.05 0 0 1-5.51-.03 4.73 4.73 0 0 1-1.83-1.92 6.41 6.41 0 0 1 0-5.57c.4-.8 1.03-1.46 1.8-1.92a5.74 5.74 0 0 1 5.29-.07c.85.44 1.6 1.07 2.19 1.82l2.8-2.96a10.13 10.13 0 0 0-7.84-3.7 9.66 9.66 0 0 0-5 1.26 8.67 8.67 0 0 0-3.35 3.45c-.8 1.51-1.2 3.2-1.18 4.9a9.97 9.97 0 0 0 1.2 4.93 8.57 8.57 0 0 0 3.38 3.43 9.9 9.9 0 0 0 5.03 1.25c1.57 0 3.13-.31 4.56-.95a9.47 9.47 0 0 0 3.67-2.86L238.4 42a7.38 7.38 0 0 1-2.4 1.88Zm11.7-2.95V29.84h-4.55v18.53h3.93l8.04-11.06v11.06h4.55V29.85h-3.93l-8.04 11.08Zm14.16-6.88h5.43v14.32h4.65V34.05h5.4v-4.2h-15.48v4.2Zm22.24 6.78h7.5v-3.6h-7.5v-3.74h8.2v-3.65h-12.75v18.53h13.07v-3.7h-8.53v-3.84Zm10.2-6.78h5.43v14.32h4.65V34.05h5.4v-4.2H294.3v4.2ZM120.69 64.2h7.5v-3.6h-7.5v-3.73h8.19v-3.65h-12.74v18.53h13.06v-3.7h-8.51V64.2Zm17.44-11-7.25 18.53h4.84l1.1-2.99h7.49l1.1 3h4.77l-7.11-18.53h-4.94Zm2.48 4.7 2.74 7.53h-5.55l2.81-7.53Zm11.64 13.85h4.65V57.42h7.39v-4.2h-12.04v18.53Zm30.09-18.53h-5.4l-4.38 7.14h-1.45v-7.14h-4.65v18.53h4.65v-7.31h1.5l4.52 7.3h5.42l-6-9.46 5.79-9.06ZM32.95 53.1V39.16a33.1 33.1 0 0 0-23.3 9.56A32.5 32.5 0 0 0 0 71.82h14.12a18.54 18.54 0 0 1 5.5-13.23 18.87 18.87 0 0 1 13.33-5.5Zm33.07-13.98H51.97c0 4.94-1.99 9.69-5.52 13.18a18.93 18.93 0 0 1-13.3 5.47v14a33.1 33.1 0 0 0 23.25-9.6 32.5 32.5 0 0 0 9.62-23.05Z"/><path fill="#946FE4" d="M66.02 57.76v13.99a33.21 33.21 0 0 0 23.3-9.56 32.63 32.63 0 0 0 9.65-23.09H84.85c0 4.95-2 9.7-5.52 13.19a18.93 18.93 0 0 1-13.3 5.47Z"/><path fill="#171C6B" d="M33.07 20.46V6.47A33.1 33.1 0 0 0 9.8 16.03 32.5 32.5 0 0 0 .14 39.1h14.12c0-4.94 2-9.68 5.52-13.17 3.53-3.5 8.3-5.46 13.3-5.47Z"/><path fill="#ED4023" d="M33.07 25.13v13.92a33.2 33.2 0 0 0 23.3-9.56 32.61 32.61 0 0 0 9.65-23.08H51.97a18.52 18.52 0 0 1-5.52 13.25 18.85 18.85 0 0 1-13.38 5.47Z"/><path fill="#00BFFF" d="M84.85 6.47c0 4.95-2 9.69-5.52 13.19a18.93 18.93 0 0 1-13.3 5.47v13.92a33.2 33.2 0 0 0 23.29-9.56 32.61 32.61 0 0 0 9.65-23.08H84.85v.06Z"/></svg>