<svg xmlns="http://www.w3.org/2000/svg" preserveAspectRatio="xMidYMid meet" viewBox="0 0 207 80"><g><path d="M24.75 34.65c-.08.15-.16.1-.23.08-.08-.04-.22-.13-.16.09s0 .08 0 .08c-.33-.2-.46.1-.66.25a.3.3 0 0 1-.34.07.3.3 0 0 1-.1-.07.42.42 0 0 0 .44-.4c0-.13.1-.26.22-.2.1.07.58.11.88.18M5.06 62.27c.17 0 .22-.22.34-.33.13.4 0 .67-.3.72-.3.05-.23 0-.2-.19.03-.18.2-.39-.17-.33v-.09c0-.02.1-.27.25-.31.14-.05 0 .09 0 .1v.43m6.08-30.4c0 .14.12.25 0 .46-.2-.44-.54-.77-.44-1.3.14.13.25.28.34.45 0 .11-.12.3 0 .4h.1Zm1.97 26.14c-.12-.33.16-.5.29-.74.12-.24.1 0 .15 0a.17.17 0 0 1 0 .22c-.1.2-.26.39-.45.51m-1.34-2.41c-.09.11 0 .25-.22.28-.22.03-.33-.1-.33-.33a.16.16 0 0 1 .2-.15c.13.03.25.1.35.2Zm4.13-3.54c-.07.24-.18.46-.34.66 0 .09-.14.18-.25.09-.11-.1 0-.17 0-.25l.53-.5m5.78-5.32a1.57 1.57 0 0 1-.3.76.77.77 0 0 1 .3-.76Zm4.24-11.52a.17.17 0 0 1-.16-.14c0-.1-.12-.17 0-.28a.27.27 0 0 1 .24-.08s.1 0 0 0 .1.33 0 .45M8.3 58.73c-.14 0-.25 0-.22-.18a.19.19 0 0 1 .23-.18c.18 0 .16.09 0 .36h-.01Zm2.38-2.03c.12-.12 0-.34.2-.36.18-.01.17.18.15.29-.02.1-.22 0-.34 0m.09-24.4s.25 0 .25.22-.1.14-.19.14a.17.17 0 0 1-.16-.2s0-.16.1-.16Zm13.88 3.09v.1a.31.31 0 0 1-.19-.3h.16c.17 0 .19.14.19.26m3.01.46c-.22.1-.34.22-.48.1a.2.2 0 0 1 0-.16c.14-.18.23 0 .45 0M10.55 59.84c-.07 0-.15 0-.14-.14a.3.3 0 0 1 .3-.14s.13 0 .11.08c-.01.07-.17.14-.27.2Zm.87-.75v-.2c.08-.08.18-.14.28-.2 0 0-.13.15-.2.2l-.15.12m-6.83 3.45v.12c-.15 0-.1.25-.28.2-.17-.07 0-.12 0-.12l.38-.2m18.84-27.9c-.16 0-.3 0-.31-.2-.02-.2 0-.1 0-.09s.19.11.25.3m-4.32-1.18c.11 0 .24 0 .28.13v.08c0-.1-.3 0-.28-.22v.01Zm-2.78-.55c.11 0 .2-.17.31 0a.17.17 0 0 1 0 .13c-.12 0-.2 0-.3-.08m3.35 1.02c-.14.17-.27.16-.44 0h.44ZM7 61.51a.22.22 0 0 1 .33-.12v.1H7M22.7 45.82c.19.16.16.25.1.36-.07.11 0-.18-.1-.36Zm.2-11.75c0 .14-.15.14-.33.22.1-.2.18-.24.33-.22Zm-6.58-.98c.13-.14.27 0 .4 0-.13 0-.26.13-.4 0Zm10.75 2.81v-.47c0 .17.12.27 0 .47Z"/><path d="M26.32 35c-.22.12-.3 0-.47 0h.47ZM13.49 56.24v.22c0-.03.13 0 .11-.1s-.03-.12-.11-.12Zm6.63-20.95a.72.72 0 0 1 0-.35c0-.09 0-.16-.16-.2s-.2.12-.17.23a.49.49 0 0 0 .33.33ZM20.46 48a.69.69 0 0 0-.3.7c0 .25 0 .44-.26.55-.27.11-.33.27 0 .47.1-.22.1-.22.37-.34a.94.94 0 0 0 .35-.77c-.1-.2-.42-.4-.16-.61Zm.33.64.16-.17c-.11.01-.24.01-.16.17Zm-.19-13.42.3-.16-.47-.18a.6.6 0 0 1 0 .18c0 .1-.1.24 0 .3s.08-.14.17-.14Zm-1.49 14.77c.1.08.16.34.27.22.1-.13.33-.16.53-.3a1.15 1.15 0 0 0-.8.08Zm-6.4 7.6c0-.14.14-.36-.16-.33a1.87 1.87 0 0 0-.85.38l.34.19c0-.3.29-.27.41-.41.13-.14.16.13.25.19v-.02Zm-2.46-.42c-.1 0-.17 0-.26-.13-.1-.12-.14.22-.32.24-.17.01 0 .1 0 .12.13.03.27.03.4 0 .14 0 .19-.17.17-.31l.02.08ZM9.2 58.57c.2.1.18.3.22.45.05.16 0 0 .1 0s0 0 0-.1a2.22 2.22 0 0 1-.13-.66c-.12.06-.12.2-.19.3Zm8.77-25.4c-.08.16-.11.33-.11.5a.4.4 0 0 0 .1-.5Zm4.17-8.93c.2-.13.43-.18.55-.4a.1.1 0 0 0 .03-.12.1.1 0 0 0-.03-.03.17.17 0 0 0-.15 0 .97.97 0 0 0-.38.55h-.02ZM7.73 59.7c-.1.1-.11.27-.25.33a.49.49 0 0 0 .4-.19v-.18c0-.07-.1.01-.15.04Zm8.66-35.33a1.13 1.13 0 0 0 0-.3l-.09.17c-.03.1.02.14.1.13Zm10.98-3.81h.18c.03 0 0-.17 0-.27a.34.34 0 0 0-.18.27Zm-8.5 14.42c.1.1 0 .35.29.16.3-.19.33 0 .45.23-.17 0-.3-.08-.42 0a.65.65 0 0 0 .82 0c-.32 0-.11-.33-.41-.33s-.44-.1-.74-.06Zm-4.33-9.62h.1c.1 0 .12-.15.22-.27h-.13a1 1 0 0 0-.19.27Z"/><path d="M0 0v79.95h37.4V0H0Zm31.61 17.84c-.25.08-.42.33-.72.34-.3.02-.4.26-.63.32-.23.06-.1 0 0 0s.14.16 0 .22-.17 0-.23-.13a.88.88 0 0 0-.11.25c0 .2-.11.38-.35.35-.23-.03 0-.28-.16-.38-.15-.1 0 .3 0 .46 0 .15.1.33 0 .33a.36.36 0 0 1-.44-.27v-.2a.25.25 0 0 0-.23.14c0 .1 0 .12.1.18l.17.11a.33.33 0 0 1 0 .43c-.16.2-.16 0-.24-.11-.08-.11-.3-.19-.38.12-.1.26-.24.51-.4.74 0 .08 0 .11-.16.1-.61-.1-.75.13-.9.56-.23-.2-.23-.2-.36.08-.53.14-.66.75-1.16.94-.25.1-.31.52-.68.56a.45.45 0 0 0-.25-.4c-.22-.13-.14-.34 0-.52.15-.2.15-.22 0-.27-.14-.05-.12.16-.14.22-.01.06-.1.55-.4.7.1.13.26 0 .37.12a.88.88 0 0 1-.49.26c-.1 0-.28 0-.14.28.14.29 0 .49-.14.71-.14.22-.12.12-.17 0-.05-.13-.22-.11-.28 0-.07.11-.2.19-.41.19s0-.13-.11-.17c-.22.32-.38.7-.87.73-.1 0-.18.1-.25 0h-.12c-.14.25-.52.13-.66.46s-.44.39-.72.53c-.29.14-.1-.14-.18-.19-.3.3-.5.72-.9.9a5.4 5.4 0 0 0-1.26.73.19.19 0 0 1-.29 0c-.12-.1-.31.08-.4.24a1.77 1.77 0 0 1-.96.84h-.32c.3.14.16.33 0 .5s-.63.6-.67 1.07c0 0-.57 0-.35.38.22.37 0 .44.17.6-.12.12-.26 0-.47.13.54-.09.6.13.57.52-.03.4.3.17.47.28.17.11.17 0 .2 0s0 .13-.14.18c-.14.04-.17.14-.1.22.06.07.18.07.29 0 .11-.08.38-.33.58 0 0 0 .19.12.1.2-.1.08-.16 0-.22-.11l-.08-.11c-.08-.11-.18.3-.35.33-.17.03-.1.2-.12.31-.02.11.12.11.22.13.32.1.67.1 1 0a.23.23 0 0 0 .16.26.17.17 0 0 0 .23-.12c.11-.22.48-.16.54-.47H18c.12 0 .2.16.33.08s.12 0 .17 0c.05 0-.16.08 0 .17.16.1.58-.11.64.3.14 0 .32-.47.41 0l-.25.22c-.1.1-.14.14-.22 0-.08-.14-.2 0-.31 0-.11 0-.27.22-.43 0a.33.33 0 0 0-.34.14h.44s.15 0 .17.08c.02.08-.1.12-.17.14-.08.01-.25-.17-.38 0 .2.17.52.15.66.39.14-.13.14-.28.2-.42.07-.14 0-.2.16-.2s0 0 .1.09 0 .18 0 .26c0 .08-.26.24-.15.43.11.18 0 .22.13 0s.2-.5.46-.11c.2-.18.39 0 .6 0 .2 0 .12 0 .15-.14.03-.15.4-.32.56-.5.18-.2.22 0 .27 0 .05 0 0 .13-.1.23-.09.1.29-.1.37-.19.08-.1.27-.3.55 0a.42.42 0 0 1 0-.2.13.13 0 0 1 .17 0c.13.08 0 0 0 .12v.28c0 .02.27.18.4 0a.38.38 0 0 1 .34-.15v.1c0 .09-.17.18-.28.23a.75.75 0 0 0-.26.12c.15.1.26 0 .37 0 .1 0 .17 0 .18.13.02.12 0 .19-.17.16a2.33 2.33 0 0 0-1.2.26c.3.14.73.22.8 0a.33.33 0 0 1 .5-.17c.13.04.27.04.4 0h.33c.1 0 .14 0 0 .12-.14.13 0 .2 0 .3 0 .11.32.38.62.25a.33.33 0 0 1 .3 0c.22.14.37 0 .53-.09a.1.1 0 0 1 0-.1c.2-.1.44-.14.67-.12.1 0 .22 0 .22.11s0 .17-.17.19a.58.58 0 0 0-.22.1.68.68 0 0 0 1.1-.18c0-.11.11-.28.28-.24.18.05.22.13.2.24-.04.11-.18 0-.32.08.3.1.3.42.55.55.25.12.23.12.36 0a.24.24 0 0 1 .27 0c.28.2.28.2.55 0 .17.28.4 0 .6.1-.2.23.13.46 0 .7-.12.23-.13 0-.18 0a.77.77 0 0 0-.3-.16c0 .17.11.34.14.5a.25.25 0 0 0 .22.25c.11 0 .13-.1.18-.19.04-.08.14-.28.18-.42.05-.14.1-.17.2-.16.12.02.1.13 0 .2a2.8 2.8 0 0 1-.2.95c0 .14 0 .2.16.28.35.18.64.45.86.77.1.19.24.36 0 .58.11.1-.23.45.2.34v.13a5.57 5.57 0 0 1-.78 3.5c-.26.45-.55.89-.84 1.34 0 0 0 .16-.2.11-.18-.04-.42.22-.46.47-.05.25 0 .65-.52.68-.52.03-.2.3-.29.48 0-.2-.33-.37 0-.6.33-.21 0-.2 0-.29a.08.08 0 0 0-.06-.03.08.08 0 0 0-.06.03.27.27 0 0 0-.1.25 2.2 2.2 0 0 1-1.13 1.96c-.18.52-.28 0-.44 0-.26.28-.25.74-.51 1.05-.27.31-.27.31-.5.13-.24-.2-.27 0-.35.1a5.76 5.76 0 0 1-1.38 1.45c-.29.17-.5.51-.93.36-.11 0-.13.1-.1.14.18.28 0 .34-.21.42-.8.34-1.56.74-2.28 1.21-.2.11-.17.3-.25.44-.2.37-.22.4-.5.1-.24.3-.13.78-.48 1.04 0-.14-.1-.15-.22-.08a.28.28 0 0 1-.33 0c-.17-.09 0-.17 0-.26-.33 0-.33 0-.36.26-.14 0-.1-.2-.25-.15a.13.13 0 0 0 0 .12.4.4 0 0 0 .4.3l-.24.1c-.32 0-.63 0-.7.5-.06.5-.59.75-.95 1.06-.33.25-.64.53-.93.83a1.76 1.76 0 0 1-.58.33c-.14 0-.14 0-.12-.12a.79.79 0 0 1 .2-.3c.2-.2.35-.44.47-.69-.17 0-.4-.13-.33.2.08.33 0 .22-.17.22a.33.33 0 0 0-.36.35.16.16 0 0 1-.22.14c-.29-.13-.25 0-.25.23a.3.3 0 0 1-.29.3v.28s0 .18-.14.11a.7.7 0 0 0-.5 0c-.16 0-.42 0-.44.33-.02.33-.16.22-.19.16s-.36 0-.49-.1c0 .38-.69.4-.51.9a.11.11 0 0 1-.18.13.31.31 0 0 0-.4 0c0-.2.26-.27.14-.49-.2.11-.3.44-.62.3.24.44-.4.28-.39.58-.17-.25-.25.1-.33 0-.08-.11-.22.15-.2.18a.19.19 0 0 1-.14.24c-.43-.14-.43.25-.57.44-.14.19 0 0-.1.08s0-.32 0-.52c-.2.17-.48.22-.3.55a.19.19 0 0 1 0 .25c-.16.08-.15-.14-.26-.17-.16.15.28.3 0 .47s-.36.12-.34.39c-.15 0-.29-.16-.44 0a.3.3 0 0 1-.4.1.42.42 0 0 0 0-.48s0-.18.1-.2c.1-.02.19 0 .19.14s0 .17.09.13c.1-.05.19 0 .19-.22a4.88 4.88 0 0 1 0-.68v-.1c0-.12.1.15 0 .24a.16.16 0 0 0 0 .24c.12 0 .16 0 .2-.13.05-.12 0-.4-.1-.6-.23.18-.51.29-.62.6a.55.55 0 0 1-.12-.6c0-.23.23-.2.42-.13.19.06.61-.16.47-.35-.14-.19.13-.31.17-.47.05-.16 0 .25.14.25.15 0 .22 0 .22-.19v-.09c0-.1.16-.24.27-.19.11.05 0 .19 0 .33s.27-.2.43-.1c.15.09.15 0 .18-.1.04-.1.18-.38.25-.58.18.1 0 .23 0 .36H9c.13 0 .2 0 0-.14s0-.08 0-.11c.23-.41.23-.43-.27-.46.27-.14.52-.25.62-.53a.11.11 0 0 1 .17 0c.14.23.25 0 .36 0 .1 0 .13 0 0-.13-.13-.12 0 0-.14 0s-.16 0-.11-.17-.13 0-.17-.12c-.05-.13.33-.24.34-.5.02-.27.31 0 .49-.1s0 .13 0 .2l.14.2c.16 0 .36 0 .5-.13s.14.08.19.14a.5.5 0 0 0 .28.28c.11-.36-.33-.72 0-1.08.14 0 0 .28.2.19.21-.1.18-.11.16-.22a.17.17 0 0 0-.2-.11c-.2 0-.31-.11-.46-.2a.13.13 0 0 1-.03-.15.13.13 0 0 1 .03-.04c0-.08.13 0 .2 0 .3.3.67.14 1.01.15.35.02.22-.3.27-.45.05-.16-.19-.16-.33-.24 0 .2-.04.41-.13.6a.56.56 0 0 1 .23-.75s.12 0 .15-.08c.36-.57 1.07-.55 1.57-.85.11-.08.2-.1 0-.22.16-.1.2-.39.49-.31.3.08.31 0 .34-.2.04-.21.2-.2.32-.15.12.05.22 0 .27-.14a1.43 1.43 0 0 1 .75-.94c.1 0 .2-.1.13-.27-.08-.17 0-.3.12-.47.13-.15.08-.09.1 0 .01.1.47 0 .67.08a.16.16 0 0 0 .14 0c.32-.14.68-.17.8-.64a1.3 1.3 0 0 1 .87-1c.28-.08.25-.44.3-.68.04-.23 0-.22.18-.23.2-.02.35-.2.22-.44-.12-.25-.14-.46.2-.57l.62-.14h.16c.01 0 .26-.15.4-.17.15-.02.3 0 .37-.19.06-.19.18-.25.23 0 .05.25.17 0 .27 0h.1s0-.15-.16-.14c-.18.02-.1.08-.1 0a.17.17 0 0 1 0-.1c.33 0 .44-.34.68-.51.23-.17.12-.14.22-.1.1.05-.08.12 0 .16.07.05 0 .22.14.22s.1 0 .12-.16c.21-.46.27-.98.16-1.48a.22.22 0 0 1 .1-.25.47.47 0 0 1 .36-.16c.31 0 .2-.36.39-.38.19-.01.31.27.5 0h-.31c0-.53.67-.6.88-1.06 0 .15 0 .28.07.39.08.1 0 .14.15.08.14-.07.22-.11.1-.22-.47-.46 0-.74.23-1.02.4-.51.74-1.08.99-1.68.17-.45.1-.66-.41-1.05-.52-.4-.85-.45-1.24-.72a8.57 8.57 0 0 0-2.8-.9 83.87 83.87 0 0 1-3.99-1.2c-.19 0-.4 0-.56-.24-.16-.23-.25 0-.35.1-.1.1-.33.15-.42 0-.1-.16-.36-.2-.58-.16a1.48 1.48 0 0 1-.68-.2 20.38 20.38 0 0 0-1.27-.44 2.32 2.32 0 0 1-.74-.55c-.22-.2-.36-.49-.69-.55-.33-.06 0-.1-.1-.16 0-.31-.12-.62-.57-.5h-.1v-.1c.13-.1.28 0 .43-.09l-.46-.55c-.16-.17-.17-.12-.11 0 .06.13 0 .08-.1.08s-.3-.2-.39-.34c-.1-.14-.22-.17 0-.28.22-.11 0-.3 0-.44a.95.95 0 0 0-.31-.88c0-.27.14 0 .2 0h.22c.07 0 0-.13 0-.2l-.19-.88h-.18c-.07 0-.27.12-.2-.13.05-.25-.13-.31-.21-.45-.08-.14-.2-.4.12-.44.33-.05.13-.17.13-.27a2.65 2.65 0 0 1 .99-1.79c.14-.14.4-.23.48-.5.08-.26 0-.31-.25-.3.44-.21.78-.58.98-1.03.1-.2.22-.5.6-.4.4.09.58-.32.62-.6.05-.29 0-.1 0-.1s.29-.1.35.1c.06.19 0 .1.1 0 .12-.1 0-.38.27-.32s.11-.28.32-.26c0 .34 0 .34.55.3 0-.12-.16 0-.22-.1s.14-.12.19-.19c.04-.06.26-.19 0-.34-.27-.16 0-.2 0-.32a8.41 8.41 0 0 1 2.73-1.28 3.97 3.97 0 0 0 1.98-1.2c.25-.32.56 0 .81-.17.25-.15.32 0 .38-.26.06-.27.19-.13.3-.11.11.01.33 0 .31-.24-.01-.23.2-.3.4-.34.18-.05.55 0 .58-.46 0-.07.1-.1.19-.12.2-.03.38-.1.56-.17a2.42 2.42 0 0 1 1.27-.27c.13 0 .27 0 .33-.1s.32-.14.44 0c.13.15.35 0 .36-.09.02-.1.18-.33.38-.39.28-.11.55-.26.79-.44a3.8 3.8 0 0 1 1.27-.42c.34-.08.81-.25 1.07-.1a1.57 1.57 0 0 0 1.4.1s.1 0 .1.1-.01.5-.1.54Z"/><path d="M17.75 34.87a.16.16 0 0 0 .15.1s.1 0 .1-.07c0-.08 0-.13-.13-.13-.12 0-.14.06-.12.1Zm-.25-1.57c.09 0 .15 0 .14-.19a.1.1 0 0 0-.08-.12.11.11 0 0 0-.05 0s-.22 0-.19.15a.2.2 0 0 0 .17.16Zm2.16 1.57h-.49l.48.1a.2.2 0 0 1 .01-.1Zm-1.6-.22c-.13 0-.42-.55-.4.15.09-.31.29-.15.4-.15Zm40.97 5.97a7.07 7.07 0 0 1-2.6-1.43l.83-1.77a7.07 7.07 0 0 0 2.32 1.33c.94.33 1.92.5 2.9.5a5.32 5.32 0 0 0 2.96-.65 2.1 2.1 0 0 0 .97-1.79 1.7 1.7 0 0 0-.53-1.32 3.55 3.55 0 0 0-1.32-.78 32.05 32.05 0 0 0-2.2-.61 20.03 20.03 0 0 1-2.89-.87 4.71 4.71 0 0 1-1.88-1.31 3.54 3.54 0 0 1-.79-2.42 3.95 3.95 0 0 1 .68-2.27 4.46 4.46 0 0 1 2.02-1.57 8.22 8.22 0 0 1 3.38-.6 10.38 10.38 0 0 1 2.76.35 7.26 7.26 0 0 1 2.34 1.04l-.75 1.82a8.22 8.22 0 0 0-2.13-.98 7.86 7.86 0 0 0-2.22-.33 4.88 4.88 0 0 0-2.89.71 2.13 2.13 0 0 0-.96 1.8 1.75 1.75 0 0 0 .54 1.34c.39.35.85.62 1.35.78.53.19 1.27.4 2.18.61.98.22 1.95.5 2.89.85a5.2 5.2 0 0 1 1.87 1.31c.54.68.82 1.52.77 2.39 0 .8-.23 1.6-.68 2.27a4.62 4.62 0 0 1-2.05 1.57 8.43 8.43 0 0 1-3.41.6 10.71 10.71 0 0 1-3.46-.55m26.53-15.46V41H83.3v-7.07h-9.11v7.07h-2.26V25.18h2.26v6.8h9.1v-6.8h2.27Zm10.83 10.34v5.5h-2.24v-5.54l-6.3-10.32h2.42l5.09 8.36 5.09-8.36h2.24l-6.3 10.36Zm23.03 5.5-.04-11.55-5.73 9.61h-1.03l-5.74-9.54V41h-2.18V25.18h1.87l6.61 11.11 6.52-11.11h1.87l.01 15.83h-2.16Zm17.3-2.49a2.2 2.2 0 0 0 .98-1.99c0-1.77-1.3-2.65-3.88-2.65h-5.2v5.27h5.2a5.37 5.37 0 0 0 2.9-.63ZM128.62 27v5.08h4.71a4.72 4.72 0 0 0 2.69-.65 2.11 2.11 0 0 0 .94-1.88 2.16 2.16 0 0 0-.94-1.9 4.72 4.72 0 0 0-2.69-.64l-4.71-.01Zm10.57 7.18c.55.73.83 1.62.8 2.54a3.69 3.69 0 0 1-1.57 3.13 7.77 7.77 0 0 1-4.52 1.1h-7.57V25.1h7.11a6.93 6.93 0 0 1 4.2 1.1 3.5 3.5 0 0 1 1.49 3c.01.76-.18 1.5-.57 2.16a4 4 0 0 1-1.57 1.38c.86.2 1.62.69 2.17 1.38m5.96 5.23a7.13 7.13 0 0 1-1.75-5.2v-9h2.26v8.92c0 3.39 1.48 5.08 4.46 5.08a4.25 4.25 0 0 0 3.33-1.25 5.5 5.5 0 0 0 1.16-3.83v-8.92h2.2v9a7.12 7.12 0 0 1-1.78 5.22 7.64 7.64 0 0 1-9.88 0m16.29-14.2h2.28v13.86h8.57V41h-10.85V25.18Zm24.44 10.03-3.43-7.76-3.42 7.76h6.85Zm.78 1.82h-8.42l-1.74 3.95h-2.34l7.18-15.83h2.24l7.21 15.83h-2.39l-1.74-3.95ZM204 25.18l-8.61 8.84v-8.84h-2.26V41h2.26v-4.1l2.9-2.93 6.07 7.03H207l-7.2-8.7 6.78-7.12h-2.6ZM85.73 50.76a3.13 3.13 0 0 1 .82 2.39v4.21H85.2V53.3a2.32 2.32 0 0 0-.48-1.57 1.8 1.8 0 0 0-1.42-.53 2.08 2.08 0 0 0-1.57.63 2.55 2.55 0 0 0-.6 1.8v3.78h-1.33v-4.06a2.32 2.32 0 0 0-.49-1.57 1.8 1.8 0 0 0-1.41-.53 2.08 2.08 0 0 0-1.57.62 2.55 2.55 0 0 0-.6 1.8v3.79h-1.33v-7.34h1.27v1.1a2.64 2.64 0 0 1 1.07-.87c.46-.2.97-.3 1.47-.3a3.14 3.14 0 0 1 1.57.35 2.37 2.37 0 0 1 1.03 1.02c.29-.43.69-.78 1.16-1a3.82 3.82 0 0 1 1.66-.36 2.99 2.99 0 0 1 2.2.8m7.59 5.1c.37-.22.67-.54.87-.92.22-.41.33-.88.32-1.35a2.9 2.9 0 0 0-.32-1.34 2.34 2.34 0 0 0-.87-.91 2.74 2.74 0 0 0-2.55 0 2.34 2.34 0 0 0-.88.9 2.73 2.73 0 0 0-.33 1.35c0 .47.1.94.33 1.35.2.39.51.7.88.93a2.74 2.74 0 0 0 2.55 0Zm-3.24 1.01a3.53 3.53 0 0 1-1.37-1.35 3.94 3.94 0 0 1 0-3.85 3.6 3.6 0 0 1 1.37-1.34 4.09 4.09 0 0 1 1.96-.47c.69 0 1.36.15 1.97.47.56.31 1.03.77 1.35 1.34a3.95 3.95 0 0 1 0 3.85 3.39 3.39 0 0 1-1.35 1.35 4.04 4.04 0 0 1-1.97.49 4.09 4.09 0 0 1-1.96-.49Zm14.46-6.94v7.33h-1.25v-1.1a2.8 2.8 0 0 1-1.07.88 3.35 3.35 0 0 1-1.43.32 3.14 3.14 0 0 1-2.3-.82 3.13 3.13 0 0 1-.86-2.38v-4.23h1.34v4.07a2.27 2.27 0 0 0 .5 1.57 1.95 1.95 0 0 0 1.48.55 2.23 2.23 0 0 0 1.66-.64 2.55 2.55 0 0 0 .6-1.8v-3.8l1.33.05Zm8.69.75a3.14 3.14 0 0 1 .83 2.36v4.22h-1.33V53.3a2.24 2.24 0 0 0-.52-1.57 1.9 1.9 0 0 0-1.46-.53 2.3 2.3 0 0 0-1.71.63 2.5 2.5 0 0 0-.63 1.8v3.78h-1.32v-7.34h1.27v1.12a2.6 2.6 0 0 1 1.08-.88 4.04 4.04 0 0 1 1.58-.3 3 3 0 0 1 2.22.81m7.42 6.12c-.22.17-.46.3-.73.38a2.81 2.81 0 0 1-.89.14 2.36 2.36 0 0 1-1.71-.6 2.3 2.3 0 0 1-.61-1.7v-4.04h-1.26v-1.1h1.24v-1.56h1.33v1.57h2.14v1.1h-2.1v3.96c-.03.33.08.67.3.92a1.1 1.1 0 0 0 .84.32c.38.01.75-.11 1.04-.35l.4.96Zm5.29-.85c.36-.23.64-.57.8-.97V54.1h-2.06c-1.11 0-1.68.38-1.68 1.13a1.04 1.04 0 0 0 .43.88c.35.22.77.33 1.19.31.46.01.92-.1 1.32-.33Zm1.32-5.38a2.85 2.85 0 0 1 .82 2.23v4.42h-1.28v-.97a2.02 2.02 0 0 1-.94.78 3.46 3.46 0 0 1-1.46.29 3.14 3.14 0 0 1-1.98-.6 1.95 1.95 0 0 1-.74-1.57 1.93 1.93 0 0 1 .71-1.56 3.5 3.5 0 0 1 2.25-.6h2.1v-.27a1.73 1.73 0 0 0-.5-1.31 2.12 2.12 0 0 0-1.46-.46 4.04 4.04 0 0 0-1.29.22 3.26 3.26 0 0 0-1.05.58l-.55-1c.4-.32.87-.55 1.36-.7a5.29 5.29 0 0 1 1.67-.24 3.3 3.3 0 0 1 2.34.75m3.28-.67H132v7.33h-1.34v-7.33Zm0-1.65a.82.82 0 0 1-.25-.61.84.84 0 0 1 .25-.63.94.94 0 0 1 .65-.25.85.85 0 0 1 .64.25.78.78 0 0 1 .27.6.88.88 0 0 1-.91.87.93.93 0 0 1-.65-.23Zm10.04 2.4a3.13 3.13 0 0 1 .83 2.36v4.22h-1.34V53.3a2.32 2.32 0 0 0-.5-1.57 1.93 1.93 0 0 0-1.48-.53 2.3 2.3 0 0 0-1.7.63 2.49 2.49 0 0 0-.62 1.8v3.78h-1.33v-7.34h1.27v1.12c.27-.4.65-.7 1.1-.88a4.04 4.04 0 0 1 1.57-.3 3 3 0 0 1 2.21.81m9.28-.53a3.77 3.77 0 0 1 1.57-.33v1.29h-.3a2.25 2.25 0 0 0-1.7.64 2.52 2.52 0 0 0-.62 1.84v3.65h-1.32v-7.34h1.27v1.24a2.2 2.2 0 0 1 1.02-.97m4.7 1.36a2.35 2.35 0 0 0-.75 1.57h4.7a2.28 2.28 0 0 0-2.35-2.1 2.3 2.3 0 0 0-1.57.58m5.22 2.48h-5.97c.07.6.37 1.17.85 1.56.52.4 1.16.6 1.82.58a2.7 2.7 0 0 0 2.12-.88l.74.87a3.43 3.43 0 0 1-1.26.88c-.5.2-1.03.3-1.57.3a4.37 4.37 0 0 1-2.06-.48 3.38 3.38 0 0 1-1.4-1.33 4.12 4.12 0 0 1 0-3.86 3.4 3.4 0 0 1 1.32-1.34 3.77 3.77 0 0 1 1.89-.47 3.74 3.74 0 0 1 1.88.47c.55.32 1 .78 1.29 1.34.32.6.49 1.28.47 1.96v.41m2.09 2.95a3.6 3.6 0 0 1-1.3-.61l.55-1.05a4.54 4.54 0 0 0 1.17.54c.46.14.93.21 1.4.2 1.16 0 1.74-.32 1.74-.98a.65.65 0 0 0-.23-.53 1.57 1.57 0 0 0-.58-.28l-1-.2a9.35 9.35 0 0 1-1.45-.32c-.37-.12-.7-.33-.98-.61a1.7 1.7 0 0 1-.39-1.2 1.86 1.86 0 0 1 .83-1.58 3.76 3.76 0 0 1 2.23-.6c.5 0 .99.07 1.46.2a3.6 3.6 0 0 1 1.21.47l-.56 1.06a3.77 3.77 0 0 0-2.12-.6 2.4 2.4 0 0 0-1.29.29.83.83 0 0 0-.44.74.68.68 0 0 0 .25.56c.18.15.39.25.61.3.24.08.59.14 1.04.23.48.08.96.18 1.43.32.36.11.68.32.93.6a1.56 1.56 0 0 1 .39 1.15 1.83 1.83 0 0 1-.85 1.57 4.04 4.04 0 0 1-2.32.6 6.29 6.29 0 0 1-1.73-.26m10.98-1.2c.37-.22.68-.54.88-.93.22-.41.33-.88.31-1.35a2.73 2.73 0 0 0-.31-1.34 2.23 2.23 0 0 0-.88-.91 2.64 2.64 0 0 0-1.28-.32 2.53 2.53 0 0 0-1.25.32c-.38.21-.69.53-.9.9a2.71 2.71 0 0 0-.33 1.35c0 .47.1.94.33 1.35.21.39.52.7.9.93.38.2.82.32 1.25.31a2.64 2.64 0 0 0 1.28-.31Zm-3.24 1a3.53 3.53 0 0 1-1.36-1.35 4.07 4.07 0 0 1 0-3.85 3.6 3.6 0 0 1 1.36-1.34 4.09 4.09 0 0 1 1.96-.47 4.04 4.04 0 0 1 1.97.47c.57.32 1.04.78 1.36 1.34a4.07 4.07 0 0 1 0 3.85 3.53 3.53 0 0 1-1.36 1.35 4.04 4.04 0 0 1-1.97.49 4.09 4.09 0 0 1-1.96-.49Zm9.93-6.68a3.78 3.78 0 0 1 1.65-.33v1.29h-.3a2.32 2.32 0 0 0-1.71.64 2.58 2.58 0 0 0-.62 1.84v3.65h-1.33v-7.34h1.29v1.24a2.2 2.2 0 0 1 1.02-.97m7.72 6.63c-.21.17-.46.3-.72.38a2.89 2.89 0 0 1-.9.14 2.36 2.36 0 0 1-1.7-.6 2.3 2.3 0 0 1-.62-1.7v-4.04h-1.26v-1.1h1.26v-1.56h1.34v1.57h2.1v1.1h-2.1v3.96c-.03.33.08.67.3.92a1.1 1.1 0 0 0 .84.32c.38.01.75-.11 1.04-.35l.42.96Z"/></g></svg>