<svg width="281" height="49" viewBox="0 0 281 49" fill="none" xmlns="http://www.w3.org/2000/svg">
<g clip-path="url(#clip0_411_954)">
<path d="M59.03 28.1957C58.957 28.2793 58.8686 28.3463 58.7703 28.3925C58.672 28.4386 58.5658 28.463 58.4583 28.4642L52.0725 28.5019L46.6832 23.8857L57.2817 15.0254C57.4774 14.8606 57.711 14.7051 57.9601 14.7899C58.2092 14.8747 58.2381 15.1149 58.2581 15.3811L59.2279 27.5669C59.237 27.6786 59.2241 27.7912 59.1901 27.8974C59.156 28.0036 59.1015 28.1012 59.03 28.184M53.3404 34.9293C53.3104 35.1404 53.2275 35.3391 53.1004 35.5048C52.9732 35.6705 52.8065 35.7971 52.6175 35.8713L38.2512 41.611C38.1091 41.668 37.9583 41.6968 37.8063 41.6957C37.5866 41.6961 37.3708 41.6344 37.1813 41.5168C37.0218 41.4171 36.8856 41.2806 36.7828 41.1175C36.68 40.9544 36.6132 40.7689 36.5874 40.5747L34.8948 28.1109L40.213 22.9059L41.4964 24.0011L38.4269 26.573C37.8224 27.0534 37.38 27.7271 37.1653 28.4945C36.9506 29.2618 36.975 30.082 37.2347 30.8336C37.7396 32.3621 39.1031 33.3112 40.7935 33.3112L52.3862 33.3277L52.9311 33.7988C53.0879 33.9313 53.2085 34.1056 53.2804 34.304C53.3524 34.5023 53.3731 34.7173 53.3404 34.9269M34.3032 22.7764L34.1898 22.8871L33.6693 19.0481C33.646 18.8928 33.6684 18.7337 33.7337 18.5925C33.799 18.4513 33.9039 18.3348 34.034 18.2591C34.1467 18.1893 34.2749 18.1527 34.4055 18.1532C34.575 18.1532 34.7396 18.2138 34.8726 18.3251L36.9367 20.0962L36.8722 20.1621C36.6742 20.3647 36.4718 20.5672 36.2672 20.7792C36.0937 20.9511 35.9202 21.1278 35.7467 21.3068L35.1684 21.8956C34.8807 22.186 34.5923 22.4797 34.3032 22.7764ZM32.3614 15.1691C31.6403 15.5902 31.0589 16.2358 30.6961 17.0186C30.3332 17.8014 30.2065 18.6834 30.333 19.5451L31.2004 25.9206L31.1715 25.9489C30.7467 26.3893 30.3996 26.7402 30.0771 27.0629L29.9637 27.1783L29.0363 18.0495C28.9839 17.5182 28.8271 17.0043 28.5758 16.541C28.3245 16.0778 27.9843 15.6754 27.5771 15.3599L27.5371 15.3316L29.3542 5.67529C29.3684 5.52319 29.4174 5.37702 29.4968 5.24942C29.5763 5.12181 29.6839 5.01659 29.8103 4.94282C30.1128 4.80858 30.4108 4.997 30.6066 5.15008L41.7277 13.5652C41.8402 13.6505 41.9335 13.761 42.0012 13.8888C42.0688 14.0166 42.1091 14.1586 42.1191 14.3047C42.1306 14.4509 42.1112 14.598 42.0623 14.7353C42.0135 14.8726 41.9364 14.9966 41.8366 15.0984L39.4301 17.5549L39.3811 17.602L37.0034 15.5648C36.3629 15.0026 35.5746 14.6626 34.7454 14.591C33.9162 14.5193 33.0862 14.7195 32.3681 15.1644M27.9197 42.8474C27.7773 42.9404 27.6133 42.9896 27.446 42.9896C27.2786 42.9896 27.1145 42.9404 26.9721 42.8474L8.86692 30.8548C8.7324 30.7656 8.62122 30.6421 8.5435 30.4956C8.46577 30.3491 8.42399 30.1843 8.42208 30.0163C8.42178 29.8456 8.46243 29.6776 8.54024 29.528C8.61805 29.3785 8.73047 29.2523 8.86692 29.1614L10.762 27.8589L13.6846 31.0385C14.1499 31.5526 14.7405 31.9203 15.391 32.1007C16.0416 32.2811 16.7266 32.2673 17.3701 32.0606C18.0144 31.8688 18.5957 31.4913 19.0493 30.9703C19.5029 30.4492 19.811 29.8051 19.9392 29.1096L21.6273 20.3788L23.6669 18.9657L21.1959 31.9429C21.0357 32.747 21.1247 33.5844 21.4497 34.3307C21.7746 35.077 22.3182 35.6924 22.9997 36.0857C23.6777 36.4994 24.4635 36.6708 25.2407 36.5745C26.0179 36.4782 26.7452 36.1193 27.3146 35.551L27.6506 35.2213L28.3356 41.9501C28.3548 42.1233 28.3271 42.2987 28.2558 42.4559C28.1846 42.613 28.0727 42.7456 27.933 42.838M17.924 22.9154L17.4013 25.6074C17.3735 25.7636 17.305 25.9086 17.2036 26.0259C17.1023 26.1432 16.972 26.2283 16.8274 26.2715C16.7548 26.2915 16.6801 26.3018 16.605 26.3021C16.4943 26.3028 16.3847 26.2798 16.2827 26.2345C16.1806 26.1892 16.0882 26.1225 16.0112 26.0384L14.9969 24.9314L17.924 22.9154ZM6.249 15.3787C6.14568 15.2688 6.07571 15.1287 6.04797 14.9764C6.02024 14.8241 6.03606 14.6665 6.09337 14.5238C6.15006 14.3786 6.24635 14.2546 6.36999 14.1678C6.49362 14.0809 6.63888 14.0351 6.78725 14.0363H18.8492C18.9495 14.0217 19.0517 14.0334 19.1467 14.0703C19.2417 14.1073 19.3267 14.1684 19.3942 14.2482C19.4569 14.3362 19.4986 14.4387 19.5161 14.5474C19.5335 14.656 19.5261 14.7674 19.4943 14.8724L18.8048 18.351L12.7727 22.5008L6.249 15.3787ZM24.5855 31.0502L26.3071 21.2267L27.1256 30.0611L27.0967 30.0893L26.2915 30.8971L25.5664 31.6249C25.4571 31.7329 25.3134 31.7934 25.1638 31.7945C25.0606 31.7943 24.9593 31.765 24.8703 31.7097C24.7622 31.6468 24.6761 31.5486 24.6248 31.4299C24.5736 31.3111 24.5597 31.178 24.5855 31.0502ZM42.2392 27.5975L44.0008 26.1231L46.7811 28.5019L42.544 28.5302C42.4416 28.5302 42.3418 28.4964 42.2585 28.4335C42.1751 28.3706 42.1124 28.2817 42.079 28.1792C42.0437 28.0769 42.0401 27.9652 42.0689 27.8605C42.0978 27.7559 42.1574 27.6637 42.2392 27.5975ZM64.2257 29.0766L63.1448 13.7254C63.0961 13.025 62.8655 12.3525 62.4785 11.7823C62.0915 11.212 61.563 10.7662 60.9516 10.494C60.3111 10.1951 59.606 10.0865 58.9116 10.1799C58.2172 10.2732 57.56 10.565 57.0104 11.0239L44.2188 21.7331L42.7308 20.4565L46.3674 16.8978C46.7691 16.5074 47.0827 16.0264 47.2852 15.4903C47.4877 14.9542 47.5739 14.3768 47.5373 13.8007C47.5022 13.2238 47.3453 12.6625 47.0781 12.1583C46.811 11.6541 46.4404 11.2198 45.9937 10.8873L32.4126 0.701102C31.9103 0.324609 31.3273 0.0869021 30.7163 0.00957795C30.1053 -0.0677461 29.4857 0.0177606 28.9139 0.258323C28.3441 0.495686 27.8399 0.880806 27.4474 1.37834C27.0548 1.87587 26.7867 2.46986 26.6675 3.10576L24.4454 14.7357L24.3987 14.7499C24.0304 14.8555 23.6793 15.0199 23.3577 15.2374L22.4681 15.8451L22.5548 15.4258C22.663 14.8634 22.6517 14.2824 22.5217 13.7252C22.3917 13.1679 22.1462 12.6483 21.8031 12.2039C21.4569 11.7555 21.0208 11.3943 20.5264 11.1467C20.032 10.899 19.4918 10.771 18.9449 10.7719H3.68452C2.95822 10.7626 2.24599 10.9847 1.64036 11.4093C1.03472 11.8339 0.563621 12.4414 0.288116 13.1531C0.00106837 13.8527 -0.0809848 14.6275 0.0526609 15.3771C0.186307 16.1266 0.529409 16.8164 1.0376 17.3571L8.49995 25.4778L4.94118 27.9249C4.42478 28.2792 4.00128 28.766 3.71004 29.3399C3.41879 29.9139 3.26918 30.5565 3.27518 31.208C3.27912 31.8613 3.43934 32.5029 3.74077 33.0729C4.0422 33.6429 4.47502 34.1227 4.99896 34.4676L26.1158 48.4246C26.7017 48.8162 27.3803 49.0244 28.0731 49.0252C28.7686 49.0233 29.4494 48.8134 30.0372 48.4199C30.6215 48.036 31.0912 47.4847 31.3919 46.8299C31.6926 46.1751 31.812 45.4435 31.7364 44.7198L30.4886 32.4586L31.8877 31.0903L33.527 43.1654C33.6128 43.8068 33.8343 44.4194 34.1747 44.9577C34.5151 45.4959 34.9657 45.946 35.4931 46.2743C36.0246 46.6092 36.6205 46.8131 37.2366 46.871C37.8526 46.9289 38.473 46.8393 39.0519 46.6087L55.6825 40.0141C56.2723 39.783 56.8036 39.4102 57.2346 38.9252C57.6657 38.4402 57.9848 37.856 58.1669 37.2185C58.3485 36.5852 58.3906 35.9162 58.2899 35.263C58.1893 34.6097 57.9487 33.9896 57.5864 33.4502L57.4996 33.3206L60.4713 33.2924C60.995 33.2865 61.5121 33.1676 61.9909 32.9428C62.4697 32.7181 62.9002 32.3922 63.256 31.9852C63.592 31.6029 63.8496 31.1511 64.0127 30.6582C64.1757 30.1654 64.2407 29.6421 64.2035 29.1213" fill="#171C6B"/>
<path d="M205.904 27.5482L200.404 15.3459H194.574L203.36 33.6152C203.023 34.0689 202.592 34.4339 202.1 34.6816C201.608 34.9292 201.069 35.0527 200.524 35.0424H199.085L199.307 39.5032C199.99 39.6728 200.69 39.7598 201.391 39.7623C203.253 39.7152 204.786 39.1593 205.815 38.1536C206.845 37.148 207.79 35.5818 208.756 33.3043L216.096 15.3459H210.266L205.904 27.5482ZM216.745 20.2918H223.736V39.3689H228.967V20.2918H235.991V15.3459H216.745V20.2918ZM148.306 31.877L151.082 24.1402L153.857 31.877H148.306ZM149.58 15.3459L139.691 39.4066H145.425L146.673 36.3449H155.492L156.738 39.4066H162.472L152.616 15.3459H149.58ZM272.135 27.6824H269.021V20.0539H272.135C273.648 20.0539 275.903 21.0596 275.903 23.8222C275.903 25.2519 275.109 27.673 272.135 27.673M277.504 16.8226C275.345 15.4424 272.943 15.3364 272.255 15.3364H263.803V39.3595H269.037V32.3434H272.26C272.945 32.3434 275.338 32.235 277.511 30.8407C279.822 29.3546 280.996 26.9923 280.996 23.8199C280.996 20.6474 279.822 18.2946 277.509 16.8202M253.218 32.7273C252.603 33.4138 251.859 33.9558 251.034 34.3181C250.208 34.6804 249.32 34.855 248.427 34.8305C246.488 34.8305 244.885 34.1294 243.621 32.7273C242.356 31.3251 241.723 29.5312 241.721 27.3456C241.721 25.1631 242.354 23.3693 243.621 21.964C244.887 20.5587 246.489 19.8569 248.427 19.8584C249.322 19.8344 250.211 20.0108 251.036 20.3761C251.862 20.7414 252.606 21.2873 253.218 21.9781C254.495 23.3912 255.132 25.1796 255.131 27.3433C255.129 29.5069 254.492 31.3008 253.218 32.7249M248.427 14.5898C245.234 14.5936 242.174 15.9382 239.916 18.3287C237.658 20.7192 236.389 23.9603 236.385 27.3409C236.385 30.7238 237.653 33.9684 239.91 36.3623C242.168 38.7561 245.23 40.1035 248.425 40.1085C251.617 40.1041 254.678 38.7593 256.935 36.3689C259.193 33.9786 260.463 30.7379 260.467 27.3574C260.463 23.9768 259.193 20.7356 256.936 18.3452C254.678 15.9547 251.618 14.6101 248.425 14.6063M193.462 15.3459H187.29L183.166 22.6847L179.007 15.3459H172.801L179.888 27.0112L172.238 39.3713H178.818L183.168 31.6392L187.519 39.3713H194.062L186.482 27.0112L193.462 15.3459ZM85.0309 27.6895H81.9304V20.061H85.0309C86.5456 20.061 88.8009 21.0666 88.8009 23.8293C88.8009 25.2589 88.007 27.6801 85.0309 27.6801M90.4024 16.8296C88.2427 15.4495 85.8383 15.3435 85.1532 15.3435H76.7012V39.3666H81.9348V32.3504H85.1577C85.8405 32.3504 88.236 32.2421 90.4069 30.8478C92.7179 29.3617 93.8945 26.9994 93.8945 23.8269C93.8945 20.6545 92.7179 18.3016 90.4069 16.8273M112.358 32.7343C111.743 33.421 110.998 33.9631 110.172 34.3255C109.347 34.6878 108.458 34.8622 107.565 34.8375C105.625 34.8375 104.023 34.1365 102.758 32.7343C101.493 31.3322 100.861 29.5383 100.861 27.3527C100.861 25.1702 101.493 23.3763 102.758 21.971C104.023 20.5658 105.625 19.8639 107.565 19.8655C108.46 19.8411 109.349 20.0173 110.175 20.3826C111.001 20.748 111.745 21.2941 112.358 21.9852C113.633 23.3983 114.271 25.1867 114.271 27.3503C114.271 29.514 113.633 31.3079 112.358 32.732M107.565 14.5969C104.372 14.6006 101.311 15.9453 99.0535 18.3357C96.7959 20.7262 95.5261 23.9673 95.5226 27.348C95.5267 30.7284 96.7967 33.9692 99.0541 36.3595C101.312 38.7499 104.372 40.0947 107.565 40.099C110.757 40.0953 113.818 38.7507 116.076 36.3602C118.333 33.9697 119.603 30.7286 119.606 27.348C119.604 23.9671 118.334 20.7257 116.076 18.3351C113.819 15.9444 110.757 14.6 107.565 14.5969ZM135.381 26.6932C136.033 26.1196 136.555 25.399 136.911 24.584C137.266 23.769 137.445 22.8803 137.434 21.9828C137.434 19.8066 136.74 18.0591 135.37 16.8014C133.999 15.5437 132.145 14.9054 129.831 14.9054C127.901 14.9054 126.017 15.4047 124.667 16.2762C123.44 17.0633 122.405 18.1443 121.644 19.4321C122.91 20.5485 124.313 21.7873 125.009 22.4444C125.512 21.6417 126.194 20.9833 126.996 20.5283C127.797 20.0733 128.693 19.8359 129.602 19.8372C130.532 19.8372 131.264 20.0727 131.771 20.5438C132.021 20.7731 132.219 21.0599 132.349 21.3823C132.479 21.7047 132.537 22.0543 132.52 22.4044C132.534 22.7411 132.476 23.0768 132.351 23.3869C132.227 23.6969 132.038 23.9736 131.8 24.1967C131.317 24.6536 130.632 24.8891 129.771 24.8891H126.958V29.3122H130.096C131.208 29.3122 132.067 29.5477 132.64 30.0188C132.916 30.2411 133.137 30.5308 133.283 30.863C133.43 31.1952 133.499 31.5601 133.483 31.9265C133.496 32.3463 133.407 32.7626 133.225 33.136C133.044 33.5093 132.775 33.8275 132.445 34.0603C131.735 34.5973 130.806 34.8705 129.691 34.8705C127.467 34.8705 125.501 33.7306 124.131 31.658C123.043 32.6283 121.695 33.8177 120.741 34.6585C121.54 36.1747 122.706 37.438 124.119 38.3185C125.643 39.2724 127.632 39.7976 129.72 39.7976C132.325 39.7976 134.442 39.091 136.015 37.7085C137.587 36.326 138.403 34.4489 138.403 32.1761C138.403 29.6867 137.383 27.8473 135.372 26.7003" fill="#171C6B"/>
</g>
<defs>
<clipPath id="clip0_411_954">
<rect width="281" height="49" fill="white" transform="translate(-0.000976562 0.00634766)"/>
</clipPath>
</defs>
</svg>
