<svg width="108" height="89" viewBox="0 0 108 89" fill="none" xmlns="http://www.w3.org/2000/svg">
<g clip-path="url(#clip0_411_1584)">
<path d="M103.953 68.1994L99.5968 76.7741L95.2405 68.2326H91.1828L97.7504 80.6023V88.8561H101.487V80.6023L108.022 68.1994H103.953ZM84.4715 85.548C86.1411 85.548 87.4347 85.0279 87.4347 82.4279V74.683C87.4347 72.094 86.1411 71.5629 84.4715 71.5629C82.802 71.5629 81.4641 72.094 81.4641 74.683V82.4279C81.4641 85.0279 82.7909 85.548 84.4715 85.548ZM84.4715 89C80.6128 89 77.727 87.5284 77.727 82.4943V74.5944C77.727 69.5492 80.6128 68.0776 84.4715 68.0776C88.3302 68.0776 91.1828 69.5492 91.1828 74.5944V82.4943C91.1828 87.5284 88.3192 89 84.4715 89ZM61.6509 83.313C61.6509 87.8272 65.8855 89 68.8597 89C71.8339 89 75.6595 88.0263 75.6595 83.4679C75.6595 80.4916 74.0452 79.0422 70.9273 77.2166C67.5329 75.3025 65.974 74.5059 65.974 73.2114C65.974 72.2046 66.77 71.5629 68.4174 71.5629C70.7172 71.5629 71.3364 72.9791 71.3364 74.9817L75.0735 74.3953V73.7978C75.0735 69.4386 71.5354 68.1109 68.5612 68.1109C65.587 68.1109 62.2369 69.3832 62.2369 73.2999C62.2369 76.066 63.442 77.5154 67.6214 79.7835C70.5956 81.3989 71.9224 81.9964 71.9224 83.6117C71.9224 84.7182 70.9273 85.5811 68.9482 85.5811C66.3831 85.5811 65.388 84.4747 65.388 82.3504V81.6644L61.6509 82.2619V83.313ZM50.8376 78.0354V71.6735H52.872C55.0833 71.6735 56.4322 72.3484 56.4322 74.6497V75.0591C56.4322 77.3605 55.0833 78.0354 52.872 78.0354H50.8376ZM61.0538 88.8561L57.0845 80.6908C58.8757 79.8057 60.1693 78.1239 60.1693 74.9706V74.7383C60.1693 69.4054 56.4322 68.2326 52.872 68.2326H47.1005V88.8561H50.8376V81.4874H52.872C53.1186 81.5037 53.3661 81.5037 53.6128 81.4874L56.9961 88.8893L61.0538 88.8561ZM40.4224 68.2326H44.1595V88.8561H40.4224V68.2326ZM33.7885 68.2326L28.017 78.3894L22.2455 68.2326H18.5084V88.8561H22.1349V75.8889L27.9064 85.6143L33.6779 75.8889V88.8561H37.415V68.2326H33.7885ZM5.93712 81.6312L8.4027 73.1229L10.8794 81.6312H5.93712ZM13.0022 88.8561H16.7393L10.4371 68.2326H6.37937L0.0771484 88.8561H3.81425L4.91991 85.0832H11.9297L13.0022 88.8561Z" fill="#084792"/>
<path d="M37.1165 25.3921C29.4544 13.6863 5.15217 48.6269 3.37207 55.9513C9.48632 57.3675 11.5539 52.1784 16.5293 55.1657C19.4593 56.9249 21.1178 57.1794 26.7013 54.0593C31.3893 51.4482 35.8008 56.9803 35.8008 56.9803C40.8757 42.265 72.7074 43.2607 63.2762 34.1771C58.1902 29.2757 64.8794 24.1197 73.6141 22.9248C72.5969 17.7025 60.2247 4.28174 54.9949 4.28174C49.7652 4.28174 39.0182 15.6557 37.1165 25.3811" fill="#084792"/>
<path d="M106.618 55.9515C105.281 50.851 88.4968 30.7585 76.412 25.7354C72.4427 26.7311 63.4427 29.9508 69.4354 33.8343C79.5299 40.3843 56.5656 45.3853 52.8506 56.9916C63.9071 59.8129 69.6233 50.176 78.5127 55.2213C87.4022 60.2665 98.7794 47.6977 106.596 55.9515" fill="#1A9EDA"/>
<path d="M32.7711 0C34.5609 -2.39873e-06 36.2775 0.710678 37.5441 1.97607C38.8107 3.24146 39.5238 4.95811 39.5267 6.7491C39.5238 8.54112 38.8111 10.2589 37.5448 11.5261C36.2785 12.7932 34.5619 13.5064 32.7711 13.5093C30.9804 13.5064 29.2638 12.7932 27.9975 11.5261C26.7312 10.2589 26.0185 8.54112 26.0156 6.7491C26.0186 4.95811 26.7316 3.24146 27.9982 1.97607C29.2647 0.710678 30.9814 -2.39873e-06 32.7711 0Z" fill="#1A9EDA"/>
</g>
<defs>
<clipPath id="clip0_411_1584">
<rect width="108" height="89" fill="white"/>
</clipPath>
</defs>
</svg>
