<svg width="306" height="106" viewBox="0 0 306 106" fill="none" xmlns="http://www.w3.org/2000/svg">
<path d="M49.9521 0.040634C49.9521 0.040634 40.1517 -0.961718 25.5183 6.99027C10.8849 14.9423 3.97096 25.9681 1.08455 36.5262C-1.80185 47.0844 1.55443 55.8382 5.51485 60.3822C9.24806 64.6827 13.8743 68.1254 19.0743 70.4726C23.6388 72.4773 32.7008 72.8114 32.7008 72.8114C32.7008 72.8114 22.7662 69.2698 19.4099 65.3272C14.4426 59.4467 11.8918 55.5709 11.8918 50.6928C11.9271 48.1036 12.4794 45.5472 13.5166 43.1724C14.5538 40.7977 16.0551 38.652 17.9331 36.8604C19.2338 37.7734 20.3881 38.8774 21.3565 40.1347C22.6319 41.9389 24.1087 44.5451 24.1087 44.5451C24.1087 44.5451 25.5855 39.3328 26.7266 35.4571C27.8677 31.5813 31.1569 28.1733 31.1569 28.1733C31.1569 28.1733 34.4461 38.0632 38.8092 45.2133C43.1724 52.3634 48.9452 60.1149 50.6905 64.7258C54.1139 73.4796 49.885 82.7681 49.885 82.7681C49.8417 79.211 49.0409 75.7036 47.5356 72.4773C45.119 67.265 37.4667 62.3201 37.4667 62.3201C37.4667 62.3201 43.2395 71.809 42.7025 78.3577C41.2257 98.0038 21.8264 105.288 21.8264 105.288C21.8264 105.288 38.138 104.753 46.5958 98.9394C54.9194 93.2594 59.6182 86.2429 60.4908 76.6872C61.3635 67.1314 58.5442 62.2533 54.4495 54.7691C50.3548 47.2848 44.4478 40.1347 41.897 31.3808C39.2791 22.4265 38.8092 16.947 41.7628 10.4651C44.5149 4.31734 50.0863 0.107457 50.0863 0.107457L49.9521 0.040634Z" fill="url(#paint0_linear_2014_777)"/>
<path d="M305.366 65.3941C305.098 67.4656 304.897 69.6039 304.494 71.6086C302.816 79.427 298.318 83.57 290.397 84.9065C286.504 85.5079 282.678 85.5079 278.986 84.1714C277.001 83.4985 275.268 82.2399 274.019 80.563C272.408 78.4246 272.408 76.2863 274.019 74.1479C275.444 72.2219 277.37 70.72 279.59 69.8044C281.94 68.7352 284.356 67.8665 286.706 66.8642C286.84 67.0646 286.907 67.1983 287.041 67.3988C286.236 68.1338 285.497 68.9357 284.625 69.6039C280.933 72.4773 280.664 76.1526 284.02 79.4938C285.524 81.0046 287.479 81.9894 289.592 82.3004C293.351 82.835 296.237 80.4293 296.506 76.1526C296.707 73.0119 296.506 69.8044 296.506 66.6637V56.7738C295.454 57.7245 294.332 58.5956 293.15 59.3799C290.867 60.6496 288.585 62.1197 286.168 62.9216C282.745 64.0576 279.859 63.7903 277.442 60.2486C275.093 61.1173 272.81 62.1197 270.394 62.7879C268.835 63.1671 267.233 63.3467 265.628 63.3225C262.07 63.3225 260.124 61.7856 259.117 58.2439L258.311 58.8453C255.561 61.27 252.151 62.8281 248.511 63.3225C245.356 63.7235 242.671 62.9216 240.993 59.9814C239.248 60.7832 237.637 61.5183 235.891 62.1865C233.743 63.0552 231.461 63.7235 229.112 63.4562C225.42 63.0552 224.48 62.1197 224.279 58.2439C223.876 58.5112 223.54 58.7117 223.205 58.9122C220.52 60.7164 217.7 62.3202 214.545 63.0552C210.719 63.9239 207.699 63.523 205.416 59.6472C203.939 60.3823 202.53 61.1173 200.986 61.7856C197.965 63.1221 195.012 63.8571 191.79 63.0552C191.415 62.9817 191.077 62.7822 190.833 62.4902C190.588 62.1983 190.452 61.8315 190.447 61.4515C190.219 59.1962 189.815 56.962 189.239 54.7691C188.031 50.8934 187.225 50.8265 184.204 53.2322C182.929 54.2345 182.056 55.7046 181.05 56.9743C180.043 58.2439 179.036 59.7809 177.895 61.1173C176.552 62.6543 174.941 63.8571 172.927 64.1244C171.719 64.2581 171.048 63.3225 171.182 62.1197C171.217 61.736 171.284 61.356 171.383 60.9837C171.428 60.6894 171.495 60.3989 171.585 60.115C168.967 61.0505 166.349 62.1865 163.664 62.9216C161.978 63.3576 160.229 63.4933 158.495 63.3225C157.154 63.3107 155.861 62.8284 154.841 61.9606C153.822 61.0928 153.143 59.895 152.924 58.5781C150.574 59.8477 148.359 61.251 145.943 62.387C143.943 63.3539 141.699 63.7029 139.499 63.3893C138.727 63.2794 137.989 63.0053 137.333 62.5856C136.678 62.166 136.121 61.6107 135.701 60.9576C135.28 60.3044 135.006 59.5688 134.897 58.8007C134.788 58.0326 134.846 57.2501 135.068 56.5065C137.284 49.3564 142.251 45.2802 149.433 43.9437C152.32 43.4091 155.34 43.7432 158.294 43.6096C159.245 43.5745 160.19 43.4402 161.113 43.2087C162.053 43.075 162.993 42.8745 164.268 42.6073C163.933 43.4091 163.798 43.8101 163.597 44.211C162.12 47.4854 161.583 50.8265 162.59 54.3014C164 59.2463 168.094 58.979 171.182 57.5757C171.451 57.4421 171.652 56.7738 171.652 56.3061V22.2261C171.619 22.0372 171.625 21.8438 171.668 21.6571C171.712 21.4704 171.792 21.2942 171.904 21.1387C172.017 20.9832 172.159 20.8515 172.323 20.7514C172.488 20.6513 172.67 20.5847 172.86 20.5555C175.814 19.6868 181.519 18.9517 183.667 19.2859C180.58 30.3786 180.445 41.8054 180.11 53.1654C180.244 53.2322 180.311 53.299 180.445 53.3658C181.318 52.5639 182.258 51.8289 183.063 50.9602C184.339 49.6237 185.547 48.1536 186.822 46.8171C188.594 44.9495 190.971 43.7659 193.535 43.476C195.347 43.2755 196.153 43.5428 196.824 45.2802C197.321 46.8816 197.725 48.5103 198.032 50.1583C198.337 52.0166 198.786 53.8486 199.375 55.6378C199.657 56.4934 200.265 57.2042 201.069 57.6168C201.873 58.0294 202.807 58.1107 203.671 57.843C203.834 57.7896 203.985 57.7025 204.112 57.5874C204.239 57.4722 204.34 57.3316 204.409 57.1748C207.363 48.2872 214.143 44.5451 223.003 43.5428C223.473 43.5428 224.01 43.4091 224.681 43.3423V34.0538C224.681 29.9776 224.547 25.8346 224.346 21.7583C224.346 20.8896 224.681 20.4219 225.353 20.2882C227.769 19.8204 230.186 19.4195 232.602 19.0186C233.408 18.8849 234.28 18.8181 235.421 18.6844C235.354 20.355 235.354 21.9588 235.153 23.4957C234.347 29.3094 233.408 35.123 232.669 40.9367C232.132 45.2802 231.864 49.6237 232.804 53.9004C233.609 57.5757 236.563 59.3131 239.785 58.0435C240.002 57.9489 240.197 57.8112 240.358 57.6389C240.52 57.4665 240.645 57.2631 240.724 57.0411C242.94 49.1559 248.578 45.2134 256.23 43.8769C258.983 43.4091 261.869 43.6764 264.688 43.5428C265.681 43.4749 266.667 43.3409 267.642 43.1418C268.514 43.0082 269.387 42.8077 270.528 42.5404C269.924 44.8792 269.186 46.7503 268.917 48.755C268.571 50.6968 268.525 52.68 268.783 54.6355C268.984 55.7715 269.119 57.1748 269.924 58.0435C270.931 59.1126 272.676 59.1126 274.086 58.8453C275.764 58.5112 276.57 57.4421 277.039 55.8383C278.852 49.891 283.215 46.6167 288.854 44.8124C293.888 43.1418 299.191 42.8077 304.427 42.6073C304.766 42.5956 305.103 42.5509 305.434 42.4736V65.3272L305.366 65.3941ZM224.413 48.6882C224.433 48.2635 224.312 47.844 224.07 47.494C223.827 47.144 223.476 46.8828 223.07 46.7503C222.279 46.3811 221.4 46.2416 220.533 46.348C219.666 46.4544 218.847 46.8023 218.17 47.3517C216.432 48.7296 215.281 50.7108 214.948 52.8981C214.478 55.9719 216.223 58.0435 219.378 57.9098C223.406 57.7762 224.547 51.8957 224.413 48.6882ZM286.437 53.9672C286.365 54.6672 286.506 55.3725 286.841 55.992C287.176 56.6115 287.69 57.1167 288.317 57.4421C288.933 57.7792 289.634 57.9332 290.336 57.8859C291.038 57.8385 291.712 57.5917 292.277 57.1748C293.349 56.4564 294.265 55.5297 294.969 54.4503C295.672 53.3709 296.149 52.161 296.372 50.8934C296.841 48.5545 295.566 47.0176 293.15 46.8839C289.86 46.7503 286.437 50.3588 286.437 54.0341V53.9672ZM256.633 46.8171C255.959 46.8374 255.296 46.9967 254.687 47.2849C252.069 48.4209 250.189 52.0294 250.659 54.8359C250.694 55.2574 250.812 55.6678 251.006 56.0438C251.2 56.4199 251.467 56.754 251.791 57.0271C252.116 57.3003 252.491 57.507 252.895 57.6355C253.3 57.7641 253.726 57.8119 254.15 57.7762C254.96 57.7822 255.755 57.5511 256.435 57.1116C257.115 56.6721 257.651 56.0434 257.976 55.3037C258.774 53.6405 259.447 51.9207 259.989 50.1583C260.258 49.2228 260.594 48.0868 259.654 47.4854C258.739 46.96 257.685 46.7267 256.633 46.8171ZM150.373 46.8171C149.72 46.8376 149.079 46.9971 148.494 47.2849C145.876 48.4209 143.929 52.0962 144.399 54.9696C145.07 58.7117 149.97 58.6449 151.514 55.571C152.368 53.8241 153.086 52.0146 153.662 50.1583C153.931 49.2228 154.334 48.0868 153.327 47.4854C152.424 46.9295 151.36 46.694 150.306 46.8171H150.373Z" fill="#12175E"/>
<path d="M136.207 57.4419C130.435 60.5158 130.367 57.5088 129.696 55.7045C129.025 53.9003 128.824 52.0292 128.354 50.225C127.951 48.6212 127.682 46.8838 127.145 45.3469C126.541 43.6095 125.736 43.2754 123.856 43.5427C121.301 43.8619 118.933 45.0407 117.144 46.8838C115.868 48.2203 114.66 49.6904 113.385 51.0269C112.579 51.8956 111.639 52.6307 110.767 53.4325C110.632 53.3657 110.565 53.2989 110.431 53.2321C110.834 41.8721 110.968 30.4453 113.989 19.3526C111.774 19.0184 106.135 19.7535 103.182 20.6222C102.991 20.6514 102.809 20.718 102.645 20.8181C102.481 20.9182 102.338 21.0499 102.226 21.2054C102.113 21.3609 102.033 21.5371 101.99 21.7238C101.946 21.9105 101.941 22.1039 101.973 22.2928V56.3728C101.973 58.3107 101.57 60.2485 101.436 62.1864C101.369 63.3892 102.04 64.3248 103.182 64.1911C105.195 63.9238 106.806 62.6542 108.149 61.1841C109.29 59.9144 109.76 59.1125 110.834 57.7761C112.056 56.181 113.427 54.7044 114.929 53.3657C117.949 50.9601 118.285 51.0269 119.493 54.8358C120.096 57.0228 120.5 59.2592 120.701 61.5182C120.706 61.8982 120.843 62.265 121.087 62.557C121.331 62.8489 121.669 63.0484 122.044 63.1219C125.266 63.9906 128.287 63.2556 131.24 61.8523C132.18 61.4514 135.805 59.8476 136.744 59.3798C136.526 58.7454 136.346 58.0982 136.207 57.4419Z" fill="#12175E"/>
<path d="M97.2766 30.512C96.6054 32.1158 96.1355 33.5191 95.4642 34.8555C94.9944 35.8579 94.256 36.1252 93.0477 35.3901C90.564 33.9868 84.9926 30.1111 82.9788 34.0536C82.0391 35.9247 82.6432 37.7958 84.0529 39.2659C86.2009 41.5379 89.1544 42.8743 91.9066 44.3445C94.4573 45.7478 97.9479 47.552 98.6191 50.6927C98.7536 51.2641 98.7536 51.8587 98.6191 52.4301C98.2164 55.1699 96.1355 57.7092 93.9203 59.3129C89.3524 62.6482 83.7219 64.2157 78.0787 63.7233C76.9108 63.6689 75.7573 63.4438 74.6552 63.055C74.0511 62.8546 72.6415 62.5873 72.4401 61.8522C71.9067 60.0595 72.0499 58.1344 72.8429 56.4395C74.4571 57.9453 76.4019 59.0555 78.5227 59.6819C80.6434 60.3083 82.8818 60.4337 85.0597 60.048C86.9393 59.7807 88.5503 58.912 89.0873 56.9073C89.3744 55.9657 89.339 54.9558 88.9866 54.0365C88.6342 53.1171 87.9849 52.3405 87.1406 51.8287C85.4092 50.7661 83.6161 49.8066 81.7706 48.9553C80.0253 48.0198 78.1458 47.3515 76.4676 46.2823C72.1045 43.4758 71.6346 38.5308 75.3265 34.8555C77.743 32.4499 80.7637 31.3139 83.9857 30.5788C88.3399 29.6096 92.8553 29.6096 97.2095 30.5788L97.2766 30.512Z" fill="#12175E"/>
<path d="M83.1105 85.3076V79.6944L80.8954 85.3076H80.157L77.9418 79.6944V85.3076H76.2637V77.556H78.6131L80.4926 82.4341L82.3721 77.556H84.7215V85.3076H83.1105Z" fill="#12175E"/>
<path d="M93.9865 77.4223C94.7801 77.4354 95.5521 77.6817 96.2055 78.1302C96.8589 78.5787 97.3647 79.2094 97.6593 79.9431C97.9538 80.6768 98.0241 81.4807 97.8612 82.254C97.6983 83.0273 97.3095 83.7355 96.7436 84.2895C96.1778 84.8436 95.4601 85.2189 94.6807 85.3682C93.9014 85.5176 93.095 85.4344 92.363 85.1291C91.631 84.8238 91.0059 84.3099 90.5662 83.6521C90.1266 82.9943 89.8919 82.2218 89.8918 81.4317C89.8785 80.8959 89.9758 80.363 90.1778 79.8661C90.3797 79.3693 90.682 78.9189 91.0658 78.5431C91.4497 78.1672 91.907 77.8738 92.4094 77.681C92.9117 77.4882 93.4485 77.4002 93.9865 77.4223ZM93.9865 78.8924C93.342 78.939 92.739 79.2267 92.2989 79.6978C91.8588 80.1689 91.6142 80.7884 91.6142 81.4317C91.6142 82.075 91.8588 82.6945 92.2989 83.1656C92.739 83.6366 93.342 83.9244 93.9865 83.971C94.631 83.9244 95.234 83.6366 95.6741 83.1656C96.1142 82.6945 96.3588 82.075 96.3588 81.4317C96.3588 80.7884 96.1142 80.1689 95.6741 79.6978C95.234 79.2267 94.631 78.939 93.9865 78.8924Z" fill="#12175E"/>
<path d="M103.248 77.556H104.926V82.1669C104.926 82.6454 105.117 83.1043 105.457 83.4426C105.797 83.781 106.258 83.9711 106.739 83.9711C107.219 83.9711 107.68 83.781 108.02 83.4426C108.36 83.1043 108.551 82.6454 108.551 82.1669V77.556H110.229V82.2337C110.229 84.1716 109.088 85.508 106.739 85.508C104.389 85.508 103.248 84.1716 103.248 82.3005V77.556Z" fill="#12175E"/>
<path d="M121.106 85.3076L117.414 80.0953V85.3076H115.736V77.556H117.414L121.039 82.5678V77.556H122.717V85.3076H121.106Z" fill="#12175E"/>
<path d="M130.032 85.3075V78.9592H127.75V77.4891H133.993V78.9592H131.71V85.3075H130.032Z" fill="#12175E"/>
<path d="M143.793 85.3076L143.324 83.9711H139.833L139.363 85.3076H137.551L140.571 77.556H142.652L145.673 85.3076H143.793ZM141.511 78.9593L140.236 82.501H142.854L141.578 78.9593H141.511Z" fill="#12175E"/>
<path d="M150.307 85.3076V77.556H151.985V85.3076H150.307Z" fill="#12175E"/>
<path d="M162.858 85.3076L159.166 80.0953V85.3076H157.488V77.556H159.166L162.791 82.5678V77.556H164.469V85.3076H162.858Z" fill="#12175E"/>
<path d="M181.385 85.3076L179.841 82.501H178.633V85.3076H176.955V77.5561H180.58C180.919 77.5308 181.259 77.5764 181.579 77.69C181.899 77.8035 182.192 77.9824 182.439 78.2153C182.685 78.4481 182.88 78.7297 183.011 79.042C183.142 79.3543 183.205 79.6903 183.198 80.0286C183.233 80.5515 183.085 81.0704 182.779 81.4968C182.473 81.9233 182.028 82.231 181.52 82.3674L183.265 85.3076H181.385ZM180.378 78.9594H178.633V81.0977H180.378C180.526 81.1121 180.675 81.0949 180.816 81.0472C180.956 80.9995 181.085 80.9224 181.193 80.8211C181.301 80.7199 181.386 80.5967 181.442 80.46C181.499 80.3233 181.525 80.1762 181.52 80.0286C181.52 79.8823 181.49 79.7376 181.432 79.6033C181.374 79.4691 181.289 79.3481 181.182 79.2479C181.075 79.1477 180.948 79.0704 180.81 79.0207C180.672 78.9711 180.525 78.9502 180.378 78.9594Z" fill="#12175E"/>
<path d="M188.498 85.3076V77.556H194.002V78.9593H190.109V80.6299H193.868V82.0332H190.109V83.8374H194.002V85.2407H188.498V85.3076Z" fill="#12175E"/>
<path d="M199.641 82.9686C199.956 83.3109 200.34 83.5832 200.768 83.7674C201.196 83.9517 201.658 84.0438 202.125 84.0378C203.199 84.0378 203.467 83.6368 203.467 83.1691C203.467 82.7013 202.796 82.3672 201.856 82.1667C200.581 81.8994 198.97 81.4985 198.97 79.7611C198.97 78.0237 200.111 77.4222 201.923 77.4222C203.736 77.4222 204.205 77.8232 204.944 78.4914L204.004 79.6942C203.405 79.132 202.612 78.8209 201.789 78.8255C201.051 78.8255 200.648 79.1596 200.648 79.6274C200.648 80.0952 201.319 80.2956 202.192 80.4961C203.467 80.7634 205.145 81.1644 205.145 82.9018C205.145 84.6392 204.138 85.3742 201.99 85.3742C199.842 85.3742 199.44 84.9065 198.701 84.1714L199.641 82.9018V82.9686Z" fill="#12175E"/>
<path d="M214.008 77.4223C214.802 77.4354 215.574 77.6817 216.227 78.1302C216.88 78.5787 217.386 79.2094 217.681 79.9431C217.975 80.6768 218.046 81.4807 217.883 82.254C217.72 83.0273 217.331 83.7355 216.765 84.2895C216.199 84.8436 215.482 85.2189 214.702 85.3682C213.923 85.5176 213.117 85.4344 212.384 85.1291C211.652 84.8238 211.027 84.3099 210.588 83.6521C210.148 82.9943 209.913 82.2218 209.913 81.4317C209.9 80.8959 209.997 80.363 210.199 79.8661C210.401 79.3693 210.703 78.9189 211.087 78.5431C211.471 78.1672 211.928 77.8738 212.431 77.681C212.933 77.4882 213.47 77.4002 214.008 77.4223ZM214.008 78.8924C213.363 78.939 212.761 79.2267 212.32 79.6978C211.88 80.1689 211.636 80.7884 211.636 81.4317C211.636 82.075 211.88 82.6945 212.32 83.1656C212.761 83.6366 213.363 83.9244 214.008 83.971C214.653 83.9244 215.255 83.6366 215.696 83.1656C216.136 82.6945 216.38 82.075 216.38 81.4317C216.38 80.7884 216.136 80.1689 215.696 79.6978C215.255 79.2267 214.653 78.939 214.008 78.8924Z" fill="#12175E"/>
<path d="M227.633 85.3076L226.09 82.501H224.881V85.3076H223.203V77.5561H226.828C227.167 77.5308 227.507 77.5764 227.827 77.69C228.148 77.8035 228.44 77.9824 228.687 78.2153C228.933 78.4481 229.128 78.7297 229.259 79.042C229.39 79.3543 229.453 79.6903 229.446 80.0286C229.481 80.5515 229.333 81.0704 229.027 81.4968C228.721 81.9233 228.276 82.231 227.768 82.3674L229.513 85.3076H227.633ZM226.627 78.9594H224.881V81.0977H226.627C226.774 81.1121 226.923 81.0949 227.064 81.0472C227.204 80.9995 227.333 80.9224 227.441 80.8211C227.549 80.7199 227.634 80.5967 227.691 80.46C227.747 80.3233 227.773 80.1762 227.768 80.0286C227.768 79.8823 227.738 79.7376 227.68 79.6033C227.622 79.4691 227.537 79.3481 227.43 79.2479C227.323 79.1477 227.196 79.0704 227.058 79.0207C226.92 78.9711 226.773 78.9502 226.627 78.9594Z" fill="#12175E"/>
<path d="M236.427 85.3075V78.9592H234.145V77.4891H240.387V78.9592H238.105V85.3075H236.427Z" fill="#12175E"/>
<defs>
<linearGradient id="paint0_linear_2014_777" x1="33.8621" y1="84.158" x2="23.5493" y2="10.3053" gradientUnits="userSpaceOnUse">
<stop offset="0.1" stop-color="#20A55E"/>
<stop offset="0.3" stop-color="#B38C58"/>
<stop offset="0.5" stop-color="#EA2230"/>
<stop offset="0.6" stop-color="#874791"/>
<stop offset="1" stop-color="#0059A9"/>
</linearGradient>
</defs>
</svg>
