<svg xmlns="http://www.w3.org/2000/svg" viewBox="0 0 213 84"><g clip-path="url(#a)"><path d="M0 0v83.06h38.41V0H0Z"/><path fill="#fff" d="M25.41 35.98c-.07.16-.15.11-.23.08-.08-.03-.22-.13-.16.1l-.05.07c-.34-.19-.47.11-.68.26a.3.3 0 0 1-.44-.07.43.43 0 0 0 .43-.4c0-.15.12-.29.23-.21.28.17.6.1.9.17ZM5.2 64.66c.17 0 .23-.23.35-.35.13.41 0 .7-.31.76-.16 0-.25 0-.21-.2.04-.2.21-.41-.18-.34v-.09c0-.01.11-.29.27-.33.16-.04 0 .1.05.11.26.12 0 .3.06.44m6.12-31.57c-.05.15.13.27 0 .47-.2-.44-.55-.79-.45-1.34.14.14.26.3.35.47 0 .12-.12.3.08.41l.02-.01Zm2.03 27.19c-.13-.35.17-.52.29-.76a.12.12 0 0 1 .08-.04.12.12 0 0 1 .09.04.2.2 0 0 1 0 .24c-.11.21-.28.4-.48.53M12 57.77c-.09.12-.08.26-.22.31 0-.19-.35-.13-.35-.35a.15.15 0 0 1 .2-.16c.14.03.26.1.36.2Zm4.25-3.72c-.07.25-.2.48-.36.68-.05.09-.16.2-.27.09-.1-.11 0-.18.07-.25l.56-.52Zm5.86-5.52a1.6 1.6 0 0 1-.31.79.81.81 0 0 1 .31-.79Zm4.36-11.92a.19.19 0 0 1-.17-.14c0-.09-.13-.18 0-.3a.24.24 0 0 1 .24-.07c.1 0 0 0 0 0-.25.12.1.34-.07.46M8.55 61.01c-.13 0-.24 0-.22-.18.02-.18.12-.2.25-.19.13.01.17.09 0 .38l-.03-.01Zm2.44-2.13c.1-.12 0-.36.19-.38.19-.02.18.19.16.29-.02.1-.24 0-.35.09Zm.08-25.41c.09.09.27.07.26.23a.15.15 0 0 1-.18.14.19.19 0 0 1-.17-.21c0-.07 0-.15.09-.16Zm14.26 3.22a.6.6 0 0 1-.08.08h-.06a.31.31 0 0 1-.21-.3h.16c.05 0 .2.14.2.29m3.21.45c-.22.13-.34.24-.49.1-.15-.14 0-.12 0-.16 0-.04.23 0 .46.06M10.84 62.13c-.08 0-.17-.07-.14-.14a.28.28 0 0 1 .29-.15c.06 0 .15 0 .12.09s-.18.14-.27.2Zm.89-.77v-.21c.09-.08.18-.15.3-.2l.05.08c0 .16-.14.14-.2.21l-.16.12m-7.08 3.49v.13c-.16 0-.11.27-.3.2l-.05-.12.39-.21M24.1 35.9c-.17-.08-.3 0-.32-.22-.02-.22 0-.12.06-.1.06.02.2.12.25.32Zm-4.5-1.23h.07c.12 0 .25 0 .29.14.04.14 0 .05 0 .07 0 .02-.31 0-.3-.22l-.06.01Zm-2.85-.57c.11 0 .2-.18.31 0a.13.13 0 0 1 0 .13c-.12.08-.2 0-.29-.09m3.43 1.08c-.16.16-.28.16-.46 0h.46ZM7.19 63.87c.1-.19.22-.18.34-.12.12.06 0 .08 0 .1 0 .02-.22 0-.36 0m16.15-16.27c.19.17.16.26.1.37-.17-.07-.06-.19-.1-.37Zm.23-12.21c0 .16-.16.15-.34.24.1-.21.18-.25.34-.24Zm-6.77-1.01c.12-.13.27 0 .4 0-.13 0-.26.13-.41 0Zm11.02 2.92v-.47c.05.17.14.26 0 .47Z"/><path fill="#fff" d="M27.03 36.34c-.22.13-.3.05-.48 0h.48Z"/><path fill="#fff" d="M28.29 21.37h-.17a.31.31 0 0 1 .17-.26c0 .1.14.19 0 .27m-11.46 3.9c-.08 0-.13 0-.07-.12l.1-.18v.3m-1.8 1.1s-.12 0-.1-.07a.9.9 0 0 1 .2-.27l.12.06c-.09.13-.07.27-.22.28Zm3 7.84a.12.12 0 0 1 .09.04.12.12 0 0 1 .03.09c0 .11 0 .21-.15.2a.26.26 0 0 1-.18-.16c0-.12.13-.12.2-.17Zm.56 1.73s-.32-.16-.43.17c0-.74.3-.23.43-.17Zm-.17.34a.15.15 0 0 1-.16-.11s.05-.1.14-.11a.16.16 0 0 1 .12.14c0 .07-.05.07-.1.08Zm1.24-.31c.09.11 0 .07-.08.08h-.2c.14 0 .2-.18.28-.07m.57.19v.11l-.47-.12a1 1 0 0 1 .49 0m.36.6a.68.68 0 0 1-.84-.08.64.64 0 0 1 .43 0c-.12-.23-.33-.35-.47-.24-.14.11-.18-.07-.3-.16.3 0 .53.11.76.11.23 0 .09.38.42.35m0-.71c.12 0 .2.12.16.19a.83.83 0 0 0 0 .38.45.45 0 0 1-.3-.34c0-.11.13-.16.19-.23m.38.26a.45.45 0 0 0 0-.19l.49.19-.31.17c-.08 0-.13.23-.25.14s0-.21 0-.31m.42 14.15c-.07-.16.06-.16.17-.18l-.17.18Zm-.61.76c-.27.13-.27.13-.39.36-.25-.21-.16-.38.09-.48a.45.45 0 0 0 .27-.57.76.76 0 0 1 .3-.75c-.26.24.07.44.09.65a.92.92 0 0 1-.36.79Zm-.83.87c-.12.13-.18-.15-.28-.24.26-.11.55-.14.83-.08-.22.15-.41.16-.55.32Zm-6 6.51c-.11 0-.06-.07-.06-.12 0-.05 0-.14.08-.12.08.02.07.09.1.14.03.05-.08.09-.12.1Zm-4.1 2.64a.12.12 0 0 1-.1 0c-.05-.17 0-.38-.22-.48.06-.1.07-.25.24-.34 0 .24.05.47.13.69 0 .07 0 .09-.05.12m-1.67.87a.49.49 0 0 1-.43.19c.15 0 .17-.23.27-.32s.07-.12.14 0 .09.11 0 .18m24.44-43.8c0-.08 0-.14-.11-.11a1.58 1.58 0 0 1-1.43-.11c-.26-.15-.74 0-1.1.11-.46.06-.9.21-1.3.44a3 3 0 0 1-.82.45c-.2.07-.36.14-.38.41-.02.27-.17.24-.37.1-.2-.14-.34-.27-.46.06-.05.14-.21.11-.33.11-.45-.03-.9.06-1.3.26-.19.1-.39.15-.6.18-.08 0-.18 0-.2.14 0 .4-.31.4-.58.47-.27.07-.41 0-.4.35 0 .35-.12.28-.32.25-.2-.03-.28 0-.32.12-.04.12-.22.19-.37.26s-.58-.15-.84.17a4.15 4.15 0 0 1-2 1.26 8.28 8.28 0 0 0-2.81 1.34c-.12.11-.22.22-.06.32s0 .23 0 .35c0 .12-.21 0-.18.19s.18 0 .23.1c-.5.05-.5.05-.57-.31-.21 0-.15.32-.33.28-.34-.06-.18.21-.27.33-.1.12-.1.09-.12 0-.03-.09-.23-.06-.35-.09-.12-.03-.07 0-.08.1 0 .29-.38.67-.63.61-.4-.1-.52.21-.63.42-.19.47-.55.86-1 1.08.25 0 .34 0 .27.31s-.36.37-.52.52a2.78 2.78 0 0 0-1 1.85c0 .11.08.26-.14.29-.22.03-.26.23-.13.45s.28.25.22.47c-.06.22.06.19.2.13.16-.06.12-.12.2 0l.2.91c0 .07.16.11.05.21-.11.1-.15 0-.24 0-.1 0-.2-.22-.21.05a1 1 0 0 1 .33.91c0 .15.15.39 0 .46s-.06.23 0 .29c.06.06.2.32.4.35.2.03.12 0 .1-.07-.02-.07 0-.17.11-.07s.3.37.48.57c-.15.06-.31 0-.44.08l.07.12h.09c.46-.13.52.2.59.52 0 .07 0 .14.1.16.33.06.49.36.71.56.2.24.47.44.76.57.44.13.87.3 1.3.47.2.13.45.2.69.2.23 0 .43-.06.61.17s.29.08.43 0 .26-.21.36-.1c.1.11.38.18.57.24 1.36.46 2.72.88 4.1 1.26 1 .15 1.97.46 2.87.93.4.28.88.46 1.28.76s.6.61.4 1.08a6.59 6.59 0 0 1-1 1.74c-.23.3-.7.58-.22 1.06.1.12 0 .18-.1.22-.1.04-.1 0-.15-.08a.66.66 0 0 1-.1-.4c-.2.47-.81.55-.89 1.1h.32c-.18.33-.36 0-.52 0-.16 0-.06.45-.4.4a.46.46 0 0 0-.36.15.23.23 0 0 0-.1.26c.1.52.05 1.06-.16 1.55 0 .08 0 .19-.13.17-.13-.02-.11-.14-.14-.23-.03-.09.14-.1.05-.16-.1-.06-.15 0-.22.08-.23.19-.35.5-.68.56 0 0-.06.05-.06.08s.06 0 .1 0c.04 0 .16 0 .17.14 0 .14-.06.08-.11.07-.05-.01-.25.08-.27-.06-.05-.32-.21-.18-.24 0s-.22.17-.37.19c-.15.02-.36-.11-.42.17 0 .07-.11 0-.17 0-.06 0-.42.09-.63.16-.21.07-.39.24-.21.58.18.34.06.42-.22.46-.28.04-.17.07-.2.24-.03.17 0 .61-.3.7a1.35 1.35 0 0 0-.89 1c-.13.49-.5.52-.83.66a.12.12 0 0 1-.13 0c-.22-.14-.49.18-.7-.09 0 0-.08 0-.1.08-.02.08-.2.31-.12.48.07.17 0 .2-.13.27a1.48 1.48 0 0 0-.78 1c0 .17-.1.24-.28.16-.2-.08-.29 0-.32.14-.03.14-.21.24-.36.2-.3-.08-.33.22-.49.32.1.13 0 .16-.08.23-.53.32-1.25.3-1.64.89l-.16.07a.61.61 0 0 0-.22.79c.1-.2.15-.4.14-.62.13.08.38 0 .33.24-.05.24-.05.47-.28.47-.23 0-.74.18-1-.15-.06-.06-.14-.08-.2 0a.14.14 0 0 0-.03.1.14.14 0 0 0 .04.1c.14.1.25.27.47.21a.16.16 0 0 1 .17.06l.03.06c0 .12-.08.18-.16.23-.08.05-.05-.25-.21-.19-.36.36.09.74 0 1.11-.18 0-.23-.17-.3-.29-.07-.12-.15-.19-.2-.14-.03.05-.35.06-.51.13 0 .15 0 .29-.17.32a.91.91 0 0 1-.42-.07.07.07 0 0 1-.07-.07.07.07 0 0 1 .07-.07c.17 0 .08-.4.32-.24.07.07.17.11.27.12l-.14-.21c-.05-.07.16-.24 0-.21s-.5 0-.5.1c0 .29-.32.3-.36.52.06.05.25-.09.18.13s-.05.19.12.18h.15c.03 0 0 .12-.08.14-.08.02-.23.26-.37 0h-.19c-.09.29-.35.41-.63.56.53 0 .53 0 .27.46 0 0-.08.06 0 .12s.06.14-.06.15h-.58c0-.14.12-.28-.05-.37l-.26.59c-.09.19-.06.21-.2.11-.14-.1-.28 0-.42.11 0-.15.15-.28 0-.34s-.22 0-.27.18c-.05.18 0 .07 0 .1a.2.2 0 0 1-.22.2c-.16 0 0-.19-.15-.26 0 .17-.44.13-.18.49.15.2-.17.45-.49.36-.32-.09-.38-.1-.43.15a.57.57 0 0 0 .13.62c.12-.33.41-.45.63-.64.07.22.33.38.12.64-.06.07-.09.19-.21.13a.17.17 0 0 1-.1-.18c0-.03.02-.05.03-.07.05-.1.08-.18 0-.26-.08-.08 0 .09-.05.12a4.1 4.1 0 0 0 0 .7c0 .18-.12.19-.18.22s-.1-.07-.1-.13-.11-.15-.2-.14c-.09.01-.12.15-.09.21a.46.46 0 0 1-.09.49.32.32 0 0 0 .41-.11c.16-.17.3.06.45 0 0-.27.2-.31.35-.41.15-.1-.17-.32 0-.48h.06c.06 0 .09.26.26.19a.2.2 0 0 0 .1-.26c-.21-.34.09-.4.28-.57v.54c.05 0 .08-.05.1-.08.15-.21.15-.61.59-.46 0 0 .2-.08.14-.24-.06-.16-.08-.35.21-.2.08 0 .17-.32.34-.06 0 0 .08 0 .08-.06 0-.3.65-.14.41-.6a.1.1 0 0 1 .06 0c.32.15.42-.19.62-.31.14.24-.2.29-.13.52.13-.11.25-.18.4 0 .17.18.22 0 .19-.14-.18-.52.51-.54.53-.94h.07c.02 0 .37-.18.5.11 0 .07.18 0 .19-.16 0-.16.28-.28.46-.34a.63.63 0 0 1 .5 0c.14.07.14 0 .15-.12v-.29c-.1-.07-.17-.32-.27-.2s-.43.12-.4.42l-.36-.18c.24-.2.54-.34.86-.39.3 0 .15.19.17.33a.3.3 0 0 0 .3-.31c0-.18 0-.37.26-.23a.16.16 0 0 0 .21-.16.34.34 0 0 1 .37-.35c.18 0 .23-.08.19-.23-.08-.34.15-.19.33-.22a2.2 2.2 0 0 1-.48.73.7.7 0 0 0-.2.3c0 .07 0 .2.12.13.22-.07.43-.19.6-.34.3-.31.61-.6.95-.86.37-.32.89-.58 1-1.11.11-.53.4-.47.73-.51l.23-.1a.41.41 0 0 1-.4-.32.13.13 0 0 1 .05-.12c.14-.05.1.21.26.15 0-.29 0-.29.38-.26-.07.09-.21.17 0 .27a.29.29 0 0 0 .34 0c.11-.08.18-.06.23.08.35-.27.24-.76.48-1.08.3.3.3.28.5-.11.09-.16.08-.35.27-.46.74-.48 1.53-.9 2.35-1.25.2-.08.4-.15.22-.43 0-.06 0-.2.09-.16.44.17.67-.18 1-.37a6.29 6.29 0 0 0 1.42-1.49c.08-.12.19-.27.36-.13.17.14.37 0 .5-.12.29-.32.27-.79.54-1.1.15.07.25.58.45 0 0 0 .05 0 .08-.06a2.31 2.31 0 0 0 1.17-2c0-.1 0-.2.09-.27a.08.08 0 0 1 .06-.03.08.08 0 0 1 .06.03c0 .09.15.24.07.3-.3.24.09.42 0 .63.08-.21 0-.5.3-.52.49 0 .47-.4.53-.7.06-.3.23-.53.48-.47.25.06.16-.06.2-.13.3-.46.59-.92.87-1.4a6 6 0 0 0 .8-3.62c0-.06 0-.16-.07-.14-.46.12-.11-.26-.22-.35.18-.22 0-.41-.07-.6a2.36 2.36 0 0 0-.88-.81c-.11-.07-.23-.14-.16-.28.13-.32.2-.66.2-1 0-.07 0-.18-.07-.2-.08-.02-.17 0-.21.16-.04.16-.12.3-.2.44-.06.14-.06.22-.17.2a.29.29 0 0 1-.23-.26c0-.17-.1-.34-.14-.53a.7.7 0 0 1 .3.17c.06.05.15.07.2 0 .11-.25-.24-.5 0-.75-.2 0-.45.21-.63-.09h-.06c-.28.25-.28.26-.57 0-.09-.07-.16-.11-.26 0s-.24 0-.37-.05-.27-.47-.57-.57c.14-.09.29.09.32-.09.03-.18-.11-.21-.2-.24-.1-.03-.24.12-.3.24a.68.68 0 0 1-1.11.19l.22-.11a.17.17 0 0 0 .18-.19c0-.13-.14-.1-.23-.12a1.33 1.33 0 0 0-.75.18.11.11 0 0 0-.03.05c-.16.14-.31.24-.53.11a.39.39 0 0 0-.33 0c-.3.13-.47 0-.61-.25s-.2-.19 0-.31 0-.11-.05-.13a1.37 1.37 0 0 0-.34-.07.66.66 0 0 1-.42 0c-.14 0-.34-.13-.5.19-.14.32-.52.12-.82 0 .37-.21.8-.3 1.23-.27.13 0 .17 0 .16-.18-.01-.18-.09-.12-.18-.12s-.23.14-.37 0c.08-.05.16-.1.25-.13.12 0 .28-.06.3-.23.02-.17 0-.1 0-.1a.34.34 0 0 0-.33.16c-.14.19-.3.09-.43 0s0-.2 0-.3c0-.1.18 0 .05-.13a.13.13 0 0 0-.1-.02.13.13 0 0 0-.1.07v.22c-.27-.36-.28-.35-.55 0-.09.1-.16.27-.36.19 0-.1.18-.16.09-.24a.3.3 0 0 0-.28 0c-.17.2-.5.23-.57.52 0 .11-.08.12-.17.15-.09.03-.41-.21-.62 0-.25-.41-.42 0-.46.11-.04.11-.12 0-.13 0a.32.32 0 0 1 .15-.44c.14-.09.1-.18.08-.28a.15.15 0 0 0-.1-.09c-.13 0-.13.13-.17.21a1 1 0 0 1-.2.44c-.15-.25-.47-.23-.67-.42.13-.2.25 0 .38 0s.17-.06.17-.16-.11-.07-.17-.07h-.45a.32.32 0 0 1 .35-.15c0-.18.04-.35.12-.51a.44.44 0 0 1-.11.5c.16.18.3 0 .45 0 .15 0 .2-.2.3 0 .11.2.15.11.23 0l.27-.24c-.1-.54-.27 0-.42 0-.07-.42-.38-.35-.67-.31-.08-.11.16-.08.08-.19s-.11-.07-.2 0c-.07.07-.23 0-.33-.07s-.33-.08-.34 0c0 .33-.43.27-.54.5 0 .07-.1.18-.24.12a.24.24 0 0 1-.17-.27c-.33.1-.67.1-1 0-.1 0-.23 0-.21-.13.02-.13-.1-.28.12-.33.22-.05.27-.2.36-.34 0 0 0 .09.08.12s.12.21.22.11c.1-.1 0-.14-.09-.22-.22-.33-.44-.13-.6 0-.16.13-.22.13-.3 0-.08-.13 0-.19.11-.24.11-.05.18-.08.15-.18-.03-.1-.17 0-.22-.05-.05-.05-.51 0-.49-.28 0-.41 0-.64-.57-.54.21-.13.36 0 .48-.15-.18-.17-.06-.41-.18-.62-.22-.4.16-.32.35-.38a.15.15 0 0 0 .05-.06c0-.48.48-.71.68-1.1.1-.18.25-.37-.06-.53.11 0 .22-.02.33-.05.43-.15.79-.47 1-.87.09-.17.28-.36.4-.25a.19.19 0 0 0 .3 0c.4-.3.84-.57 1.3-.77.4-.17.61-.61.92-.92.09 0-.06.3.17.19.23-.11.64-.25.76-.55.12-.3.52-.2.67-.47h.13s.16.06.26.06c.5 0 .67-.42.89-.76 0-.26.2-.4.38-.56a.24.24 0 0 1 .17 0 .12.12 0 0 1 .03.13l-.03.04c-.13.21-.38.27-.57.4 0 0-.11.18.11.18s.32 0 .42-.21c.1-.21.19-.35.29 0 0 .16.13.1.17 0 .04-.1.29-.5.16-.72-.13-.22 0-.25.13-.29.13-.04.38-.11.5-.29-.12-.09-.27 0-.38-.13.3-.14.35-.43.42-.71 0-.07 0-.28.15-.23.15.05 0 .2 0 .28 0 .08-.13.4.08.53a.47.47 0 0 1 .26.43c.38-.05.43-.48.69-.58.52-.2.66-.84 1.2-1h.06c.13-.29.14-.29.38-.08.14-.44.28-.68.92-.59.11 0 .12 0 .16-.09.17-.24.3-.5.4-.77.1-.32.23-.22.4-.13s.09.32.25.11a.35.35 0 0 0 0-.43s-.12-.07-.15-.12c-.03-.05-.17-.08-.11-.19.06-.11.11-.17.23-.15.12.02.08.14.09.21 0 .27.28.29.44.29.16 0 .07-.23.08-.35 0-.12-.17-.35 0-.47.15.09-.1.35.17.38.27.03.3-.15.35-.34a.8.8 0 0 1 .11-.27s0-.18.09 0 .18.16.24.12c.06-.04.06-.15 0-.22s0-.05 0-.05c.25-.06.4-.31.65-.33.24-.02.47-.26.73-.35.1 0 .08-.11.08-.18"/><path d="M60.62 42.19c-1-.3-1.9-.81-2.69-1.49l.86-1.84a7 7 0 0 0 2.38 1.38c.96.35 1.98.53 3 .53a5.38 5.38 0 0 0 3-.7 2.12 2.12 0 0 0 1-1.84 1.8 1.8 0 0 0-.55-1.37 3.39 3.39 0 0 0-1.35-.81c-.53-.19-1.29-.4-2.27-.64a23.28 23.28 0 0 1-3-.89 4.84 4.84 0 0 1-1.93-1.38c-.57-.7-.86-1.6-.81-2.5a4.27 4.27 0 0 1 2.77-4.06 8.44 8.44 0 0 1 3.47-.63c.96 0 1.91.12 2.84.37.86.22 1.67.58 2.4 1.08l-.77 1.88a8.5 8.5 0 0 0-4.47-1.34 5 5 0 0 0-3 .73 2.24 2.24 0 0 0-.87 2.62c.1.24.25.45.43.63.4.37.87.66 1.39.83.55.19 1.3.4 2.24.62 1.02.23 2.02.52 3 .89.74.3 1.4.76 1.92 1.36.56.7.84 1.58.8 2.47a4.3 4.3 0 0 1-.7 2.36 4.7 4.7 0 0 1-2.12 1.69c-1.1.44-2.3.65-3.49.62-1.2 0-2.4-.19-3.54-.57m27.31-16.05v16.44h-2.32v-7.33h-9.36v7.33h-2.33V26.14h2.33v7.06h9.36v-7.06h2.32ZM99 36.89v5.69h-2.3v-5.74l-6.48-10.7h2.5l5.2 8.66 5.24-8.66h2.3L99 36.89Zm23.64 5.69-.03-11.98-5.88 9.98h-1.07l-5.9-9.91v11.91h-2.23V26.14h1.9l6.8 11.55 6.7-11.55h1.92l.02 16.44h-2.23Zm17.78-2.57a2.3 2.3 0 0 0 1-2.06c0-1.84-1.33-2.75-4-2.75h-5.35v5.47h5.35a5.46 5.46 0 0 0 3-.66Zm-8.33-12v5.27h4.77c.96.06 1.92-.18 2.75-.67a2.23 2.23 0 0 0 1-2 2.22 2.22 0 0 0-1-2 4.76 4.76 0 0 0-2.75-.67l-4.77.07Zm10.86 7.45c.57.76.86 1.7.82 2.64a3.8 3.8 0 0 1-1.6 3.29 7.85 7.85 0 0 1-4.64 1.15h-7.77V26.13h7.3a7.1 7.1 0 0 1 4.32 1.13 3.66 3.66 0 0 1 1.53 3.13 3.86 3.86 0 0 1-2.19 3.66c.88.22 1.66.73 2.23 1.44m6.1 5.39a7.46 7.46 0 0 1-1.81-5.4v-9.35h2.31v9.26c0 3.52 1.53 5.28 4.59 5.28a4.4 4.4 0 0 0 3.42-1.3 5.77 5.77 0 0 0 1.18-4v-9.26H161v9.35a7.47 7.47 0 0 1-1.81 5.41 6.75 6.75 0 0 1-5.08 1.87 6.73 6.73 0 0 1-5.07-1.88m16.74-14.72h2.32v14.39h8.82v2.05h-11.14V26.14Zm25.08 10.45-3.51-8.06-3.51 8.06h7.02Zm.82 1.87h-8.66l-1.79 4.11h-2.4l7.38-16.44h2.34l7.4 16.44h-2.44l-1.83-4.11Zm17.82-12.32-8.84 9.18v-9.18h-2.33v16.44h2.33v-4.26l2.97-3.05 6.24 7.31h2.72l-7.4-9.05 6.96-7.39h-2.65ZM88.02 52.72a3.37 3.37 0 0 1 .83 2.47v4.38h-1.37v-4.23c.05-.6-.13-1.19-.5-1.66a1.83 1.83 0 0 0-1.45-.56 2.18 2.18 0 0 0-1.65.65c-.43.53-.65 1.2-.61 1.88v3.92h-1.36v-4.23c.04-.6-.14-1.19-.51-1.66a1.83 1.83 0 0 0-1.45-.56 2.18 2.18 0 0 0-1.65.65c-.44.52-.66 1.2-.61 1.88v3.92h-1.37v-7.62h1.31v1.14c.28-.39.65-.7 1.09-.9.48-.21 1-.32 1.52-.31a3.3 3.3 0 0 1 1.57.36c.44.22.8.57 1.05 1 .3-.44.7-.78 1.19-1a3.8 3.8 0 0 1 1.71-.38 3 3 0 0 1 2.26.84m7.93 5.41a2.83 2.83 0 0 0 1.23-2.4c0-.49-.1-.97-.33-1.4-.2-.4-.52-.72-.9-.94a2.6 2.6 0 0 0-1.31-.33c-.46 0-.9.1-1.3.33-.39.22-.7.55-.91.94a2.9 2.9 0 0 0-.33 1.4 2.83 2.83 0 0 0 1.24 2.4c.4.23.84.34 1.3.34.46 0 .91-.11 1.31-.34Zm-3.33 1a3.6 3.6 0 0 1-1.4-1.39c-.35-.6-.52-1.3-.51-2-.01-.7.16-1.4.51-2 .33-.58.81-1.06 1.4-1.38a4.2 4.2 0 0 1 4 0c.58.32 1.06.8 1.39 1.38.35.6.52 1.3.51 2a3.87 3.87 0 0 1-1.9 3.39 4 4 0 0 1-2 .5 4 4 0 0 1-2-.5Zm14.86-7.16v7.62h-1.29v-1.15c-.28.4-.65.7-1.09.91a3.3 3.3 0 0 1-1.47.32 3.28 3.28 0 0 1-2.38-.84 3.27 3.27 0 0 1-.87-2.47v-4.39h1.37v4.23c-.05.6.14 1.2.52 1.67a2 2 0 0 0 1.51.57 2.25 2.25 0 0 0 1.71-.66 2.6 2.6 0 0 0 .63-1.87v-3.94h1.36Zm8.92.77a3.3 3.3 0 0 1 .85 2.47v4.38h-1.37v-4.23a2.3 2.3 0 0 0-.53-1.66 1.94 1.94 0 0 0-1.5-.56 2.35 2.35 0 0 0-1.75.65 2.56 2.56 0 0 0-.65 1.88v3.92h-1.36v-7.62h1.31v1.15c.28-.4.67-.7 1.12-.9.5-.22 1.05-.33 1.6-.32a3.08 3.08 0 0 1 2.28.84Zm7.62 6.4a2 2 0 0 1-.74.4 3 3 0 0 1-.91.13 2.38 2.38 0 0 1-1.76-.61 2.38 2.38 0 0 1-.63-1.77v-4.18h-1.28v-1.14h1.28v-1.67h1.37v1.66h2.2v1.14h-2.16v4.12c-.04.36.07.72.3 1a1.15 1.15 0 0 0 .88.33c.39 0 .77-.12 1.07-.36l.38.95Zm5.44-.84a2 2 0 0 0 .83-1v-1.1h-2.1c-1.17 0-1.75.39-1.75 1.18a1.05 1.05 0 0 0 .45.9 2 2 0 0 0 1.22.33c.47.01.94-.11 1.35-.35m1.36-5.58a3 3 0 0 1 .83 2.31v4.6h-1.29v-1a2.1 2.1 0 0 1-1 .81c-.47.2-.99.3-1.5.28a3.15 3.15 0 0 1-2-.61 2 2 0 0 1-.76-1.63 2 2 0 0 1 .73-1.61 3.52 3.52 0 0 1 2.3-.61h2.17v-.28a1.75 1.75 0 0 0-.52-1.36 2.11 2.11 0 0 0-1.5-.48 3.88 3.88 0 0 0-2.4.82l-.57-1c.42-.33.9-.58 1.4-.73a6.05 6.05 0 0 1 1.72-.25c.87-.06 1.73.22 2.4.78m3.36-.75h1.36v7.62h-1.36v-7.62Zm0-1.72a.82.82 0 0 1-.26-.63.86.86 0 0 1 .26-.64.88.88 0 0 1 .66-.27.93.93 0 0 1 .86.54c.05.1.07.22.07.34a.87.87 0 0 1-.27.65.86.86 0 0 1-.66.27.9.9 0 0 1-.66-.26Zm10.28 2.49a3.3 3.3 0 0 1 .85 2.47v4.38h-1.37v-4.23c.05-.6-.14-1.2-.52-1.66a2 2 0 0 0-1.51-.56 2.35 2.35 0 0 0-1.75.65 2.56 2.56 0 0 0-.65 1.88v3.92h-1.36v-7.62h1.31v1.15c.28-.4.67-.7 1.12-.9.5-.22 1.05-.33 1.6-.32a3.08 3.08 0 0 1 2.28.84Zm9.57-.44a3.82 3.82 0 0 1 1.7-.35v1.34h-.31a2.32 2.32 0 0 0-1.75.67 2.68 2.68 0 0 0-.63 1.91v3.79h-1.37v-7.62h1.31v1.26a2.3 2.3 0 0 1 1-1m4.81 1.37c-.45.41-.73.98-.79 1.58h4.84a2.41 2.41 0 0 0-.77-1.57 2.32 2.32 0 0 0-1.64-.61c-.6-.02-1.2.2-1.65.6Zm5.34 2.57h-6.13c.07.63.39 1.22.88 1.62a2.9 2.9 0 0 0 1.86.61 2.8 2.8 0 0 0 2.18-.92l.75.89c-.34.4-.78.72-1.27.92a4.5 4.5 0 0 1-1.7.31 4.46 4.46 0 0 1-2.13-.49c-.6-.32-1.1-.8-1.43-1.39a4 4 0 0 1-.5-2c-.01-.7.16-1.39.5-2 .3-.57.77-1.05 1.34-1.38a3.8 3.8 0 0 1 2-.5 3.7 3.7 0 0 1 1.92.5c.56.33 1.03.8 1.33 1.38.32.62.48 1.3.47 2v.42m2.23 3.21a3.8 3.8 0 0 1-1.34-.64l.57-1.09a4.5 4.5 0 0 0 2.65.79c1.2 0 1.79-.34 1.79-1a.69.69 0 0 0-.24-.55 1.54 1.54 0 0 0-.6-.29c-.24-.07-.59-.13-1-.21-.5-.08-1-.19-1.49-.33a2.34 2.34 0 0 1-1-.63c-.3-.35-.44-.8-.41-1.25a1.93 1.93 0 0 1 .85-1.66 3.77 3.77 0 0 1 2.29-.63 5.95 5.95 0 0 1 2.75.69l-.58 1.09a3.94 3.94 0 0 0-2.18-.6c-.46-.03-.92.07-1.33.29a.86.86 0 0 0-.45.76.7.7 0 0 0 .26.59c.18.15.4.26.63.31.25.07.6.15 1.06.23.5.08.99.2 1.47.34.38.1.73.32 1 .61.29.34.43.77.4 1.21a1.9 1.9 0 0 1-.87 1.64c-.72.44-1.55.66-2.39.61-.6 0-1.2-.08-1.78-.25m11.22-1.32c.4-.24.71-.59.91-1a3 3 0 0 0 .32-1.4 3 3 0 0 0-.32-1.4 2.3 2.3 0 0 0-.9-.94 2.6 2.6 0 0 0-1.3-.33c-.46 0-.91.1-1.3.33-.4.22-.71.54-.92.94a2.8 2.8 0 0 0-.34 1.4c-.01.49.1.97.34 1.4a2.38 2.38 0 0 0 2.21 1.34c.46 0 .9-.11 1.3-.34Zm-3.32 1a3.53 3.53 0 0 1-1.4-1.39 3.9 3.9 0 0 1-.5-2c-.02-.7.16-1.4.5-2a3.5 3.5 0 0 1 1.4-1.38 4.2 4.2 0 0 1 2-.5 4 4 0 0 1 2 .5c.59.32 1.07.8 1.4 1.38.34.61.52 1.3.5 2 .02.7-.16 1.4-.5 2a3.6 3.6 0 0 1-1.4 1.39 4 4 0 0 1-2 .5 4 4 0 0 1-2-.5Zm10.15-6.83a3.82 3.82 0 0 1 1.7-.35v1.34h-.32a2.3 2.3 0 0 0-1.74.67 2.7 2.7 0 0 0-.64 1.84v3.79h-1.36v-7.62h1.36v1.33a2.3 2.3 0 0 1 1-1Zm8 6.84a2.1 2.1 0 0 1-.74.4c-.3.09-.6.13-.91.13a2.43 2.43 0 0 1-1.77-.61 2.42 2.42 0 0 1-.62-1.77v-4.18h-1.28v-1.14h1.28v-1.67h1.36v1.66h2.17v1.14h-2.17v4.12c-.03.36.08.72.31 1a1.14 1.14 0 0 0 .88.33c.38.01.76-.12 1.06-.36l.43.95Z"/></g><defs><clipPath id="a"><path fill="#fff" d="M0 0h212.59v83.06H0z"/></clipPath></defs></svg>