<svg width="213" height="84" viewBox="0 0 213 84" fill="none" xmlns="http://www.w3.org/2000/svg">
<g clip-path="url(#clip0_414_1629)">
<path d="M0 0V10.16V83.06H38.41V62.96V0H0Z" fill="#057AB4"/>
<path d="M25.4096 35.9799C25.3396 36.1399 25.2596 36.0899 25.1796 36.0599C25.0996 36.0299 24.9596 35.9299 25.0196 36.1599L24.9696 36.2299C24.6296 36.0399 24.4996 36.3399 24.2896 36.4899C24.2569 36.5163 24.2191 36.5355 24.1785 36.5463C24.1379 36.5571 24.0955 36.5593 24.054 36.5527C24.0126 36.5461 23.9729 36.5309 23.9377 36.508C23.9025 36.4851 23.8725 36.4551 23.8496 36.4199C23.9586 36.4202 24.0637 36.379 24.1435 36.3047C24.2234 36.2305 24.272 36.1286 24.2796 36.0199C24.2796 35.8699 24.3996 35.7299 24.5096 35.8099C24.7896 35.9799 25.1096 35.9099 25.4096 35.9799Z" fill="white"/>
<path d="M5.1996 64.6602C5.3696 64.6602 5.42961 64.4302 5.54961 64.3102C5.67961 64.7202 5.54961 65.0102 5.23961 65.0702C5.07961 65.0702 4.9896 65.0702 5.0296 64.8702C5.0696 64.6702 5.23961 64.4602 4.84961 64.5302C4.84961 64.5302 4.84961 64.4502 4.84961 64.4402C4.84961 64.4302 4.95961 64.1502 5.11961 64.1102C5.27961 64.0702 5.1196 64.2102 5.1696 64.2202C5.4296 64.3402 5.1696 64.5202 5.2296 64.6602" fill="white"/>
<path d="M11.3504 33.0902C11.3004 33.2402 11.4804 33.3602 11.3504 33.5602C11.1504 33.1202 10.8004 32.7702 10.9004 32.2202C11.0383 32.3599 11.1561 32.5181 11.2504 32.6902C11.2504 32.8102 11.1304 32.9902 11.3304 33.1002L11.3504 33.0902Z" fill="white"/>
<path d="M13.3797 60.2802C13.2497 59.9302 13.5497 59.7601 13.6697 59.5201C13.6808 59.509 13.6941 59.5001 13.7087 59.494C13.7232 59.488 13.7389 59.4849 13.7547 59.4849C13.7705 59.4849 13.7861 59.488 13.8007 59.494C13.8153 59.5001 13.8285 59.509 13.8397 59.5201C13.8656 59.5548 13.8797 59.5969 13.8797 59.6401C13.8797 59.6834 13.8656 59.7255 13.8397 59.7601C13.7271 59.9746 13.562 60.157 13.3597 60.2902" fill="white"/>
<path d="M11.9899 57.7701C11.9099 57.8901 11.9199 58.0301 11.7799 58.0801C11.7799 57.8901 11.4299 57.9501 11.4299 57.7301C11.4267 57.7046 11.43 57.6787 11.4397 57.6548C11.4493 57.631 11.4649 57.61 11.485 57.5939C11.5051 57.5778 11.529 57.5672 11.5543 57.563C11.5797 57.5588 11.6057 57.5613 11.6299 57.57C11.7668 57.6002 11.892 57.6698 11.9899 57.7701Z" fill="white"/>
<path d="M16.2499 54.0498C16.178 54.2989 16.0555 54.5304 15.8899 54.7298C15.8399 54.8198 15.7299 54.9298 15.6199 54.8198C15.5099 54.7098 15.6199 54.6398 15.6899 54.5698L16.2499 54.0498Z" fill="white"/>
<path d="M22.1098 48.5298C22.079 48.8161 21.972 49.0889 21.7998 49.3198C21.7734 49.1723 21.7884 49.0204 21.8431 48.8809C21.8978 48.7415 21.9901 48.6199 22.1098 48.5298Z" fill="white"/>
<path d="M26.47 36.6101C26.4306 36.6073 26.3931 36.5924 26.3626 36.5673C26.3322 36.5422 26.3103 36.5082 26.3 36.4701C26.3 36.3801 26.17 36.2901 26.3 36.1701C26.3297 36.1375 26.3678 36.1137 26.4101 36.1014C26.4525 36.089 26.4974 36.0886 26.54 36.1001C26.54 36.1001 26.64 36.1001 26.54 36.1001C26.29 36.2201 26.64 36.4401 26.47 36.5601" fill="white"/>
<path d="M8.54951 61.0098C8.41951 61.0098 8.30951 61.0098 8.32951 60.8298C8.34951 60.6498 8.44951 60.6298 8.57951 60.6398C8.70951 60.6498 8.74951 60.7298 8.57951 61.0198L8.54951 61.0098Z" fill="white"/>
<path d="M10.9902 58.8799C11.0902 58.7599 10.9902 58.5199 11.1802 58.4999C11.3702 58.4799 11.3602 58.6899 11.3402 58.7899C11.3202 58.8899 11.1002 58.7899 10.9902 58.8799Z" fill="white"/>
<path d="M11.0697 33.4702C11.1597 33.5602 11.3397 33.5402 11.3297 33.7002C11.3287 33.7218 11.323 33.743 11.313 33.7623C11.3031 33.7815 11.289 33.7984 11.2719 33.8117C11.2548 33.825 11.235 33.8344 11.2139 33.8394C11.1928 33.8443 11.1709 33.8446 11.1497 33.8402C11.1247 33.8377 11.1004 33.8303 11.0783 33.8184C11.0562 33.8064 11.0367 33.7902 11.0208 33.7707C11.005 33.7512 10.9933 33.7287 10.9862 33.7046C10.9791 33.6805 10.9769 33.6552 10.9797 33.6302C10.9797 33.5602 10.9797 33.4802 11.0697 33.4702Z" fill="white"/>
<path d="M25.3296 36.6902C25.3055 36.7193 25.2787 36.7461 25.2496 36.7702H25.1896C25.1272 36.749 25.0733 36.7085 25.0355 36.6545C24.9978 36.6006 24.9782 36.536 24.9796 36.4702C24.9796 36.4702 25.0896 36.4702 25.1396 36.4702C25.1896 36.4702 25.3396 36.6102 25.3296 36.7602" fill="white"/>
<path d="M28.5498 37.2099C28.3298 37.3399 28.2098 37.4499 28.0598 37.3099C27.9098 37.1699 28.0598 37.1899 28.0598 37.1499C28.0598 37.1099 28.2898 37.1499 28.5198 37.2099" fill="white"/>
<path d="M10.8402 62.1298C10.7602 62.1298 10.6702 62.0599 10.7002 61.9899C10.7268 61.9377 10.7691 61.8951 10.8211 61.8682C10.8731 61.8413 10.9323 61.8314 10.9903 61.8399C11.0503 61.8399 11.1402 61.8399 11.1102 61.9299C11.0802 62.0199 10.9302 62.0698 10.8402 62.1298Z" fill="white"/>
<path d="M11.7297 61.3602C11.7297 61.2802 11.7297 61.1802 11.7297 61.1502C11.8155 61.069 11.9134 61.0016 12.0197 60.9502C12.0469 60.9707 12.0677 60.9984 12.0797 61.0302C12.0797 61.1902 11.9397 61.1702 11.8697 61.2402L11.7197 61.3602" fill="white"/>
<path d="M4.64003 64.8501C4.63388 64.8932 4.63388 64.937 4.64003 64.9801C4.48003 64.9801 4.53004 65.2501 4.35004 65.1801L4.29004 65.0601L4.68004 64.8501" fill="white"/>
<path d="M24.09 35.9C23.93 35.82 23.8 35.9001 23.78 35.6801C23.76 35.4601 23.78 35.56 23.84 35.58C23.9 35.6 24.04 35.7 24.09 35.9Z" fill="white"/>
<path d="M19.5996 34.6702H19.6696C19.7896 34.6702 19.9196 34.6702 19.9596 34.8102C19.9996 34.9502 19.9596 34.8601 19.9596 34.8801C19.9596 34.9001 19.6496 34.8802 19.6596 34.6602L19.5996 34.6702Z" fill="white"/>
<path d="M16.75 34.1C16.86 34.1 16.95 33.92 17.06 34.1C17.0714 34.1198 17.0774 34.1422 17.0774 34.165C17.0774 34.1878 17.0714 34.2103 17.06 34.23C16.94 34.31 16.86 34.23 16.77 34.14" fill="white"/>
<path d="M20.2002 35.2202C20.0402 35.3802 19.9202 35.3802 19.7402 35.2202H20.2002Z" fill="white"/>
<path d="M7.18993 63.87C7.28993 63.68 7.40992 63.6899 7.52992 63.7499C7.64992 63.8099 7.52992 63.83 7.52992 63.85C7.52992 63.87 7.30992 63.85 7.16992 63.85" fill="white"/>
<path d="M23.3203 47.5801C23.5103 47.7501 23.4803 47.8401 23.4203 47.9501C23.2503 47.8801 23.3603 47.7601 23.3203 47.5801Z" fill="white"/>
<path d="M23.55 35.3701C23.55 35.5301 23.39 35.52 23.21 35.61C23.31 35.4 23.39 35.3601 23.55 35.3701Z" fill="white"/>
<path d="M16.7795 34.36C16.8995 34.23 17.0495 34.36 17.1795 34.36C17.0495 34.36 16.9195 34.49 16.7695 34.36H16.7795Z" fill="white"/>
<path d="M27.7998 37.28V36.8101C27.8498 36.9801 27.9398 37.07 27.7998 37.28Z" fill="white"/>
<path d="M27.0298 36.3398C26.8098 36.4698 26.7298 36.3898 26.5498 36.3398H27.0298Z" fill="white"/>
<path d="M28.2895 21.3698C28.2895 21.3698 28.1795 21.3698 28.1195 21.3698C28.1225 21.3154 28.1398 21.2626 28.1696 21.217C28.1995 21.1713 28.2408 21.1344 28.2895 21.1098C28.2895 21.2098 28.4295 21.2998 28.2895 21.3798M16.8295 25.2798C16.7495 25.2798 16.6995 25.2798 16.7595 25.1598C16.7883 25.0974 16.8217 25.0372 16.8595 24.9798C16.8595 25.1498 16.8595 25.2698 16.8595 25.2798M15.0595 26.3798C15.0595 26.3798 14.9395 26.3798 14.9595 26.3098C15.0113 26.2097 15.0788 26.1185 15.1595 26.0398L15.2795 26.0998C15.1895 26.2298 15.2095 26.3698 15.0595 26.3798ZM18.0595 34.2198C18.0762 34.2197 18.0926 34.2232 18.1079 34.2298C18.1231 34.2365 18.1368 34.2462 18.1481 34.2584C18.1594 34.2706 18.168 34.2851 18.1734 34.3008C18.1788 34.3165 18.1809 34.3332 18.1795 34.3498C18.1795 34.4598 18.1795 34.5598 18.0295 34.5498C17.9888 34.5396 17.9512 34.5198 17.9199 34.4919C17.8885 34.464 17.8644 34.429 17.8495 34.3898C17.8495 34.2698 17.9795 34.2698 18.0595 34.2198ZM18.6195 35.9498C18.6195 35.9498 18.2995 35.7898 18.1895 36.1198C18.1895 35.3798 18.4995 35.8898 18.6195 35.9498ZM18.4495 36.2898C18.4141 36.2934 18.3786 36.2843 18.3493 36.2642C18.32 36.244 18.2988 36.2141 18.2895 36.1798C18.2895 36.1798 18.3395 36.0798 18.4295 36.0698C18.4615 36.0779 18.4902 36.0957 18.5117 36.1208C18.5332 36.1459 18.5464 36.1769 18.5495 36.2098C18.5495 36.2798 18.4995 36.2798 18.4495 36.2898ZM19.6895 35.9798C19.7795 36.0898 19.6895 36.0498 19.6095 36.0598C19.5465 36.0686 19.4826 36.0686 19.4195 36.0598C19.5495 36.0598 19.6095 35.8798 19.6895 35.9898M20.2595 36.1798C20.2595 36.1798 20.2595 36.2498 20.2595 36.2898L19.7895 36.1698C19.9503 36.1292 20.1187 36.1292 20.2795 36.1698M20.6395 36.7698C20.511 36.853 20.3581 36.8904 20.2056 36.8759C20.0532 36.8613 19.9101 36.7957 19.7995 36.6898C19.9386 36.6402 20.0905 36.6402 20.2295 36.6898C20.1095 36.4598 19.8995 36.3398 19.7595 36.4498C19.6195 36.5598 19.5795 36.3798 19.4595 36.2898C19.7695 36.2898 19.9895 36.3998 20.2195 36.3998C20.4495 36.3998 20.3095 36.7798 20.6395 36.7498M20.6395 36.0398C20.7595 36.0398 20.8395 36.1598 20.7995 36.2298C20.7701 36.3548 20.7701 36.4849 20.7995 36.6098C20.7258 36.5833 20.6602 36.538 20.6093 36.4783C20.5585 36.4187 20.5241 36.3468 20.5095 36.2698C20.5095 36.1598 20.6295 36.1098 20.6895 36.0398M21.0695 36.2998C21.0831 36.2372 21.0831 36.1724 21.0695 36.1098L21.5595 36.2998L21.2495 36.4698C21.1695 36.4698 21.1195 36.6998 20.9995 36.6098C20.8795 36.5198 20.9995 36.3998 20.9995 36.2998M21.4195 50.4498C21.3495 50.2898 21.4795 50.2898 21.5895 50.2698L21.4195 50.4498ZM20.8095 51.2098C20.5395 51.3398 20.5395 51.3398 20.4195 51.5698C20.1695 51.3598 20.2595 51.1898 20.5095 51.0898C20.6203 51.0491 20.7106 50.9666 20.7611 50.86C20.8116 50.7534 20.8182 50.6312 20.7795 50.5198C20.754 50.3792 20.7686 50.2343 20.8216 50.1016C20.8747 49.969 20.9641 49.854 21.0795 49.7698C20.8195 50.0098 21.1495 50.2098 21.1695 50.4198C21.1792 50.5709 21.1514 50.7221 21.0886 50.8599C21.0258 50.9977 20.9299 51.1179 20.8095 51.2098ZM19.9795 52.0798C19.8595 52.2098 19.7995 51.9298 19.6995 51.8398C19.9606 51.7255 20.2514 51.6975 20.5295 51.7598C20.3095 51.9098 20.1195 51.9198 19.9795 52.0798ZM13.9795 58.5898C13.8695 58.5898 13.9195 58.5198 13.9195 58.4698C13.9195 58.4198 13.9195 58.3298 13.9995 58.3498C14.0795 58.3698 14.0695 58.4398 14.0995 58.4898C14.1295 58.5398 14.0195 58.5798 13.9795 58.5898ZM9.87953 61.2298C9.86384 61.237 9.84679 61.2407 9.82953 61.2407C9.81227 61.2407 9.79521 61.237 9.77953 61.2298C9.72953 61.0598 9.77952 60.8498 9.55952 60.7498C9.61952 60.6498 9.62953 60.4998 9.79953 60.4098C9.80421 60.6454 9.84815 60.8786 9.92953 61.0998C9.92953 61.1698 9.92953 61.1898 9.87953 61.2198M8.20953 62.0898C8.15953 62.155 8.09394 62.2066 8.0188 62.2398C7.94366 62.273 7.86138 62.2867 7.77953 62.2798C7.92953 62.2798 7.94953 62.0498 8.04953 61.9598C8.14953 61.8698 8.11953 61.8398 8.18953 61.9598C8.25953 62.0798 8.27953 62.0698 8.18953 62.1398M32.6295 18.3398C32.6295 18.2598 32.6295 18.1998 32.5195 18.2298C32.2894 18.3256 32.0399 18.3655 31.7913 18.3464C31.5428 18.3273 31.3023 18.2497 31.0895 18.1198C30.8295 17.9698 30.3495 18.1198 29.9895 18.2298C29.5319 18.2913 29.0904 18.4407 28.6895 18.6698C28.4414 18.8618 28.1647 19.0136 27.8695 19.1198C27.6695 19.1898 27.5095 19.2598 27.4895 19.5298C27.4695 19.7998 27.3195 19.7698 27.1195 19.6298C26.9195 19.4898 26.7795 19.3598 26.6595 19.6898C26.6095 19.8298 26.4495 19.7998 26.3295 19.7998C25.8805 19.7654 25.4307 19.8553 25.0295 20.0598C24.8438 20.1511 24.6446 20.2118 24.4395 20.2398C24.3495 20.2398 24.2495 20.2398 24.2395 20.3798C24.2395 20.7798 23.9195 20.7798 23.6495 20.8498C23.3795 20.9198 23.2395 20.8498 23.2495 21.1998C23.2595 21.5498 23.1295 21.4798 22.9295 21.4498C22.7295 21.4198 22.6495 21.4498 22.6095 21.5698C22.5695 21.6898 22.3895 21.7598 22.2395 21.8298C22.0895 21.8998 21.6595 21.6798 21.3995 21.9998C20.8691 22.6048 20.1743 23.0425 19.3995 23.2598C18.3866 23.5248 17.433 23.9795 16.5895 24.5998C16.4695 24.7098 16.3695 24.8198 16.5295 24.9198C16.6895 25.0198 16.5295 25.1498 16.5295 25.2698C16.5295 25.3898 16.3195 25.2698 16.3495 25.4598C16.3795 25.6498 16.5295 25.4598 16.5795 25.5598C16.0795 25.6098 16.0795 25.6098 16.0095 25.2498C15.7995 25.2498 15.8595 25.5698 15.6795 25.5298C15.3395 25.4698 15.4995 25.7398 15.4095 25.8598C15.3195 25.9798 15.3195 25.9498 15.2895 25.8598C15.2595 25.7698 15.0595 25.7998 14.9395 25.7698C14.8195 25.7398 14.8695 25.7698 14.8595 25.8698C14.8595 26.1598 14.4795 26.5398 14.2295 26.4798C13.8295 26.3798 13.7095 26.6898 13.5995 26.8998C13.4106 27.3707 13.0545 27.7552 12.5995 27.9798C12.8495 27.9798 12.9395 27.9798 12.8695 28.2898C12.7995 28.5998 12.5095 28.6598 12.3495 28.8098C11.7868 29.2718 11.4278 29.936 11.3495 30.6598C11.3495 30.7698 11.4295 30.9198 11.2095 30.9498C10.9895 30.9798 10.9495 31.1798 11.0795 31.3998C11.2095 31.6198 11.3595 31.6498 11.2995 31.8698C11.2395 32.0898 11.3595 32.0598 11.5095 31.9998C11.6595 31.9398 11.6195 31.8798 11.6995 31.9998C11.7695 32.2998 11.8295 32.6098 11.8995 32.9098C11.8995 32.9798 12.0595 33.0198 11.9495 33.1198C11.8395 33.2198 11.7995 33.1198 11.7095 33.1198C11.6195 33.1198 11.5095 32.8998 11.4995 33.1698C11.6271 33.2812 11.7242 33.4231 11.782 33.5822C11.8397 33.7414 11.8561 33.9126 11.8295 34.0798C11.8295 34.2298 11.9795 34.4698 11.8295 34.5398C11.6795 34.6098 11.7695 34.7698 11.8295 34.8298C11.8895 34.8898 12.0295 35.1498 12.2295 35.1798C12.4295 35.2098 12.3495 35.1798 12.3295 35.1098C12.3095 35.0398 12.3295 34.9398 12.4395 35.0398C12.5495 35.1398 12.7495 35.4098 12.9195 35.6098C12.7695 35.6698 12.6095 35.6098 12.4795 35.6898C12.496 35.7334 12.5197 35.774 12.5495 35.8098C12.5789 35.8184 12.6101 35.8184 12.6395 35.8098C13.0995 35.6798 13.1595 36.0098 13.2295 36.3298C13.2295 36.3998 13.2295 36.4698 13.3295 36.4898C13.6595 36.5498 13.8195 36.8498 14.0395 37.0498C14.2472 37.2941 14.5069 37.4889 14.7995 37.6198C15.2395 37.7498 15.6695 37.9198 16.0995 38.0898C16.3084 38.2149 16.5461 38.2838 16.7895 38.2898C17.0195 38.2898 17.2195 38.2298 17.3995 38.4598C17.5795 38.6898 17.6895 38.5398 17.8295 38.4598C17.9695 38.3798 18.0895 38.2498 18.1895 38.3598C18.2895 38.4698 18.5695 38.5398 18.7595 38.5998C20.1195 39.0598 21.4795 39.4798 22.8595 39.8598C23.862 40.005 24.8324 40.3195 25.7295 40.7898C26.1295 41.0698 26.6095 41.2498 27.0095 41.5498C27.4095 41.8498 27.6095 42.1598 27.4195 42.6298C27.177 43.2574 26.8397 43.8443 26.4195 44.3698C26.1795 44.6698 25.7195 44.9498 26.1895 45.4298C26.2995 45.5498 26.1895 45.6098 26.0895 45.6498C25.9895 45.6898 25.9895 45.6498 25.9395 45.5698C25.8895 45.4898 25.8295 45.3298 25.8495 45.1698C25.6495 45.6398 25.0295 45.7198 24.9495 46.2698H25.2695C25.0895 46.5998 24.9095 46.2698 24.7495 46.2698C24.5895 46.2698 24.6895 46.7198 24.3495 46.6698C24.2822 46.6669 24.2151 46.6789 24.1528 46.7048C24.0906 46.7307 24.0349 46.7699 23.9895 46.8198C23.9467 46.8462 23.9138 46.886 23.8957 46.9329C23.8776 46.9799 23.8755 47.0315 23.8895 47.0798C23.9972 47.6006 23.9413 48.1419 23.7295 48.6298C23.7295 48.7098 23.7295 48.8198 23.5995 48.7998C23.4695 48.7798 23.4895 48.6598 23.4595 48.5698C23.4295 48.4798 23.5995 48.4698 23.5095 48.4098C23.4195 48.3498 23.3595 48.4098 23.2895 48.4898C23.0595 48.6798 22.9395 48.9898 22.6095 49.0498C22.6095 49.0498 22.5495 49.0998 22.5495 49.1298C22.5495 49.1598 22.6095 49.1298 22.6495 49.1298C22.6895 49.1298 22.8095 49.1298 22.8195 49.2698C22.8295 49.4098 22.7595 49.3498 22.7095 49.3398C22.6595 49.3298 22.4595 49.4198 22.4395 49.2798C22.3895 48.9598 22.2295 49.0998 22.1995 49.2798C22.1695 49.4598 21.9795 49.4498 21.8295 49.4698C21.6795 49.4898 21.4695 49.3598 21.4095 49.6398C21.4095 49.7098 21.2995 49.6398 21.2395 49.6398C21.1795 49.6398 20.8195 49.7298 20.6095 49.7998C20.3995 49.8698 20.2195 50.0398 20.3995 50.3798C20.5795 50.7198 20.4595 50.7998 20.1795 50.8398C19.8995 50.8798 20.0095 50.9098 19.9795 51.0798C19.9495 51.2498 19.9795 51.6898 19.6795 51.7798C19.457 51.8547 19.2579 51.9863 19.1019 52.1617C18.9458 52.3371 18.8381 52.5501 18.7895 52.7798C18.6595 53.2698 18.2895 53.2998 17.9595 53.4398C17.9402 53.4523 17.9176 53.4589 17.8945 53.4589C17.8715 53.4589 17.8489 53.4523 17.8295 53.4398C17.6095 53.2998 17.3395 53.6198 17.1295 53.3498C17.1295 53.3498 17.0495 53.3498 17.0295 53.4298C17.0095 53.5098 16.8395 53.7398 16.9095 53.9098C16.9795 54.0798 16.9095 54.1098 16.7795 54.1798C16.5835 54.2783 16.4119 54.419 16.277 54.592C16.1421 54.7649 16.0473 54.9658 15.9995 55.1798C15.9995 55.3498 15.9095 55.4198 15.7195 55.3398C15.5295 55.2598 15.4295 55.3398 15.3995 55.4798C15.3695 55.6198 15.1895 55.7198 15.0395 55.6798C14.7395 55.5998 14.7095 55.8998 14.5495 55.9998C14.6595 56.1298 14.5495 56.1598 14.4695 56.2298C13.9395 56.5498 13.2195 56.5298 12.8295 57.1198C12.8295 57.1198 12.7295 57.1698 12.6695 57.1898C12.5412 57.2706 12.4476 57.3963 12.407 57.5423C12.3663 57.6884 12.3815 57.8443 12.4495 57.9798C12.5472 57.7881 12.5953 57.5749 12.5895 57.3598C12.7195 57.4398 12.9695 57.3598 12.9195 57.5998C12.8695 57.8398 12.8695 58.0698 12.6395 58.0698C12.4095 58.0698 11.8995 58.2498 11.6395 57.9198C11.5795 57.8598 11.4995 57.8398 11.4495 57.9198C11.4362 57.9328 11.4257 57.9484 11.4184 57.9656C11.4112 57.9828 11.4075 58.0012 11.4075 58.0198C11.4075 58.0384 11.4112 58.0569 11.4184 58.074C11.4257 58.0912 11.4362 58.1068 11.4495 58.1198C11.5895 58.2198 11.6995 58.3898 11.9195 58.3298C11.9406 58.3238 11.9626 58.3223 11.9842 58.3251C12.0059 58.328 12.0267 58.3353 12.0455 58.3465C12.0642 58.3577 12.0805 58.3728 12.0932 58.3905C12.1059 58.4083 12.1149 58.4284 12.1195 58.4498C12.1195 58.5698 12.0395 58.6298 11.9595 58.6798C11.8795 58.7298 11.9095 58.4298 11.7495 58.4898C11.3895 58.8498 11.8395 59.2298 11.7495 59.5998C11.5695 59.5998 11.5195 59.4298 11.4495 59.3098C11.3795 59.1898 11.2995 59.1198 11.2595 59.1698C11.2195 59.2198 10.8995 59.2298 10.7395 59.2998C10.7395 59.4498 10.7395 59.5898 10.5695 59.6198C10.426 59.63 10.282 59.606 10.1495 59.5498C10.131 59.5498 10.1132 59.5424 10.1 59.5293C10.0869 59.5162 10.0795 59.4984 10.0795 59.4798C10.0795 59.4612 10.0869 59.4434 10.1 59.4303C10.1132 59.4172 10.131 59.4098 10.1495 59.4098C10.3195 59.4098 10.2295 59.0098 10.4695 59.1698C10.5443 59.2378 10.639 59.2799 10.7395 59.2898L10.5995 59.0798C10.5495 59.0098 10.7595 58.8398 10.5995 58.8698C10.4395 58.8998 10.0995 58.8698 10.0995 58.9698C10.0995 59.2598 9.77953 59.2698 9.73953 59.4898C9.79953 59.5398 9.98953 59.3998 9.91953 59.6198C9.84952 59.8398 9.86954 59.8098 10.0395 59.7998C10.2095 59.7898 10.1595 59.7998 10.1895 59.7998C10.2195 59.7998 10.1895 59.9198 10.1095 59.9398C10.0295 59.9598 9.87953 60.1998 9.73953 59.9398C9.73953 59.9398 9.57953 59.9398 9.54953 59.9398C9.45953 60.2298 9.19953 60.3498 8.91953 60.4998C9.44953 60.4998 9.44953 60.4998 9.18953 60.9598C9.18953 60.9598 9.10953 61.0198 9.18953 61.0798C9.26953 61.1398 9.24953 61.2198 9.12953 61.2298H8.54953C8.54953 61.0898 8.66953 60.9498 8.49953 60.8598C8.40953 61.0598 8.32953 61.2598 8.23953 61.4498C8.14953 61.6398 8.17954 61.6598 8.03954 61.5598C7.89954 61.4598 7.75954 61.5598 7.61954 61.6698C7.61954 61.5198 7.76954 61.3898 7.61954 61.3298C7.46954 61.2698 7.39953 61.3298 7.34953 61.5098C7.29953 61.6898 7.34953 61.5798 7.34953 61.6098C7.34967 61.6378 7.34392 61.6656 7.33264 61.6912C7.32136 61.7169 7.30482 61.7399 7.28407 61.7588C7.26333 61.7777 7.23884 61.7919 7.21222 61.8007C7.1856 61.8095 7.15743 61.8126 7.12953 61.8098C6.96953 61.8098 7.12952 61.6198 6.97952 61.5498C6.97952 61.7198 6.53953 61.6798 6.79953 62.0398C6.94953 62.2398 6.62952 62.4898 6.30952 62.3998C5.98952 62.3098 5.92953 62.2998 5.87953 62.5498C5.83744 62.6544 5.82732 62.7692 5.85046 62.8795C5.8736 62.9899 5.92897 63.0909 6.00954 63.1698C6.12954 62.8398 6.41953 62.7198 6.63953 62.5298C6.70953 62.7498 6.96954 62.9098 6.75954 63.1698C6.69954 63.2398 6.66953 63.3598 6.54953 63.2998C6.52706 63.2895 6.50709 63.2745 6.49103 63.2557C6.47497 63.2369 6.46319 63.2149 6.45653 63.1911C6.44986 63.1673 6.44848 63.1423 6.45245 63.1179C6.45643 63.0935 6.46565 63.0703 6.47952 63.0498C6.52952 62.9498 6.55952 62.8698 6.47952 62.7898C6.39952 62.7098 6.47953 62.8798 6.42953 62.9098C6.41456 63.1429 6.41456 63.3767 6.42953 63.6098C6.42953 63.7898 6.30953 63.7998 6.24953 63.8298C6.18953 63.8598 6.14954 63.7598 6.14954 63.6998C6.14954 63.6398 6.03952 63.5498 5.94952 63.5598C5.85952 63.5698 5.82953 63.7098 5.85953 63.7698C5.89316 63.8515 5.90257 63.9411 5.88661 64.028C5.87065 64.1149 5.83 64.1954 5.76953 64.2598C5.83951 64.2947 5.91985 64.3028 5.99539 64.2825C6.07093 64.2623 6.13644 64.2151 6.17953 64.1498C6.33953 63.9798 6.47953 64.2098 6.62953 64.1498C6.62953 63.8798 6.82952 63.8398 6.97952 63.7398C7.12952 63.6398 6.80952 63.4198 6.97952 63.2598C6.97952 63.2598 6.97954 63.2598 7.03954 63.2598C7.09954 63.2598 7.12953 63.5198 7.29953 63.4498C7.34673 63.4279 7.38357 63.3886 7.40224 63.3401C7.42091 63.2916 7.41994 63.2376 7.39954 63.1898C7.18954 62.8498 7.48953 62.7898 7.67953 62.6198C7.67953 62.8298 7.67953 62.9798 7.67953 63.1598C7.72953 63.1598 7.75953 63.1098 7.77953 63.0798C7.92953 62.8698 7.92954 62.4698 8.36954 62.6198C8.36954 62.6198 8.56954 62.5398 8.50954 62.3798C8.44954 62.2198 8.42953 62.0298 8.71953 62.1798C8.79953 62.1798 8.88952 61.8598 9.05952 62.1198C9.05952 62.1198 9.13953 62.1198 9.13953 62.0598C9.13953 61.7598 9.78953 61.9198 9.54953 61.4598C9.56906 61.4536 9.59 61.4536 9.60953 61.4598C9.92953 61.6098 10.0295 61.2698 10.2295 61.1498C10.3695 61.3898 10.0395 61.4398 10.0995 61.6698C10.2295 61.5598 10.3495 61.4898 10.5095 61.6698C10.6695 61.8498 10.7195 61.6698 10.6895 61.5298C10.5095 61.0098 11.1995 60.9898 11.2195 60.5898C11.2195 60.5898 11.2695 60.5898 11.2895 60.5898C11.3095 60.5898 11.6595 60.4098 11.7895 60.6998C11.7895 60.7698 11.9695 60.6998 11.9795 60.5398C11.9895 60.3798 12.2595 60.2598 12.4395 60.1998C12.5185 60.1657 12.6035 60.1481 12.6895 60.1481C12.7755 60.1481 12.8606 60.1657 12.9395 60.1998C13.0795 60.2698 13.0795 60.1998 13.0895 60.0798V59.7898C12.9895 59.7198 12.9195 59.4698 12.8195 59.5898C12.7195 59.7098 12.3895 59.7098 12.4195 60.0098L12.0595 59.8298C12.3045 59.6226 12.6022 59.4875 12.9195 59.4398C13.2295 59.4398 13.0695 59.6298 13.0895 59.7698C13.1298 59.7698 13.1696 59.7617 13.2067 59.746C13.2438 59.7303 13.2773 59.7073 13.3053 59.6784C13.3333 59.6495 13.3552 59.6152 13.3696 59.5776C13.3841 59.5401 13.3909 59.5 13.3895 59.4598C13.3895 59.2798 13.3895 59.0898 13.6495 59.2298C13.6742 59.238 13.7005 59.24 13.7262 59.2357C13.7518 59.2314 13.776 59.2209 13.7967 59.2052C13.8174 59.1894 13.8339 59.1688 13.8449 59.1452C13.8558 59.1216 13.8608 59.0957 13.8595 59.0698C13.8579 59.0217 13.8666 58.9737 13.8849 58.9292C13.9032 58.8847 13.9307 58.8446 13.9657 58.8115C14.0007 58.7784 14.0423 58.7531 14.0878 58.7373C14.1333 58.7215 14.1816 58.7155 14.2295 58.7198C14.4095 58.7198 14.4595 58.6398 14.4195 58.4898C14.3395 58.1498 14.5695 58.2998 14.7495 58.2698C14.6385 58.542 14.4755 58.79 14.2695 58.9998C14.1775 59.0803 14.1084 59.1839 14.0695 59.2998C14.0695 59.3698 14.0695 59.4998 14.1895 59.4298C14.4109 59.3592 14.6152 59.2434 14.7895 59.0898C15.0822 58.7777 15.3999 58.4901 15.7395 58.2298C16.1095 57.9098 16.6295 57.6498 16.7395 57.1198C16.8495 56.5898 17.1395 56.6498 17.4695 56.6098C17.548 56.5807 17.6247 56.5473 17.6995 56.5098C17.6064 56.5098 17.5161 56.4781 17.4434 56.4199C17.3707 56.3618 17.32 56.2806 17.2995 56.1898C17.2966 56.1671 17.2997 56.1442 17.3085 56.1231C17.3172 56.1021 17.3314 56.0836 17.3495 56.0698C17.4895 56.0198 17.4595 56.2798 17.6095 56.2198C17.6095 55.9298 17.6095 55.9298 17.9895 55.9598C17.9195 56.0498 17.7795 56.1298 17.9895 56.2298C18.039 56.2656 18.0985 56.2849 18.1595 56.2849C18.2206 56.2849 18.2801 56.2656 18.3295 56.2298C18.4395 56.1498 18.5095 56.1698 18.5595 56.3098C18.9095 56.0398 18.7995 55.5498 19.0395 55.2298C19.3395 55.5298 19.3495 55.5098 19.5495 55.1198C19.6295 54.9598 19.6195 54.7698 19.8095 54.6598C20.5546 54.1749 21.341 53.7566 22.1595 53.4098C22.3595 53.3298 22.5595 53.2598 22.3795 52.9798C22.3795 52.9198 22.3795 52.7798 22.4695 52.8198C22.9095 52.9898 23.1395 52.6398 23.4695 52.4498C24.0215 52.0345 24.5012 51.5311 24.8895 50.9598C24.9695 50.8398 25.0795 50.6898 25.2495 50.8298C25.4195 50.9698 25.6195 50.8298 25.7595 50.7098C26.0395 50.3898 26.0195 49.9198 26.2895 49.6098C26.4395 49.6798 26.5395 50.1898 26.7395 49.6098C26.7395 49.6098 26.7895 49.6098 26.8195 49.5498C27.1734 49.349 27.468 49.0583 27.6734 48.7071C27.8789 48.3559 27.9879 47.9567 27.9895 47.5498C27.9895 47.4498 27.9895 47.3498 28.0795 47.2798C28.087 47.2713 28.0963 47.2644 28.1066 47.2598C28.117 47.2551 28.1282 47.2527 28.1395 47.2527C28.1509 47.2527 28.1621 47.2551 28.1724 47.2598C28.1828 47.2644 28.192 47.2713 28.1995 47.2798C28.1995 47.3698 28.3495 47.5198 28.2695 47.5798C27.9695 47.8198 28.3595 47.9998 28.2695 48.2098C28.3495 47.9998 28.2695 47.7098 28.5695 47.6898C29.0595 47.6898 29.0395 47.2898 29.0995 46.9898C29.1595 46.6898 29.3295 46.4598 29.5795 46.5198C29.8295 46.5798 29.7395 46.4598 29.7795 46.3898C30.0795 45.9298 30.3695 45.4698 30.6495 44.9898C31.2951 43.899 31.5787 42.6318 31.4595 41.3698C31.4595 41.3098 31.4595 41.2098 31.3795 41.2298C30.9195 41.3498 31.2695 40.9698 31.1595 40.8798C31.3395 40.6598 31.1595 40.4698 31.0895 40.2798C30.8706 39.9387 30.5676 39.6598 30.2095 39.4698C30.0995 39.3998 29.9795 39.3298 30.0495 39.1898C30.1796 38.8719 30.2508 38.5331 30.2595 38.1898C30.2595 38.1198 30.2595 38.0098 30.1795 37.9898C30.0995 37.9698 30.0095 37.9898 29.9695 38.1498C29.9295 38.3098 29.8495 38.4498 29.7795 38.5898C29.7095 38.7298 29.7095 38.8098 29.5995 38.7898C29.5383 38.7771 29.4828 38.7449 29.4413 38.698C29.3999 38.6512 29.3747 38.5921 29.3695 38.5298C29.3695 38.3598 29.2795 38.1898 29.2295 37.9998C29.3425 38.0297 29.4458 38.0883 29.5295 38.1698C29.5895 38.2198 29.6795 38.2398 29.7295 38.1698C29.8395 37.9198 29.4895 37.6698 29.7295 37.4198C29.5295 37.4198 29.2795 37.6298 29.0995 37.3298H29.0395C28.7595 37.5798 28.7595 37.5898 28.4695 37.3298C28.3795 37.2598 28.3095 37.2198 28.2095 37.3298C28.1095 37.4398 27.9695 37.3298 27.8395 37.2798C27.7095 37.2298 27.5695 36.8098 27.2695 36.7098C27.4095 36.6198 27.5595 36.7998 27.5895 36.6198C27.6195 36.4398 27.4795 36.4098 27.3895 36.3798C27.2995 36.3498 27.1495 36.4998 27.0995 36.6198C27.0542 36.7229 26.984 36.8131 26.8952 36.8824C26.8064 36.9517 26.7018 36.9978 26.5907 37.0166C26.4797 37.0355 26.3657 37.0264 26.259 36.9903C26.1524 36.9542 26.0563 36.8922 25.9795 36.8098C26.0486 36.7653 26.1224 36.7283 26.1995 36.6998C26.2245 36.7014 26.2495 36.6976 26.2727 36.6885C26.296 36.6794 26.317 36.6653 26.3342 36.6471C26.3514 36.629 26.3643 36.6072 26.3722 36.5835C26.38 36.5598 26.3825 36.5346 26.3795 36.5098C26.3795 36.3798 26.2395 36.4098 26.1495 36.3898C25.9069 36.3749 25.6648 36.4268 25.4495 36.5398C25.4302 36.5446 25.4125 36.5546 25.3985 36.5687C25.3844 36.5828 25.3744 36.6005 25.3695 36.6198C25.2095 36.7598 25.0595 36.8598 24.8395 36.7298C24.7879 36.7057 24.7315 36.6932 24.6745 36.6932C24.6175 36.6932 24.5612 36.7057 24.5095 36.7298C24.2095 36.8598 24.0395 36.7298 23.8995 36.4798C23.7595 36.2298 23.6995 36.2898 23.8995 36.1698C24.0995 36.0498 23.8995 36.0598 23.8495 36.0398C23.7396 36.0022 23.6254 35.9786 23.5095 35.9698C23.3733 36.0155 23.2258 36.0155 23.0895 35.9698C22.9495 35.9698 22.7495 35.8398 22.5995 36.1598C22.4495 36.4798 22.0695 36.2798 21.7695 36.1598C22.1436 35.9496 22.5718 35.8556 22.9995 35.8898C23.1295 35.8898 23.1695 35.8898 23.1595 35.7098C23.1495 35.5298 23.0695 35.5898 22.9795 35.5898C22.8895 35.5898 22.7495 35.7298 22.6095 35.5898C22.6874 35.5367 22.7713 35.4931 22.8595 35.4598C22.9795 35.4598 23.1395 35.3998 23.1595 35.2298C23.1795 35.0598 23.1595 35.1298 23.1595 35.1298C23.095 35.1221 23.0296 35.1332 22.9711 35.1615C22.9126 35.1899 22.8635 35.2344 22.8295 35.2898C22.6895 35.4798 22.5295 35.3798 22.3995 35.2898C22.2695 35.1998 22.3995 35.0898 22.3995 34.9898C22.3995 34.8898 22.5795 34.9898 22.4495 34.8598C22.4341 34.8493 22.4167 34.8422 22.3983 34.8391C22.38 34.8359 22.3611 34.8367 22.3431 34.8414C22.3251 34.8462 22.3083 34.8547 22.2939 34.8665C22.2795 34.8783 22.2678 34.8931 22.2595 34.9098C22.2526 34.983 22.2526 35.0566 22.2595 35.1298C21.9795 34.7698 21.9695 34.7798 21.6995 35.1298C21.6095 35.2298 21.5395 35.3998 21.3395 35.3198C21.3395 35.2198 21.5195 35.1598 21.4295 35.0798C21.3861 35.0578 21.3382 35.0464 21.2895 35.0464C21.2409 35.0464 21.1929 35.0578 21.1495 35.0798C20.9795 35.2798 20.6495 35.3098 20.5795 35.5998C20.5795 35.7098 20.4995 35.7198 20.4095 35.7498C20.3195 35.7798 19.9995 35.5398 19.7895 35.7498C19.5395 35.3398 19.3695 35.7498 19.3295 35.8598C19.2895 35.9698 19.2095 35.8598 19.1995 35.8598C19.1793 35.8213 19.1671 35.779 19.1637 35.7357C19.1603 35.6923 19.1658 35.6487 19.1798 35.6075C19.1939 35.5663 19.2162 35.5284 19.2453 35.4962C19.2745 35.4639 19.31 35.4379 19.3495 35.4198C19.4895 35.3298 19.4595 35.2398 19.4295 35.1398C19.421 35.118 19.4075 35.0986 19.3902 35.083C19.3728 35.0673 19.3521 35.056 19.3295 35.0498C19.1995 35.0498 19.1995 35.1798 19.1595 35.2598C19.1328 35.4197 19.0676 35.5707 18.9695 35.6998C18.8095 35.4498 18.4895 35.4698 18.2895 35.2798C18.4195 35.0798 18.5395 35.2798 18.6695 35.2798C18.7995 35.2798 18.8395 35.2198 18.8395 35.1198C18.8395 35.0198 18.7295 35.0498 18.6695 35.0498H18.2195C18.2541 34.9906 18.3068 34.9441 18.3698 34.9171C18.4328 34.8901 18.5028 34.884 18.5695 34.8998C18.5683 34.7227 18.6094 34.5478 18.6895 34.3898C18.7256 34.4742 18.7345 34.5678 18.7147 34.6574C18.695 34.7471 18.6477 34.8283 18.5795 34.8898C18.7395 35.0698 18.8795 34.8898 19.0295 34.8898C19.1795 34.8898 19.2395 34.6898 19.3395 34.8898C19.4395 35.0898 19.4795 34.9998 19.5595 34.8898L19.8295 34.6498C19.7295 34.1098 19.5595 34.6498 19.4095 34.6498C19.3395 34.2298 19.0295 34.2998 18.7395 34.3398C18.6595 34.2298 18.8995 34.2598 18.8195 34.1498C18.7395 34.0398 18.7095 34.0798 18.6295 34.1498C18.5495 34.2198 18.3895 34.1498 18.2895 34.0798C18.1895 34.0098 17.9595 33.9998 17.9495 34.0798C17.9495 34.4098 17.5195 34.3498 17.4095 34.5798C17.4095 34.6498 17.3095 34.7598 17.1695 34.6998C17.113 34.6834 17.0645 34.6469 17.0332 34.5971C17.0018 34.5473 16.9899 34.4878 16.9995 34.4298C16.6726 34.5221 16.3265 34.5221 15.9995 34.4298C15.9095 34.4298 15.7695 34.4298 15.7895 34.2998C15.8095 34.1698 15.6895 34.0198 15.9095 33.9698C16.1295 33.9198 16.1795 33.7698 16.2695 33.6298C16.2695 33.6298 16.2695 33.7198 16.3495 33.7498C16.4295 33.7798 16.4695 33.9598 16.5695 33.8598C16.6695 33.7598 16.5695 33.7198 16.4795 33.6398C16.2595 33.3098 16.0395 33.5098 15.8795 33.6398C15.7195 33.7698 15.6595 33.7698 15.5795 33.6398C15.4995 33.5098 15.5795 33.4498 15.6895 33.3998C15.7995 33.3498 15.8695 33.3198 15.8395 33.2198C15.8095 33.1198 15.6695 33.2198 15.6195 33.1698C15.5695 33.1198 15.1095 33.1698 15.1295 32.8898C15.1295 32.4798 15.1295 32.2498 14.5595 32.3498C14.7695 32.2198 14.9195 32.3498 15.0395 32.1998C14.8595 32.0298 14.9795 31.7898 14.8595 31.5798C14.6395 31.1798 15.0195 31.2598 15.2095 31.1998C15.2312 31.1845 15.2485 31.1638 15.2595 31.1398C15.2595 30.6598 15.7395 30.4298 15.9395 30.0398C16.0395 29.8598 16.1895 29.6698 15.8795 29.5098C15.9907 29.5018 16.101 29.4851 16.2095 29.4598C16.6399 29.3049 16.9966 28.9946 17.2095 28.5898C17.2995 28.4198 17.4895 28.2298 17.6095 28.3398C17.6273 28.3626 17.65 28.3812 17.676 28.3939C17.702 28.4066 17.7306 28.4132 17.7595 28.4132C17.7885 28.4132 17.817 28.4066 17.843 28.3939C17.869 28.3812 17.8918 28.3626 17.9095 28.3398C18.3102 28.0317 18.7467 27.7731 19.2095 27.5698C19.6195 27.3998 19.8195 26.9598 20.1295 26.6498C20.2195 26.6498 20.0695 26.9498 20.2995 26.8398C20.5295 26.7298 20.9395 26.5898 21.0595 26.2898C21.1795 25.9898 21.5795 26.0898 21.7295 25.8198C21.7295 25.8198 21.8495 25.8198 21.8595 25.8198C21.8695 25.8198 22.0195 25.8798 22.1195 25.8798C22.6195 25.8798 22.7895 25.4598 23.0095 25.1198C23.0095 24.8598 23.2195 24.7198 23.3895 24.5598C23.4443 24.5391 23.5048 24.5391 23.5595 24.5598C23.5707 24.571 23.5796 24.5842 23.5856 24.5988C23.5917 24.6134 23.5948 24.629 23.5948 24.6448C23.5948 24.6606 23.5917 24.6762 23.5856 24.6908C23.5796 24.7054 23.5707 24.7187 23.5595 24.7298C23.4295 24.9398 23.1795 24.9998 22.9895 25.1298C22.9895 25.1298 22.8795 25.3098 23.0995 25.3098C23.3195 25.3098 23.4195 25.3098 23.5195 25.0998C23.6195 24.8898 23.7095 24.7498 23.8095 25.0998C23.8095 25.2598 23.9395 25.1998 23.9795 25.0998C24.0195 24.9998 24.2695 24.5998 24.1395 24.3798C24.0095 24.1598 24.1395 24.1298 24.2695 24.0898C24.3995 24.0498 24.6495 23.9798 24.7695 23.7998C24.6495 23.7098 24.4995 23.7998 24.3895 23.6698C24.6995 23.5298 24.7395 23.2398 24.8095 22.9598C24.8095 22.8898 24.8095 22.6798 24.9595 22.7298C25.1095 22.7798 24.9595 22.9298 24.9595 23.0098C24.9595 23.0898 24.8295 23.4098 25.0395 23.5398C25.1191 23.5795 25.1858 23.641 25.2318 23.7171C25.2779 23.7932 25.3013 23.8809 25.2995 23.9698C25.6795 23.9198 25.7295 23.4898 25.9895 23.3898C26.5095 23.1898 26.6495 22.5498 27.1895 22.3898C27.1895 22.3898 27.1895 22.3898 27.2495 22.3898C27.3795 22.0998 27.3895 22.0998 27.6295 22.3098C27.7695 21.8698 27.9095 21.6298 28.5495 21.7198C28.6595 21.7198 28.6695 21.7198 28.7095 21.6298C28.8751 21.3896 29.0126 21.1313 29.1195 20.8598C29.2095 20.5398 29.3395 20.6398 29.5095 20.7298C29.6795 20.8198 29.5995 21.0498 29.7595 20.8398C29.8074 20.7783 29.8333 20.7027 29.8333 20.6248C29.8333 20.5469 29.8074 20.4713 29.7595 20.4098C29.7595 20.4098 29.6395 20.3398 29.6095 20.2898C29.5795 20.2398 29.4395 20.2098 29.4995 20.0998C29.5595 19.9898 29.6095 19.9298 29.7295 19.9498C29.8495 19.9698 29.8095 20.0898 29.8195 20.1598C29.8195 20.4298 30.0995 20.4498 30.2595 20.4498C30.4195 20.4498 30.3295 20.2198 30.3395 20.0998C30.3495 19.9798 30.1695 19.7498 30.3395 19.6298C30.4895 19.7198 30.2395 19.9798 30.5095 20.0098C30.7795 20.0398 30.8095 19.8598 30.8595 19.6698C30.8796 19.5739 30.9168 19.4824 30.9695 19.3998C30.9695 19.3998 30.9695 19.2198 31.0595 19.3998C31.1495 19.5798 31.2395 19.5598 31.2995 19.5198C31.3595 19.4798 31.3595 19.3698 31.2995 19.2998C31.2395 19.2298 31.2995 19.2498 31.2995 19.2498C31.5495 19.1898 31.7095 18.9398 31.9495 18.9198C32.1895 18.8998 32.4195 18.6598 32.6795 18.5698C32.7795 18.5698 32.7595 18.4598 32.7595 18.3898" fill="white"/>
<path d="M60.6197 42.1898C59.6282 41.8878 58.7116 41.3801 57.9297 40.6998L58.7897 38.8599C59.4839 39.4728 60.2929 39.9418 61.1697 40.2399C62.131 40.5904 63.1464 40.7697 64.1697 40.7698C65.2165 40.8339 66.2593 40.5906 67.1697 40.0698C67.4814 39.8759 67.7374 39.6045 67.9127 39.2819C68.088 38.9594 68.1766 38.5969 68.1697 38.2299C68.1801 37.9756 68.1364 37.722 68.0416 37.4858C67.9468 37.2497 67.803 37.0364 67.6197 36.8599C67.2395 36.4877 66.777 36.2102 66.2697 36.0499C65.7397 35.8599 64.9797 35.6498 63.9997 35.4098C62.9809 35.1808 61.9786 34.8834 60.9997 34.5198C60.2518 34.2271 59.5886 33.7528 59.0697 33.1398C58.4987 32.436 58.2099 31.5448 58.2597 30.6398C58.2514 29.7991 58.4914 28.9747 58.9497 28.2698C59.466 27.5181 60.1882 26.9313 61.0297 26.5798C62.1291 26.1278 63.3116 25.9131 64.4997 25.9498C65.4585 25.9478 66.4134 26.0722 67.3397 26.3198C68.1967 26.5367 69.009 26.9023 69.7397 27.3998L68.9697 29.2798C68.2908 28.8443 67.5534 28.5076 66.7797 28.2798C66.0389 28.0623 65.2717 27.9478 64.4997 27.9398C63.4477 27.8606 62.3976 28.1161 61.4997 28.6699C61.1901 28.8756 60.9366 29.1552 60.762 29.4834C60.5874 29.8116 60.4973 30.1781 60.4997 30.5499C60.4912 30.8048 60.5367 31.0586 60.6333 31.2947C60.7298 31.5308 60.8751 31.7438 61.0597 31.9199C61.4588 32.2922 61.9326 32.5751 62.4497 32.7498C62.9997 32.9398 63.7497 33.1499 64.6897 33.3699C65.7089 33.5974 66.7113 33.8947 67.6897 34.2598C68.4273 34.5567 69.0849 35.0225 69.6097 35.6199C70.1701 36.3173 70.4548 37.1963 70.4097 38.0898C70.4179 38.9288 70.1741 39.751 69.7097 40.4498C69.1848 41.2096 68.4473 41.7975 67.5897 42.1398C66.4808 42.5824 65.2931 42.7934 64.0997 42.7598C62.8966 42.7626 61.7011 42.5701 60.5597 42.1898" fill="#1D1D1B"/>
<path d="M87.8704 26.1401V42.5801H85.5504V35.2501H76.1904V42.5801H73.8604V26.1401H76.1904V33.2001H85.5504V26.1401H87.8704Z" fill="#1D1D1B"/>
<path d="M98.9997 36.8901V42.5801H96.6897V36.8401L90.2197 26.1401H92.7097L97.9197 34.8001L103.16 26.1401H105.46L98.9997 36.8901Z" fill="#1D1D1B"/>
<path d="M122.64 42.5801L122.61 30.6001L116.73 40.5801H115.66L109.77 30.6701V42.5801H107.53V26.1401H109.44L116.24 37.6901L122.94 26.1401H124.85L124.87 42.5801H122.64Z" fill="#1D1D1B"/>
<path d="M140.42 40.0098C140.752 39.7837 141.019 39.4746 141.194 39.1132C141.37 38.7517 141.448 38.3506 141.42 37.9498C141.42 36.1098 140.09 35.1998 137.42 35.1998H132.07V40.6699H137.42C138.462 40.7415 139.504 40.5124 140.42 40.0098ZM132.09 28.0098V33.2799H136.86C137.823 33.3362 138.781 33.1028 139.61 32.6099C139.938 32.3941 140.203 32.0955 140.379 31.7443C140.554 31.3931 140.634 31.0018 140.61 30.6099C140.635 30.2178 140.556 29.8261 140.38 29.4747C140.204 29.1234 139.938 28.825 139.61 28.6099C138.782 28.1129 137.823 27.8792 136.86 27.9398L132.09 28.0098ZM142.95 35.4599C143.518 36.2199 143.807 37.1519 143.77 38.0999C143.802 38.7387 143.673 39.3754 143.393 39.9507C143.113 40.526 142.692 41.021 142.17 41.3898C140.78 42.2462 139.158 42.6482 137.53 42.5399H129.76V26.1298H137.06C138.583 26.0357 140.097 26.4316 141.38 27.2598C141.875 27.6133 142.274 28.0846 142.541 28.6311C142.808 29.1776 142.935 29.7821 142.91 30.3898C142.93 31.1756 142.721 31.9503 142.31 32.6199C141.925 33.2368 141.374 33.7325 140.72 34.0499C141.6 34.2742 142.383 34.7798 142.95 35.4899" fill="#1D1D1B"/>
<path d="M149.05 40.8798C147.756 39.3906 147.105 37.4485 147.24 35.4799V26.1298H149.55V35.3898C149.55 38.9098 151.08 40.6699 154.14 40.6699C154.77 40.7105 155.401 40.6155 155.991 40.3912C156.581 40.167 157.116 39.8187 157.56 39.3699C158.439 38.2303 158.859 36.8037 158.74 35.3699V26.1099H161V35.4598C161.136 37.4316 160.486 39.377 159.19 40.8699C158.518 41.5153 157.72 42.0145 156.846 42.3364C155.972 42.6582 155.04 42.7956 154.11 42.7399C153.181 42.7941 152.251 42.655 151.378 42.3314C150.506 42.0078 149.709 41.5068 149.04 40.8599" fill="#1D1D1B"/>
<path d="M165.78 26.1401H168.1V40.5301H176.92V42.5801H165.78V26.1401Z" fill="#1D1D1B"/>
<path d="M190.86 36.5899L187.35 28.5299L183.84 36.5899H190.86ZM191.68 38.4599H183.02L181.23 42.5699H178.83L186.21 26.1299H188.55L195.95 42.5699H193.51L191.68 38.4599Z" fill="#1D1D1B"/>
<path d="M209.5 26.1401L200.66 35.3201V26.1401H198.33V42.5801H200.66V38.3201L203.63 35.2701L209.87 42.5801H212.59L205.19 33.5301L212.15 26.1401H209.5Z" fill="#1D1D1B"/>
<path d="M88.0203 52.72C88.3157 53.056 88.5412 53.4474 88.6837 53.8715C88.8262 54.2956 88.8828 54.7437 88.8503 55.1899V59.5699H87.4803V55.34C87.5273 54.7435 87.3489 54.1512 86.9803 53.68C86.7945 53.4859 86.5683 53.3351 86.3177 53.2383C86.0671 53.1415 85.7983 53.1012 85.5303 53.12C85.2251 53.1067 84.9205 53.1576 84.6362 53.2696C84.352 53.3816 84.0944 53.552 83.8803 53.7699C83.4458 54.2965 83.2277 54.9686 83.2703 55.6499V59.5699H81.9103V55.34C81.9545 54.7422 81.7724 54.1498 81.4003 53.68C81.2145 53.4859 80.9883 53.3351 80.7377 53.2383C80.4871 53.1415 80.2183 53.1012 79.9503 53.12C79.6451 53.1067 79.3405 53.1576 79.0562 53.2696C78.772 53.3816 78.5144 53.552 78.3003 53.7699C77.8612 54.294 77.6425 54.9679 77.6903 55.6499V59.5699H76.3203V51.9499H77.6303V53.09C77.9087 52.6998 78.2845 52.3894 78.7203 52.1899C79.1989 51.9789 79.7173 51.8732 80.2403 51.8799C80.7852 51.8696 81.3243 51.9933 81.8103 52.24C82.2504 52.4637 82.6154 52.8113 82.8603 53.24C83.157 52.8032 83.5689 52.4571 84.0503 52.24C84.5829 51.9819 85.1685 51.8517 85.7603 51.86C86.1746 51.8361 86.5894 51.8983 86.9784 52.0429C87.3674 52.1875 87.7222 52.4112 88.0203 52.6999" fill="#057AB4"/>
<path d="M95.9497 58.1101C96.3382 57.8685 96.6502 57.5218 96.8497 57.1101C97.0755 56.6785 97.189 56.197 97.1797 55.71C97.189 55.2231 97.0755 54.7416 96.8497 54.3101C96.645 53.9176 96.3329 53.5916 95.9497 53.3701C95.5497 53.1466 95.0978 53.0327 94.6397 53.0401C94.1849 53.034 93.7365 53.1478 93.3397 53.3701C92.9535 53.5909 92.6379 53.9169 92.4297 54.3101C92.2039 54.7416 92.0904 55.2231 92.0997 55.71C92.0904 56.197 92.2039 56.6785 92.4297 57.1101C92.6332 57.5222 92.9485 57.8687 93.3397 58.1101C93.7357 58.3353 94.184 58.4526 94.6397 58.45C95.0986 58.4538 95.5505 58.3366 95.9497 58.1101ZM92.6197 59.1101C92.0327 58.7861 91.5478 58.3047 91.2197 57.72C90.8727 57.1115 90.6965 56.4205 90.7097 55.72C90.698 55.0198 90.8741 54.3292 91.2197 53.72C91.548 53.1381 92.0331 52.66 92.6197 52.34C93.2332 52.0066 93.9214 51.8345 94.6197 51.84C95.3181 51.8332 96.0066 52.0053 96.6197 52.34C97.2033 52.6606 97.6849 53.1388 98.0097 53.72C98.3553 54.3292 98.5314 55.0198 98.5197 55.72C98.5329 56.4205 98.3567 57.1115 98.0097 57.72C97.6856 58.3043 97.204 58.7859 96.6197 59.1101C96.0081 59.4486 95.3186 59.621 94.6197 59.6101C93.9208 59.621 93.2312 59.4486 92.6197 59.1101Z" fill="#057AB4"/>
<path d="M107.48 51.9502V59.5702H106.19V58.4202C105.912 58.8131 105.536 59.1267 105.1 59.3302C104.641 59.549 104.138 59.6585 103.63 59.6502C103.197 59.6743 102.764 59.6125 102.356 59.4683C101.947 59.3241 101.571 59.1005 101.25 58.8102C100.942 58.4807 100.707 58.0911 100.557 57.6661C100.407 57.241 100.347 56.7896 100.38 56.3402V51.9502H101.75V56.1802C101.704 56.7828 101.89 57.3802 102.27 57.8502C102.468 58.0449 102.705 58.1962 102.965 58.2943C103.225 58.3925 103.502 58.4353 103.78 58.4202C104.095 58.4364 104.411 58.3859 104.705 58.2722C105 58.1585 105.267 57.984 105.49 57.7602C105.937 57.2433 106.163 56.572 106.12 55.8902V51.9502H107.48Z" fill="#057AB4"/>
<path d="M116.4 52.7202C116.702 53.0528 116.933 53.4432 117.079 53.8678C117.225 54.2925 117.283 54.7424 117.25 55.1902V59.5702H115.88V55.3402C115.928 54.7388 115.737 54.1427 115.35 53.6803C115.154 53.485 114.919 53.3339 114.661 53.2373C114.402 53.1407 114.125 53.1008 113.85 53.1203C113.529 53.1033 113.209 53.1522 112.908 53.264C112.607 53.3758 112.332 53.5481 112.1 53.7702C111.872 54.0247 111.697 54.322 111.586 54.6448C111.474 54.9676 111.428 55.3094 111.45 55.6502V59.5702H110.09V51.9502H111.4V53.1002C111.683 52.7025 112.07 52.3909 112.52 52.2002C113.024 51.9811 113.57 51.872 114.12 51.8802C114.537 51.8583 114.954 51.9215 115.346 52.0659C115.738 52.2103 116.097 52.4329 116.4 52.7202Z" fill="#057AB4"/>
<path d="M124.02 59.1198C123.805 59.3041 123.552 59.4404 123.28 59.5198C122.985 59.6096 122.678 59.6535 122.37 59.6498C122.051 59.6717 121.73 59.6289 121.428 59.5241C121.126 59.4193 120.847 59.2546 120.61 59.0398C120.391 58.803 120.221 58.5239 120.113 58.2196C120.005 57.9153 119.96 57.5921 119.98 57.2698V53.0898H118.7V51.9498H119.98V50.2798H121.35V51.9398H123.55V53.0798H121.39V57.1998C121.354 57.5596 121.462 57.9191 121.69 58.1998C121.805 58.3136 121.943 58.4019 122.095 58.4588C122.247 58.5157 122.409 58.5398 122.57 58.5298C122.958 58.5393 123.337 58.4119 123.64 58.1698L124.02 59.1198Z" fill="#057AB4"/>
<path d="M129.46 58.2798C129.84 58.0481 130.132 57.6962 130.29 57.2798V56.1798H128.18C127.02 56.1798 126.44 56.5698 126.44 57.3598C126.434 57.5353 126.473 57.7095 126.551 57.8665C126.63 58.0236 126.746 58.1587 126.89 58.2597C127.25 58.4987 127.678 58.6145 128.11 58.5898C128.583 58.6003 129.051 58.4791 129.46 58.2398M130.82 52.6598C131.113 52.9645 131.339 53.3279 131.482 53.726C131.625 54.1241 131.682 54.548 131.65 54.9698V59.5697H130.36V58.5697C130.121 58.9391 129.771 59.2228 129.36 59.3797C128.885 59.5786 128.374 59.6741 127.86 59.6598C127.143 59.6901 126.437 59.4749 125.86 59.0498C125.615 58.8563 125.418 58.608 125.286 58.325C125.154 58.0419 125.09 57.7319 125.1 57.4198C125.09 57.1134 125.151 56.8089 125.277 56.5297C125.404 56.2505 125.593 56.0043 125.83 55.8098C126.502 55.3456 127.315 55.1299 128.13 55.1997H130.3V54.9198C130.317 54.6689 130.28 54.4173 130.19 54.1824C130.1 53.9475 129.96 53.7351 129.78 53.5598C129.36 53.2122 128.823 53.0402 128.28 53.0797C127.833 53.0804 127.39 53.1583 126.97 53.3098C126.575 53.4429 126.207 53.6424 125.88 53.8998L125.31 52.8998C125.725 52.5689 126.2 52.321 126.71 52.1698C127.268 52.0042 127.847 51.92 128.43 51.9198C129.3 51.8591 130.161 52.1387 130.83 52.6997" fill="#057AB4"/>
<path d="M134.19 51.95H135.55V59.57H134.19V51.95ZM134.19 50.23C134.104 50.1498 134.037 50.052 133.992 49.9433C133.947 49.8345 133.926 49.7175 133.93 49.6C133.927 49.4811 133.948 49.3629 133.993 49.2527C134.038 49.1425 134.105 49.0429 134.19 48.96C134.275 48.8709 134.378 48.8008 134.491 48.7542C134.605 48.7077 134.727 48.6858 134.85 48.69C135.095 48.6833 135.332 48.7731 135.51 48.94C135.598 49.0197 135.667 49.1171 135.713 49.2258C135.76 49.3344 135.783 49.4518 135.78 49.57C135.782 49.6911 135.76 49.8113 135.713 49.9232C135.667 50.035 135.598 50.1361 135.51 50.22C135.426 50.3091 135.323 50.3792 135.209 50.4257C135.095 50.4723 134.973 50.4942 134.85 50.49C134.728 50.4936 134.607 50.4724 134.494 50.4277C134.38 50.3831 134.277 50.3158 134.19 50.23Z" fill="#057AB4"/>
<path d="M144.47 52.7202C144.772 53.0528 145.003 53.4432 145.149 53.8678C145.295 54.2925 145.353 54.7424 145.32 55.1902V59.5702H143.95V55.3402C143.997 54.7406 143.81 54.1462 143.43 53.6803C143.231 53.4874 142.994 53.3379 142.734 53.2415C142.474 53.1451 142.197 53.1039 141.92 53.1203C141.6 53.1033 141.279 53.1522 140.978 53.264C140.677 53.3758 140.402 53.5481 140.17 53.7702C139.942 54.0247 139.767 54.322 139.656 54.6448C139.544 54.9676 139.498 55.3094 139.52 55.6502V59.5702H138.16V51.9502H139.47V53.1002C139.753 52.7025 140.141 52.3909 140.59 52.2002C141.095 51.9811 141.64 51.872 142.19 51.8802C142.607 51.8583 143.025 51.9215 143.416 52.0659C143.808 52.2103 144.167 52.4329 144.47 52.7202Z" fill="#057AB4"/>
<path d="M154.04 52.28C154.572 52.0344 155.154 51.9147 155.74 51.93V53.27H155.43C155.107 53.2538 154.785 53.3051 154.484 53.4204C154.183 53.5358 153.909 53.7127 153.68 53.94C153.23 54.4707 153.004 55.1557 153.05 55.85V59.64H151.68V52.02H152.99V53.28C153.213 52.8523 153.562 52.5033 153.99 52.28" fill="#057AB4"/>
<path d="M158.79 53.65C158.345 54.0629 158.067 54.6254 158.01 55.23H162.85C162.799 54.6287 162.524 54.0685 162.08 53.66C161.634 53.2504 161.045 53.0315 160.44 53.05C159.833 53.0304 159.242 53.2452 158.79 53.65ZM164.14 56.22H158.01C158.079 56.8546 158.395 57.4365 158.89 57.84C159.42 58.2535 160.078 58.4692 160.75 58.45C161.158 58.4651 161.565 58.3905 161.942 58.2316C162.319 58.0727 162.656 57.8332 162.93 57.53L163.68 58.42C163.335 58.8226 162.9 59.1378 162.41 59.34C161.869 59.5537 161.291 59.659 160.71 59.65C159.97 59.6658 159.238 59.4975 158.58 59.16C157.98 58.8433 157.484 58.3608 157.15 57.77C156.811 57.1585 156.639 56.4689 156.65 55.77C156.639 55.0723 156.807 54.3835 157.14 53.77C157.455 53.195 157.922 52.7177 158.49 52.39C159.099 52.0446 159.79 51.8717 160.49 51.89C161.163 51.8793 161.827 52.0521 162.41 52.39C162.974 52.7156 163.435 53.1939 163.74 53.77C164.057 54.3883 164.219 55.075 164.21 55.77C164.21 55.88 164.21 56.02 164.21 56.19" fill="#057AB4"/>
<path d="M166.44 59.3999C165.955 59.2767 165.5 59.0592 165.1 58.7599L165.67 57.6699C166.041 57.9241 166.449 58.1197 166.88 58.2498C167.347 58.3881 167.832 58.4588 168.32 58.4599C169.52 58.4599 170.11 58.1199 170.11 57.4599C170.114 57.3559 170.095 57.2523 170.054 57.157C170.012 57.0616 169.949 56.9771 169.87 56.9099C169.693 56.7703 169.488 56.6713 169.27 56.6199C169.03 56.5499 168.68 56.4899 168.27 56.4099C167.766 56.3342 167.268 56.2239 166.78 56.0799C166.398 55.9589 166.054 55.742 165.78 55.4499C165.487 55.1019 165.34 54.6539 165.37 54.1999C165.36 53.874 165.433 53.5511 165.582 53.261C165.731 52.9709 165.95 52.7229 166.22 52.5399C166.895 52.0886 167.698 51.8677 168.51 51.9099C169.019 51.9089 169.526 51.9727 170.02 52.0999C170.458 52.1958 170.877 52.3648 171.26 52.5999L170.68 53.6898C170.027 53.2812 169.269 53.0726 168.5 53.0899C168.038 53.0642 167.578 53.1645 167.17 53.3799C167.033 53.454 166.919 53.5639 166.84 53.6977C166.76 53.8316 166.719 53.9843 166.72 54.1399C166.713 54.2517 166.734 54.3635 166.779 54.4661C166.824 54.5686 166.893 54.659 166.98 54.7299C167.163 54.8801 167.379 54.9861 167.61 55.0399C167.86 55.1099 168.21 55.1899 168.67 55.2699C169.166 55.3516 169.657 55.4652 170.14 55.6099C170.524 55.7148 170.871 55.9262 171.14 56.2199C171.425 56.5561 171.568 56.99 171.54 57.4299C171.548 57.755 171.472 58.0767 171.32 58.364C171.167 58.6513 170.943 58.8944 170.67 59.0699C169.954 59.5131 169.12 59.7261 168.28 59.6799C167.677 59.6838 167.078 59.5995 166.5 59.4299" fill="#057AB4"/>
<path d="M177.72 58.1099C178.114 57.8715 178.43 57.5242 178.63 57.1099C178.848 56.676 178.958 56.1955 178.95 55.7098C178.958 55.2241 178.848 54.7438 178.63 54.3099C178.424 53.9147 178.108 53.588 177.72 53.3699C177.324 53.1463 176.875 53.0324 176.42 53.0399C175.965 53.0324 175.516 53.1463 175.12 53.3699C174.732 53.588 174.415 53.9147 174.21 54.3099C173.976 54.7387 173.859 55.2215 173.87 55.7098C173.859 56.1982 173.976 56.681 174.21 57.1099C174.41 57.5242 174.726 57.8715 175.12 58.1099C175.515 58.3365 175.964 58.4538 176.42 58.4498C176.876 58.4538 177.324 58.3365 177.72 58.1099ZM174.4 59.1099C173.811 58.789 173.325 58.3068 173 57.7199C172.653 57.1113 172.477 56.4203 172.49 55.7199C172.478 55.0196 172.654 54.329 173 53.7199C173.326 53.1359 173.811 52.6571 174.4 52.3398C175.013 52.0064 175.702 51.8343 176.4 51.8398C177.099 51.8289 177.788 52.0013 178.4 52.3398C178.987 52.6598 179.472 53.1379 179.8 53.7199C180.143 54.3298 180.315 55.0205 180.3 55.7199C180.317 56.4194 180.144 57.1105 179.8 57.7199C179.472 58.3045 178.987 58.7859 178.4 59.1099C177.788 59.4484 177.099 59.6208 176.4 59.6099C175.701 59.6208 175.011 59.4484 174.4 59.1099Z" fill="#057AB4"/>
<path d="M184.55 52.28C185.083 52.0344 185.664 51.9147 186.25 51.93V53.27H185.93C185.61 53.254 185.289 53.3053 184.989 53.4207C184.69 53.5361 184.418 53.713 184.19 53.94C183.755 54.4518 183.526 55.1082 183.55 55.78V59.57H182.19V51.95H183.55V53.28C183.774 52.8523 184.123 52.5033 184.55 52.28Z" fill="#057AB4"/>
<path d="M192.55 59.1198C192.333 59.3017 192.082 59.4377 191.81 59.5198C191.515 59.6084 191.209 59.6522 190.9 59.6498C190.58 59.6702 190.258 59.6268 189.954 59.5221C189.651 59.4174 189.371 59.2535 189.13 59.0398C188.914 58.8012 188.748 58.5216 188.641 58.2176C188.535 57.9136 188.49 57.5913 188.51 57.2698V53.0898H187.23V51.9498H188.51V50.2798H189.87V51.9398H192.04V53.0798H189.87V57.1998C189.837 57.561 189.949 57.9206 190.18 58.1998C190.295 58.3142 190.433 58.4028 190.585 58.4597C190.737 58.5166 190.899 58.5405 191.06 58.5298C191.445 58.5396 191.821 58.4119 192.12 58.1698L192.55 59.1198Z" fill="#057AB4"/>
</g>
<defs>
<clipPath id="clip0_414_1629">
<rect width="212.59" height="83.06" fill="white"/>
</clipPath>
</defs>
</svg>
