<svg xmlns="http://www.w3.org/2000/svg" fill="none" viewBox="0 0 34 34"><path fill="#946FE4" d="m13.695 23.82 3.306-1.107v3.244l-2.29.782.282.832a4.185 4.185 0 0 1-.14 3.394 4.155 4.155 0 0 1-2.397 2.105 4.106 4.106 0 0 1-3.074-.166 4.185 4.185 0 0 1-1.9-5.515 4.158 4.158 0 0 1 1.036-1.39c.438-.383.953-.67 1.509-.84l.826-.3-.826-2.288 2.479-2.03 1.19 3.278Zm-3.024 6.313c.244.1.517.1.76 0a1.081 1.081 0 0 0 .637-.557 1.12 1.12 0 0 0 0-.907v-.091l-.273-.832-.826.29h-.091a1.08 1.08 0 0 0-.694.592 1.113 1.113 0 0 0 0 .831 1.076 1.076 0 0 0 .479.674h.008Z"/><path fill="#ED4023" d="m20.307 23.804 1.183-3.262 2.48 2.022-.827 2.289.827.308c.558.17 1.074.455 1.515.84.44.384.794.858 1.04 1.39a4.182 4.182 0 0 1 .14 3.196 4.202 4.202 0 0 1-2.042 2.322 4.183 4.183 0 0 1-3.075.166 4.127 4.127 0 0 1-2.398-2.114 4.183 4.183 0 0 1-.14-3.395l.28-.832L17 25.96v-3.255l3.307 1.099Zm3.027 6.325c.23-.132.405-.34.496-.59a1.088 1.088 0 0 0 0-.833 1.106 1.106 0 0 0-.687-.59h-.09l-.827-.292-.273.832v.092a1.105 1.105 0 0 0 0 .915c.13.26.355.46.628.558.254.058.52.026.753-.092Z"/><path fill="#00BFFF" d="m24.161 19.027-1.798-2.767 3.143-.677 1.262 1.944.75-.436a4.327 4.327 0 0 1 1.586-.613 4.431 4.431 0 0 1 1.713.038c.53.119 1.029.335 1.47.637.44.301.812.682 1.095 1.12.56.851.749 1.873.528 2.852a3.908 3.908 0 0 1-1.79 2.332c-.457.28-.969.471-1.505.563a4.37 4.37 0 0 1-3.189-.69 3.972 3.972 0 0 1-1.145-1.21l-.478-.692-2.03 1.229-2.523-1.897 2.911-1.733Zm6.78 1.461a.933.933 0 0 0-.148-.707 1.003 1.003 0 0 0-.287-.3 1.072 1.072 0 0 0-.39-.167 1.144 1.144 0 0 0-.882.164l-.083.046-.726.42.462.676.05.078c.075.128.179.24.304.327.125.088.27.148.422.178a1.146 1.146 0 0 0 .824-.14c.208-.14.357-.343.421-.575h.033Z"/><path fill="#039947" d="m22.532 12.79-3.407-.426 1.395-2.941 2.381.3.115-.885c.04-.586.201-1.157.473-1.675a4.076 4.076 0 0 1 2.544-2.06 4.034 4.034 0 0 1 1.604-.109 4.086 4.086 0 0 1 2.685 1.504c.64.853.935 1.924.82 2.992a4.231 4.231 0 0 1-.472 1.57 4.16 4.16 0 0 1-1.03 1.262 4.077 4.077 0 0 1-1.523.799 4.034 4.034 0 0 1-1.71.096l-.871-.084-.238 2.432-3.128.727.362-3.502Zm5.41-4.386a1.053 1.053 0 0 0-.674-.36 1.049 1.049 0 0 0-.82.226 1.1 1.1 0 0 0-.411.835v.1l-.107.836.82.084h.091a1.047 1.047 0 0 0 .87-.234 1.047 1.047 0 0 0 .394-.752c.03-.25-.03-.5-.164-.71v-.025Z"/><path fill="#fff" d="M19.91 7.052c.426-.387.765-.856.995-1.378a4.02 4.02 0 0 0 .345-1.651 3.958 3.958 0 0 0-.335-1.553 4.037 4.037 0 0 0-.922-1.307A4.186 4.186 0 0 0 17.156 0a4.186 4.186 0 0 0-2.846 1.163 4.037 4.037 0 0 0-.921 1.307 3.96 3.96 0 0 0-.336 1.553c-.003.568.114 1.13.345 1.651.23.522.57.99.995 1.378l.62.613-1.728 1.616-2.407.29-.108-.807a3.968 3.968 0 0 0-.475-1.624 4.063 4.063 0 0 0-1.113-1.292 4.176 4.176 0 0 0-1.451-.703 4.232 4.232 0 0 0-1.617-.105 4.163 4.163 0 0 0-2.705 1.446 3.97 3.97 0 0 0-.827 2.892 3.97 3.97 0 0 0 .472 1.516c.258.47.61.886 1.033 1.222.458.364.99.63 1.56.78a4.3 4.3 0 0 0 1.749.092l.876-.088.24 2.342-1.265 2.02-.753-.453a4.233 4.233 0 0 0-1.59-.638 4.184 4.184 0 0 0-3.193.706 4.077 4.077 0 0 0-1.098 1.168 3.959 3.959 0 0 0-.52 2.964 4.045 4.045 0 0 0 1.786 2.424 4.231 4.231 0 0 0 3.135.557 4.184 4.184 0 0 0 1.578-.692c.47-.337.863-.767 1.151-1.263l.472-.719 2.034 1.277 2.531-1.963-2.903-1.834 1.795-2.867-.348-3.352 3.425-.42 2.481-2.36 2.481 2.36 1.407-2.844-1.737-1.656.529-.605ZM6.982 9.992h-.09a1.1 1.1 0 0 1-.878-.226 1.065 1.065 0 0 1-.405-.72 1.087 1.087 0 0 1 .199-.726c.174-.194.416-.318.678-.348a1.126 1.126 0 0 1 .827.219 1.046 1.046 0 0 1 .422.808v.096l.107.808-.86.089Zm-1.919 10.46-.05.08a1.094 1.094 0 0 1-.72.533 1.121 1.121 0 0 1-.826-.152 1.044 1.044 0 0 1-.455-.598 1.062 1.062 0 0 1 .149-.735 1.051 1.051 0 0 1 .678-.485 1.135 1.135 0 0 1 .893.17l.075.056.728.428-.472.703Zm12.754-15.59-.066.065-.595.598-.604-.598-.066-.064a1.021 1.021 0 0 1-.364-.808.997.997 0 0 1 .33-.751c.189-.183.439-.292.704-.307.262.016.509.126.694.307a1.017 1.017 0 0 1 .331.75 1.021 1.021 0 0 1-.364.809Z"/></svg>