<svg xmlns="http://www.w3.org/2000/svg" fill="none" viewBox="0 0 52 30"><g clip-path="url(#a)"><path fill="#F5C832" d="M3.54 2.3s.28-.22.38-.11c.1.1-.49 1.13-.49 1.46 0 .54.38.68.84.77.28.03.56.03.83 0a.37.37 0 0 0-.32-.17.66.66 0 0 0 .26-.24.63.63 0 0 0 .1-.35c0-.46-.2-.66-.2-1.22.03-.23.11-.46.25-.66a.59.59 0 0 0-.47.24.55.55 0 0 0-.07.5.23.23 0 0 1-.19-.05.36.36 0 0 0 .1.28h-.18a.39.39 0 0 0 .2.28.49.49 0 0 0-.44.05.47.47 0 0 0-.2.39.32.32 0 0 0 .07.23.34.34 0 0 0 .23.12.4.4 0 0 0 .16 0 .2.2 0 0 1 0 .18c.11 0 .19-.08.14-.22a.26.26 0 0 0 .19-.08.21.21 0 0 0-.2-.09.17.17 0 0 0-.03-.2.18.18 0 0 0-.07-.04s.06.24-.1.24a.13.13 0 0 1-.13-.07.12.12 0 0 1-.01-.05.23.23 0 0 1 .09-.16.24.24 0 0 1 .18-.05c.2 0 .34.13.34.42s-.22.39-.51.4a.42.42 0 0 1-.33-.09.4.4 0 0 1-.15-.3c0-.35.53-1.15.53-1.46a.38.38 0 0 0-.14-.27.4.4 0 0 0-.29-.1.82.82 0 0 0-.51.27l.14.16Z"/><path fill="#F5C832" d="M3.54 2.3s-.3-.22-.4-.11c-.1.1.5 1.13.5 1.46 0 .54-.38.68-.84.77a3.6 3.6 0 0 1-.82 0 .34.34 0 0 1 .31-.17.66.66 0 0 1-.26-.24.63.63 0 0 1-.1-.35c0-.46.2-.66.2-1.22a1.48 1.48 0 0 0-.25-.66.59.59 0 0 1 .47.24.55.55 0 0 1 .07.5.23.23 0 0 0 .19-.05.36.36 0 0 1-.09.28h.18a.39.39 0 0 1-.2.28.49.49 0 0 1 .58.22c.04.07.05.14.05.22a.32.32 0 0 1-.07.23.34.34 0 0 1-.23.12.31.31 0 0 1-.15 0 .17.17 0 0 0 0 .19.16.16 0 0 1-.12-.08.16.16 0 0 1-.02-.14.26.26 0 0 1-.18-.09.21.21 0 0 1 .18-.09.17.17 0 0 1 .05-.2.17.17 0 0 1 .07-.04s-.07.24.1.24.14 0 .14-.12a.23.23 0 0 0-.1-.16.24.24 0 0 0-.18-.04c-.19 0-.34.12-.34.41s.23.39.52.4a.41.41 0 0 0 .33-.08.4.4 0 0 0 .14-.3c0-.36-.52-1.16-.52-1.47a.38.38 0 0 1 .13-.27.4.4 0 0 1 .3-.1c.2.02.37.12.5.27l-.14.16Z"/><path fill="#52AEC4" d="M52 0H0v29.3h52V0Z"/><path fill="#F5C832" d="M3.42 20.72a.92.92 0 0 1 .3-.64.97.97 0 0 1 .68-.25.81.81 0 0 1 .63.19.77.77 0 0 1 .26.58 1.34 1.34 0 0 1-.16.65L3.8 23.89a.75.75 0 0 0-.06.35c0 .12.06.23.15.31a.5.5 0 0 0 .34.13.5.5 0 0 0 .32-.13.47.47 0 0 0 .15-.31c0-.3-.15-.43-.31-.43s-.28.08-.28.22c0 .15 0 .13.12.13.1 0 .1-.22.1-.22a.17.17 0 0 1 .12.07.15.15 0 0 1 .01.13.39.39 0 0 1 .17.1.42.42 0 0 1-.17.09c0 .12 0 .18-.13.22a.3.3 0 0 0 0-.15.34.34 0 0 1-.44-.17.32.32 0 0 1-.03-.16.48.48 0 0 1 .19-.4.5.5 0 0 1 .44-.09.27.27 0 0 1-.12-.1.26.26 0 0 1-.04-.13.62.62 0 0 0 .16 0 .41.41 0 0 1-.11-.3c.07 0 .13.1.23.05a.55.55 0 0 1 .05-.5.57.57 0 0 1 .46-.27.96.96 0 0 0-.25.61c0 .69.18.8.18 1.23a.66.66 0 0 1-.31.55c.12.03.22.1.29.2a1.94 1.94 0 0 1-1.03 0 .74.74 0 0 1-.54-.35 1 1 0 0 1 0-.84l1.35-2.75a.98.98 0 0 0 .1-.38.48.48 0 0 0-.16-.34.5.5 0 0 0-.36-.14.46.46 0 0 0-.3.1.44.44 0 0 0-.17.27c0 .14.08.22.2.22s.23-.2.18-.34a.3.3 0 0 1 .17.12.3.3 0 0 1 .06.2c.1 0 .18.06.25.13a.32.32 0 0 1-.25.14c0 .2-.1.28-.23.33 0-.15.08-.32-.19-.32a.49.49 0 0 1-.42-.15v.78c0 .23.32.23.54.16-.08.27-.24.42-.63.38.06.02.1.06.14.11.03.05.05.11.05.17a.72.72 0 0 1-.3.54l-.07-2.24Z"/><path fill="#F5C832" d="M3.54 20.72a.92.92 0 0 0-.3-.64.97.97 0 0 0-.68-.25.81.81 0 0 0-.63.19.77.77 0 0 0-.26.58 1.34 1.34 0 0 0 .16.65l1.33 2.64c.05.1.07.23.06.35a.47.47 0 0 1-.15.31.5.5 0 0 1-.34.13.5.5 0 0 1-.32-.13.47.47 0 0 1-.15-.31c0-.3.15-.43.31-.43s.28.08.28.22c0 .15 0 .13-.12.13s-.11-.22-.11-.22a.17.17 0 0 0-.11.07.16.16 0 0 0-.02.13.39.39 0 0 0-.16.1c.05.04.1.07.16.09 0 .12 0 .18.14.22a.3.3 0 0 1 0-.15.35.35 0 0 0 .33-.04.33.33 0 0 0 .14-.3.48.48 0 0 0-.2-.39.5.5 0 0 0-.43-.09.27.27 0 0 0 .11-.1.26.26 0 0 0 .05-.13.62.62 0 0 1-.16 0 .41.41 0 0 0 .11-.3c-.07 0-.14.1-.24.06a.55.55 0 0 0-.24-.7.59.59 0 0 0-.26-.07c.16.17.24.38.25.6 0 .69-.18.8-.18 1.23a.66.66 0 0 0 .3.55.5.5 0 0 0-.28.2 1.94 1.94 0 0 0 1.03 0 .74.74 0 0 0 .54-.35 1 1 0 0 0 0-.84 238.92 238.92 0 0 1-1.36-2.75.98.98 0 0 1-.08-.38.48.48 0 0 1 .15-.34.5.5 0 0 1 .36-.13.46.46 0 0 1 .3.1.44.44 0 0 1 .16.26c0 .14-.07.22-.18.22s-.24-.2-.2-.34a.31.31 0 0 0-.16.12.3.3 0 0 0-.06.2.4.4 0 0 0-.25.13.32.32 0 0 0 .25.14c0 .2.09.28.23.33 0-.15-.07-.32.19-.32a.49.49 0 0 0 .42-.15v.78c0 .23-.32.23-.54.16.08.27.24.42.63.38a.28.28 0 0 0-.14.11.28.28 0 0 0-.05.17.72.72 0 0 0 .3.54l.07-2.24Zm0 6.28s.28.23.38.11c.1-.12-.49-1.12-.49-1.45 0-.54.38-.69.84-.77.28-.03.56-.03.83 0a.37.37 0 0 1-.32.17c.1.05.2.14.26.24a.63.63 0 0 1 .1.34c0 .47-.2.66-.2 1.22.03.24.11.47.25.66a.59.59 0 0 1-.47-.23.55.55 0 0 1-.07-.51.23.23 0 0 0-.19.06.34.34 0 0 1 .1-.28h-.18c-.1 0 .06-.18.2-.28a.49.49 0 0 1-.44-.06.47.47 0 0 1-.2-.38.34.34 0 0 1 .07-.24.35.35 0 0 1 .23-.13.42.42 0 0 1 .16 0 .2.2 0 0 0 0-.18c.11 0 .19.09.14.22a.12.12 0 0 1 .16.03.1.1 0 0 1 .02.06.1.1 0 0 1-.02.05.11.11 0 0 1-.04.04.12.12 0 0 1-.12 0c0 .11 0 .17-.11.23s.06-.24-.1-.24a.13.13 0 0 0-.13.07.12.12 0 0 0-.01.05.23.23 0 0 0 .09.16.24.24 0 0 0 .18.05c.2 0 .34-.12.34-.41 0-.3-.22-.4-.51-.4a.41.41 0 0 0-.34.08.4.4 0 0 0-.14.3c0 .36.53 1.15.53 1.47a.38.38 0 0 1-.14.27.4.4 0 0 1-.29.1.82.82 0 0 1-.51-.27l.14-.15Z"/><path fill="#F5C832" d="M3.54 27s-.3.23-.4.11c-.1-.12.5-1.12.5-1.45 0-.54-.38-.69-.84-.77a3.5 3.5 0 0 0-.82 0 .34.34 0 0 0 .31.17.66.66 0 0 0-.26.24.63.63 0 0 0-.1.34c0 .47.2.66.2 1.22a1.48 1.48 0 0 1-.25.66.59.59 0 0 0 .47-.23.55.55 0 0 0 .07-.51.23.23 0 0 1 .19.06.34.34 0 0 0-.09-.28h.18c.08 0-.07-.18-.2-.28a.49.49 0 0 0 .43-.06.47.47 0 0 0 .2-.38.34.34 0 0 0-.07-.24.35.35 0 0 0-.23-.13.32.32 0 0 0-.15 0 .17.17 0 0 1 0-.18.16.16 0 0 0-.12.08.15.15 0 0 0-.02.14.12.12 0 0 0-.16.03.1.1 0 0 0 0 .11.12.12 0 0 0 .17.03c0 .12 0 .18.1.24.12.07-.05-.24.1-.24.17 0 .15 0 .15.12a.23.23 0 0 1-.1.16.24.24 0 0 1-.18.05c-.19 0-.34-.12-.34-.41 0-.3.23-.4.52-.4.28 0 .47.11.47.38s-.52 1.15-.52 1.47a.38.38 0 0 0 .13.27.4.4 0 0 0 .3.1c.2-.03.37-.13.5-.27L3.55 27Zm-.12-16.6a.92.92 0 0 1 .3-.64.97.97 0 0 1 .68-.25.81.81 0 0 1 .63.2.77.77 0 0 1 .26.57c0 .23-.06.45-.16.65L3.8 13.57a.75.75 0 0 0-.06.35.47.47 0 0 0 .16.29.5.5 0 0 0 .64 0 .47.47 0 0 0 .16-.29c0-.28-.15-.41-.31-.41s-.28.07-.28.2c0 .14 0 .14.12.14.1 0 .1-.22.1-.22a.17.17 0 0 1 .12.07.15.15 0 0 1 .01.14.39.39 0 0 1 .17.1.42.42 0 0 1-.17.08c0 .12 0 .18-.13.22a.3.3 0 0 0 0-.15.36.36 0 0 1-.32-.04.34.34 0 0 1-.15-.29.48.48 0 0 1 .19-.4.5.5 0 0 1 .44-.09.27.27 0 0 1-.12-.09.26.26 0 0 1-.04-.14h.16a.47.47 0 0 1-.11-.31c.07 0 .13.1.23 0a.55.55 0 0 1 .05-.51.57.57 0 0 1 .46-.26.96.96 0 0 0-.25.6c0 .68.18.8.18 1.23a.67.67 0 0 1-.31.56c.12.03.22.1.29.2a1.94 1.94 0 0 1-1.03 0 .74.74 0 0 1-.54-.35 1 1 0 0 1 0-.84c.19-.38 1.08-2.17 1.35-2.75a.99.99 0 0 0 .1-.39.47.47 0 0 0-.16-.34.5.5 0 0 0-.36-.12.45.45 0 0 0-.3.1.42.42 0 0 0-.17.26c0 .14.08.21.2.21s.23-.2.18-.33a.3.3 0 0 1 .17.12.3.3 0 0 1 .06.2c.1.01.18.06.25.13a.32.32 0 0 1-.25.14c0 .2-.1.28-.23.33 0-.15.08-.32-.19-.32a.49.49 0 0 1-.42-.15v.79c0 .23.32.23.54.15-.08.27-.24.42-.63.38.06.02.1.06.14.11.03.05.05.11.05.17a.72.72 0 0 1-.3.54l-.07-2.19Z"/><path fill="#F5C832" d="M3.54 10.4a.92.92 0 0 0-.3-.64.97.97 0 0 0-.68-.25.81.81 0 0 0-.63.2.77.77 0 0 0-.26.57c0 .23.05.45.16.65l1.33 2.64c.05.1.07.23.06.35a.47.47 0 0 1-.16.29.5.5 0 0 1-.64 0 .47.47 0 0 1-.16-.29c0-.28.15-.41.31-.41s.28.07.28.2c0 .14 0 .14-.12.14s-.11-.22-.11-.22a.17.17 0 0 0-.11.07.16.16 0 0 0-.01.14.39.39 0 0 0-.17.1c.05.03.1.06.17.08 0 .12 0 .18.13.22a.3.3 0 0 1 0-.15.36.36 0 0 0 .32-.04.34.34 0 0 0 .15-.29.48.48 0 0 0-.2-.4.5.5 0 0 0-.43-.09.27.27 0 0 0 .11-.09.26.26 0 0 0 .05-.14h-.16a.47.47 0 0 0 .11-.31c-.07 0-.14.1-.23 0a.55.55 0 0 0-.25-.7.59.59 0 0 0-.26-.07c.16.17.25.38.26.6 0 .68-.2.8-.2 1.23a.67.67 0 0 0 .32.56.5.5 0 0 0-.29.2 1.94 1.94 0 0 0 1.03 0 .74.74 0 0 0 .54-.35 1 1 0 0 0 0-.84 407.25 407.25 0 0 1-1.35-2.75 1 1 0 0 1-.1-.39.47.47 0 0 1 .16-.34.5.5 0 0 1 .36-.12c.11-.01.22.02.3.1a.42.42 0 0 1 .17.26c0 .14-.08.21-.2.21s-.23-.2-.18-.33a.31.31 0 0 0-.17.12.3.3 0 0 0-.06.2.4.4 0 0 0-.25.13.32.32 0 0 0 .25.14c0 .2.1.28.23.33 0-.15-.06-.32.19-.32a.49.49 0 0 0 .42-.15v.79c0 .23-.32.23-.54.15.08.27.24.42.63.38a.29.29 0 0 0-.14.11.28.28 0 0 0-.05.17.72.72 0 0 0 .3.54l.07-2.19Z"/><path fill="#F5C832" d="M3.54 8.65a.92.92 0 0 1-.3.64.97.97 0 0 1-.68.25.81.81 0 0 1-.63-.19.77.77 0 0 1-.26-.58 1.34 1.34 0 0 1 .16-.65s.97-1.9 1.33-2.65a.67.67 0 0 0 .06-.34.47.47 0 0 0-.15-.31.5.5 0 0 0-.34-.13.5.5 0 0 0-.32.13.47.47 0 0 0-.15.3c0 .3.15.44.31.44s.28-.09.28-.21 0-.15-.12-.15-.11.23-.11.23a.17.17 0 0 1-.11-.07.16.16 0 0 1-.02-.13.39.39 0 0 1-.16-.1.42.42 0 0 1 .16-.09.15.15 0 0 1 .01-.14.16.16 0 0 1 .13-.08.27.27 0 0 0 0 .14.36.36 0 0 1 .33.05.34.34 0 0 1 .14.29.48.48 0 0 1-.2.4.5.5 0 0 1-.43.09c.05.02.09.05.11.1a.26.26 0 0 1 .05.13h-.16a.47.47 0 0 1 .11.32c-.07 0-.14-.1-.23-.06a.55.55 0 0 1-.25.69.59.59 0 0 1-.26.08.96.96 0 0 0 .26-.61c0-.69-.2-.8-.2-1.23a.66.66 0 0 1 .32-.55.45.45 0 0 1-.29-.18 1.94 1.94 0 0 1 1.03 0 .74.74 0 0 1 .54.34.97.97 0 0 1 0 .83L2.15 8.41a.98.98 0 0 0-.1.38.48.48 0 0 0 .16.34.5.5 0 0 0 .36.14.46.46 0 0 0 .3-.1.44.44 0 0 0 .16-.27c0-.13-.07-.22-.18-.22s-.24.21-.2.34a.31.31 0 0 1-.16-.12.3.3 0 0 1-.06-.2.4.4 0 0 1-.25-.13.32.32 0 0 1 .25-.13.25.25 0 0 1 .04-.22.26.26 0 0 1 .19-.11c0 .15-.06.3.19.3a.49.49 0 0 1 .42.16V7.8c0-.23-.32-.23-.54-.16.08-.27.24-.41.63-.38a.29.29 0 0 1-.14-.1.28.28 0 0 1-.05-.18.72.72 0 0 1 .3-.54l.07 2.21Z"/><path fill="#F5C832" d="M3.42 8.65c.01.24.12.47.3.64a.97.97 0 0 0 .68.25.81.81 0 0 0 .62-.19.77.77 0 0 0 .27-.58 1.34 1.34 0 0 0-.16-.65s-.97-1.9-1.33-2.65a.67.67 0 0 1-.06-.34.47.47 0 0 1 .15-.31.5.5 0 0 1 .33-.13.5.5 0 0 1 .33.13.47.47 0 0 1 .15.3c0 .3-.15.44-.31.44s-.28-.09-.28-.21 0-.15.11-.15c.12 0 .12.23.12.23a.17.17 0 0 0 .1-.07.16.16 0 0 0 .02-.13.39.39 0 0 0 .17-.1.42.42 0 0 0-.17-.09c0-.13 0-.2-.13-.22a.27.27 0 0 1 0 .14A.36.36 0 0 0 4 5a.34.34 0 0 0-.14.29.48.48 0 0 0 .19.4.5.5 0 0 0 .44.09.27.27 0 0 0-.12.1.26.26 0 0 0-.05.13h.17a.47.47 0 0 0-.12.32c.08 0 .14-.1.24-.06a.55.55 0 0 0 .05.5.57.57 0 0 0 .45.27.96.96 0 0 1-.25-.61c0-.69.2-.8.2-1.23a.66.66 0 0 0-.32-.55.45.45 0 0 0 .29-.18 1.94 1.94 0 0 0-1.03 0 .74.74 0 0 0-.54.34.97.97 0 0 0 0 .83L4.8 8.41a.98.98 0 0 1 .1.38.48.48 0 0 1-.16.34.5.5 0 0 1-.36.14.46.46 0 0 1-.3-.1.44.44 0 0 1-.17-.27c0-.13.08-.22.2-.22s.23.21.18.34a.3.3 0 0 0 .17-.12.3.3 0 0 0 .06-.2.4.4 0 0 0 .25-.13.32.32 0 0 0-.25-.13.25.25 0 0 0-.04-.22.26.26 0 0 0-.19-.11c0 .15.07.3-.19.3a.49.49 0 0 0-.42.16V7.8c0-.23.32-.23.53-.16-.07-.27-.23-.41-.62-.38a.29.29 0 0 0 .14-.1.28.28 0 0 0 .05-.18.72.72 0 0 0-.3-.54l-.07 2.21Zm.12 10.25a.92.92 0 0 1-.3.65.97.97 0 0 1-.68.25.81.81 0 0 1-.63-.2.77.77 0 0 1-.26-.57 1.34 1.34 0 0 1 .16-.65s.97-1.9 1.33-2.65a.67.67 0 0 0 .06-.34.47.47 0 0 0-.15-.32.5.5 0 0 0-.34-.12.5.5 0 0 0-.32.13.47.47 0 0 0-.15.3c0 .3.15.43.31.43s.28-.08.28-.22c0-.13 0-.13-.12-.13s-.11.23-.11.23a.16.16 0 0 1-.13-.14.15.15 0 0 1 0-.07.39.39 0 0 1-.16-.1.42.42 0 0 1 .16-.08.15.15 0 0 1 .07-.2.16.16 0 0 1 .07-.02.27.27 0 0 0 0 .14.36.36 0 0 1 .33.05.34.34 0 0 1 .14.29.48.48 0 0 1-.2.4.5.5 0 0 1-.43.09c.05.02.09.05.11.09a.26.26 0 0 1 .05.14h-.16a.47.47 0 0 1 .11.32c-.07 0-.14-.1-.23 0a.55.55 0 0 1-.25.69.59.59 0 0 1-.26.08.96.96 0 0 0 .26-.61c0-.69-.2-.8-.2-1.23a.66.66 0 0 1 .32-.55.49.49 0 0 1-.29-.18 1.94 1.94 0 0 1 1.03 0 .74.74 0 0 1 .54.34.97.97 0 0 1 0 .83l-1.35 2.76a.98.98 0 0 0-.1.38.48.48 0 0 0 .16.34.5.5 0 0 0 .36.14c.11 0 .22-.03.3-.1a.44.44 0 0 0 .16-.27c0-.13-.07-.22-.18-.22s-.24.2-.2.34a.33.33 0 0 1-.16-.12.31.31 0 0 1-.06-.2.4.4 0 0 1-.25-.13.32.32 0 0 1 .25-.13.25.25 0 0 1 .04-.22.26.26 0 0 1 .19-.11c0 .14-.06.3.19.3a.49.49 0 0 1 .42.16v-.78c0-.23-.32-.23-.54-.16.08-.27.24-.41.63-.38a.29.29 0 0 1-.14-.1.28.28 0 0 1-.05-.18.72.72 0 0 1 .3-.54l.07 2.15Z"/><path fill="#F5C832" d="M3.42 18.9c.01.25.12.48.3.65a.97.97 0 0 0 .68.25.81.81 0 0 0 .62-.2.77.77 0 0 0 .27-.57 1.34 1.34 0 0 0-.16-.65s-.97-1.9-1.33-2.65a.67.67 0 0 1-.06-.34.47.47 0 0 1 .15-.32.5.5 0 0 1 .33-.12.5.5 0 0 1 .33.13.47.47 0 0 1 .15.3c0 .3-.15.43-.31.43s-.28-.08-.28-.22c0-.13 0-.13.11-.13.12 0 .12.23.12.23a.16.16 0 0 0 .13-.14.15.15 0 0 0 0-.07.39.39 0 0 0 .16-.1.42.42 0 0 0-.17-.08c0-.13 0-.2-.13-.22a.27.27 0 0 1 0 .14.36.36 0 0 0-.33.05.34.34 0 0 0-.14.29.48.48 0 0 0 .19.4.5.5 0 0 0 .44.09.28.28 0 0 0-.12.09.26.26 0 0 0-.05.14h.17a.47.47 0 0 0-.12.32c.08 0 .14-.1.24 0a.55.55 0 0 0 .05.5.57.57 0 0 0 .45.27.96.96 0 0 1-.25-.61c0-.69.2-.8.2-1.23a.66.66 0 0 0-.32-.55.49.49 0 0 0 .29-.18 1.94 1.94 0 0 0-1.03 0 .74.74 0 0 0-.54.34.97.97 0 0 0 0 .83l1.35 2.76a.98.98 0 0 1 .1.38.48.48 0 0 1-.16.34.5.5 0 0 1-.36.14.46.46 0 0 1-.3-.1.44.44 0 0 1-.17-.27c0-.13.08-.22.2-.22s.23.2.18.34a.33.33 0 0 0 .17-.12.31.31 0 0 0 .06-.2.4.4 0 0 0 .25-.13.32.32 0 0 0-.25-.13.25.25 0 0 0-.04-.22.26.26 0 0 0-.19-.11c0 .14.07.3-.19.3a.49.49 0 0 0-.42.16v-.78c0-.23.32-.23.53-.16-.07-.27-.23-.41-.62-.38a.29.29 0 0 0 .14-.1.28.28 0 0 0 .05-.18.72.72 0 0 0-.3-.54l-.07 2.15Z"/><path fill="#52AEC4" d="M2.92 18.86h-.19c-.07 0-.13 0-.12.1.01.09.1 0 .19 0 .08 0 .12-.07.12-.12"/><path fill="#52AEC4" d="m2.66 19.01-.07-.06c0-.06 0-.1.16-.12h.15v.06s0 .11-.15.14H2.6"/><path fill="#F5C832" d="M27.18 19.9a7.3 7.3 0 0 1-4.85-1.78 6.94 6.94 0 0 1-2.35-4.5s-.16-.06-.19.08c-.02.15.1 1.36 0 1.28-.1-.07-.85-2.05-.99-1.84-.13.2.84 2.44.78 2.54-.06.1-1.36-2.14-1.45-1.97-.37.66 1.43 2.82 1.41 2.91 0 .3-1.35-1.16-1.46-1-.25.35 1.43 1.62 1.51 1.72.1.1-.92-.51-.96-.24-.04.26.58.7.94.89.36.2.46.13.58.3.1.17-.68-.08-.67.08.01.16.83.25.95.39.13.13-.54 0-.51.16.02.15.71.23.73.31 0 .09-.43 0-.4.2.02.2.67.1.84.22.16.1-.6 0 0 .3a8.1 8.1 0 0 0 2.14.75c.46.14.96.11 1.4-.08 0-.06-.43 0-1.07-.07a7.1 7.1 0 0 1-1.85-.7c-.11-.05.34-.19.25-.3-.08-.1-.46 0-.6-.16-.14-.16.18-.1.16-.18 0-.07-.5-.17-.58-.3-.1-.12.22-.1.23-.18.02-.08-.31-.16-.33-.24-.03-.09.36 0 .18-.15-.17-.15-.71-.23-.8-.41-.09-.19.39 0 .26-.14-.12-.13-.56-.32-.66-.57-.1-.26.34 0 .34-.15s-.24-.06-.32-.57c0-.17.32-.06.32-.06v-.09c.35.21.66.48.91.8.52.57.67 1.12 1.16 1.5.24.2.24-.06.76.25a9.09 9.09 0 0 1 1.26 1c.5.02 1 .07 1.5.15.58.12.69.4.69.4.19-.1.35-.23.48-.4.06-.08.12 0 .13 0 .02 0 0-.12 0-.12"/><path fill="#F5C832" d="M19.7 18.28a.24.24 0 0 0-.13 0c0 .18.32.23.56.27.24.04.32 0 .38.12v.06s-.13 0-.29.06c-.16.06-.21 0-.22 0-.02 0 .26.16.45.21.19.05.25.06.26.12.01.06-.09.08-.17.09a.43.43 0 0 0-.22.07c0 .1.24.12.42.15.13 0 .27.03.4.08h-.25l.2.15a7.86 7.86 0 0 0 2.14.75c.22.04.45.07.68.07.44 0 .66-.1.67-.14h-.37a2.98 2.98 0 0 1-.67-.06 7.2 7.2 0 0 1-1.85-.7c0-.09 0-.11.09-.16.08-.05.15-.09.15-.13 0-.03-.13-.07-.23-.07a.45.45 0 0 1-.38-.1v-.08s.07-.06.12-.09h.07l-.21-.08a.93.93 0 0 1-.38-.2v-.07s.08-.06.14-.09c.06-.02.1 0 .1 0l-.12-.08a.22.22 0 0 1-.2-.15.16.16 0 0 1 .05-.07.17.17 0 0 1 .08-.03h.1l-.3-.12c-.22-.08-.49-.18-.56-.32 0-.06.11 0 .19 0h.06c0-.06-.08-.1-.18-.16-.1-.04-.4-.26-.46-.45a.1.1 0 0 1 0-.08h.34s0-.08-.08-.1a.64.64 0 0 1-.23-.48.1.1 0 0 1-.01-.04v-.04c.08-.08.33 0 .34 0v-.08c.39.18.72.45.97.79.2.23.38.48.54.74.15.3.36.56.61.78.05.04.1.06.17.06h.1c.18.02.35.07.5.17.35.22.67.46.97.74l.33.27h.3c.4 0 .8.04 1.2.13a.94.94 0 0 1 .4.13.92.92 0 0 1 .3.3s.28-.22.42-.42c.14-.2 0-.06.09-.06v-.1a7.3 7.3 0 0 1-4.86-1.79 6.95 6.95 0 0 1-2.35-4.5s-.07 0-.07.05c-.03.3-.03.6 0 .9v.41a2 2 0 0 1-.3-.51 5.88 5.88 0 0 0-.7-1.35c.08.64.27 1.27.56 1.85.22.58.25.67.22.7-.15 0-.45-.5-.89-1.23a3.84 3.84 0 0 0-.52-.77c-.24.5.74 1.86 1.25 2.5.21.3.25.36.25.4h-.06c-.12 0-.37-.21-.75-.56a3.02 3.02 0 0 0-.66-.5c-.18.26.96 1.22 1.33 1.53l.18.15s.06.07 0 .1c-.07.02-.17 0-.33-.11a2.2 2.2 0 0 0-.61-.23s.52.63.91.85c.1.06.22.11.34.15a.4.4 0 0 1 .25.17c0 .17-.16.08-.3.07h-.22M24 20.56a3.5 3.5 0 0 1-.7-.07 8.19 8.19 0 0 1-2.15-.76c-.17-.08-.24-.14-.24-.2 0-.04.1-.07.18-.08h.09a2.14 2.14 0 0 0-.4-.07c-.24 0-.45 0-.47-.16v-.06a.38.38 0 0 1 .25-.09h.13a.76.76 0 0 0-.22 0c-.2 0-.47-.1-.5-.25-.02-.15.14-.1.3-.1h.22a1.68 1.68 0 0 0-.34-.1c-.15-.02-.6-.1-.62-.3-.02-.21.24-.11.42-.09h.19c0-.08 0-.1-.17-.14a2.05 2.05 0 0 1-.35-.15c-.32-.18-.98-.66-.94-.92a.1.1 0 0 1 .04-.06.1.1 0 0 1 .08-.02c.22.04.44.12.63.24.08.06.17.1.27.12l-.23-.16c-.78-.64-1.54-1.34-1.34-1.6.15 0 .38.16.74.48.21.21.45.4.71.54a1.58 1.58 0 0 0-.22-.36c-.48-.66-1.47-2.05-1.25-2.57.12 0 .26.2.6.78.36.59.72 1.22.85 1.22a2.87 2.87 0 0 0-.23-.65 4.6 4.6 0 0 1-.53-1.89c.16 0 .4.44.8 1.36.08.2.16.36.21.45a1.84 1.84 0 0 1 0-.34 5.78 5.78 0 0 1 0-.9.12.12 0 0 1 .09-.11.13.13 0 0 1 .05 0h.09a6.9 6.9 0 0 0 2.32 4.49 7.25 7.25 0 0 0 4.83 1.8s.1.05.1.1c-.15.19-.34.34-.55.45a.96.96 0 0 0-.69-.4 5.54 5.54 0 0 0-1.18-.13h-.33l-.33-.27a6.7 6.7 0 0 0-.98-.74.83.83 0 0 0-.46-.15h-.1a.27.27 0 0 1-.2-.09 2.72 2.72 0 0 1-.63-.78 4.41 4.41 0 0 0-.54-.75 3.87 3.87 0 0 0-.9-.78v.08h-.3c0 .34.14.41.21.47a.18.18 0 0 1 .1.16c0 .07-.1.07-.14.07h-.21a.96.96 0 0 0 .45.44l.21.16v.08h-.23c0 .14.27.24.49.33l.26.1s.06 0 .06.08-.06 0-.12.06h-.1l.16.1c.06.05.17.1.16.14-.01.05-.07.08-.14.1-.06.03-.1 0-.1 0a.92.92 0 0 0 .34.18c.18.08.25.1.26.15.02.05-.06.07-.1.1h-.08c.07.1.21.1.34.12a.39.39 0 0 1 .27 0v.07c0 .06-.1.11-.17.16l-.1.08c.58.3 1.2.54 1.84.7h1.09c.01 0-.29.19-.74.19m5.8.66c-.15 0-.13.1-.13.1a.3.3 0 0 1-.05.19.31.31 0 0 1-.17.12c-.09 0 0 .09-.07.16h-.4a4.1 4.1 0 0 1-2.36.34l-.38.3c-.17.16-.3.18-.34.3-.03.12.1.19.27.2a.85.85 0 0 0 .37-.15c.01.04.04.07.07.1a.19.19 0 0 0 .11.04c.14-.01.29-.04.43-.1a.91.91 0 0 0 .4.08.71.71 0 0 0 .32-.12s0 .2.22.2c.16-.03.32-.1.45-.21a.39.39 0 0 0 .29.13.94.94 0 0 0 .35-.2.63.63 0 0 0 .39 0 .94.94 0 0 0 .36-.24.38.38 0 0 0 .31.09c.15 0 .25-.26.25-.26.22.08.46.08.68 0 .19-.08.14-.36.14-.36s1.1.14 1.05-.55c0-.08-1.78 0-2.5-.2"/><path fill="#F5C832" d="M27.97 22.6s.1.19.24.19a.96.96 0 0 0 .41-.2s.15.11.28.11a.64.64 0 0 0 .36-.2h.4a.97.97 0 0 0 .35-.23.71.71 0 0 0 .28.09.52.52 0 0 0 .29-.23s.23.06.45.06a.8.8 0 0 0 .23 0c.17-.08.12-.34.12-.34h.27a.94.94 0 0 0 .68-.2.48.48 0 0 0 .11-.33h-.79a17.37 17.37 0 0 1-1.75-.12h-.04a.38.38 0 0 1-.06.24.4.4 0 0 1-.19.15v.06a.24.24 0 0 1 0 .09h-.43c-.73.35-1.55.47-2.35.35 0 0-.2.14-.35.28l-.18.12c-.09.07-.14.1-.16.17-.03.08 0 .07 0 .08a.31.31 0 0 0 .22.08.79.79 0 0 0 .36-.14s.07.12.2.13c.14 0 .28-.04.4-.08.13.04.25.06.37.07a.66.66 0 0 0 .35-.12m.25.25a.28.28 0 0 1-.15-.06.27.27 0 0 1-.08-.14.5.5 0 0 1-.3.13 1.28 1.28 0 0 1-.42-.08c-.12.05-.25.09-.39.1a.24.24 0 0 1-.13-.05.23.23 0 0 1-.1-.1.58.58 0 0 1-.34.14.36.36 0 0 1-.28-.1.13.13 0 0 1 0-.12c0-.1.09-.13.19-.2l.15-.13.38-.29h.66a3.67 3.67 0 0 0 1.7-.38h.42c0-.07 0-.13.07-.14a.3.3 0 0 0 .15-.12.29.29 0 0 0 .04-.18.14.14 0 0 1 0-.08.13.13 0 0 1 .1 0c.6.08 1.19.12 1.78.12.8 0 .84 0 .85.1a.5.5 0 0 1-.12.36 1.03 1.03 0 0 1-.73.22h-.24c.04.07.04.14.02.21a.28.28 0 0 1-.14.16 1.28 1.28 0 0 1-.7 0 .38.38 0 0 1-.23.24.43.43 0 0 1-.34-.08.66.66 0 0 1-.34.24.9.9 0 0 1-.41 0 .6.6 0 0 1-.34.2.46.46 0 0 1-.31-.12.64.64 0 0 1-.42.22"/><path fill="#F5C832" d="M27.57 20.34c.29-.1.58-.17.89-.23 1.06-.2 1.44-.14 1.51-.2a4.1 4.1 0 0 1 2.08-1.23c.5-.4.66-.96 1.17-1.53s.82-.64.82-.64l.07.13s.28-.2.26 0c0 .2-.23.52-.22.69.01.17.37 0 .34.06-.04.06-.4.43-.47.55-.07.12.34-.06.24.1-.1.18-.56.36-.75.47-.19.11.13.09.1.17-.03.09-.51.26-.5.3.01.06.12.1.07.17-.05.06-.51.12-.51.18s.08.14 0 .25c-.08.1-.25 0-.31.14-.07.15.23.25.06.27-.23.05-.45.14-.64.27-.21.07-.43.13-.65.17-.14 0-.9.12-.87.18.51.06 1.03.02 1.52-.12a8.67 8.67 0 0 0 1.37-.33c.77-.23-.2-.25 0-.35.2-.1.84 0 .86-.2.03-.2-.38-.12-.36-.2.01-.1.81-.1.86-.3.05-.2-.46 0-.35-.18.11-.18.77-.17.8-.44.02-.27-.54 0-.46-.1.08-.1.24-.1.46-.26.23-.14.88-.62.84-.84-.03-.22-1.11.65-1.02.3 0-.14 1.78-1.46 1.49-1.79-.3-.33-1.43 1.22-1.48.93 0-.1 1.93-2.21 1.58-2.88-.09-.17-1.56 2.54-1.76 2.3-.2-.25 1.26-2.67 1.04-2.94-.21-.27-.31.3-.52.8a12.07 12.07 0 0 1-.53 1.07c-.05.08.06-1.02 0-1.35-.06-.33-.19-.09-.19-.09-.22 3.4-3.6 5.92-6.27 6.29-.7.1-.92.41-1.69.83-.25.13-.65.2-.99.39a2 2 0 0 0-.7.64.38.38 0 0 0 .1.36c.06 0 .06-.18.14-.22.07-.04.08.07.17 0a.37.37 0 0 0 .2-.08h2.72a.84.84 0 0 0 .5-.17c0-.09-.26 0-.4 0h-1.85a.09.09 0 0 1-.06-.03.08.08 0 0 1-.03-.06c.1-.14.22-.27.34-.4h-.26a.75.75 0 0 1-.24.1c-.09 0-.11 0-.09-.05a12.66 12.66 0 0 1 1.63-.83"/><path fill="#F5C832" d="M34.45 13.64h-.06c-.2 3.25-3.43 5.89-6.27 6.28a2.4 2.4 0 0 0-1.07.46l-.61.37a1.81 1.81 0 0 1-.44.17 2.14 2.14 0 0 0-1.24.84.31.31 0 0 0 0 .2c0 .07 0 .12.07.12a.45.45 0 0 1 0-.07s0-.13.1-.15c.08-.03.1 0 .12 0h.06a.37.37 0 0 0 .19-.09h2.73a.71.71 0 0 0 .47-.15h-2.31a.07.07 0 0 1 0-.1c.09-.14.2-.28.35-.4h-.25a.76.76 0 0 1-.24.1.13.13 0 0 1-.13-.06c.52-.31 1.07-.6 1.63-.83a7.9 7.9 0 0 1 2.16-.4h.23a3.64 3.64 0 0 1 1.76-1.1l.33-.12c.25-.22.46-.48.61-.77.16-.27.34-.53.54-.76.52-.57.83-.63.84-.63l.1.13s.12-.1.2-.1a.1.1 0 0 1 0 .08.97.97 0 0 1-.13.38.8.8 0 0 0-.1.29h.33a.9.9 0 0 1-.35.49l-.12.12h.26a.1.1 0 0 1 0 .08c-.15.17-.33.29-.54.37l-.22.11c.06.06.14.1.11.15-.03.05-.1.1-.29.2a.72.72 0 0 0-.21.12v.06a.5.5 0 0 1-.35.17c-.08 0-.17 0-.18.06-.01.06.06.17 0 .25a.2.2 0 0 1-.17.1h-.08v.09c0 .02.08.1.06.14a.13.13 0 0 1-.09.07 1.78 1.78 0 0 0-.62.25c-.14.06-.28.1-.43.12h-.5l-.55.11c.5.02.99-.03 1.47-.14.46-.08.92-.19 1.36-.33.28-.09.28-.14.28-.14l-.19-.07c-.05-.01-.16 0-.18-.1.14-.05.28-.08.43-.08.16 0 .41 0 .41-.1s-.07-.09-.18-.11c-.12-.03-.18 0-.18-.1s.1-.06.33-.1c.22-.03.52-.08.54-.2 0-.1-.1 0-.15 0-.05 0-.2 0-.2-.06v-.07a.89.89 0 0 1 .32-.14c.21-.06.45-.14.46-.28.02-.15-.12 0-.25 0h-.2c-.05 0 .07-.13.17-.16l.3-.17c.75-.5.85-.74.84-.82a.94.94 0 0 0-.52.2 1.37 1.37 0 0 1-.45.2.1.1 0 0 1 0-.1 1.84 1.84 0 0 1 .38-.37c.45-.4 1.25-1.16 1.11-1.37-.16 0-.51.28-.8.52-.29.25-.5.44-.6.44v-.06s0-.08.26-.38c.52-.64 1.58-1.99 1.32-2.44l-.63.92c-.54.85-.91 1.41-1.08 1.41-.16 0-.06-.12.25-.82.36-.67.61-1.39.74-2.13-.1 0-.32.44-.47.77l-.08.16a9.04 9.04 0 0 1-.45.92c-.07 0-.07-.07 0-.47a5.22 5.22 0 0 0 0-.9s0-.05-.07-.05M24.8 22.2c-.07 0-.1-.12-.12-.16a.32.32 0 0 1 0-.24c.18-.27.43-.49.72-.65.18-.09.37-.16.56-.22a4.11 4.11 0 0 0 1.03-.53 2.31 2.31 0 0 1 1.1-.47 7.59 7.59 0 0 0 4.2-2.12 7.25 7.25 0 0 0 2.06-4.14.14.14 0 0 1 .2 0l.04.07c.02.3.02.6 0 .9v.46c.11-.32.24-.63.4-.93l.06-.15c.26-.56.4-.83.51-.83a5.82 5.82 0 0 1-.74 2.2 7.74 7.74 0 0 0-.3.74c.41-.4.76-.88 1.03-1.39.44-.68.62-.94.7-.94.32.55-.77 1.92-1.26 2.58a2.44 2.44 0 0 0-.25.34c.21-.1.4-.25.57-.41.32-.29.64-.57.8-.57h.08c.2.24-.45.85-1.13 1.46l-.35.34c.08 0 .25 0 .42-.15.16-.14.59-.3.61-.16.03.15-.26.48-.86.88l-.32.17-.14.08h.15a.49.49 0 0 1 .3 0c0 .2-.27.27-.5.34a.7.7 0 0 0-.3.12h.14c.05 0 .18 0 .2.06.03.06-.31.25-.59.28h-.26.12c.12 0 .27 0 .24.17-.02.17-.22.13-.47.15a1.28 1.28 0 0 0-.4.07h.13c.12 0 .23.06.23.14 0 .07 0 .1-.33.18a9.73 9.73 0 0 1-1.36.34 9.99 9.99 0 0 1-1.32.15h-.24c-.01 0 .15-.11.63-.18h.25l.24-.06a1.87 1.87 0 0 0 .4-.11c.2-.13.42-.23.65-.27v-.11c0-.04-.07-.1-.06-.15a.1.1 0 0 1 .04-.06.1.1 0 0 1 .07-.01h.08s.07 0 .12-.08a.13.13 0 0 0 .02-.07.13.13 0 0 0-.02-.07.23.23 0 0 1 0-.09s.09-.07.23-.1a.76.76 0 0 0 .3-.1.24.24 0 0 1-.09-.13s0-.08.25-.17c.25-.08.25-.12.25-.16 0 0-.07 0-.07-.07l.21-.11c.2-.07.38-.2.53-.34a.2.2 0 0 0-.12 0h-.15v-.09l.14-.12a1.03 1.03 0 0 0 .34-.42h-.11c-.15 0-.24 0-.24-.06a.91.91 0 0 1 .1-.31c.07-.12.11-.24.14-.37-.08 0-.18 0-.23.06l-.11-.13c-.3.14-.56.36-.77.62a4.96 4.96 0 0 0-.54.74 3.11 3.11 0 0 1-.64.8l-.32.12a3.53 3.53 0 0 0-1.74 1.1.62.62 0 0 1-.28 0c-.42.03-.84.1-1.25.17-.3.05-.6.13-.9.23-.55.25-1.09.52-1.61.83a.73.73 0 0 0 .29-.08h.27c-.12.2-.3.39-.3.42l.05.08h2.28a.76.76 0 0 1-.52.2h-2.71a.55.55 0 0 1-.21.1.14.14 0 0 1-.12-.06c-.06 0-.08 0-.1.1 0 .1 0 .1-.08.1"/><path fill="#52AEC4" d="M25.69 21.46h-.17c-.07 0-.1 0-.1.08 0 .09.1 0 .15 0s.12 0 .12-.08Z"/><path fill="#52AEC4" d="M25.47 21.59c0-.06 0-.1.13-.12h.15s0 .1-.13.12h-.1"/><path fill="#F5C832" d="M28.12 8.14a.3.3 0 0 0 .25-.03.28.28 0 0 0 .12-.2c.03-.45.03-.9 0-1.34a11.92 11.92 0 0 0-.57 1.22.28.28 0 0 0 .13.33l.12.04m.79.23a.3.3 0 0 0 .35-.05.28.28 0 0 0 .06-.1c.1-.44.18-.88.23-1.33-.3.34-.57.7-.82 1.08a.28.28 0 0 0 .18.4Zm.76.4a.3.3 0 0 0 .45-.08c.19-.4.35-.8.48-1.22a11.63 11.63 0 0 0-1.01.91.29.29 0 0 0 .08.43m.68.5a.31.31 0 0 0 .23.1.32.32 0 0 0 .23-.1c.27-.36.51-.74.73-1.14-.4.21-.8.45-1.19.7a.3.3 0 0 0-.1.22.29.29 0 0 0 .1.22Zm.56.65a.28.28 0 0 0 .44.08c.34-.3.65-.63.94-.97-.42.13-.84.28-1.25.46a.27.27 0 0 0-.16.2.26.26 0 0 0 .07.23m.38.74a.28.28 0 0 0 .16.18.3.3 0 0 0 .25 0c.4-.25.77-.5 1.13-.79-.46.04-.92.11-1.37.2a.28.28 0 0 0-.2.17.26.26 0 0 0 .03.24Zm.25.8a.28.28 0 0 0 .13.22.3.3 0 0 0 .24.03c.44-.15.85-.34 1.26-.55-.46-.03-.92-.03-1.38 0a.28.28 0 0 0-.22.12.26.26 0 0 0-.03.24m.09.79a.28.28 0 0 0 .07.23.29.29 0 0 0 .24.09c.46-.08.91-.19 1.35-.32a12.09 12.09 0 0 0-1.35-.3.3.3 0 0 0-.23.08.28.28 0 0 0-.08.22Zm-.1.84a.27.27 0 0 0 .14.33c.03.02.08.04.12.04.46.02.92.02 1.38 0a13.03 13.03 0 0 0-1.25-.56.3.3 0 0 0-.34.12.28.28 0 0 0-.04.12m-.25.76a.28.28 0 0 0 .06.34.29.29 0 0 0 .11.06c.45.1.91.17 1.37.22 0 0-.92-.7-1.13-.8a.3.3 0 0 0-.35.07.28.28 0 0 0-.06.1Zm-.42.74a.27.27 0 0 0 .1.43c.4.18.82.33 1.25.46-.3-.34-.6-.67-.94-.97a.29.29 0 0 0-.24-.06.29.29 0 0 0-.2.14m-.53.66a.3.3 0 0 0-.1.22.29.29 0 0 0 .1.22c.18.15 1.19.7 1.19.7a11.58 11.58 0 0 0-.73-1.14.28.28 0 0 0-.23-.11.29.29 0 0 0-.23.11Zm-.68.53a.31.31 0 0 0-.14.2.3.3 0 0 0 .06.24c.32.32.66.62 1.01.9a11.31 11.31 0 0 0-.48-1.22.3.3 0 0 0-.2-.15.31.31 0 0 0-.25.05m-.76.38a.3.3 0 0 0-.19.16.28.28 0 0 0 .01.24c.25.38.52.74.82 1.1a9.22 9.22 0 0 0-.23-1.33.28.28 0 0 0-.16-.18.3.3 0 0 0-.25.01Zm-4.19-.4a.3.3 0 0 0-.37 0 .3.3 0 0 0-.08.1c-.18.4-.34.8-.48 1.22a13.42 13.42 0 0 0 1.02-.9.29.29 0 0 0 .06-.25.29.29 0 0 0-.15-.2m-.68-.5a.29.29 0 0 0-.22-.1.3.3 0 0 0-.23.1 9.61 9.61 0 0 0-.72 1.14s1.01-.55 1.17-.7a.28.28 0 0 0 .11-.22.28.28 0 0 0-.1-.22Zm-.5-.66a.3.3 0 0 0-.2-.14.3.3 0 0 0-.25.06c-.33.3-.65.63-.94.98.43-.14.85-.3 1.26-.47a.29.29 0 0 0 .15-.19.28.28 0 0 0-.05-.24m-.43-.74a.3.3 0 0 0-.17-.18.31.31 0 0 0-.26 0c-.21.1-1.11.8-1.11.8.46-.05.91-.12 1.36-.22a.29.29 0 0 0 .2-.16.27.27 0 0 0-.02-.24Zm-.26-.8a.28.28 0 0 0-.13-.22.3.3 0 0 0-.25-.03c-.43.16-.85.35-1.25.56.46.02.92.02 1.38 0a.3.3 0 0 0 .21-.12.28.28 0 0 0 .04-.25m-.08-.79a.29.29 0 0 0-.1-.22.3.3 0 0 0-.23-.08 11.77 11.77 0 0 0-1.34.3c.44.13.9.24 1.34.32a.3.3 0 0 0 .24-.09.28.28 0 0 0 .09-.23Zm.08-.84a.26.26 0 0 0-.04-.24.27.27 0 0 0-.21-.12c-.46-.03-.93-.03-1.38 0 .4.21.82.4 1.25.55a.28.28 0 0 0 .34-.12.26.26 0 0 0 .04-.12m.26-.76a.28.28 0 0 0-.18-.4 12.37 12.37 0 0 0-1.36-.2c.35.27.73.53 1.11.77a.3.3 0 0 0 .43-.17Zm.46-.74a.28.28 0 0 0-.1-.43 12.05 12.05 0 0 0-1.25-.47c.29.35.6.68.94.98a.29.29 0 0 0 .25.07.28.28 0 0 0 .2-.15m.46-.65a.28.28 0 0 0 .11-.22.27.27 0 0 0-.1-.22 11.44 11.44 0 0 0-1.18-.7c.21.4.45.78.72 1.14a.3.3 0 0 0 .23.1.3.3 0 0 0 .22-.1Zm3.15-.74c.77 0 1.52.23 2.16.65a3.82 3.82 0 0 1 1.43 1.7c.29.7.36 1.46.2 2.2a3.77 3.77 0 0 1-1.07 1.94 3.93 3.93 0 0 1-2 1.03 4 4 0 0 1-2.24-.22 3.88 3.88 0 0 1-1.75-1.4 3.73 3.73 0 0 1-.65-2.1 3.77 3.77 0 0 1 1.15-2.7 3.98 3.98 0 0 1 2.77-1.1Zm.01-.52a.31.31 0 0 0 .23-.09.3.3 0 0 0 .09-.23c-.08-.43-.19-.87-.32-1.29a10.91 10.91 0 0 0-.32 1.3.28.28 0 0 0 .09.23.3.3 0 0 0 .23.08Zm.87 8.53a.3.3 0 0 0-.22.12.28.28 0 0 0-.03.24c.17.42.36.83.57 1.22.03-.44.03-.88 0-1.33a.28.28 0 0 0-.12-.2.3.3 0 0 0-.25-.04m-.82.07a.3.3 0 0 0-.23.08.28.28 0 0 0-.1.23c.09.44.2.88.33 1.3.13-.43.24-.86.32-1.3a.27.27 0 0 0-.09-.23.29.29 0 0 0-.23-.08Zm-.87-.08a.31.31 0 0 0-.34.12.29.29 0 0 0-.04.12c-.03.44-.03.89 0 1.33.22-.4.41-.8.58-1.22a.27.27 0 0 0-.13-.33.3.3 0 0 0-.12-.04m-.8-.23a.3.3 0 0 0-.35.06.28.28 0 0 0-.06.11c-.1.44-.17.88-.21 1.32.29-.34.56-.7.8-1.09a.27.27 0 0 0 .02-.24.27.27 0 0 0-.2-.16Zm-.76-7.56a.28.28 0 0 0 .09-.42 11.6 11.6 0 0 0-1.02-.92c.14.41.3.82.48 1.22a.3.3 0 0 0 .2.14.3.3 0 0 0 .25-.06m.77-.36a.28.28 0 0 0 .2-.16.26.26 0 0 0-.03-.24 11.02 11.02 0 0 0-.8-1.08c.04.45.12.89.21 1.32a.27.27 0 0 0 .17.18.28.28 0 0 0 .25-.02Zm.84-.25a.3.3 0 0 0 .21-.12.28.28 0 0 0 .04-.24 9.74 9.74 0 0 0-.58-1.22c-.03.44-.03.89 0 1.33a.28.28 0 0 0 .13.2.3.3 0 0 0 .25.04"/></g><defs><clipPath id="a"><path fill="#fff" d="M0 0h52v29.3H0z"/></clipPath></defs></svg>