<svg xmlns="http://www.w3.org/2000/svg" fill="none" viewBox="0 0 52 30"><g clip-path="url(#a)"><path fill="#F5C832" d="M3.535 2.308s.289-.232.389-.122c.1.11-.49 1.136-.49 1.465 0 .538.377.684.84.77.275.031.553.031.828 0a.373.373 0 0 0-.325-.171.657.657 0 0 0 .267-.243.634.634 0 0 0 .096-.343c0-.465-.2-.66-.2-1.222.028-.236.114-.462.25-.66a.589.589 0 0 0-.465.239.553.553 0 0 0-.074.507.233.233 0 0 1-.188-.061.357.357 0 0 0 .088.28h-.176a.386.386 0 0 0 .2.282.488.488 0 0 0-.437.056.469.469 0 0 0-.202.383.324.324 0 0 0 .077.237.34.34 0 0 0 .224.117c.054.011.11.011.163 0a.191.191 0 0 1 0 .183c.113 0 .188-.085.138-.22a.259.259 0 0 0 .188-.085.212.212 0 0 0-.188-.085.168.168 0 0 0-.043-.21.178.178 0 0 0-.07-.035s.063.245-.1.245a.126.126 0 0 1-.128-.073.12.12 0 0 1-.01-.05.227.227 0 0 1 .092-.162.24.24 0 0 1 .184-.045c.188 0 .338.122.338.415s-.225.39-.514.403a.424.424 0 0 1-.329-.09.405.405 0 0 1-.147-.3c0-.355.527-1.149.527-1.466a.383.383 0 0 0-.136-.27.405.405 0 0 0-.291-.096.82.82 0 0 0-.514.268l.138.159Z"/><path fill="#F5C832" d="M3.535 2.308s-.288-.232-.389-.122c-.1.11.49 1.136.49 1.465 0 .538-.376.684-.84.77-.27.031-.545.031-.816 0a.345.345 0 0 1 .313-.17.657.657 0 0 1-.267-.244.634.634 0 0 1-.095-.343c0-.465.2-.66.2-1.222a1.478 1.478 0 0 0-.25-.66.589.589 0 0 1 .465.239.553.553 0 0 1 .073.507.233.233 0 0 0 .188-.061.357.357 0 0 1-.087.28h.175a.386.386 0 0 1-.2.282.487.487 0 0 1 .587.224c.035.066.053.14.052.215a.324.324 0 0 1-.077.237.34.34 0 0 1-.224.117.31.31 0 0 1-.15 0 .167.167 0 0 0 0 .183.164.164 0 0 1-.127-.075.156.156 0 0 1-.011-.144.256.256 0 0 1-.188-.086.212.212 0 0 1 .188-.085.168.168 0 0 1 .043-.21.175.175 0 0 1 .07-.035s-.063.245.1.245.138 0 .138-.122a.228.228 0 0 0-.092-.163.242.242 0 0 0-.184-.045c-.188 0-.338.122-.338.415s.225.39.514.403a.41.41 0 0 0 .333-.085.391.391 0 0 0 .143-.306c0-.354-.526-1.148-.526-1.465a.383.383 0 0 1 .134-.27.405.405 0 0 1 .292-.096c.2.024.382.12.514.268l-.15.159Z"/><path fill="#52AEC4" d="M52 0H0v29.296h52V0Z"/><path fill="#F5C832" d="M3.423 20.723a.917.917 0 0 1 .3-.641.968.968 0 0 1 .677-.25.81.81 0 0 1 .625.187.772.772 0 0 1 .265.582 1.34 1.34 0 0 1-.163.647l-1.329 2.638a.752.752 0 0 0-.062.354c.01.12.065.232.156.314.09.081.21.126.333.126a.497.497 0 0 0 .325-.13.472.472 0 0 0 .151-.31c0-.293-.15-.427-.313-.427s-.276.073-.276.22c0 .146 0 .122.113.122.112 0 .113-.22.113-.22a.165.165 0 0 1 .111.076.155.155 0 0 1 .014.131.39.39 0 0 1 .163.098.418.418 0 0 1-.163.086c0 .122 0 .183-.138.22a.298.298 0 0 0 0-.147.345.345 0 0 1-.433-.167.323.323 0 0 1-.031-.163.477.477 0 0 1 .188-.397.505.505 0 0 1 .439-.091.273.273 0 0 1-.115-.094.264.264 0 0 1-.048-.138.616.616 0 0 0 .163 0 .413.413 0 0 1-.113-.306c.075 0 .138.098.238.062a.549.549 0 0 1 .05-.51.57.57 0 0 1 .452-.26.963.963 0 0 0-.25.61c0 .685.187.794.187 1.222a.658.658 0 0 1-.313.55c.117.029.22.098.288.195a1.94 1.94 0 0 1-1.028 0 .739.739 0 0 1-.539-.342.992.992 0 0 1 0-.843c.188-.366 1.078-2.173 1.354-2.747a.98.98 0 0 0 .088-.379.477.477 0 0 0-.156-.342.504.504 0 0 0-.358-.134.46.46 0 0 0-.303.098.437.437 0 0 0-.161.268c0 .134.075.22.188.22s.238-.208.188-.342c.07.02.13.062.17.12a.3.3 0 0 1 .056.198c.098.012.188.06.25.134a.324.324 0 0 1-.25.134c0 .208-.088.281-.226.33 0-.147.075-.318-.188-.318a.487.487 0 0 1-.426-.146v.781c0 .232.325.232.539.16-.076.268-.239.414-.627.378.058.02.108.06.142.11.034.05.05.11.046.17a.719.719 0 0 1-.3.538l-.063-2.235Z"/><path fill="#F5C832" d="M3.535 20.723a.918.918 0 0 0-.301-.641.966.966 0 0 0-.676-.25.813.813 0 0 0-.625.187.77.77 0 0 0-.266.582 1.34 1.34 0 0 0 .163.647l1.33 2.638c.049.112.07.233.062.354a.472.472 0 0 1-.156.314.496.496 0 0 1-.333.126.496.496 0 0 1-.325-.13.472.472 0 0 1-.152-.31c0-.293.15-.427.314-.427.163 0 .276.073.276.22 0 .146 0 .122-.113.122s-.113-.22-.113-.22a.165.165 0 0 0-.111.076.156.156 0 0 0-.014.131.39.39 0 0 0-.163.098c.047.04.102.07.163.086 0 .122 0 .183.137.22a.298.298 0 0 1 0-.147.347.347 0 0 0 .327-.04.33.33 0 0 0 .137-.29.477.477 0 0 0-.188-.397.505.505 0 0 0-.438-.091.273.273 0 0 0 .115-.094.264.264 0 0 0 .047-.138.616.616 0 0 1-.163 0 .413.413 0 0 0 .114-.306c-.075 0-.139.098-.239.062a.549.549 0 0 0-.242-.693.59.59 0 0 0-.26-.077c.154.17.243.385.252.61 0 .685-.188.794-.188 1.222a.658.658 0 0 0 .313.55.501.501 0 0 0-.288.195 1.94 1.94 0 0 0 1.028 0 .739.739 0 0 0 .539-.342.991.991 0 0 0 0-.843 238.917 238.917 0 0 1-1.354-2.747.98.98 0 0 1-.088-.379.477.477 0 0 1 .156-.342.504.504 0 0 1 .358-.134.46.46 0 0 1 .303.098.437.437 0 0 1 .16.268c0 .134-.074.22-.187.22s-.239-.208-.189-.342a.313.313 0 0 0-.17.12.3.3 0 0 0-.055.198.392.392 0 0 0-.25.134.324.324 0 0 0 .25.134c0 .208.088.281.225.33 0-.147-.062-.318.189-.318a.487.487 0 0 0 .426-.146v.781c0 .232-.326.232-.54.16.076.268.239.414.628.378a.285.285 0 0 0-.142.11.276.276 0 0 0-.046.17.718.718 0 0 0 .3.538l.063-2.235ZM3.535 27s.289.232.389.11c.1-.122-.49-1.124-.49-1.453 0-.538.377-.684.84-.77.275-.031.553-.031.828 0a.374.374 0 0 1-.325.171c.11.055.203.14.267.243a.634.634 0 0 1 .096.344c0 .463-.2.659-.2 1.22.028.237.114.463.25.66a.588.588 0 0 1-.465-.238.552.552 0 0 1-.074-.507.232.232 0 0 0-.188.061.345.345 0 0 1 .088-.28h-.176c-.088 0 .063-.184.2-.282a.488.488 0 0 1-.437-.056.469.469 0 0 1-.202-.383.336.336 0 0 1 .076-.241.354.354 0 0 1 .225-.125.425.425 0 0 1 .163 0 .191.191 0 0 0 0-.184c.113 0 .188.086.138.22a.115.115 0 0 1 .166.027.108.108 0 0 1 .018.059c0 .02-.006.04-.018.058a.11.11 0 0 1-.046.04.115.115 0 0 1-.12-.013c0 .122 0 .183-.113.244s.063-.244-.1-.244a.126.126 0 0 0-.128.072.12.12 0 0 0-.01.05.228.228 0 0 0 .092.162.24.24 0 0 0 .184.046c.188 0 .338-.122.338-.415 0-.294-.225-.403-.514-.403a.412.412 0 0 0-.333.085.392.392 0 0 0-.143.305c0 .355.527 1.148.527 1.466a.384.384 0 0 1-.136.27.403.403 0 0 1-.291.096.82.82 0 0 1-.514-.268L3.535 27Z"/><path fill="#F5C832" d="M3.535 27s-.288.232-.389.11c-.1-.122.49-1.124.49-1.453 0-.538-.376-.684-.84-.77a3.496 3.496 0 0 0-.816 0 .335.335 0 0 0 .314.171.657.657 0 0 0-.268.243.634.634 0 0 0-.095.344c0 .463.2.659.2 1.22a1.478 1.478 0 0 1-.25.66.59.59 0 0 0 .465-.238.552.552 0 0 0 .073-.507.233.233 0 0 1 .188.061.345.345 0 0 0-.087-.28h.175c.088 0-.063-.184-.2-.282a.488.488 0 0 0 .437-.056.468.468 0 0 0 .202-.383.336.336 0 0 0-.076-.241.354.354 0 0 0-.225-.125.322.322 0 0 0-.15 0 .167.167 0 0 1 0-.184.164.164 0 0 0-.127.076.155.155 0 0 0-.011.144.115.115 0 0 0-.166.027.108.108 0 0 0 0 .117.115.115 0 0 0 .166.027c0 .122 0 .183.112.244.113.061-.062-.244.1-.244.164 0 .14 0 .14.122a.228.228 0 0 1-.093.162.242.242 0 0 1-.184.046c-.188 0-.338-.122-.338-.415 0-.294.225-.403.514-.403.288 0 .476.122.476.39 0 .27-.526 1.148-.526 1.466a.382.382 0 0 0 .134.27.407.407 0 0 0 .292.096c.2-.024.382-.12.514-.268L3.536 27ZM3.423 10.404a.917.917 0 0 1 .3-.641.968.968 0 0 1 .677-.25.81.81 0 0 1 .625.188.771.771 0 0 1 .265.581c0 .226-.056.448-.163.648l-1.329 2.637a.751.751 0 0 0-.062.354.473.473 0 0 0 .165.287.497.497 0 0 0 .634 0 .473.473 0 0 0 .166-.287c0-.28-.15-.415-.313-.415s-.276.073-.276.208c0 .134 0 .134.113.134.112 0 .113-.22.113-.22a.166.166 0 0 1 .111.076.155.155 0 0 1 .014.132.39.39 0 0 1 .163.098.416.416 0 0 1-.163.085c0 .122 0 .183-.138.22a.298.298 0 0 0 0-.147.36.36 0 0 1-.32-.047.345.345 0 0 1-.144-.283.478.478 0 0 1 .188-.396.507.507 0 0 1 .439-.092.274.274 0 0 1-.115-.093.264.264 0 0 1-.048-.139h.163a.468.468 0 0 1-.113-.317c.075 0 .138.097.238 0a.549.549 0 0 1 .05-.51.568.568 0 0 1 .452-.26.963.963 0 0 0-.25.61c0 .673.187.795.187 1.222a.67.67 0 0 1-.313.562c.117.029.22.098.288.195a1.94 1.94 0 0 1-1.028 0 .739.739 0 0 1-.539-.342.992.992 0 0 1 0-.842c.188-.379 1.078-2.174 1.354-2.748a.99.99 0 0 0 .088-.39.465.465 0 0 0-.157-.339.492.492 0 0 0-.357-.126.447.447 0 0 0-.306.095.425.425 0 0 0-.158.271c0 .135.075.208.188.208s.238-.207.188-.33c.07.02.13.062.17.12a.3.3 0 0 1 .056.198c.098.012.188.06.25.134a.324.324 0 0 1-.25.135c0 .207-.088.28-.226.33 0-.147.075-.318-.188-.318a.487.487 0 0 1-.426-.147v.782c0 .232.325.232.539.159-.076.268-.239.415-.627.378.058.021.108.06.142.11.034.05.05.11.046.17a.72.72 0 0 1-.3.538l-.063-2.186Z"/><path fill="#F5C832" d="M3.535 10.404a.918.918 0 0 0-.301-.641.966.966 0 0 0-.676-.25.812.812 0 0 0-.625.188.77.77 0 0 0-.266.581c0 .226.057.448.163.648l1.33 2.637c.049.112.07.233.062.354a.473.473 0 0 1-.166.287.496.496 0 0 1-.634 0 .473.473 0 0 1-.166-.287c0-.28.15-.415.314-.415.163 0 .276.073.276.208 0 .134 0 .134-.113.134s-.113-.22-.113-.22a.166.166 0 0 0-.111.076.156.156 0 0 0-.014.132.39.39 0 0 0-.163.098c.047.04.102.069.163.085 0 .122 0 .183.137.22a.297.297 0 0 1 0-.147.36.36 0 0 0 .32-.047.343.343 0 0 0 .144-.283.478.478 0 0 0-.188-.396.507.507 0 0 0-.438-.092.274.274 0 0 0 .115-.093.264.264 0 0 0 .047-.139H2.47a.469.469 0 0 0 .114-.317c-.075 0-.139.097-.239 0a.55.55 0 0 0-.242-.693.59.59 0 0 0-.26-.077c.154.17.243.385.252.61 0 .673-.188.795-.188 1.222a.67.67 0 0 0 .313.562.501.501 0 0 0-.288.195 1.94 1.94 0 0 0 1.028 0 .739.739 0 0 0 .539-.342.991.991 0 0 0 0-.842 407.254 407.254 0 0 1-1.354-2.748.991.991 0 0 1-.088-.39.466.466 0 0 1 .156-.339.492.492 0 0 1 .358-.126c.11-.007.22.027.306.095a.425.425 0 0 1 .158.271c0 .135-.075.208-.188.208s-.239-.207-.189-.33a.313.313 0 0 0-.17.12.3.3 0 0 0-.055.198.392.392 0 0 0-.25.134.324.324 0 0 0 .25.135c0 .207.088.28.225.33 0-.147-.062-.318.189-.318a.487.487 0 0 0 .426-.147v.782c0 .232-.326.232-.54.159.076.268.239.415.628.378a.286.286 0 0 0-.142.11.275.275 0 0 0-.046.17.72.72 0 0 0 .3.538l.063-2.186Z"/><path fill="#F5C832" d="M3.535 8.646a.918.918 0 0 1-.301.641.966.966 0 0 1-.676.25.812.812 0 0 1-.625-.187.77.77 0 0 1-.266-.582 1.34 1.34 0 0 1 .163-.647s.966-1.905 1.33-2.65a.668.668 0 0 0 .062-.342.472.472 0 0 0-.156-.313.496.496 0 0 0-.333-.127.495.495 0 0 0-.325.13.471.471 0 0 0-.152.31c0 .293.15.427.314.427.163 0 .276-.085.276-.207 0-.122 0-.147-.113-.147s-.113.232-.113.232a.165.165 0 0 1-.111-.076.156.156 0 0 1-.014-.131.39.39 0 0 1-.163-.098.417.417 0 0 1 .163-.086.155.155 0 0 1 .01-.144.162.162 0 0 1 .127-.075.274.274 0 0 0 0 .134.362.362 0 0 1 .326.05.344.344 0 0 1 .138.292.478.478 0 0 1-.188.397.506.506 0 0 1-.438.091c.046.02.086.053.115.094a.264.264 0 0 1 .047.138H2.47a.469.469 0 0 1 .114.318c-.075 0-.139-.098-.239-.061a.549.549 0 0 1-.242.692.59.59 0 0 1-.26.077.964.964 0 0 0 .252-.61c0-.684-.188-.794-.188-1.222a.658.658 0 0 1 .313-.55.446.446 0 0 1-.288-.182 1.94 1.94 0 0 1 1.028 0 .739.739 0 0 1 .539.342.968.968 0 0 1 0 .83l-1.354 2.76a.98.98 0 0 0-.088.378.478.478 0 0 0 .156.342.503.503 0 0 0 .358.135.46.46 0 0 0 .303-.098.438.438 0 0 0 .16-.269c0-.134-.074-.22-.187-.22s-.239.208-.189.342a.313.313 0 0 1-.17-.12.3.3 0 0 1-.055-.197.392.392 0 0 1-.25-.134.324.324 0 0 1 .25-.135.25.25 0 0 1 .033-.217.262.262 0 0 1 .192-.112c0 .146-.062.305.189.305a.488.488 0 0 1 .426.159V7.79c0-.232-.326-.232-.54-.159.076-.268.239-.415.628-.378a.286.286 0 0 1-.142-.11.276.276 0 0 1-.046-.171.719.719 0 0 1 .3-.537l.063 2.21Z"/><path fill="#F5C832" d="M3.423 8.646c.01.244.117.474.3.641a.968.968 0 0 0 .677.25.81.81 0 0 0 .624-.187.772.772 0 0 0 .266-.582 1.34 1.34 0 0 0-.163-.647s-.965-1.905-1.329-2.65a.668.668 0 0 1-.062-.342.471.471 0 0 1 .155-.313.496.496 0 0 1 .333-.127c.122.003.238.05.326.13a.471.471 0 0 1 .151.31c0 .293-.15.427-.313.427s-.276-.085-.276-.207c0-.122 0-.147.112-.147.113 0 .114.232.114.232a.165.165 0 0 0 .111-.076.156.156 0 0 0 .014-.131.39.39 0 0 0 .163-.098.417.417 0 0 0-.163-.086c0-.134 0-.195-.138-.22a.274.274 0 0 1 0 .135.36.36 0 0 0-.325.05.344.344 0 0 0-.14.292.478.478 0 0 0 .19.397.507.507 0 0 0 .438.091.274.274 0 0 0-.115.094.264.264 0 0 0-.048.138h.163a.468.468 0 0 0-.113.318c.075 0 .138-.098.238-.061a.548.548 0 0 0 .05.51.57.57 0 0 0 .451.26.963.963 0 0 1-.25-.611c0-.684.188-.794.188-1.222a.658.658 0 0 0-.313-.55.446.446 0 0 0 .288-.182 1.94 1.94 0 0 0-1.028 0 .739.739 0 0 0-.54.342.968.968 0 0 0 0 .83l1.355 2.76a.98.98 0 0 1 .087.378.477.477 0 0 1-.155.342.503.503 0 0 1-.358.135.46.46 0 0 1-.303-.098.438.438 0 0 1-.161-.269c0-.134.075-.22.188-.22s.238.208.188.342c.07-.02.13-.061.17-.12a.3.3 0 0 0 .056-.197.392.392 0 0 0 .25-.134.324.324 0 0 0-.25-.135.25.25 0 0 0-.033-.217.26.26 0 0 0-.193-.112c0 .146.075.305-.188.305a.488.488 0 0 0-.426.159V7.79c0-.232.325-.232.538-.159-.075-.268-.238-.415-.626-.378a.288.288 0 0 0 .142-.11c.033-.051.05-.11.046-.171a.72.72 0 0 0-.301-.537l-.062 2.21ZM3.535 18.904a.918.918 0 0 1-.301.641.967.967 0 0 1-.676.25.813.813 0 0 1-.625-.188.77.77 0 0 1-.266-.581 1.34 1.34 0 0 1 .163-.648s.966-1.904 1.33-2.65a.668.668 0 0 0 .062-.341.472.472 0 0 0-.156-.314.495.495 0 0 0-.333-.126.495.495 0 0 0-.325.13.471.471 0 0 0-.152.31c0 .293.15.427.314.427.163 0 .276-.085.276-.22 0-.134 0-.134-.113-.134s-.113.232-.113.232a.16.16 0 0 1-.133-.14.155.155 0 0 1 .008-.068.39.39 0 0 1-.163-.097.416.416 0 0 1 .163-.086.155.155 0 0 1 .065-.197.164.164 0 0 1 .072-.023.274.274 0 0 0 0 .135.364.364 0 0 1 .326.05.343.343 0 0 1 .138.292.478.478 0 0 1-.188.397.507.507 0 0 1-.438.091c.046.02.086.053.115.094a.264.264 0 0 1 .047.138H2.47a.47.47 0 0 1 .114.318c-.075 0-.139-.098-.239 0a.55.55 0 0 1-.242.692.59.59 0 0 1-.26.077.964.964 0 0 0 .252-.61c0-.684-.188-.794-.188-1.222a.657.657 0 0 1 .313-.55.49.49 0 0 1-.288-.183 1.942 1.942 0 0 1 1.028 0 .739.739 0 0 1 .539.342.968.968 0 0 1 0 .83l-1.354 2.76a.98.98 0 0 0-.088.38.478.478 0 0 0 .156.341.5.5 0 0 0 .358.134c.11.005.217-.03.303-.097a.437.437 0 0 0 .16-.269c0-.134-.074-.22-.187-.22s-.239.208-.189.342a.325.325 0 0 1-.167-.121.312.312 0 0 1-.058-.196.392.392 0 0 1-.25-.135.324.324 0 0 1 .25-.134.25.25 0 0 1 .033-.217.262.262 0 0 1 .192-.113c0 .147-.062.306.189.306a.488.488 0 0 1 .426.158v-.781c0-.232-.326-.232-.54-.159.076-.268.239-.415.628-.378a.286.286 0 0 1-.142-.11.276.276 0 0 1-.046-.171.718.718 0 0 1 .3-.538l.063 2.15Z"/><path fill="#F5C832" d="M3.423 18.904c.01.244.117.474.3.641a.968.968 0 0 0 .677.25.81.81 0 0 0 .624-.188.771.771 0 0 0 .266-.581 1.34 1.34 0 0 0-.163-.648s-.965-1.904-1.329-2.65a.668.668 0 0 1-.062-.341.47.47 0 0 1 .155-.314.495.495 0 0 1 .333-.126c.122.003.238.05.326.13a.471.471 0 0 1 .151.31c0 .293-.15.427-.313.427s-.276-.085-.276-.22c0-.134 0-.134.112-.134.113 0 .114.232.114.232a.16.16 0 0 0 .133-.14.154.154 0 0 0-.008-.068.39.39 0 0 0 .163-.097.416.416 0 0 0-.163-.086c0-.134 0-.195-.138-.22a.274.274 0 0 1 0 .135.361.361 0 0 0-.325.05.343.343 0 0 0-.14.292.478.478 0 0 0 .19.397.507.507 0 0 0 .438.091.275.275 0 0 0-.115.094.264.264 0 0 0-.048.138h.163a.469.469 0 0 0-.113.318c.075 0 .138-.098.238 0a.549.549 0 0 0 .05.51.57.57 0 0 0 .451.259.963.963 0 0 1-.25-.61c0-.684.188-.794.188-1.222a.657.657 0 0 0-.313-.55.49.49 0 0 0 .288-.183 1.942 1.942 0 0 0-1.028 0 .739.739 0 0 0-.54.342.968.968 0 0 0 0 .83l1.355 2.76a.98.98 0 0 1 .087.38.478.478 0 0 1-.155.341.5.5 0 0 1-.358.134.459.459 0 0 1-.303-.097.437.437 0 0 1-.161-.269c0-.134.075-.22.188-.22s.238.208.188.342a.326.326 0 0 0 .168-.121.312.312 0 0 0 .058-.196.392.392 0 0 0 .25-.135.324.324 0 0 0-.25-.134.25.25 0 0 0-.033-.217.26.26 0 0 0-.193-.113c0 .147.075.306-.188.306a.488.488 0 0 0-.426.158v-.781c0-.232.325-.232.538-.159-.075-.268-.238-.415-.626-.378a.288.288 0 0 0 .142-.11c.033-.051.05-.111.046-.171a.719.719 0 0 0-.301-.538l-.062 2.15Z"/><path fill="#52AEC4" d="M2.92 18.855h-.187c-.076 0-.138 0-.126.098.013.097.1 0 .189 0 .087 0 .124-.062.124-.11"/><path fill="#52AEC4" d="m2.657 19.014-.062-.061c0-.062 0-.11.15-.123h.151v.061s0 .11-.15.135h-.139"/><path fill="#F5C832" d="M27.178 19.905a7.292 7.292 0 0 1-4.846-1.789 6.936 6.936 0 0 1-2.35-4.5s-.162-.061-.187.085c-.026.147.1 1.356 0 1.283-.1-.074-.853-2.052-.99-1.844-.139.207.839 2.442.776 2.54-.063.098-1.366-2.137-1.454-1.966-.363.66 1.43 2.82 1.417 2.906 0 .293-1.354-1.16-1.467-1.001-.25.354 1.43 1.624 1.517 1.722.088.097-.928-.513-.966-.245-.037.269.577.696.94.892.364.195.464.134.577.305.113.171-.676-.085-.664.073.013.16.827.257.953.391.125.134-.54 0-.515.159.026.159.715.232.728.317.012.086-.426 0-.401.196.025.195.677.11.84.22.163.11-.59 0 0 .293a8.097 8.097 0 0 0 2.143.757c.462.141.96.115 1.404-.074 0-.06-.438 0-1.078-.073a7.097 7.097 0 0 1-1.843-.696c-.113-.06.34-.195.251-.305-.087-.11-.463 0-.601-.159-.138-.159.175-.11.162-.183-.012-.073-.501-.171-.589-.293-.088-.122.226-.098.238-.183.013-.086-.313-.159-.338-.245-.026-.085.364 0 .188-.146-.175-.147-.715-.232-.802-.415-.088-.183.388 0 .263-.135-.126-.134-.564-.317-.664-.574-.1-.256.338 0 .338-.146 0-.147-.239-.061-.314-.574 0-.171.314-.061.314-.061v-.086c.349.212.659.48.915.794.514.574.665 1.124 1.154 1.514.238.196.238-.073.764.245a9.09 9.09 0 0 1 1.254 1.001c.504.016 1.007.065 1.504.147.577.122.69.402.69.402.188-.096.351-.234.476-.402.062-.086.125 0 .137 0 .013 0 0-.123 0-.123"/><path fill="#F5C832" d="M19.695 18.28a.245.245 0 0 0-.126 0c0 .184.326.233.565.27.238.036.313 0 .375.122v.06s-.125 0-.288.062c-.163.06-.213 0-.226 0-.012 0 .264.159.452.207.188.05.25.061.263.122.013.061-.088.074-.175.086a.434.434 0 0 0-.213.073c0 .098.238.122.413.147.139.001.275.03.401.085h-.251l.213.147a7.86 7.86 0 0 0 2.132.745c.222.047.449.071.677.073.439 0 .664-.098.677-.134h-.376a2.984 2.984 0 0 1-.665-.061 7.194 7.194 0 0 1-1.855-.697c0-.097 0-.122.087-.17.088-.05.15-.086.15-.123 0-.036-.124-.073-.224-.073a.45.45 0 0 1-.377-.11v-.073s.063-.061.113-.085h.075l-.213-.086a.934.934 0 0 1-.376-.195v-.074s.075-.06.138-.085c.063-.025.1 0 .1 0l-.125-.086a.223.223 0 0 1-.2-.146.16.16 0 0 1 .054-.068.166.166 0 0 1 .083-.03h.088l-.288-.122c-.226-.085-.49-.183-.565-.317 0-.061.114 0 .189 0h.062c0-.061-.075-.11-.175-.16-.1-.048-.401-.268-.464-.451a.095.095 0 0 1 0-.085h.338s0-.074-.075-.098a.638.638 0 0 1-.238-.476.094.094 0 0 1-.01-.043c0-.015.003-.03.01-.043.075-.073.326 0 .338 0v-.073c.382.18.713.449.965.781.203.232.384.481.54.745.153.296.361.56.614.782.045.038.103.06.163.06h.1c.18.013.354.072.502.172.348.214.675.46.977.732l.327.27h.3c.401.002.8.047 1.191.134a.943.943 0 0 1 .41.13.915.915 0 0 1 .305.297s.276-.22.413-.415c.138-.196 0-.061.088-.061v-.098a7.306 7.306 0 0 1-4.855-1.793 6.948 6.948 0 0 1-2.353-4.508s-.075 0-.075.06c-.03.297-.03.596 0 .892v.415c0 .013-.163-.207-.288-.512a5.878 5.878 0 0 0-.702-1.344c.077.64.263 1.264.551 1.844.226.586.25.672.225.696-.15 0-.45-.488-.89-1.22a3.842 3.842 0 0 0-.526-.77c-.238.488.74 1.856 1.254 2.503.213.293.25.354.25.391h-.062c-.113 0-.363-.208-.752-.562a3.023 3.023 0 0 0-.652-.5c-.188.268.952 1.22 1.328 1.538l.176.147s.063.073 0 .097c-.063.025-.163 0-.326-.11a2.207 2.207 0 0 0-.614-.232s.526.636.915.855c.106.063.22.113.338.147a.394.394 0 0 1 .251.17c0 .172-.163.086-.3.074h-.226m4.262 2.442a3.498 3.498 0 0 1-.69-.073 8.187 8.187 0 0 1-2.156-.757c-.175-.085-.238-.147-.238-.195 0-.05.088-.074.175-.086h.088a2.143 2.143 0 0 0-.401-.073c-.238 0-.45 0-.463-.159v-.06a.381.381 0 0 1 .25-.086h.125a.76.76 0 0 0-.213 0c-.213 0-.476-.11-.501-.257-.025-.146.138-.098.288-.098h.226a1.68 1.68 0 0 0-.339-.097c-.15-.025-.589-.098-.614-.306-.025-.207.238-.11.414-.085h.188c0-.085 0-.11-.163-.146a2.048 2.048 0 0 1-.351-.147c-.326-.183-.978-.66-.94-.916a.097.097 0 0 1 .037-.066.104.104 0 0 1 .076-.02c.226.046.442.128.639.245.08.054.17.095.263.122l-.225-.159c-.778-.647-1.543-1.343-1.342-1.612.15 0 .376.171.74.489.21.211.451.392.714.537a1.579 1.579 0 0 0-.226-.354c-.476-.66-1.466-2.052-1.253-2.577.125 0 .263.196.614.782.351.586.715 1.22.84 1.22a2.87 2.87 0 0 0-.226-.646 4.608 4.608 0 0 1-.538-1.893c.163 0 .4.44.802 1.355.087.196.163.367.213.452a1.842 1.842 0 0 1 0-.342 5.776 5.776 0 0 1 0-.903.12.12 0 0 1 .089-.106.129.129 0 0 1 .049-.004h.087a6.9 6.9 0 0 0 2.327 4.497 7.254 7.254 0 0 0 4.831 1.792s.101.06.089.11c-.145.186-.33.34-.54.451a.957.957 0 0 0-.69-.403 5.544 5.544 0 0 0-1.178-.134h-.338l-.326-.269a6.697 6.697 0 0 0-.977-.732.83.83 0 0 0-.464-.159h-.1a.267.267 0 0 1-.202-.085 2.722 2.722 0 0 1-.626-.782 4.414 4.414 0 0 0-.54-.745 3.866 3.866 0 0 0-.902-.781v.073h-.301c0 .342.138.415.213.476a.185.185 0 0 1 .1.159c0 .073-.1.073-.137.073h-.214a.965.965 0 0 0 .452.44l.213.159v.073h-.238c0 .146.276.244.489.33l.263.11s.063 0 .063.073-.063 0-.126.06h-.1s.1.074.163.11c.063.037.175.086.163.135-.013.049-.075.073-.138.098-.063.024-.1 0-.113 0a.92.92 0 0 0 .351.183c.176.073.25.098.263.146.013.05-.062.074-.112.098h-.076c.076.11.213.11.339.122a.386.386 0 0 1 .276 0v.073c0 .061-.1.11-.176.16l-.1.072c.58.311 1.2.545 1.843.697.217.018.435.018.652 0H24.859c.013 0-.288.195-.74.195M29.924 21.077c-.15 0-.138.098-.138.098a.3.3 0 0 1-.05.195.312.312 0 0 1-.163.122c-.088 0 0 .086-.075.16h-.401a4.108 4.108 0 0 1-2.358.341l-.376.293c-.175.159-.3.183-.338.306-.038.122.1.183.263.195a.855.855 0 0 0 .377-.147c.01.038.033.072.065.096a.19.19 0 0 0 .11.039c.145-.007.29-.036.426-.086a.91.91 0 0 0 .401.074.713.713 0 0 0 .326-.123s0 .196.214.208c.166-.036.321-.112.45-.22a.387.387 0 0 0 .29.135.945.945 0 0 0 .35-.208.63.63 0 0 0 .389 0 .943.943 0 0 0 .363-.232.38.38 0 0 0 .314.085c.15 0 .25-.256.25-.256.22.074.458.074.678 0 .188-.085.137-.366.137-.366s1.103.146 1.053-.55c0-.073-1.78 0-2.507-.195"/><path fill="#F5C832" d="M27.968 22.592s.1.195.239.195a.962.962 0 0 0 .413-.195s.15.11.276.11a.644.644 0 0 0 .363-.196c.092.008.185.008.276 0h.125a.969.969 0 0 0 .352-.232.714.714 0 0 0 .275.085.523.523 0 0 0 .289-.232s.238.062.451.062c.08.012.16.012.238 0 .163-.074.113-.342.113-.342h.276a.945.945 0 0 0 .677-.196.48.48 0 0 0 .113-.33h-.79a17.37 17.37 0 0 1-1.756-.122h-.037a.383.383 0 0 1-.06.236.398.398 0 0 1-.19.155v.061a.236.236 0 0 1 0 .086h-.427c-.73.35-1.552.474-2.357.354 0 0-.188.134-.35.28l-.176.123c-.088.061-.138.098-.163.17-.026.074 0 .062 0 .074a.313.313 0 0 0 .225.086.79.79 0 0 0 .352-.147s.075.122.2.134c.141-.009.28-.038.414-.085.117.039.24.063.363.073a.662.662 0 0 0 .351-.122m.251.256a.278.278 0 0 1-.153-.066.267.267 0 0 1-.085-.141.508.508 0 0 1-.301.134 1.278 1.278 0 0 1-.413-.085c-.122.057-.254.09-.39.098a.244.244 0 0 1-.136-.04.233.233 0 0 1-.089-.107.584.584 0 0 1-.35.146.362.362 0 0 1-.277-.097.132.132 0 0 1 0-.122c0-.098.088-.135.188-.208l.15-.122.377-.293h.664a3.675 3.675 0 0 0 1.705-.379h.414c0-.073 0-.134.075-.146a.3.3 0 0 0 .143-.117.287.287 0 0 0 .045-.176.143.143 0 0 1 0-.086.127.127 0 0 1 .1 0c.59.08 1.185.122 1.78.122.79 0 .84 0 .853.098a.504.504 0 0 1-.125.366 1.033 1.033 0 0 1-.728.22h-.238c.032.065.036.14.013.208a.283.283 0 0 1-.138.159 1.284 1.284 0 0 1-.69 0 .377.377 0 0 1-.237.244.426.426 0 0 1-.339-.086.664.664 0 0 1-.338.244.901.901 0 0 1-.414 0 .604.604 0 0 1-.339.208.457.457 0 0 1-.313-.134.644.644 0 0 1-.414.22"/><path fill="#F5C832" d="M27.567 20.345c.29-.1.587-.177.89-.232 1.065-.208 1.441-.147 1.517-.208a4.109 4.109 0 0 1 2.08-1.221c.49-.403.653-.965 1.167-1.539s.815-.635.815-.635l.075.134s.276-.195.263 0c-.012.196-.238.513-.226.684.013.171.376 0 .339.061-.038.062-.389.428-.464.55-.075.122.338-.061.238.11-.1.17-.564.354-.752.464-.188.11.126.085.1.17-.025.086-.514.257-.501.306.012.049.125.098.075.159-.05.06-.514.122-.514.183s.076.134 0 .244c-.075.11-.25 0-.313.147-.063.146.238.244.062.268-.228.05-.446.14-.64.27-.212.072-.43.129-.651.17-.138 0-.89.122-.865.183.509.06 1.025.02 1.517-.122a8.667 8.667 0 0 0 1.367-.33c.777-.232-.2-.256 0-.354.2-.097.84 0 .865-.195.025-.195-.377-.122-.364-.208.013-.085.815-.085.865-.293.05-.207-.464 0-.35-.183.112-.183.764-.17.789-.44.025-.268-.527 0-.451-.097.075-.098.237-.11.463-.257.226-.146.878-.622.84-.842-.037-.22-1.116.647-1.028.293 0-.134 1.78-1.453 1.492-1.783-.289-.33-1.429 1.221-1.48.928 0-.098 1.931-2.21 1.58-2.882-.087-.17-1.554 2.54-1.755 2.296-.2-.244 1.254-2.662 1.04-2.931-.212-.269-.312.305-.526.794a12.07 12.07 0 0 1-.527 1.074c-.05.074.063-1.025 0-1.355-.062-.33-.188-.086-.188-.086-.225 3.395-3.597 5.923-6.268 6.29-.702.097-.927.415-1.692.83-.25.134-.651.207-.99.39-.283.154-.524.372-.702.636a.381.381 0 0 0 .1.366c.063 0 .063-.183.138-.22.075-.037.087.073.175 0a.369.369 0 0 0 .201-.085h2.72a.842.842 0 0 0 .49-.171c0-.086-.252 0-.39 0h-1.855a.088.088 0 0 1-.062-.025.084.084 0 0 1-.025-.06c.103-.139.216-.27.338-.392h-.263a.75.75 0 0 1-.238.098c-.088 0-.113 0-.088-.06a12.656 12.656 0 0 1 1.63-.831"/><path fill="#F5C832" d="M34.45 13.64h-.063c-.2 3.249-3.423 5.886-6.268 6.277a2.4 2.4 0 0 0-1.066.464c-.176.11-.363.232-.614.367a1.813 1.813 0 0 1-.439.17c-.19.058-.375.132-.552.22-.274.156-.509.369-.689.623a.31.31 0 0 0 0 .208c0 .06 0 .11.076.11a.448.448 0 0 1 0-.074s0-.122.087-.146c.088-.025.113 0 .126 0h.062c.07-.01.135-.04.188-.086h2.733a.715.715 0 0 0 .464-.158H26.188a.072.072 0 0 1 0-.086c.092-.153.211-.29.351-.403h-.25a.764.764 0 0 1-.239.098.128.128 0 0 1-.125-.061c.52-.318 1.065-.596 1.63-.83.295-.099.596-.176.902-.233.412-.09.832-.147 1.254-.17h.226a3.636 3.636 0 0 1 1.767-1.1l.326-.122c.248-.22.456-.48.615-.77.152-.269.332-.523.538-.756.514-.574.828-.635.84-.635l.1.134s.113-.11.188-.11a.096.096 0 0 1 0 .085.97.97 0 0 1-.124.38.804.804 0 0 0-.1.292h.338a.904.904 0 0 1-.352.489l-.125.122h.264a.096.096 0 0 1 0 .085c-.149.161-.334.286-.54.367l-.226.11c.063.06.139.097.114.146-.025.049-.1.098-.289.196a.721.721 0 0 0-.213.122v.06a.498.498 0 0 1-.351.172c-.075 0-.163 0-.176.06-.012.062.063.172 0 .257a.198.198 0 0 1-.175.098h-.075v.085c0 .025.075.11.062.147a.127.127 0 0 1-.088.061 1.78 1.78 0 0 0-.626.256c-.136.058-.28.1-.427.123h-.501c-.186.024-.37.061-.551.11.493.013.986-.036 1.466-.147.464-.076.921-.186 1.367-.33.276-.085.276-.134.276-.134s-.138-.061-.188-.073c-.05-.013-.163 0-.176-.098.136-.053.28-.081.426-.086.163 0 .414 0 .414-.097 0-.098-.075-.086-.188-.11-.113-.025-.176 0-.176-.098s.1-.06.326-.098c.226-.036.527-.085.54-.195.012-.11-.1 0-.15 0-.051 0-.19 0-.202-.073v-.061a.889.889 0 0 1 .327-.147c.213-.06.45-.134.463-.28.013-.147-.125 0-.25 0h-.213c-.038 0 .074-.123.175-.16l.3-.17c.753-.501.853-.733.84-.819a.943.943 0 0 0-.514.196 1.367 1.367 0 0 1-.45.207.096.096 0 0 1 0-.097 1.84 1.84 0 0 1 .375-.379c.451-.403 1.254-1.16 1.116-1.367-.163 0-.514.28-.802.525-.289.244-.502.44-.602.44v-.062s0-.085.263-.378c.514-.648 1.58-1.99 1.317-2.443 0 0-.351.5-.627.916-.54.855-.915 1.417-1.078 1.417-.163 0-.063-.123.25-.819.359-.67.608-1.391.74-2.137-.1 0-.326.44-.476.77l-.076.159a9.035 9.035 0 0 1-.45.928c-.076 0-.076-.074 0-.477a5.225 5.225 0 0 0 0-.891s0-.061-.076-.061m-9.64 8.548c-.063 0-.1-.122-.113-.159a.322.322 0 0 1 0-.244c.181-.268.426-.49.714-.647.18-.091.37-.165.565-.22.145-.049.287-.106.426-.171.207-.111.408-.234.601-.366a2.312 2.312 0 0 1 1.091-.464 7.59 7.59 0 0 0 4.2-2.121 7.254 7.254 0 0 0 2.068-4.144.14.14 0 0 1 .207.005c.017.02.028.043.031.068.02.301.02.603 0 .904-.01.15-.01.301 0 .452.114-.317.248-.627.401-.928l.063-.147c.264-.562.401-.83.514-.83a5.817 5.817 0 0 1-.74 2.198 7.737 7.737 0 0 0-.3.745c.41-.413.757-.882 1.028-1.392.439-.684.614-.94.689-.94.326.549-.765 1.917-1.254 2.576a2.435 2.435 0 0 0-.25.342c.213-.109.407-.249.577-.415.313-.281.64-.562.802-.562h.075c.2.232-.451.843-1.128 1.453l-.351.342c.075 0 .25 0 .414-.146.163-.147.589-.306.614-.16.025.147-.264.477-.865.88l-.314.171-.137.073h.15a.49.49 0 0 1 .288 0c0 .196-.263.269-.489.342a.7.7 0 0 0-.3.122h.138c.05 0 .175 0 .2.061.025.062-.313.245-.59.281h-.262.125c.112 0 .263 0 .238.171-.025.171-.226.122-.477.147a1.282 1.282 0 0 0-.4.073h.137c.113 0 .226.061.226.134 0 .074 0 .098-.326.184a9.727 9.727 0 0 1-1.366.341 9.987 9.987 0 0 1-1.316.147h-.239c-.012 0 .15-.11.627-.183h.25l.239-.061a1.87 1.87 0 0 0 .401-.11c.197-.13.419-.222.652-.269v-.11c0-.036-.075-.097-.063-.146a.097.097 0 0 1 .042-.058.102.102 0 0 1 .07-.015h.076s.075 0 .125-.074a.132.132 0 0 0 .023-.073.132.132 0 0 0-.023-.073.228.228 0 0 1 0-.086s.088-.073.226-.097a.764.764 0 0 0 .3-.11.244.244 0 0 1-.087-.122s0-.086.251-.171c.251-.086.25-.123.25-.16 0 0-.075 0-.075-.073l.214-.11c.2-.073.38-.19.527-.341a.208.208 0 0 0-.114 0h-.15v-.086l.138-.122a1.03 1.03 0 0 0 .339-.415h-.114c-.15 0-.238 0-.238-.061a.91.91 0 0 1 .1-.318c.068-.113.115-.237.138-.366-.075 0-.175 0-.225.061l-.113-.134c-.3.148-.562.361-.765.622a4.956 4.956 0 0 0-.538.745 3.114 3.114 0 0 1-.64.806l-.326.11a3.533 3.533 0 0 0-1.742 1.1.619.619 0 0 1-.277 0c-.42.035-.838.093-1.253.17-.302.055-.6.133-.89.232-.557.244-1.097.521-1.617.83a.73.73 0 0 0 .288-.085h.276c-.125.208-.3.391-.313.428l.062.073h2.282a.763.763 0 0 1-.526.208H25.26a.545.545 0 0 1-.213.097.14.14 0 0 1-.114-.06c-.062 0-.087 0-.1.097-.012.098 0 .11-.088.11"/><path fill="#52AEC4" d="M25.687 21.456h-.163c-.076 0-.1 0-.1.085 0 .086.087 0 .15 0s.113 0 .113-.085Z"/><path fill="#52AEC4" d="M25.473 21.59c0-.06 0-.098.126-.122h.15s0 .098-.125.122h-.113"/><path fill="#F5C832" d="M28.119 8.145a.297.297 0 0 0 .249-.033.284.284 0 0 0 .127-.211c.03-.443.03-.888 0-1.331a11.92 11.92 0 0 0-.576 1.221.275.275 0 0 0 .128.328c.037.022.079.035.122.038M28.959 8.39a.295.295 0 0 0 .35-.054.28.28 0 0 0 .063-.105c.107-.434.182-.875.226-1.32-.294.342-.566.701-.814 1.075a.276.276 0 0 0 .175.403ZM29.724 8.792a.305.305 0 0 0 .45-.085c.183-.398.342-.806.477-1.221a11.63 11.63 0 0 0-1.015.916.29.29 0 0 0 .088.427M30.4 9.33a.312.312 0 0 0 .232.1.32.32 0 0 0 .232-.1c.264-.365.507-.744.727-1.136-.41.21-.807.443-1.19.696a.295.295 0 0 0-.103.22.288.288 0 0 0 .102.22ZM30.964 9.977a.28.28 0 0 0 .439.085c.335-.304.65-.63.94-.977-.426.132-.845.287-1.254.465a.273.273 0 0 0-.156.191.261.261 0 0 0 .069.236M31.378 10.722a.28.28 0 0 0 .165.182.295.295 0 0 0 .249-.011c.391-.24.768-.5 1.128-.782-.46.043-.915.112-1.366.208a.279.279 0 0 0-.195.157.263.263 0 0 0 .02.246ZM31.63 11.528a.275.275 0 0 0 .126.21.294.294 0 0 0 .249.034c.43-.157.848-.34 1.253-.55-.459-.028-.92-.028-1.379 0a.279.279 0 0 0-.216.116.264.264 0 0 0-.034.239M31.717 12.37a.275.275 0 0 0 .078.233.289.289 0 0 0 .235.085c.458-.079.91-.185 1.354-.318a12.09 12.09 0 0 0-1.354-.305.296.296 0 0 0-.23.081.28.28 0 0 0-.083.224ZM31.629 13.213a.273.273 0 0 0 .128.328c.037.022.08.035.122.038.46.023.92.023 1.38 0a13.032 13.032 0 0 0-1.254-.561.295.295 0 0 0-.337.124.276.276 0 0 0-.039.12M31.378 14.019a.275.275 0 0 0 .064.343.29.29 0 0 0 .112.06c.45.098.907.172 1.366.22 0 0-.915-.696-1.128-.794a.294.294 0 0 0-.353.062.28.28 0 0 0-.06.109ZM30.964 14.764a.266.266 0 0 0 .088.427c.41.178.828.333 1.254.464-.29-.345-.605-.672-.94-.977a.29.29 0 0 0-.24-.059.29.29 0 0 0-.199.145M30.4 15.423a.294.294 0 0 0-.102.22.288.288 0 0 0 .102.22c.176.146 1.19.696 1.19.696a11.58 11.58 0 0 0-.726-1.136.285.285 0 0 0-.232-.114.286.286 0 0 0-.232.114ZM29.724 15.948a.312.312 0 0 0-.143.202.298.298 0 0 0 .054.238c.323.318.662.62 1.016.904a11.315 11.315 0 0 0-.476-1.221.295.295 0 0 0-.202-.152.31.31 0 0 0-.25.054M28.959 16.351a.291.291 0 0 0-.187.16.275.275 0 0 0 .012.243c.248.378.52.741.814 1.087a9.216 9.216 0 0 0-.226-1.319.279.279 0 0 0-.164-.182.294.294 0 0 0-.25.011ZM24.771 15.948a.304.304 0 0 0-.367 0 .295.295 0 0 0-.084.098c-.182.398-.341.806-.476 1.221a13.42 13.42 0 0 0 1.015-.903.29.29 0 0 0 .061-.24.289.289 0 0 0-.149-.2M24.094 15.423a.287.287 0 0 0-.225-.106.295.295 0 0 0-.226.106 9.61 9.61 0 0 0-.727 1.136s1.015-.55 1.178-.696a.28.28 0 0 0 .11-.22.275.275 0 0 0-.11-.22ZM23.593 14.764a.295.295 0 0 0-.205-.145.307.307 0 0 0-.246.06c-.336.304-.65.63-.94.976.426-.131.845-.286 1.253-.464a.287.287 0 0 0 .156-.19.275.275 0 0 0-.055-.237M23.13 14.019a.291.291 0 0 0-.173-.182.31.31 0 0 0-.254.011c-.213.098-1.116.794-1.116.794.46-.05.916-.122 1.367-.22a.29.29 0 0 0 .187-.16.274.274 0 0 0-.012-.243ZM22.866 13.213a.275.275 0 0 0-.128-.21.294.294 0 0 0-.248-.034c-.428.165-.846.353-1.254.562.46.022.92.022 1.38 0a.293.293 0 0 0 .215-.125.276.276 0 0 0 .035-.242M22.79 12.37a.286.286 0 0 0-.091-.224.304.304 0 0 0-.234-.08 11.77 11.77 0 0 0-1.342.304c.44.133.888.24 1.342.318a.306.306 0 0 0 .238-.085.285.285 0 0 0 .087-.233ZM22.866 11.528a.261.261 0 0 0-.035-.238.273.273 0 0 0-.216-.116c-.459-.03-.92-.03-1.379 0 .406.209.824.393 1.254.55a.281.281 0 0 0 .342-.122.263.263 0 0 0 .034-.123M23.13 10.722a.276.276 0 0 0-.176-.403 12.37 12.37 0 0 0-1.367-.208c.356.282.729.543 1.116.782a.305.305 0 0 0 .426-.171ZM23.593 9.977a.276.276 0 0 0-.1-.427 12.053 12.053 0 0 0-1.254-.465c.29.346.605.673.94.977a.29.29 0 0 0 .248.067.283.283 0 0 0 .204-.152M24.094 9.33a.281.281 0 0 0 .11-.22.274.274 0 0 0-.11-.22 11.44 11.44 0 0 0-1.178-.696c.215.395.458.774.727 1.136a.3.3 0 0 0 .226.099.307.307 0 0 0 .225-.1ZM27.241 8.585c.77.005 1.521.231 2.16.652a3.82 3.82 0 0 1 1.424 1.71c.291.694.365 1.456.212 2.191a3.77 3.77 0 0 1-1.073 1.939 3.934 3.934 0 0 1-1.997 1.032 3.994 3.994 0 0 1-2.249-.22 3.878 3.878 0 0 1-1.745-1.399 3.728 3.728 0 0 1-.656-2.107 3.774 3.774 0 0 1 1.158-2.687 3.979 3.979 0 0 1 2.766-1.111ZM27.254 8.072a.31.31 0 0 0 .23-.09.293.293 0 0 0 .083-.228c-.079-.437-.183-.869-.313-1.294a10.91 10.91 0 0 0-.326 1.294.285.285 0 0 0 .087.233.3.3 0 0 0 .239.085ZM28.119 16.596a.293.293 0 0 0-.216.124.276.276 0 0 0-.035.242c.17.417.362.825.577 1.221.03-.443.03-.888 0-1.33a.276.276 0 0 0-.127-.212.294.294 0 0 0-.25-.033M27.254 16.681a.295.295 0 0 0-.239.076.28.28 0 0 0-.087.23c.08.441.19.878.326 1.306.13-.429.236-.865.313-1.307a.273.273 0 0 0-.083-.224.29.29 0 0 0-.23-.08ZM26.376 16.596a.31.31 0 0 0-.333.128.287.287 0 0 0-.043.116c-.03.443-.03.888 0 1.331.22-.394.413-.802.577-1.221a.273.273 0 0 0-.128-.329.293.293 0 0 0-.123-.038M25.536 16.351a.294.294 0 0 0-.352.062.28.28 0 0 0-.061.11c-.098.434-.17.875-.214 1.318.29-.346.557-.71.803-1.087a.265.265 0 0 0 .019-.245.27.27 0 0 0-.195-.158ZM24.771 8.792a.277.277 0 0 0 .087-.427c-.319-.324-.657-.63-1.014-.916.135.416.294.823.476 1.221a.297.297 0 0 0 .205.145.309.309 0 0 0 .246-.06M25.536 8.39a.28.28 0 0 0 .195-.158.262.262 0 0 0-.02-.246 11.024 11.024 0 0 0-.802-1.074c.045.443.117.883.214 1.319a.266.266 0 0 0 .165.181.282.282 0 0 0 .248-.023ZM26.377 8.145a.292.292 0 0 0 .216-.124.278.278 0 0 0 .034-.242 9.742 9.742 0 0 0-.577-1.221c-.03.443-.03.888 0 1.33a.276.276 0 0 0 .128.211.294.294 0 0 0 .248.034"/></g><defs><clipPath id="a"><path fill="#fff" d="M0 0h52v29.296H0z"/></clipPath></defs></svg>