<svg xmlns="http://www.w3.org/2000/svg" width="100" height="83" fill="none"><g fill="#fff" clip-path="url(#a)"><path d="m96.228 63.598-4.033 7.998-4.033-7.972h-3.759l6.07 11.55v7.694h3.471v-7.694l6.043-11.576h-3.759Zm-18.05 16.18c1.566 0 2.754-.5 2.754-2.92v-7.249c0-2.42-1.188-2.92-2.754-2.92s-2.78.5-2.78 2.92v7.248c0 2.42 1.227 2.92 2.78 2.92Zm0 3.209c-3.563 0-6.239-1.316-6.239-6.077v-7.353c0-4.71 2.61-6.077 6.239-6.077 3.628 0 6.225 1.315 6.225 6.077v7.353c0 4.709-2.61 6.077-6.225 6.077ZM57.06 77.725c0 4.196 3.915 5.262 6.669 5.262 2.754 0 6.304-.908 6.304-5.262 0-2.775-1.501-4.17-4.385-5.827-3.146-1.775-4.581-2.525-4.581-3.735 0-.934.73-1.54 2.257-1.54 2.128 0 2.702 1.316 2.702 3.197l3.459-.552v-.553c0-4.064-3.276-5.261-6.03-5.261-2.754 0-5.86 1.183-5.86 4.84 0 2.63 1.122 3.946 4.999 6.038 2.753 1.512 3.915 2.065 3.915 3.578 0 1.065-.927 1.841-2.754 1.841-2.375 0-3.302-1.052-3.302-3.025v-.632l-3.459.553.066 1.078Zm-10.01-4.92v-5.931h1.879c2.049 0 3.302.63 3.302 2.775v.382c0 2.143-1.305 2.775-3.302 2.775h-1.88Zm9.462 10.09-3.68-7.616c1.657-.829 2.857-2.394 2.857-5.262v-.223c0-4.972-3.458-6.077-6.76-6.077h-5.338V82.96h3.484v-6.879h1.88c.226.014.452.014.678 0l3.146 6.906 3.733-.092ZM37.405 63.65h3.459v19.244h-3.459V63.65Zm-6.2 0-5.337 9.484-5.338-9.484h-3.472v19.244h3.472V70.793l5.338 9.076 5.338-9.076v12.102h3.472v-19.27l-3.472.026ZM5.417 76.16l2.297-7.893 2.284 7.892h-4.58Zm6.526 6.734H15.4L9.567 63.65h-3.76L-.025 82.895h3.459l1.004-3.525h6.526l.979 3.525ZM34.364 23.69C27.277 12.772 4.764 45.394 3.12 52.18c5.664 1.316 7.583-3.511 12.19-.723 2.702 1.631 4.242 1.868 9.41-1.026 4.333-2.433 8.418 2.723 8.418 2.723 4.712-13.732 34.182-12.798 25.45-21.27-4.71-4.564 1.489-9.365 9.58-10.522-.952-4.854-12.398-17.376-17.254-17.376-4.855 0-14.787 10.601-16.549 19.73"/><path d="M98.708 52.154c-1.227-4.748-16.771-23.492-27.956-28.175-3.68.934-12.02 3.946-6.526 7.55 9.345 6.104-11.916 10.773-15.335 21.599 10.232 2.63 15.518-6.367 23.753-1.644 8.236 4.722 18.768-7.024 25.999.67M30.345 0c1.236 0 2.445.37 3.473 1.062a6.29 6.29 0 0 1 2.302 2.827 6.346 6.346 0 0 1 .356 3.64 6.316 6.316 0 0 1-1.71 3.227 6.237 6.237 0 0 1-3.202 1.724 6.207 6.207 0 0 1-3.612-.358 6.261 6.261 0 0 1-2.805-2.32A6.336 6.336 0 0 1 24.093 6.3a6.34 6.34 0 0 1 1.835-4.452A6.24 6.24 0 0 1 30.345 0Z"/></g><defs><clipPath id="a"><path fill="#fff" d="M0 0h100v83H0z"/></clipPath></defs></svg>