<svg xmlns="http://www.w3.org/2000/svg" fill="none" viewBox="0 0 361 71"><g clip-path="url(#a)"><path fill="#171C6B" d="M120.787 16.942h1.49l4.524 7.31h5.423l-5.999-9.467 5.788-9.063h-5.395l-4.384 7.141h-1.447V5.722h-4.65v18.53h4.65v-7.31Z"/><path fill="#171C6B" d="M147.244 6.627a10.559 10.559 0 0 0-5.142-1.253 10.317 10.317 0 0 0-5.1 1.253 9.04 9.04 0 0 0-3.569 3.424 9.978 9.978 0 0 0 0 9.87 9.176 9.176 0 0 0 3.569 3.44 10.458 10.458 0 0 0 5.1 1.238 10.714 10.714 0 0 0 5.142-1.239 9.183 9.183 0 0 0 3.569-3.438 10.169 10.169 0 0 0 0-9.87 9.04 9.04 0 0 0-3.569-3.425Zm-.548 11.137a4.973 4.973 0 0 1-1.869 1.935 5.263 5.263 0 0 1-2.725.696 5.194 5.194 0 0 1-2.698-.696 4.876 4.876 0 0 1-1.868-1.935 6.119 6.119 0 0 1 0-5.569 4.876 4.876 0 0 1 1.868-1.935 5.337 5.337 0 0 1 2.698-.696 5.387 5.387 0 0 1 2.725.696 4.972 4.972 0 0 1 1.869 1.935 6.235 6.235 0 0 1 0 5.569ZM159.158 19.045h2.81a8.754 8.754 0 0 0 3.878-.808 5.864 5.864 0 0 0 2.514-2.325 6.798 6.798 0 0 0 .872-3.522 6.91 6.91 0 0 0-.872-3.55 5.806 5.806 0 0 0-2.514-2.297 8.753 8.753 0 0 0-3.878-.793h-7.475v18.53h4.651l.014-5.235Zm4.622-8.674a2.992 2.992 0 0 1 0 4.177 3.293 3.293 0 0 1-2.276.752h-2.402V9.73h2.402a3.365 3.365 0 0 1 2.276.613v.027ZM176.088 9.954h6.87V24.25h4.651V5.721h-16.171v18.53h4.65V9.954ZM208.754 19.922a10.17 10.17 0 0 0 0-9.87 9.04 9.04 0 0 0-3.569-3.425 10.556 10.556 0 0 0-5.142-1.253 10.317 10.317 0 0 0-5.1 1.253 9.04 9.04 0 0 0-3.569 3.424 9.989 9.989 0 0 0-1.307 4.936c0 1.729.451 3.428 1.307 4.935a9.179 9.179 0 0 0 3.513 3.438 10.46 10.46 0 0 0 5.1 1.24 10.714 10.714 0 0 0 5.142-1.24 9.18 9.18 0 0 0 3.625-3.438Zm-4.117-2.144a4.97 4.97 0 0 1-1.868 1.935 5.265 5.265 0 0 1-2.726.696 5.192 5.192 0 0 1-2.697-.696 4.879 4.879 0 0 1-1.869-1.935 6.118 6.118 0 0 1 0-5.569 4.879 4.879 0 0 1 1.869-1.935 5.331 5.331 0 0 1 2.697-.696 5.394 5.394 0 0 1 2.726.696 4.971 4.971 0 0 1 1.868 1.935 6.223 6.223 0 0 1 0 5.569ZM217.1 19.045h2.81a8.754 8.754 0 0 0 3.878-.808 5.864 5.864 0 0 0 2.514-2.325c.61-1.074.916-2.29.886-3.522a6.907 6.907 0 0 0-.886-3.55 5.806 5.806 0 0 0-2.514-2.297 8.753 8.753 0 0 0-3.878-.793h-7.461v18.53h4.651v-5.235Zm4.622-8.674a2.992 2.992 0 0 1 0 4.177 3.293 3.293 0 0 1-2.276.752h-2.402V9.73h2.402a3.365 3.365 0 0 1 2.276.613v.027ZM238.864 5.722h-4.932l-7.249 18.53h4.847l1.096-2.994h7.516l1.11 2.993h4.777l-7.165-18.53Zm-2.445 4.691 2.74 7.532h-5.55l2.81-7.532ZM244.666 9.926h5.423v14.325h4.651V9.926h5.395V5.722h-15.469v4.204ZM266.894 16.803V5.722h-4.539v18.53h3.92l8.051-11.068V24.25h4.538V5.721h-3.92l-8.05 11.082ZM296.314 21.829a5.114 5.114 0 0 0-.309-5.722 5.142 5.142 0 0 0-1.785-1.392 5.661 5.661 0 0 0 1.405-1.392 4.572 4.572 0 0 0 .773-2.645 4.743 4.743 0 0 0-.688-2.576 4.572 4.572 0 0 0-1.981-1.712 6.872 6.872 0 0 0-2.965-.613h-8.542v18.53h8.921a7.222 7.222 0 0 0 3.077-.627 4.986 4.986 0 0 0 2.094-1.851Zm-4.819-12.154a1.912 1.912 0 0 1 .632 1.504c.007.391-.095.777-.295 1.114a1.987 1.987 0 0 1-.829.724 3.115 3.115 0 0 1-1.307.25h-3.021V9.091h3.021a2.646 2.646 0 0 1 1.799.584Zm.421 10.622a2.985 2.985 0 0 1-1.925.571h-3.316v-4.343h3.316a2.913 2.913 0 0 1 1.925.57 2.17 2.17 0 0 1 0 3.202ZM310.996 12.71h-6.856V5.722h-4.651v18.53h4.651v-7.31h6.856v7.31h4.651V5.721h-4.651v6.988ZM330.568 12.265a8.753 8.753 0 0 0-3.808-.766h-3.077V5.722h-4.636v18.53h7.713a8.837 8.837 0 0 0 3.836-.766 5.606 5.606 0 0 0 2.473-2.2 6.445 6.445 0 0 0 .857-3.41 6.56 6.56 0 0 0-.871-3.412 5.61 5.61 0 0 0-2.487-2.2Zm-2.009 7.462a3.495 3.495 0 0 1-2.333.654h-2.585v-5.15h2.585a3.495 3.495 0 0 1 2.333.667 2.427 2.427 0 0 1 .772 1.921 2.385 2.385 0 0 1-.772 1.908ZM341.106 5.722h-4.651v18.53h4.651V5.721ZM357.08 5.722l-8.051 11.081V5.722h-4.538v18.53h3.92l8.051-11.068V24.25H361V5.721h-3.92ZM352.935 3.94a4.838 4.838 0 0 0 3.021-.836A3.871 3.871 0 0 0 357.263.53L354.453 0c-.028.41-.197.798-.478 1.1a1.409 1.409 0 0 1-1.04.362c-.385.02-.764-.11-1.054-.362a1.647 1.647 0 0 1-.477-1.1l-2.81.529a3.803 3.803 0 0 0 1.292 2.575c.891.615 1.967.91 3.049.836ZM120.577 43.421c-.426.245-.912.37-1.405.362a6.016 6.016 0 0 1-1.756-.292l-.913 3.981c1.003.32 2.051.48 3.105.474a6.497 6.497 0 0 0 3.583-.905 6.974 6.974 0 0 0 2.374-2.993l7.025-14.952h-5.142l-1.602 3.87-2.051 4.845-2.248-4.845-1.799-3.814h-5.128l6.73 13.42a2.346 2.346 0 0 1-.773.85ZM146.035 36.085h-6.856v-6.989h-4.651v18.53h4.651v-7.309h6.856v7.309h4.651v-18.53h-4.651v6.989ZM170.595 47.626v-18.53h-3.934l-8.037 11.082V29.096h-4.538v18.53h3.92l8.051-11.068v11.068h4.538ZM185.938 38.02a5.268 5.268 0 0 0 1.405-1.392 4.578 4.578 0 0 0 .772-2.645 4.743 4.743 0 0 0-.688-2.576 4.566 4.566 0 0 0-1.981-1.712 6.67 6.67 0 0 0-2.965-.613h-8.556v18.53h8.936a6.92 6.92 0 0 0 3.062-.64 4.823 4.823 0 0 0 2.08-1.783 5.114 5.114 0 0 0-.309-5.721 5.39 5.39 0 0 0-1.756-1.448Zm-2.726-4.97a1.898 1.898 0 0 1 .646 1.503c.009.387-.093.769-.295 1.1a1.889 1.889 0 0 1-.843.738c-.407.175-.848.26-1.292.25h-3.021v-4.176h3.021a2.616 2.616 0 0 1 1.784.585Zm.435 10.622a2.982 2.982 0 0 1-1.924.57h-3.316v-4.315h3.316a2.912 2.912 0 0 1 1.924.57 2.21 2.21 0 0 1 .692 1.602 2.21 2.21 0 0 1-.692 1.6v-.027ZM195.758 40.08h7.503v-3.605h-7.503v-3.731h8.191v-3.648h-12.743v18.53h13.067v-3.703h-8.515V40.08ZM218.112 29.89a8.753 8.753 0 0 0-3.878-.794h-7.474v18.53h4.65V42.39h2.81a8.75 8.75 0 0 0 3.878-.807 5.952 5.952 0 0 0 2.515-2.325 6.803 6.803 0 0 0 .969-3.508 6.906 6.906 0 0 0-.885-3.55 5.812 5.812 0 0 0-2.585-2.311Zm-2.079 7.963a3.238 3.238 0 0 1-2.276.737h-2.403v-5.568h2.403a3.308 3.308 0 0 1 2.276.738c.546.56.851 1.309.851 2.088 0 .78-.305 1.528-.851 2.088v-.083ZM235.998 43.13a6.046 6.046 0 0 1-2.81.653 5.251 5.251 0 0 1-2.698-.682 4.736 4.736 0 0 1-1.826-1.92 6.413 6.413 0 0 1 0-5.57 4.683 4.683 0 0 1 1.798-1.92 5.121 5.121 0 0 1 2.655-.683c.913-.01 1.815.2 2.628.613a6.725 6.725 0 0 1 2.192 1.823l2.81-2.965a10.95 10.95 0 0 0-3.625-2.784 10.128 10.128 0 0 0-4.215-.919 9.665 9.665 0 0 0-5.002 1.267 8.668 8.668 0 0 0-3.358 3.452 10.16 10.16 0 0 0-1.18 4.9 10.053 10.053 0 0 0 1.194 4.93 8.568 8.568 0 0 0 3.386 3.424 9.906 9.906 0 0 0 5.03 1.253 11.171 11.171 0 0 0 4.566-.947 9.467 9.467 0 0 0 3.667-2.868l-2.81-2.937a7.375 7.375 0 0 1-2.402 1.88ZM247.701 40.178V29.096h-4.553v18.53h3.934l8.037-11.068v11.068h4.552v-18.53h-3.934l-8.036 11.082ZM261.863 33.3h5.424v14.326h4.65V33.3h5.395v-4.205h-15.469V33.3ZM284.091 40.08h7.517v-3.605h-7.517v-3.731h8.205v-3.648h-12.743v18.53h13.066v-3.703h-8.528V40.08ZM294.305 33.3h5.423v14.326h4.651V33.3h5.395v-4.205h-15.469V33.3ZM120.689 63.455h7.503v-3.606h-7.503v-3.731h8.191V52.47h-12.743V71h13.066v-3.703h-8.514v-3.842ZM138.125 52.456l-7.25 18.53h4.847l1.096-2.993h7.489l1.096 2.993h4.777l-7.11-18.53h-4.945Zm2.487 4.692 2.739 7.532h-5.549l2.81-7.532ZM152.245 71h4.651V56.675h7.39V52.47h-12.041V71ZM182.34 52.47h-5.395l-4.383 7.142h-1.448V52.47h-4.65V71h4.65v-7.309h1.49l4.524 7.31h5.423l-5.999-9.468 5.788-9.063ZM32.947 52.345V38.424c-8.738 0-17.118 3.44-23.297 9.561A32.496 32.496 0 0 0 0 71.07h14.12a18.536 18.536 0 0 1 1.42-7.156 18.671 18.671 0 0 1 4.078-6.072 18.865 18.865 0 0 1 6.113-4.063 19.003 19.003 0 0 1 7.216-1.434ZM66.02 38.368H51.97a18.582 18.582 0 0 1-5.518 13.187 18.93 18.93 0 0 1-13.308 5.468v13.991c8.726-.018 17.088-3.466 23.251-9.586a32.495 32.495 0 0 0 9.625-23.06Z"/><path fill="#946FE4" d="M66.02 57.009V71c4.327 0 8.612-.844 12.609-2.485a32.97 32.97 0 0 0 10.689-7.077 32.628 32.628 0 0 0 7.142-10.59 32.386 32.386 0 0 0 2.508-12.494h-14.12a18.583 18.583 0 0 1-5.519 13.187 18.929 18.929 0 0 1-13.308 5.468Z"/><path fill="#171C6B" d="M33.074 19.713V5.722c-8.733.003-17.108 3.443-23.283 9.561a32.496 32.496 0 0 0-9.65 23.07h14.12a18.583 18.583 0 0 1 5.518-13.172 18.93 18.93 0 0 1 13.295-5.468Z"/><path fill="#ED4023" d="M33.073 24.377v13.921c4.326.002 8.61-.84 12.608-2.48a32.956 32.956 0 0 0 10.689-7.073 32.615 32.615 0 0 0 7.142-10.588A32.374 32.374 0 0 0 66.02 5.666H51.97a18.52 18.52 0 0 1-1.427 7.17 18.656 18.656 0 0 1-4.096 6.078 18.853 18.853 0 0 1-6.137 4.053 18.99 18.99 0 0 1-7.237 1.41Z"/><path fill="#00BFFF" d="M84.847 5.722a18.583 18.583 0 0 1-5.518 13.187 18.93 18.93 0 0 1-13.308 5.468v13.921c4.326.002 8.61-.84 12.607-2.48a32.956 32.956 0 0 0 10.689-7.073 32.613 32.613 0 0 0 7.143-10.588 32.374 32.374 0 0 0 2.508-12.491h-14.12v.056Z"/></g><defs><clipPath id="a"><path fill="#fff" d="M0 0h361v71H0z"/></clipPath></defs></svg>