<svg xmlns="http://www.w3.org/2000/svg" viewBox="0 0 1226 457"><g clip-path="url(#a)"><path d="M412.22 449.36c-13.57 0-21.33-15.19-21.33-33.94 0-18.76 8.55-33.95 21.33-33.95 13.36 0 21.31 15.17 21.31 33.95 0 18.75-8.75 33.94-21.3 33.94Zm-.22-74.69c-22.52 0-38.65 18.22-38.65 40.7 0 22.5 13.95 40.71 38.65 40.71 23.74 0 38.87-18.22 38.87-40.7 0-22.49-12.54-40.7-38.87-40.7Zm49.26 79.89s5.56-.41 10.54 0c0 0-.8-14.65-.8-20.85.22-6.15.22-34.32.22-34.32s41.25 46.82 47.44 55.18c0 0 6.36-.46 9.18 0v-25.32c-.23-9.6.2-19.71.6-29.32l1.37-23.32s-4.79 1.13-10.35 0l.2 1.35c.6 15.75.6 31.54.38 47.3v5.37l-46.82-54.02s-6.58 1.21-10.39 0c0 0 2.02 34.62-1.57 77.95Zm-126.18.02s10.55-.65 18.72 0c0 0-.8-8.96-.8-14.98-.18-6.03 0-25.14 0-25.14l29.1-50.43s-5.36.84-11.14 0c0 0-12.18 22.98-22.32 40.34 0 0-18.96-29.98-23.32-40.34 0 0-10.97 1.61-20.56 0l31.52 52.42s.18 21.49 0 24.12c-.2 2.65-1.2 14.01-1.2 14.01Zm274.48-34.8s-.6 6.78-.6 17.16c0 10.4 0 14.04.4 14.45 0 0-18.51 6.03-32.67 4.49 0 0-40.48-1.12-36.1-44.77 0 0 1.22-30.56 35.49-35.64 13.35-1.95 24.73 2.11 33.08 7.16 0 0-1.4 7.93-1.99 11.52h-1.38s-9.38-15.37-27.32-11.44c-17.52 3.76-24.32 27.68-20.73 43.65 3.78 15.97 13.75 27.99 36.27 21.35 0 0 .2-9.3.4-16.17 0-1.81-.2-2.27-.6-2.89l-2.78-1.57c-3.2-.88-7.76-.12-7.76-.12v-7.5s10.94.82 26.3.32Zm70.96-11.32c-5.4 1.24-14.37.7-14.37.7l.42-39.3s14.53-.25 17.34.9c2.6 1.22 10.17 4.93 9.75 18.78-.58 13.86-7.57 17.66-13.14 18.92Zm29.9-24.56c-3.4-18.9-22.74-20.89-38.07-19.87-15.37 1-23.54 0-23.54 0 .42 4.98 1.02 24.26 1.02 24.26l-.22 53.16-.8 13.12 3.99-.22h9.17c3.8 0 4.98.21 4.98.21s-.38-9.5-.38-12.37c-.2-2.85-.42-26.67-.42-26.67 19.56.28 27.93-2.46 27.93-2.46 20.31-6.75 16.34-29.16 16.34-29.16Zm3.19-7.5s13.36 1.28 18.34 0c0 0 15.35 33.44 17.76 36.17 0 0 14.33-27.95 16.93-36.16 0 0 3.38 1.3 10.38 0l-9.59 17.42a264.33 264.33 0 0 0-5.98 11.24l-7.75 14.99s-1 18.26.8 34.5c0 0 .2-.21-6-.21h-8.16l-3.6.21s1.01-11.56 1.01-14.79c.2-3.25 0-17.22 0-17.22s-22.32-43.73-24.14-46.14Zm148.7 78.16s5.77-.41 10.75 0c0 0-.78-14.65-.78-20.85.2-6.15.2-34.32.2-34.32s41.04 46.82 47.22 55.18c0 0 6.38-.46 9.4 0l-.2-25.32c0-9.6.37-19.71.77-29.32l1.4-23.32s-4.99 1.13-10.35 0v1.35c.8 15.75.8 31.54.58 47.3l-.2 5.37-46.83-54.02s-6.57 1.21-10.16 0c0 0 1.97 34.62-1.8 77.95Zm148.51-34.78s-.58 6.78-.58 17.16c0 10.4 0 14.04.18 14.45 0 0-18.32 6.03-32.7 4.49 0 0-40.44-1.12-36.07-44.77 0 0 1.42-30.56 35.68-35.64a48.83 48.83 0 0 1 32.91 7.16s-1.22 7.93-1.81 11.52h-1.38s-9.39-15.37-27.33-11.44c-17.52 3.76-24.52 27.68-20.73 43.65 3.79 15.97 13.56 27.99 36.3 21.35 0 0 .18-9.3.18-16.17 0-1.81 0-2.27-.6-2.89l-2.77-1.57c-3-.88-7.8-.12-7.8-.12v-7.5s11.17.82 26.52.32Zm-197.34 29.58c-13.58 0-21.33-15.19-21.33-33.94 0-18.76 8.55-33.95 21.33-33.95 13.35 0 21.13 15.17 21.13 33.95 0 18.75-8.58 33.94-21.13 33.94Zm-.22-74.69c-22.7 0-38.65 18.22-38.65 40.7 0 22.5 13.95 40.71 38.65 40.71 23.54 0 38.87-18.22 38.87-40.7 0-22.49-12.54-40.7-38.87-40.7ZM917.33 189.5 768.23 65.64a16.94 16.94 0 0 0-21.73.02 15.36 15.36 0 0 0-5.18 10.92v205.37h35.26V157.82l148.92 124.6a17.14 17.14 0 0 0 21.93-.04 15.95 15.95 0 0 0 4.98-10.9V64.53h-35.08V189.5Zm193.75-116.08a16.52 16.52 0 0 0-23.59-6.04 16.52 16.52 0 0 0-5.91 6.8L982.51 282.2h36.86l62.21-130.7 56.41 102.1s10.37 23 43.65 30.36c11.76 2.59 26.52 1.05 43.46-1.66L1111.08 73.42Zm-775 3.43c-6.58-16.24-26.93-16.5-33.89-.4l-46.26 107.98-43.44-107.58c-6.4-16.24-26.9-16.5-33.88-.4L90.5 282.18h36.47l50.83-118.5 36.08 89.74c3.99 10.22 14.35 22.18 34.48 28.3 24.92 7.56 47.05.7 47.05.7l-22.33-55.61 27.69-64.6 36.7 91.2c4.16 10.23 14.35 22.2 34.68 28.31 24.91 7.56 46.84.7 46.84.7L336.08 76.85Zm226.44 189.21c-44.05 0-72.56-42.82-72.56-92.63 0-49.82 28.5-92.41 72.56-92.41 42.68 0 72.58 42.6 72.58 92.4 0 49.82-29.9 92.64-72.58 92.64Zm0-209.58c-72.73 0-135.74 42.5-136.34 116.95-.58 72.33 63.6 116.94 136.34 116.94 72.74 0 135.57-44.6 136.36-116.94.8-74.45-63.6-116.95-136.36-116.95ZM49.84 62.16a13.96 13.96 0 0 0-9.97 4.62L28.91 77.57l2.39 2.27a15.35 15.35 0 0 0 10.17 4.35c3.58 0 7.17-1.68 10.56-4.99L62.8 68.46 60 66.23a15.95 15.95 0 0 0-10.16-4.07Z"/><path d="m0 20.28 5 4.15a11.56 11.56 0 0 1 4.98 10v41.14c0 32.97 23.32 46.4 42.86 51.83l4 1.16V110.5l-2.2-.72a95.08 95.08 0 0 1-5.4-2c-15.14-6.51-21.92-16.44-21.92-32.2V19.03l-2.99-.23a91.65 91.65 0 0 0-8.95-.46l-1.61.02c-1.78 0-4.79.22-6.58.36L0 19.28v1ZM145.91 2.92l-4.18 3.29c-3.99 3.27-5.38 5.7-5.38 9.7v43.7c0 39.55-33.5 51-54.62 54.28v17.32l-3.19-.04c-3.8-.07-7.6-.36-11.36-.86l-2.8-.38V74.8c0-16.05-5.77-26.1-18.55-32.55a51.82 51.82 0 0 0-8.75-3.43l-2.2-.68V20.22l4 1C58.4 26.16 81.72 39.48 81.72 74.8v21.47a68.38 68.38 0 0 0 15.15-4.49c15.15-6.48 21.93-16.4 21.93-32.17V18.3a59.8 59.8 0 0 0-18.54 5.6c-6.78 3.47-11.56 8-14.57 13.91l-2.57 4.8-3-4.42a39.87 39.87 0 0 0-7.17-8.03l-2-1.82 1.4-2.3C87.91 1.87 121 0 130.76 0h1.4c2.4 0 7.78.52 7.97.54l5.19.5s2.79.43.6 1.87Z"/></g></svg>