<svg xmlns="http://www.w3.org/2000/svg" fill="none" viewBox="0 0 281 49"><g fill="#171C6B" clip-path="url(#a)"><path d="M59.03 28.2a.8.8 0 0 1-.57.26l-6.39.04-5.39-4.61 10.6-8.86c.2-.17.43-.32.68-.24.25.08.28.32.3.6l.97 12.18a.86.86 0 0 1-.2.61m-5.69 6.75c-.03.21-.11.4-.24.57-.13.17-.3.3-.48.37l-14.37 5.74a1.17 1.17 0 0 1-1.07-.1c-.16-.1-.3-.23-.4-.4-.1-.16-.17-.34-.2-.54L34.9 28.11l5.32-5.2L41.5 24l-3.07 2.56a3.73 3.73 0 0 0-1.26 1.92c-.22.77-.2 1.6.06 2.34a3.6 3.6 0 0 0 3.56 2.48l11.6.02.54.47c.16.13.28.3.35.5.07.2.1.42.06.63M34.3 22.78l-.11.1-.52-3.83a.8.8 0 0 1 .06-.46.75.75 0 0 1 .68-.44c.17 0 .33.06.46.18l2.07 1.77-.07.06-.6.62-.52.53-.58.59-.87.88Zm-1.94-7.61a4.16 4.16 0 0 0-1.66 1.85 4.47 4.47 0 0 0-.37 2.53l.87 6.37-.03.03c-.42.44-.77.79-1.1 1.11l-.1.12-.93-9.13a3.99 3.99 0 0 0-1.46-2.69l-.04-.03 1.81-9.65c.02-.16.07-.3.15-.43a.91.91 0 0 1 .31-.3c.3-.14.6.05.8.2l11.12 8.42c.11.08.2.2.27.32a1.04 1.04 0 0 1 .06.85 1 1 0 0 1-.22.36l-2.41 2.45-.05.05L37 15.56a3.87 3.87 0 0 0-4.64-.4m-4.44 27.69a.87.87 0 0 1-.95 0l-18.1-12a.98.98 0 0 1-.33-.35 1.05 1.05 0 0 1 0-.97.99.99 0 0 1 .33-.37l1.9-1.3 2.91 3.18a3.6 3.6 0 0 0 1.71 1.06 3.59 3.59 0 0 0 3.66-1.13c.45-.52.76-1.16.89-1.86l1.69-8.73 2.04-1.41-2.47 12.97c-.16.8-.08 1.64.25 2.4a3.74 3.74 0 0 0 3.8 2.23c.77-.1 1.5-.45 2.06-1.02l.34-.33.69 6.73c.01.17-.01.35-.08.5a.9.9 0 0 1-.33.39m-10-19.92-.53 2.69c-.03.15-.1.3-.2.42a.8.8 0 0 1-.6.27.78.78 0 0 1-.59-.26L15 24.94l2.92-2.02ZM6.24 15.38a.82.82 0 0 1 .12-1.21.71.71 0 0 1 .42-.13h12.06c.1-.02.2 0 .3.03.1.04.18.1.24.18a.71.71 0 0 1 .1.62l-.69 3.48-6.03 4.15-6.52-7.12Zm18.34 15.67 1.72-9.82.82 8.83-.03.03-.8.8-.73.73c-.11.11-.26.17-.4.17a.6.6 0 0 1-.54-.36.64.64 0 0 1-.04-.38Zm17.65-3.45L44 26.12l2.78 2.38-4.24.03c-.1 0-.2-.03-.28-.1a.52.52 0 0 1-.18-.25.54.54 0 0 1-.01-.32c.03-.1.09-.2.17-.26Zm21.99 1.48-1.09-15.35a3.95 3.95 0 0 0-.66-1.95 3.64 3.64 0 0 0-1.53-1.29 3.66 3.66 0 0 0-3.94.53l-12.8 10.71-1.48-1.27 3.64-3.56a4.06 4.06 0 0 0-.37-6.01L32.4.7a3.58 3.58 0 0 0-3.5-.44c-.57.24-1.07.62-1.46 1.12-.4.5-.66 1.09-.78 1.73l-2.22 11.63-.05.01c-.37.1-.72.27-1.04.49l-.9.6.1-.41a4.1 4.1 0 0 0-.76-3.23 3.72 3.72 0 0 0-1.27-1.05 3.51 3.51 0 0 0-1.59-.38H3.68c-.72 0-1.43.21-2.04.64a4.02 4.02 0 0 0-.6 5.95l7.46 8.12-3.56 2.44a3.8 3.8 0 0 0-1.23 1.42A4.05 4.05 0 0 0 5 34.47l21.12 13.95a3.53 3.53 0 0 0 3.92 0 3.79 3.79 0 0 0 1.35-1.59c.3-.65.42-1.39.35-2.11l-1.25-12.26 1.4-1.37 1.64 12.08c.08.64.3 1.25.64 1.79a4.18 4.18 0 0 0 3.07 1.91c.61.06 1.23-.03 1.81-.26L55.68 40c.6-.23 1.12-.6 1.55-1.08a4.58 4.58 0 0 0 .35-5.47l-.08-.14 2.97-.03a3.67 3.67 0 0 0 2.79-1.3 3.83 3.83 0 0 0 .94-2.87M205.9 27.55l-5.5-12.2h-5.83l8.79 18.27c-.34.45-.77.81-1.26 1.06-.5.25-1.03.37-1.58.36h-1.44l.23 4.46c.68.17 1.38.26 2.08.26 1.86-.04 3.4-.6 4.43-1.6 1.03-1.01 1.97-2.58 2.94-4.86l7.34-17.95h-5.83l-4.37 12.2Zm10.84-7.26h7v19.08h5.23V20.29h7.02v-4.94h-19.25v4.94Zm-68.43 11.59 2.77-7.74 2.78 7.74h-5.55Zm1.27-16.53-9.89 24.06h5.74l1.24-3.07h8.82l1.25 3.07h5.73l-9.85-24.06h-3.04Zm122.55 12.33h-3.1v-7.63h3.1c1.52 0 3.77 1.01 3.77 3.77 0 1.43-.8 3.85-3.76 3.85m5.36-10.85a10.25 10.25 0 0 0-5.25-1.48h-8.45v24.02h5.24v-7.02h3.22c.69 0 3.08-.1 5.25-1.5 2.31-1.49 3.49-3.85 3.49-7.02 0-3.17-1.18-5.53-3.5-7m-24.28 15.9a6.38 6.38 0 0 1-2.19 1.6c-.82.36-1.71.53-2.6.51-1.94 0-3.55-.7-4.8-2.1a7.74 7.74 0 0 1-1.9-5.38c0-2.19.62-3.98 1.9-5.39a6.18 6.18 0 0 1 4.8-2.1c.9-.03 1.78.15 2.6.52.83.36 1.58.9 2.19 1.6a7.7 7.7 0 0 1 1.91 5.36c0 2.17-.64 3.96-1.91 5.38m-4.8-18.13c-3.19 0-6.25 1.35-8.5 3.74a13.16 13.16 0 0 0-3.53 9.01c0 3.38 1.26 6.63 3.52 9.02a11.73 11.73 0 0 0 8.52 3.75c3.19 0 6.25-1.35 8.5-3.74a13.16 13.16 0 0 0 3.54-9.01c0-3.38-1.28-6.62-3.53-9.01a11.73 11.73 0 0 0-8.51-3.74m-54.97.74h-6.17l-4.12 7.33-4.16-7.33h-6.2L179.88 27l-7.65 12.36h6.58l4.35-7.73 4.35 7.73h6.54l-7.58-12.36 6.98-11.66ZM85.03 27.69h-3.1v-7.63h3.1c1.52 0 3.77 1 3.77 3.77 0 1.43-.8 3.85-3.77 3.85m5.37-10.85a10.25 10.25 0 0 0-5.25-1.49H76.7v24.03h5.23v-7.02h3.23c.68 0 3.08-.1 5.25-1.5 2.3-1.49 3.48-3.85 3.48-7.02 0-3.18-1.17-5.53-3.48-7m21.95 15.9a6.38 6.38 0 0 1-2.19 1.6c-.82.36-1.71.53-2.6.5a6.2 6.2 0 0 1-4.81-2.1 7.73 7.73 0 0 1-1.9-5.38c0-2.18.63-3.97 1.9-5.38a6.18 6.18 0 0 1 4.8-2.1c.9-.03 1.79.15 2.61.51.83.37 1.58.91 2.19 1.6a7.7 7.7 0 0 1 1.91 5.37c0 2.16-.64 3.96-1.91 5.38m-4.8-18.13c-3.19 0-6.25 1.35-8.5 3.74a13.16 13.16 0 0 0-3.54 9c0 3.39 1.28 6.63 3.53 9.02a11.73 11.73 0 0 0 8.52 3.74c3.19 0 6.25-1.35 8.5-3.74a13.16 13.16 0 0 0 3.54-9.01c0-3.38-1.28-6.62-3.53-9.01a11.72 11.72 0 0 0-8.52-3.74Zm27.82 12.1a6 6 0 0 0 1.53-2.12c.36-.81.53-1.7.52-2.6 0-2.17-.69-3.92-2.06-5.18-1.37-1.26-3.22-1.9-5.54-1.9-1.93 0-3.81.5-5.16 1.38a9.45 9.45 0 0 0-3.03 3.15c1.27 1.12 2.67 2.36 3.37 3.01.5-.8 1.18-1.46 1.99-1.91.8-.46 1.7-.7 2.6-.7.93 0 1.66.24 2.17.71a2.3 2.3 0 0 1 .75 1.86 2.37 2.37 0 0 1-.72 1.8c-.48.45-1.17.69-2.03.69h-2.81v4.42h3.14c1.1 0 1.97.24 2.54.7a2.38 2.38 0 0 1 .84 1.9c.02.44-.07.85-.25 1.23-.19.37-.45.69-.78.92-.71.54-1.64.81-2.76.81-2.22 0-4.19-1.14-5.56-3.21a836.5 836.5 0 0 1-3.39 3 9.54 9.54 0 0 0 3.38 3.66c1.52.95 3.51 1.48 5.6 1.48 2.6 0 4.72-.7 6.3-2.1a7.07 7.07 0 0 0 2.38-5.52c0-2.5-1.02-4.33-3.03-5.48"/></g><defs><clipPath id="a"><path fill="#fff" d="M0 0h281v49H0z"/></clipPath></defs></svg>