<svg xmlns="http://www.w3.org/2000/svg" fill="none" viewBox="0 0 243 84"><path fill="#946FE4" d="m34.224 60.062 8.153-2.707v7.938l-5.646 1.914.694 2.035a10.165 10.165 0 0 1-.347 8.305 10.18 10.18 0 0 1-5.91 5.15 10.204 10.204 0 0 1-7.583-.408 10.182 10.182 0 0 1-5.055-5.658 10.163 10.163 0 0 1 .367-7.837 10.177 10.177 0 0 1 6.278-5.455l2.038-.732-2.038-5.598 6.114-4.966 2.935 8.02Zm-7.46 15.45a2.49 2.49 0 0 0 1.876 0 2.67 2.67 0 0 0 1.57-1.365 2.724 2.724 0 0 0 0-2.218v-.224l-.673-2.035-2.038.712h-.225a2.671 2.671 0 0 0-1.712 1.445 2.703 2.703 0 0 0 0 2.035 2.625 2.625 0 0 0 1.182 1.65h.02Z"/><path fill="#ED4023" d="m50.306 60.062 2.915-7.979 6.114 4.946-2.038 5.598 2.038.753a10.195 10.195 0 0 1 6.298 5.455 10.163 10.163 0 0 1 .347 7.816 10.303 10.303 0 0 1-5.035 5.679 10.388 10.388 0 0 1-7.582.407 10.195 10.195 0 0 1-5.91-5.17 10.165 10.165 0 0 1-.347-8.305l.693-2.035-5.646-1.893v-7.959l8.153 2.687Zm7.46 15.47c.566-.322 1-.835 1.223-1.446a2.644 2.644 0 0 0 0-2.035 2.707 2.707 0 0 0-1.692-1.445h-.224l-2.038-.713-.673 2.036v.224a2.684 2.684 0 0 0 0 2.239 2.77 2.77 0 0 0 1.55 1.363 2.754 2.754 0 0 0 1.854-.224Z"/><path fill="#00BFFF" d="m60.354 47.483-4.443-7.246 7.766-1.77 3.118 5.088 1.855-1.14a10.34 10.34 0 0 1 8.153-1.506 10.197 10.197 0 0 1 6.338 4.6 10.165 10.165 0 0 1 1.305 7.47 10.178 10.178 0 0 1-4.423 6.106 10.199 10.199 0 0 1-7.725 1.405 10.198 10.198 0 0 1-6.706-4.906l-1.182-1.811-5.014 3.216-6.237-4.967 7.195-4.539Zm16.754 3.827a2.561 2.561 0 0 0-.367-1.852 2.565 2.565 0 0 0-1.67-1.221 2.673 2.673 0 0 0-2.182.427l-.204.122-1.793 1.1 1.141 1.77.123.204a2.666 2.666 0 0 0 1.793 1.323 2.675 2.675 0 0 0 2.038-.367c.513-.365.88-.898 1.04-1.506h.081Z"/><path fill="#039947" d="M56.787 31.73 48.33 30.69l3.465-7.165 5.91.733.286-2.157a10.168 10.168 0 0 1 3.913-7.328 10.196 10.196 0 0 1 7.562-2.035c2.612.316 5 1.629 6.665 3.663a10.167 10.167 0 0 1 2.038 7.287 10.167 10.167 0 0 1-3.73 6.9 10.196 10.196 0 0 1-8.03 2.178l-2.161-.203-.591 5.923-7.766 1.77.897-8.528ZM70.22 21.042a2.63 2.63 0 0 0-1.671-.875 2.654 2.654 0 0 0-2.038.55 2.688 2.688 0 0 0-1.02 2.035v.244l-.265 2.036 2.039.203h.224a2.652 2.652 0 0 0 2.16-.57 2.566 2.566 0 0 0 .979-1.832 2.603 2.603 0 0 0-.408-1.73v-.06Z"/><path fill="#fff" d="M49.063 17.868a10.34 10.34 0 0 0 3.301-7.633 10.165 10.165 0 0 0-3.098-7.205 10.198 10.198 0 0 0-6.99-2.931 10.198 10.198 0 0 0-7.012 2.93 10.178 10.178 0 0 0-3.098 7.206 10.33 10.33 0 0 0 3.302 7.633l1.528 1.547-4.26 4.07-5.93.733-.266-2.035a10.167 10.167 0 0 0-3.913-7.348 10.199 10.199 0 0 0-7.562-2.035A10.194 10.194 0 0 0 8.4 16.443a10.167 10.167 0 0 0-2.038 7.287 10.167 10.167 0 0 0 3.71 6.9 10.36 10.36 0 0 0 8.153 2.198l2.16-.224.591 5.903-3.118 5.089-1.855-1.14A10.3 10.3 0 0 0 7.85 40.95a10.198 10.198 0 0 0-6.339 4.62 10.165 10.165 0 0 0-1.284 7.47 10.178 10.178 0 0 0 4.403 6.106 10.2 10.2 0 0 0 7.725 1.405 10.197 10.197 0 0 0 6.726-4.926l1.161-1.812 5.014 3.216 6.237-4.946-7.154-4.62 4.423-7.226-.856-8.447 8.438-1.058 6.115-5.944 6.114 5.944 3.465-7.165-4.28-4.172 1.305-1.527Zm-31.858 7.409h-.224a2.652 2.652 0 0 1-2.16-.57 2.666 2.666 0 0 1-.999-1.812 2.786 2.786 0 0 1 .49-1.831 2.63 2.63 0 0 1 1.67-.876 2.715 2.715 0 0 1 2.786 1.452c.18.352.28.739.292 1.133v.245l.265 2.035-2.12.224Zm-4.728 26.359-.122.203a2.668 2.668 0 0 1-1.774 1.343 2.714 2.714 0 0 1-2.038-.386 2.626 2.626 0 0 1-1.121-1.506 2.724 2.724 0 0 1 .367-1.853 2.626 2.626 0 0 1 1.671-1.22 2.734 2.734 0 0 1 2.201.427l.184.142 1.794 1.079-1.162 1.77Zm31.429-39.284-.163.163-1.468 1.506-1.488-1.506-.163-.163a2.625 2.625 0 0 1-.896-2.036 2.563 2.563 0 0 1 .815-1.892 2.672 2.672 0 0 1 1.732-.774 2.671 2.671 0 0 1 1.712.774 2.564 2.564 0 0 1 .816 1.893 2.623 2.623 0 0 1-.897 2.035ZM96.94 23.221V9.767h9.192v2.646h-7.46l1.549-1.404v10.97l-1.549-1.445h7.684v2.687H96.94Zm1.814-5.475V15.12h6.808v2.626h-6.808ZM108.436 23.221V9.767h6.114a5.081 5.081 0 0 1 2.14.427c.585.279 1.08.716 1.427 1.262.332.56.502 1.202.489 1.853a3.418 3.418 0 0 1-.55 2.035 4.233 4.233 0 0 1-1.671 1.384v-.672a3.855 3.855 0 0 1 2.038 1.344c.5.638.767 1.428.754 2.239a3.68 3.68 0 0 1-.53 2.035 3.522 3.522 0 0 1-1.488 1.282 5.16 5.16 0 0 1-2.222.469l-6.501-.204ZM111.615 22l-1.467-1.242h3.872c.495.021.982-.122 1.386-.407a1.468 1.468 0 0 0 .489-1.16 1.472 1.472 0 0 0-.111-.645 1.47 1.47 0 0 0-.378-.536 2.242 2.242 0 0 0-1.386-.407h-3.526v-2.36h3.221c.322.008.642-.055.937-.184a1.43 1.43 0 0 0 .612-.53c.143-.246.214-.528.203-.813a1.307 1.307 0 0 0-.468-1.08 1.816 1.816 0 0 0-1.284-.426h-3.649l1.468-1.242.081 11.032ZM121.113 23.221V9.767h5.401a6.124 6.124 0 0 1 2.793.57 4.08 4.08 0 0 1 1.814 1.669c.439.79.657 1.682.631 2.585a4.922 4.922 0 0 1-.631 2.544 4.081 4.081 0 0 1-1.814 1.69 6.122 6.122 0 0 1-2.793.59h-4.076v-2.748h3.628a2.285 2.285 0 0 0 1.63-.55 1.855 1.855 0 0 0 .612-1.485 1.907 1.907 0 0 0-.612-1.527 2.386 2.386 0 0 0-1.63-.53h-3.221l1.488-1.322V23.18l-3.22.04ZM131.712 23.221l5.217-13.454h3.547l5.177 13.454h-3.404l-1.264-3.48v-.59l-2.588-7.226h.897l-2.711 7.327v.53l-1.243 3.44h-3.628Zm3.077-2.178.734-2.402h6.502l.734 2.402h-7.97ZM152.134 23.384a8.895 8.895 0 0 1-5.421-1.791l1.549-2.32a5.775 5.775 0 0 0 3.648 1.241c.601.04 1.2-.087 1.733-.366a1.18 1.18 0 0 0 .57-1.059 1.231 1.231 0 0 0-.224-.733 1.32 1.32 0 0 0-.652-.468 2.405 2.405 0 0 0-.978-.163h-2.65V15.04h2.405c.43.032.856-.09 1.203-.346a1.179 1.179 0 0 0 .448-.977 1.074 1.074 0 0 0-.509-.957 2.778 2.778 0 0 0-1.488-.346 5.229 5.229 0 0 0-1.672.265 5.59 5.59 0 0 0-1.671.895l-1.488-2.239a8.41 8.41 0 0 1 2.405-1.303 7.981 7.981 0 0 1 2.711-.447 6.979 6.979 0 0 1 2.67.447 3.752 3.752 0 0 1 1.712 1.283 3.31 3.31 0 0 1 .571 1.913 3.713 3.713 0 0 1-.652 2.036 4.37 4.37 0 0 1-1.814 1.465v-.896a4.3 4.3 0 0 1 2.16 1.425c.518.623.8 1.409.795 2.219a3.389 3.389 0 0 1-.338 1.571 3.386 3.386 0 0 1-1.028 1.238 6.405 6.405 0 0 1-3.995 1.099ZM159.472 23.221V9.767h3.282v11.174l-1.203-1.465 6.991-9.709h2.833v13.454h-3.281V12.026l1.182 1.527-6.971 9.668h-2.833ZM174.086 23.221V9.767h3.281v11.174l-1.202-1.465 6.991-9.709h2.833v13.454h-3.282V12.026l1.183 1.527-6.971 9.668h-2.833Zm6.115-14.757a3.45 3.45 0 0 1-2.202-.61 2.703 2.703 0 0 1-.917-1.873l2.038-.387c.012.301.127.589.326.815.22.173.496.26.775.244.267.016.53-.072.734-.244.205-.224.328-.512.346-.815l2.038.387a2.823 2.823 0 0 1-.958 1.873 3.364 3.364 0 0 1-2.201.61h.021ZM194.977 23.465a7.347 7.347 0 0 1-3.648-.895 6.365 6.365 0 0 1-2.425-2.504 7.397 7.397 0 0 1-.877-3.582 7.487 7.487 0 0 1 .856-3.562 6.52 6.52 0 0 1 2.426-2.504 6.996 6.996 0 0 1 3.607-.916 7.163 7.163 0 0 1 3.078.672 7.786 7.786 0 0 1 2.609 2.036l-2.038 2.137a4.773 4.773 0 0 0-1.57-1.303 4.08 4.08 0 0 0-1.895-.448 3.774 3.774 0 0 0-1.916.489 3.362 3.362 0 0 0-1.305 1.404 4.349 4.349 0 0 0-.448 2.036 4.186 4.186 0 0 0 .469 2.035c.296.58.757 1.062 1.325 1.384a3.57 3.57 0 0 0 2.038.509 4.306 4.306 0 0 0 2.038-.489 5.01 5.01 0 0 0 1.651-1.384l2.038 2.138a6.927 6.927 0 0 1-2.65 2.035 8.162 8.162 0 0 1-3.363.712ZM202.661 23.221V9.767h3.343v13.454h-3.343Zm2.609-5.312v-2.952h2.609v2.952h-2.609Zm5.075 5.312-4.076-6.819 4.076-6.635h3.893l-4.606 7.266V15.71l4.708 7.511h-3.995ZM216.012 23.221V9.767h3.261v11.174l-1.182-1.465 6.991-9.709h2.772v13.454h-3.282V12.026l1.183 1.527-6.992 9.668h-2.751ZM230.605 23.221V9.767h3.364v11.174l-1.203-1.465 6.991-9.709h2.833v13.454h-3.261V12.026l1.162 1.527-6.971 9.668h-2.915Zm6.115-14.757a3.386 3.386 0 0 1-2.181-.61 2.808 2.808 0 0 1-.937-1.873l2.038-.387c.007.306.131.597.346.815.212.173.481.26.754.244.274.017.543-.07.755-.244.197-.229.319-.514.346-.815l2.038.387a2.808 2.808 0 0 1-.937 1.873 3.427 3.427 0 0 1-2.242.61h.02ZM95.84 40.197l5.217-13.455h3.567l5.157 13.455h-3.445l-1.263-3.481v-.59l-2.609-7.226h.917l-2.711 7.328v.529l-1.264 3.44H95.84Zm3.077-2.178.734-2.402h6.522l.734 2.402h-7.99ZM110.882 37.347a6.133 6.133 0 0 0 1.61-.61c.355-.224.632-.55.795-.937.186-.538.296-1.1.326-1.669l.53-7.389h10.007v13.455h-3.322V28.452l1.468 1.364h-6.421l1.447-1.364-.448 6.229a7.59 7.59 0 0 1-.693 2.95 4.277 4.277 0 0 1-1.692 1.812c-.867.49-1.823.8-2.812.916l-.795-3.012ZM126.902 40.197V26.742h3.342V38.69l-1.569-1.302h3.383a2.593 2.593 0 0 0 1.672-.468 1.775 1.775 0 0 0 .57-1.384 1.797 1.797 0 0 0-.57-1.404 2.49 2.49 0 0 0-1.672-.49h-3.872v-2.707h4.239a6.344 6.344 0 0 1 2.731.55 3.954 3.954 0 0 1 1.794 1.608c.437.746.656 1.599.632 2.463a4.772 4.772 0 0 1-.612 2.483 4.076 4.076 0 0 1-1.793 1.608 6.388 6.388 0 0 1-2.752.55h-5.523ZM138.356 40.197l3.16-5.374 3.322.489-2.711 4.885h-3.771Zm7.949 0V27.943l2.039 1.527h-4.077a2.224 2.224 0 0 0-1.59.509 1.848 1.848 0 0 0-.55 1.425 1.862 1.862 0 0 0 .55 1.445c.449.36 1.015.541 1.59.509h2.915V35.8h-3.241a6.12 6.12 0 0 1-2.731-.59 4.18 4.18 0 0 1-1.794-1.608 4.378 4.378 0 0 1-.632-2.382 4.45 4.45 0 0 1 .653-2.401 4.068 4.068 0 0 1 1.814-1.588 5.934 5.934 0 0 1 2.69-.57h5.687v13.454l-3.323.081ZM152.44 40.197V26.742h3.343v13.455h-3.343Zm1.916-5.313V31.73h7.807v3.074l-7.807.081Zm6.38 5.313V26.742h3.363v13.455h-3.363ZM172.986 40.44a7.002 7.002 0 0 1-3.629-.895 6.23 6.23 0 0 1-2.445-2.483 7.456 7.456 0 0 1-.856-3.603 7.334 7.334 0 0 1 .856-3.541 6.231 6.231 0 0 1 2.405-2.524 6.997 6.997 0 0 1 3.607-.916 7.243 7.243 0 0 1 3.098.671 7.985 7.985 0 0 1 2.609 2.036l-2.038 2.158a4.586 4.586 0 0 0-1.569-1.323 4.085 4.085 0 0 0-1.896-.448 3.774 3.774 0 0 0-1.916.488 3.57 3.57 0 0 0-1.284 1.405 4.072 4.072 0 0 0-.469 2.035 4.437 4.437 0 0 0 .469 2.035 3.523 3.523 0 0 0 1.325 1.405 3.754 3.754 0 0 0 1.936.488 4.485 4.485 0 0 0 2.038-.468 5.177 5.177 0 0 0 1.672-1.404l2.038 2.035a6.74 6.74 0 0 1-2.65 2.036 8.159 8.159 0 0 1-3.301.814ZM96.94 57.172V43.718h8.622v3.053h-6.747l1.427-1.445v11.846H96.94ZM113.715 57.437a7.426 7.426 0 0 1-3.669-.916 6.415 6.415 0 0 1-2.568-2.484 6.87 6.87 0 0 1-.938-3.582 6.893 6.893 0 0 1 .938-3.603 6.553 6.553 0 0 1 2.568-2.483 7.427 7.427 0 0 1 3.669-.895 7.468 7.468 0 0 1 3.709.895 6.744 6.744 0 0 1 2.589 2.483 7.079 7.079 0 0 1 .917 3.603 7.056 7.056 0 0 1-.917 3.582 6.602 6.602 0 0 1-2.589 2.484 7.486 7.486 0 0 1-3.709.916Zm0-3.054c.714.027 1.42-.15 2.038-.508a3.444 3.444 0 0 0 1.345-1.405 4.059 4.059 0 0 0 .489-2.035 4.06 4.06 0 0 0-.489-2.036 3.709 3.709 0 0 0-1.345-1.404 3.776 3.776 0 0 0-2.038-.509 3.676 3.676 0 0 0-2.039.509c-.565.34-1.03.825-1.345 1.404a4.07 4.07 0 0 0-.489 2.036 4.07 4.07 0 0 0 .489 2.035 3.444 3.444 0 0 0 1.345 1.405 3.676 3.676 0 0 0 2.039.508ZM122.886 57.172V43.718h5.381a6.119 6.119 0 0 1 2.792.57 4.07 4.07 0 0 1 1.814 1.669c.438.79.656 1.682.632 2.585a4.978 4.978 0 0 1-.632 2.564 4.07 4.07 0 0 1-1.814 1.67 5.955 5.955 0 0 1-2.792.59h-4.076l.102-2.748h3.689a2.47 2.47 0 0 0 1.651-.53 2.046 2.046 0 0 0 .591-1.505 2.04 2.04 0 0 0-.591-1.507 2.369 2.369 0 0 0-1.651-.529h-3.2l1.467-1.323v11.948h-3.363ZM135.36 57.172V43.718h3.363v13.454h-3.363Zm2.038-5.292v-3.094h7.786v3.094h-7.786Zm6.359 5.292V43.718h3.363v13.454h-3.363ZM149.729 57.172V43.718h3.364v11.968l-1.59-1.323h3.444a2.653 2.653 0 0 0 1.692-.468 1.768 1.768 0 0 0 .55-1.384 1.763 1.763 0 0 0-.55-1.404 2.552 2.552 0 0 0-1.692-.49h-3.872v-2.604h4.239a6.389 6.389 0 0 1 2.752.55 4.297 4.297 0 0 1 1.793 1.607c.421.759.632 1.616.612 2.483a4.749 4.749 0 0 1-.612 2.463 4.071 4.071 0 0 1-1.773 1.608 6.469 6.469 0 0 1-2.772.55l-5.585-.102Zm12.556 0V43.718h3.363v13.454h-3.363ZM167.401 57.172l5.034-7.755.693-.265 2.038-3.317 1.285-2.036h3.77l-4.606 7.246-.652.204-2.304 3.847-1.324 2.157-3.934-.081Zm9.172 0-1.345-2.157-2.365-4.071-.693-.326-4.463-6.982h3.791l1.324 2.036 2.039 3.582.631.204 4.831 7.551-3.75.163ZM96.94 74.147V60.693h3.363v13.454H96.94Zm2.63-5.292v-2.971h2.588v2.971h-2.589Zm5.054 5.292-4.077-6.798 4.077-6.656h3.893l-4.606 7.267v-1.303l4.728 7.49h-4.015ZM114.713 70.748l-5.014-10.055h3.71l1.284 2.768 1.834 3.97-1.814 3.317Zm-1.447 3.644a7.182 7.182 0 0 1-2.242-.346l.652-2.89c.416.13.849.199 1.284.203a1.88 1.88 0 0 0 1.04-.265c.294-.2.521-.483.652-.814l.326-.753.734-1.1 2.038-4.966 1.182-2.768h3.628l-5.034 10.87a5.382 5.382 0 0 1-1.712 2.177 4.735 4.735 0 0 1-2.548.733v-.081ZM124.313 74.147V60.693h5.401a6.266 6.266 0 0 1 2.793.57c.758.372 1.389.96 1.814 1.69.43.785.648 1.669.632 2.564a5.217 5.217 0 0 1-.632 2.565 4.4 4.4 0 0 1-1.814 1.69 6.267 6.267 0 0 1-2.793.57h-4.076v-2.749h3.628a2.388 2.388 0 0 0 1.631-.529 1.898 1.898 0 0 0 .591-1.506 1.868 1.868 0 0 0-.591-1.506 2.388 2.388 0 0 0-1.631-.53h-3.22l1.488-1.323v11.948h-3.221ZM143.635 74.473a7.328 7.328 0 0 1-3.669-.916 6.42 6.42 0 0 1-2.568-2.483 6.868 6.868 0 0 1-.937-3.582 6.808 6.808 0 0 1 .937-3.583 6.598 6.598 0 0 1 2.568-2.503 7.532 7.532 0 0 1 3.669-.896 7.697 7.697 0 0 1 3.71.896 6.598 6.598 0 0 1 2.568 2.503 6.808 6.808 0 0 1 .937 3.583 6.878 6.878 0 0 1-.937 3.582 6.42 6.42 0 0 1-2.568 2.483 7.492 7.492 0 0 1-3.71.916Zm0-3.053a3.813 3.813 0 0 0 2.038-.509 3.446 3.446 0 0 0 1.346-1.404c.32-.63.48-1.33.468-2.036a4.422 4.422 0 0 0-.468-2.035 3.711 3.711 0 0 0-1.346-1.405 3.813 3.813 0 0 0-2.038-.509 3.671 3.671 0 0 0-1.936.51 3.431 3.431 0 0 0-1.345 1.404 4.173 4.173 0 0 0-.49 2.035 4.07 4.07 0 0 0 .49 2.036 3.192 3.192 0 0 0 1.345 1.404c.592.324 1.262.48 1.936.448v.06ZM152.868 74.147V60.693h5.381a6.121 6.121 0 0 1 2.792.57c.766.361 1.4.952 1.814 1.69.44.781.658 1.668.632 2.564a4.978 4.978 0 0 1-.632 2.565 4.272 4.272 0 0 1-1.814 1.69 6.12 6.12 0 0 1-2.792.57h-4.076v-2.749h3.607a2.47 2.47 0 0 0 1.651-.529 2.032 2.032 0 0 0 .591-1.506 2.024 2.024 0 0 0-.591-1.506 2.47 2.47 0 0 0-1.651-.53h-3.22l1.488-1.323v11.948h-3.18ZM164.669 63.746v-3.053h11.149v3.053h-11.149Zm3.914 10.401V61.935h3.342v12.212h-3.342ZM183.951 74.473a7.446 7.446 0 0 1-3.689-.916 6.677 6.677 0 0 1-2.568-2.483 7.056 7.056 0 0 1-.938-3.582 7.014 7.014 0 0 1 .938-3.583 6.877 6.877 0 0 1 2.568-2.503 7.67 7.67 0 0 1 3.689-.896 7.758 7.758 0 0 1 3.71.896 6.605 6.605 0 0 1 2.568 2.503 7.002 7.002 0 0 1 .917 3.583 7.066 7.066 0 0 1-.917 3.582 6.42 6.42 0 0 1-2.568 2.483 7.53 7.53 0 0 1-3.71.916Zm0-3.053a3.692 3.692 0 0 0 2.038-.509 3.192 3.192 0 0 0 1.345-1.404 4.06 4.06 0 0 0 .489-2.036 4.161 4.161 0 0 0-.489-2.035 3.444 3.444 0 0 0-1.345-1.405 3.692 3.692 0 0 0-2.038-.509 3.795 3.795 0 0 0-2.038.51c-.566.34-1.03.825-1.346 1.404a4.422 4.422 0 0 0-.468 2.035 4.332 4.332 0 0 0 .468 2.036 3.446 3.446 0 0 0 1.346 1.404c.624.337 1.33.492 2.038.448v.061ZM193.204 74.147V60.693h6.115a4.712 4.712 0 0 1 2.038.448c.592.259 1.09.692 1.427 1.242.348.561.525 1.212.509 1.872a3.35 3.35 0 0 1-.55 1.913 4.319 4.319 0 0 1-1.692 1.385v-.672c.804.235 1.516.71 2.039 1.364.491.635.757 1.415.754 2.218a3.585 3.585 0 0 1-.53 2.036 3.63 3.63 0 0 1-1.508 1.302 5.003 5.003 0 0 1-2.202.448l-6.4-.102Zm3.2-1.2-1.488-1.242h3.873a2.04 2.04 0 0 0 1.386-.428 1.363 1.363 0 0 0 .51-1.16 1.364 1.364 0 0 0-.51-1.16c-.397-.3-.89-.445-1.386-.407h-3.546v-2.382h3.322c.322.007.642-.056.937-.183.25-.107.458-.293.591-.529a1.44 1.44 0 0 0 .225-.794 1.455 1.455 0 0 0-.469-1.099 1.899 1.899 0 0 0-1.284-.407h-3.669l1.488-1.242.02 11.032Z"/></svg>