<svg xmlns="http://www.w3.org/2000/svg" fill="none" viewBox="0 0 213 84"><g clip-path="url(#a)"><path fill="#057AB4" fill-rule="evenodd" d="M0 10.16V0h38.41v83.06H0v-72.9Zm25.2 25.9c.07.04.15.07.21-.08a1.99 1.99 0 0 0-.34-.04c-.2-.01-.38-.02-.56-.13-.11-.08-.23.06-.23.21a.43.43 0 0 1-.42.4c-.06-.1-.1-.13-.09-.16 0-.02.04-.04.13-.09.16-.1.07-.1 0-.12l-.05-.01a1.37 1.37 0 0 0-.34-.07.66.66 0 0 1-.42 0l-.1-.01c-.12-.02-.27-.05-.39.2-.14.29-.46.15-.74.04a8.66 8.66 0 0 0-.09-.04c.37-.21.8-.3 1.23-.27.13 0 .17 0 .16-.18 0-.14-.06-.13-.13-.13l-.05.01a.28.28 0 0 0-.1.03c-.07.03-.17.07-.27-.03.08-.05.16-.1.25-.13.12 0 .28-.06.3-.23.02-.17 0-.1 0-.1a.34.34 0 0 0-.33.16c-.14.19-.3.09-.43 0-.09-.06-.06-.13-.03-.2a.28.28 0 0 0 .03-.1c0-.05.04-.05.07-.05.03 0 .05 0-.02-.08a.13.13 0 0 0-.16 0 .13.13 0 0 0-.03.05v.22c-.28-.36-.3-.35-.56 0l-.05.06c-.07.1-.15.2-.31.13 0-.04.03-.08.06-.11.04-.05.08-.08.03-.13a.31.31 0 0 0-.28 0c-.07.08-.16.13-.25.18-.14.08-.28.16-.32.34 0 .1-.06.12-.14.14l-.03.01c-.03.01-.08 0-.14-.03-.14-.05-.34-.11-.48.03-.25-.41-.42 0-.46.11-.03.09-.09.04-.12.01l-.01-.01a.32.32 0 0 1 .15-.44c.14-.09.11-.18.08-.27v-.01a.15.15 0 0 0-.1-.09c-.1 0-.12.07-.15.14l-.02.07a1 1 0 0 1-.2.44c-.08-.14-.22-.2-.36-.25a.9.9 0 0 1-.31-.17c.09-.13.17-.09.25-.05.04.03.09.05.13.05.13 0 .17-.06.17-.16 0-.08-.07-.08-.13-.07h-.49a.32.32 0 0 1 .35-.15c0-.18.04-.35.12-.51a.44.44 0 0 1-.11.5c.1.12.2.08.3.04a.4.4 0 0 1 .15-.04c.06 0 .1-.03.14-.05.06-.04.1-.07.17.05.1.18.13.12.2.03l.02-.03.13-.12c.08.12.27.13.27.11.02.01.03.03 0-.07-.03-.09-.09-.12-.16-.13l.03-.03c-.07-.36-.16-.24-.26-.12-.06.06-.1.12-.16.12-.07-.4-.35-.36-.62-.32l-.05.01c-.04-.06 0-.08.04-.1.04-.02.08-.04.04-.09-.07-.1-.1-.07-.17-.01l-.02.01c-.08.07-.24 0-.34-.07-.1-.07-.33-.08-.34 0 0 .19-.14.25-.28.31-.1.05-.21.1-.26.19 0 .07-.1.18-.24.12a.24.24 0 0 1-.17-.27c-.33.1-.67.1-1 0-.1 0-.23 0-.21-.13v-.12c-.02-.09-.04-.17.12-.21.18-.04.25-.15.32-.27l.04-.07s0 .09.08.12c.03.01.05.04.08.07.04.05.08.1.14.04.08-.08.03-.12-.04-.18l-.05-.04c-.21-.32-.42-.14-.58-.02l-.02.02c-.16.13-.22.13-.3 0-.08-.13 0-.19.11-.24.11-.05.18-.08.15-.18-.02-.06-.07-.05-.12-.04-.04 0-.08.01-.1-.01l-.12-.03c-.15-.02-.38-.05-.37-.25 0-.41 0-.64-.57-.54.1-.06.19-.06.26-.07.09 0 .16 0 .22-.08-.1-.1-.1-.21-.12-.33 0-.1 0-.2-.06-.29-.17-.3.02-.33.2-.35l.15-.03a.15.15 0 0 0 .05-.06c0-.3.19-.5.38-.7.11-.13.22-.25.3-.4 0-.02.02-.03.03-.05.1-.16.2-.33-.1-.48.12 0 .23-.02.34-.05.43-.15.79-.47 1-.87.09-.17.28-.36.4-.25a.19.19 0 0 0 .3 0c.4-.3.84-.57 1.3-.77.27-.11.45-.35.63-.58.1-.12.19-.24.29-.34.03 0 .03.04.03.1 0 .07 0 .16.14.09l.11-.05c.23-.1.55-.24.65-.5.06-.16.2-.2.34-.25.13-.05.26-.1.33-.22h.16c.05.03.15.06.23.06.43 0 .61-.3.8-.6.01-.04.03-.06.05-.09-.02.05 0 .12.13.12.22 0 .32 0 .42-.21.1-.21.19-.35.29 0 0 .16.13.1.17 0l.04-.07c.07-.16.23-.47.12-.65-.13-.21 0-.25.12-.29h.03c.13-.05.36-.12.48-.29-.05-.04-.11-.04-.17-.05-.08 0-.15 0-.21-.08.28-.13.34-.38.4-.63l.02-.08c0-.07 0-.28.15-.23.1.03.06.12.03.19a.25.25 0 0 0-.03.09l-.01.08c-.03.13-.08.35.09.45a.47.47 0 0 1 .26.43c.22-.03.33-.18.43-.33.08-.1.15-.2.26-.25.25-.1.41-.3.57-.5.18-.2.35-.42.63-.5h.06c.13-.29.14-.29.38-.08.14-.44.28-.68.92-.59.11 0 .12 0 .16-.09.17-.24.3-.5.4-.77.1-.3.21-.23.36-.15l.04.02c.07.04.1.1.12.14.02.07.04.1.13-.03a.35.35 0 0 0 0-.43s-.12-.07-.15-.12l-.05-.04c-.05-.04-.1-.07-.06-.15.06-.11.11-.17.23-.15.1.02.09.09.09.15v.06c0 .27.28.29.44.29.11 0 .1-.12.09-.23l-.01-.12-.03-.15c-.04-.1-.08-.24.03-.32.06.04.05.11.04.18-.01.1-.02.18.13.2.25.03.3-.13.34-.3v-.04c.03-.1.07-.19.12-.27 0 0 0-.18.09 0s.18.16.24.12c.06-.04.06-.15 0-.22s0-.05 0-.05c.12-.03.21-.1.31-.17s.21-.15.34-.16c.14-.01.27-.1.41-.18.1-.07.2-.13.32-.17.09 0 .08-.08.08-.15v-.03l-.13-.05c0-.08 0-.14-.11-.11a1.58 1.58 0 0 1-1.43-.11c-.26-.15-.73 0-1.09.1l-.01.01c-.46.06-.9.21-1.3.44a3 3 0 0 1-.82.45c-.2.07-.36.14-.38.41-.02.27-.17.24-.37.1l-.04-.03c-.18-.13-.3-.22-.42.09-.04.12-.17.12-.28.11h-.05c-.45-.03-.9.06-1.3.26-.19.1-.39.15-.6.18-.08 0-.18 0-.2.14 0 .34-.22.4-.46.44l-.12.03-.15.03c-.17.03-.26.04-.25.32 0 .3-.1.3-.25.26l-.07-.01c-.2-.03-.28 0-.32.12-.04.1-.18.17-.32.24l-.05.02c-.05.02-.13.01-.23 0-.19-.02-.44-.04-.61.17a4.15 4.15 0 0 1-2 1.26 8.28 8.28 0 0 0-2.81 1.34c-.12.11-.22.22-.06.32.1.07.07.15.04.23a.32.32 0 0 0-.04.12c0 .05-.04.06-.08.07-.06 0-.12.01-.1.12.02.1.07.1.13.08.04-.01.08-.02.1.02-.5.05-.5.05-.57-.31-.1 0-.14.08-.18.16-.03.07-.06.14-.15.12-.23-.04-.23.07-.24.18 0 .05 0 .11-.03.15-.08.11-.09.1-.11.02l-.01-.02c-.02-.06-.12-.07-.21-.07l-.14-.02c-.09-.02-.09-.01-.08.03v.07c0 .29-.38.67-.63.61-.37-.1-.5.16-.6.37l-.03.05c-.19.47-.55.86-1 1.08.25 0 .34 0 .27.31-.05.22-.2.31-.35.4-.06.04-.12.07-.17.12a2.78 2.78 0 0 0-1 1.85v.07c.02.1.03.2-.14.22-.22.03-.26.23-.13.45.04.07.09.12.13.17.08.1.13.15.09.3-.06.22.06.19.2.13l.14-.07.06.07.1.45.1.46c0 .03.02.05.04.07.04.04.08.08.01.14-.07.07-.11.05-.16.02l-.08-.02c-.03 0-.06-.02-.1-.05-.05-.04-.1-.08-.11.1a1 1 0 0 1 .33.91l.03.17c.04.12.07.24-.03.29-.15.07-.06.23 0 .29l.05.07c.08.1.2.26.35.28.15.02.14.01.12-.02a.2.2 0 0 1-.02-.05c-.02-.07 0-.17.11-.07.07.06.18.2.29.34l.19.23a.6.6 0 0 1-.21.03c-.08 0-.16 0-.23.05l.07.12h.09c.45-.13.52.18.58.5v.02c0 .07 0 .14.1.16.25.04.4.21.54.38l.18.18c.2.24.47.44.76.57.44.13.87.3 1.3.47.2.13.45.2.69.2h.12c.18-.01.34-.02.49.17.15.19.25.12.36.05l.07-.05.09-.06c.1-.07.2-.13.27-.04.08.1.3.16.48.21l.09.03c1.36.46 2.72.88 4.1 1.26 1 .15 1.97.46 2.87.93.19.13.4.24.6.35.23.12.47.25.68.41.4.3.6.61.4 1.08a6.59 6.59 0 0 1-1.13 1.9c-.23.24-.48.5-.1.9.12.12 0 .18-.09.22-.08.03-.1.01-.13-.05l-.02-.03a.66.66 0 0 1-.1-.4c-.08.21-.25.34-.42.47-.22.16-.43.33-.47.63h.32c-.12.22-.24.14-.36.07-.05-.04-.1-.07-.16-.07s-.09.07-.11.16c-.04.12-.09.27-.3.24a.46.46 0 0 0-.35.15.23.23 0 0 0-.1.26c.1.52.05 1.06-.16 1.55 0 .08 0 .19-.13.17-.1-.02-.11-.09-.12-.16l-.02-.07c-.02-.04.02-.07.04-.09.03-.02.06-.04 0-.07-.08-.06-.14 0-.21.08-.08.06-.14.14-.2.22-.13.15-.26.3-.48.34 0 0-.06.05-.06.08 0 .02.02.01.05 0h.05c.04 0 .16 0 .17.14 0 .11-.04.1-.08.08l-.03-.01h-.07c-.07.02-.19.04-.2-.06-.05-.32-.21-.18-.24 0-.03.15-.17.17-.3.18l-.07.01h-.13c-.12-.02-.25-.04-.29.17 0 .05-.05.03-.1.02l-.07-.02c-.06 0-.42.09-.63.16-.21.07-.39.24-.21.58.18.34.06.42-.22.46-.2.03-.2.05-.2.13v.11l-.01.12c-.02.2-.05.5-.29.58a1.35 1.35 0 0 0-.89 1c-.1.4-.37.5-.64.59a3.25 3.25 0 0 0-.26.09c-.02 0-.04 0-.06-.02-.1-.06-.2-.03-.3 0-.15.03-.28.06-.4-.09 0 0-.08 0-.1.08l-.04.1c-.05.1-.13.25-.08.38.07.16 0 .2-.12.26l-.01.01a1.48 1.48 0 0 0-.78 1c0 .17-.1.24-.28.16-.2-.08-.29 0-.32.14-.03.14-.21.24-.36.2-.2-.05-.28.06-.36.17-.04.06-.08.12-.13.15.09.1.03.14-.03.2a3.02 3.02 0 0 1-.67.3c-.38.11-.77.24-1.02.62l-.16.07a.61.61 0 0 0-.22.79c.1-.2.15-.4.14-.62.04.03.1.04.15.04.11.02.21.04.18.2l-.02.1c-.04.2-.07.37-.26.37-.05 0-.12 0-.2.02-.19.03-.43.06-.62-.03.06-.04.08-.1.11-.16.02-.04.03-.09.06-.13a.72.72 0 0 0-.36-.2.15.15 0 0 0-.2.16c0 .07.03.11.08.14a.1.1 0 0 0-.06.05.14.14 0 0 0-.04.1.14.14 0 0 0 .04.1l.1.08c.1.09.2.18.37.13a.16.16 0 0 1 .2.12c0 .12-.08.18-.16.23-.03.02-.05-.02-.07-.07-.02-.07-.05-.15-.14-.12-.22.22-.14.44-.07.66.05.15.1.3.07.45-.15 0-.2-.12-.27-.22a1.4 1.4 0 0 0-.03-.07c-.07-.12-.15-.19-.2-.14-.01.03-.1.04-.2.06-.11.02-.23.04-.31.07 0 .15 0 .29-.17.32a.91.91 0 0 1-.42-.07.07.07 0 0 1-.07-.07.07.07 0 0 1 .07-.07c.07 0 .1-.07.12-.15.03-.1.06-.18.2-.09.07.07.17.11.27.12l-.14-.21c-.02-.03 0-.08.03-.13s.06-.1-.03-.08l-.2.02c-.14 0-.3.01-.3.08 0 .16-.1.24-.2.3-.07.07-.14.12-.16.22.02.02.06.01.1 0 .06 0 .13-.01.08.13-.06.2-.05.2.07.18h.2c.03 0 0 .12-.08.14a.25.25 0 0 0-.07.05c-.09.06-.2.14-.3-.05h-.19c-.08.27-.32.4-.57.53l-.06.03c.53 0 .53 0 .27.46 0 0-.08.06 0 .12s.06.14-.06.15h-.58a.5.5 0 0 1 .02-.13.5.5 0 0 0 .02-.1c.16-.27.12-.35-.01-.36-.13-.01-.23.01-.25.19-.01.12.03.16.1.17 0 .04-.02.07-.04.1l-.15.35c-.05.1-.06.16-.09.17l-.11-.06c-.14-.1-.28 0-.42.11 0-.05.02-.1.04-.15.03-.09.05-.15-.04-.19-.15-.06-.22 0-.27.18-.03.12-.02.11-.01.1h.01a.2.2 0 0 1-.22.2c-.08 0-.08-.05-.08-.1 0-.06 0-.13-.07-.16 0 .06-.06.1-.12.13-.1.06-.23.13-.06.36.15.2-.17.45-.49.36-.32-.09-.38-.1-.43.15a.57.57 0 0 0 .13.62c.09-.24.27-.37.44-.5l.19-.14c.02.07.06.13.1.19.08.13.17.27.02.45a.5.5 0 0 0-.04.05c-.04.07-.08.13-.17.08a.17.17 0 0 1-.07-.25c.05-.1.08-.18 0-.26-.04-.04-.04-.01-.04.03 0 .03.01.08-.01.09-.02.23-.02.47 0 .7 0 .15-.08.18-.15.2a.4.4 0 0 0-.03.02c-.06.03-.1-.07-.1-.13s-.11-.15-.2-.14c-.09.01-.12.15-.09.21a.46.46 0 0 1-.09.49.32.32 0 0 0 .41-.11c.1-.1.18-.06.26-.03.07.03.13.06.19.03 0-.21.13-.28.25-.35l.1-.06c.07-.05.04-.12 0-.2-.04-.1-.09-.2 0-.28h.06c.02 0 .04.03.06.07.04.07.09.17.2.12a.2.2 0 0 0 .1-.26c-.16-.26-.02-.36.14-.47l.14-.1v.54c.05 0 .08-.04.1-.07v-.01c.04-.05.07-.12.1-.19.08-.19.16-.38.49-.27 0 0 .2-.08.14-.24-.06-.16-.08-.35.21-.2.02 0 .05-.03.08-.07.06-.07.14-.17.26.01 0 0 .08 0 .08-.06 0-.13.12-.17.23-.22.16-.06.32-.12.18-.38a.1.1 0 0 1 .06 0c.22.1.34-.03.45-.16.05-.05.1-.11.17-.15.07.13.01.2-.05.28-.05.07-.1.13-.08.24.13-.11.25-.18.4 0 .17.18.22 0 .19-.14-.1-.3.07-.43.25-.56.14-.1.27-.2.28-.38H11.3c.09-.04.37-.14.48.11 0 .07.18 0 .19-.16 0-.16.28-.28.46-.34a.63.63 0 0 1 .5 0c.13.07.14 0 .15-.1v-.31a.46.46 0 0 1-.1-.12c-.05-.08-.1-.16-.17-.08-.03.04-.09.07-.15.1-.13.05-.27.12-.25.32l-.36-.18c.24-.2.54-.34.86-.39.22 0 .2.1.18.2 0 .05-.02.09-.01.13a.3.3 0 0 0 .3-.31c0-.18 0-.37.26-.23a.16.16 0 0 0 .2-.08.16.16 0 0 0 .01-.08.34.34 0 0 1 .37-.35c.18 0 .23-.08.19-.23-.06-.25.05-.24.18-.22h.15c-.11.27-.27.52-.48.73a.7.7 0 0 0-.2.3c0 .07 0 .2.12.13.22-.07.43-.19.6-.34A7.84 7.84 0 0 1 16 58.01c.32-.23.64-.48.73-.89.1-.46.32-.48.6-.5l.13-.01.23-.1a.41.41 0 0 1-.4-.32.13.13 0 0 1 .05-.12c.07-.02.1.03.12.08.03.05.06.1.14.07 0-.29 0-.29.38-.26l-.04.05c-.07.07-.13.14.04.22a.3.3 0 0 0 .34 0c.11-.08.18-.06.23.08.2-.15.25-.38.3-.6.04-.17.08-.34.18-.48.3.3.3.28.5-.1v-.01a1 1 0 0 0 .07-.15c.03-.12.07-.23.2-.31.74-.48 1.53-.9 2.35-1.25h.02c.19-.08.37-.16.2-.43 0-.06 0-.2.09-.16.33.13.54-.03.76-.2.08-.06.15-.12.24-.17a6.29 6.29 0 0 0 1.42-1.49c.08-.12.19-.27.36-.13.17.14.37 0 .5-.12.15-.16.22-.36.28-.56.06-.2.13-.39.26-.54.04.02.08.08.12.14.1.14.19.27.33-.14 0 0 .05 0 .08-.06a2.31 2.31 0 0 0 1.17-2c0-.1 0-.2.09-.27a.08.08 0 0 1 .06-.03.08.08 0 0 1 .06.03c0 .04.02.08.05.13.03.06.07.13.02.17-.18.14-.11.26-.05.38.04.08.08.15.06.23l.03-.17c.03-.17.05-.32.26-.33.42 0 .46-.3.5-.57l.03-.13c.06-.3.23-.53.48-.47.18.04.18 0 .19-.07v-.06c.3-.46.6-.92.88-1.4a6 6 0 0 0 .8-3.62c0-.06 0-.16-.07-.14-.3.08-.26-.05-.22-.18.02-.07.04-.14 0-.17.14-.17.06-.32-.01-.47a1.3 1.3 0 0 1-.06-.13 2.36 2.36 0 0 0-.88-.81h-.01c-.1-.07-.22-.14-.15-.28.13-.32.2-.66.2-1 0-.07 0-.18-.07-.2-.08-.02-.17 0-.21.16-.03.13-.1.25-.15.37l-.04.07-.04.08c-.04.1-.06.14-.14.12a.3.3 0 0 1-.23-.26c0-.11-.04-.22-.08-.34a2.57 2.57 0 0 1-.06-.19c.11.03.22.09.3.17.06.05.15.07.2 0 .05-.11 0-.22-.03-.33-.05-.14-.1-.28.03-.42a.7.7 0 0 0-.18.03c-.16.05-.32.1-.45-.12h-.06l-.02.01c-.26.24-.27.25-.55-.01a.66.66 0 0 0-.05-.04 13.14 13.14 0 0 0 .13-.08h-.03c-.23-.06-.46-.1-.46-.06l-.03.03c-.03.01-.07.03.03.13.03.03.06.05.1.06-.07.03-.15-.01-.24-.05l-.08-.04c-.01 0-.02 0-.03-.02.1-.15.07-.24.02-.35l-.03-.1v.45a.94.94 0 0 1-.13-.17c-.1-.14-.22-.32-.4-.38.06-.04.13-.03.18-.02.07.02.12.03.14-.07.03-.17-.1-.2-.18-.23l-.02-.01c-.1-.03-.24.12-.3.24a.68.68 0 0 1-1.11.19l.22-.11a.17.17 0 0 0 .17-.12c.03.02.07.03.1.03v-.05c.08-.06.05-.13.01-.21-.04-.1-.07-.19.06-.25a.24.24 0 0 0-.24.07c-.09.08-.06.15-.03.21l.01.03-.06-.01-.07-.01a1.33 1.33 0 0 0-.75.18.11.11 0 0 0-.03.05l-.05.04c-.04-.1-.14-.19-.18-.19h-.16a.31.31 0 0 0 .19.3c-.1.03-.2.04-.33-.04a.39.39 0 0 0-.33 0c-.3.13-.47 0-.61-.25a.3.3 0 0 0 .28.07.3.3 0 0 0 .11-.06l.14-.13c.15-.14.28-.27.54-.13l.05-.07c-.05-.2.04-.15.12-.12l.04.02h.02ZM11.77 58.05a.48.48 0 0 1-.12-.1c.06.02.1.05.12.1Zm11.24-32.92.18-.1c.14-.07.28-.15.37-.29a.12.12 0 0 0 0-.17.24.24 0 0 0-.17 0l-.08.07c-.15.14-.3.27-.3.49ZM5.44 64.46c-.06.09-.12.18-.21.2-.02-.05 0-.11.02-.17.04-.1.08-.2-.08-.27-.02 0 0-.03 0-.05.03-.04.05-.08-.05-.06-.16.04-.27.32-.27.33v.09c.3-.06.27.06.22.21l-.04.13c-.04.2.05.2.2.2h.01c.31-.06.44-.35.31-.76-.04.04-.07.1-.1.15Zm5.93-31.19c-.02-.06-.04-.12-.02-.18l-.02.01c-.15-.08-.12-.2-.1-.3l.02-.11c-.1-.17-.21-.33-.35-.47-.07.4.1.7.27 1 .06.11.13.22.18.34.08-.12.05-.2.02-.29Zm2.01 27.01c.2-.13.35-.31.46-.52a.2.2 0 0 0 0-.24.12.12 0 0 0-.13-.03.12.12 0 0 0-.04.03l-.14.2c-.12.15-.24.31-.15.56l-.02.01.02-.01Zm2.87-6.23c-.07.25-.2.48-.36.68-.05.09-.16.2-.27.09-.1-.1-.02-.16.04-.22l.03-.03.56-.52Zm5.55-4.73c.17-.23.28-.5.31-.79a.81.81 0 0 0-.31.79Zm-10.81 9.56c.04-.05.05-.12.06-.18 0-.1.02-.19.13-.2.19-.02.18.19.16.29-.01.05-.07.05-.15.05-.07 0-.15 0-.2.04Zm.2-25.34c-.04-.02-.09-.04-.12-.07-.09.01-.09.09-.09.16a.19.19 0 0 0 .1.19.2.2 0 0 0 .07.02.15.15 0 0 0 .16-.08.15.15 0 0 0 .02-.06c0-.1-.06-.13-.14-.16Zm-.35 28.59c-.08 0-.17-.07-.14-.14a.28.28 0 0 1 .29-.15c.06 0 .15 0 .12.09-.02.06-.1.1-.18.15l-.1.05Zm.9-.78v.01h-.02.01Zm0 0v-.2c.08-.08.17-.15.28-.2.03.02.05.05.06.08 0 .1-.06.13-.12.16a.26.26 0 0 0-.09.05l-.14.11Zm-7.1 3.5v.02l-.35.19.06.12c.1.04.13-.02.16-.09.03-.05.05-.11.13-.11v-.1l.04-.03h-.04Zm19.3-29c.05.01.1.02.15.05a.46.46 0 0 0-.25-.32.13.13 0 0 1-.04-.03c-.03-.02-.03-.03-.02.13.01.15.08.16.17.18Zm-7.08-1.8c-.04.03-.07.05-.11.05l.02.04c.09.09.17.17.29.09a.13.13 0 0 0 0-.13c-.07-.12-.14-.08-.2-.04Zm3.34 1.17c-.16.16-.28.16-.46 0h.46Zm-13 28.63-.01.02-.02-.02h.03Zm0 0c.1-.17.21-.16.33-.1.09.04.05.07.02.08l-.02.02H7.2Zm16.12-16.27c.19.17.16.26.1.37-.1-.04-.1-.11-.1-.2v-.17Zm.04-12.03c.11-.04.2-.07.2-.18-.17-.01-.25.03-.35.24l.15-.06Zm-6.58-1.19c.08-.09.17-.06.27-.03.04.02.09.03.13.03-.04 0-.09.01-.13.03-.09.03-.18.06-.28-.03Zm10.25 1.98c-.18.1-.26.07-.38.03a1.49 1.49 0 0 0-.1-.03h.48Zm1.09-14.97h.17v.01c.1-.05.06-.1.03-.17l-.03-.1a.31.31 0 0 0-.17.26Zm-11.36 3.79c-.06.12-.01.12.07.12h.03v-.3l-.1.18Zm-1.8 1.15c-.02.07.1.07.1.07.1 0 .12-.07.15-.15l.07-.13-.12-.06c-.08.08-.15.17-.2.27Zm3.15 7.92a.12.12 0 0 0-.05-.01.43.43 0 0 1-.08.04c-.06.02-.13.04-.13.13a.26.26 0 0 0 .18.16c.15.01.15-.09.15-.2a.12.12 0 0 0-.07-.12Zm.08 1.89c.1-.33.43-.17.43-.17a.53.53 0 0 1-.1-.09c-.14-.13-.33-.32-.33.26Zm.16.14c.03.02.06.03.1.03h.02c.04-.01.08-.02.08-.08a.16.16 0 0 0-.12-.14c-.09.01-.14.11-.14.11 0 .03.03.06.06.08Zm1.32-.2c.05 0 .09 0 .02-.08v.01c-.05-.06-.08-.03-.13 0-.04.04-.08.07-.14.07a.7.7 0 0 0 .19 0h.06Zm.59.23v-.11l.02-.01a1 1 0 0 0-.5 0l.48.12Zm-.05.59c.15.01.3-.03.43-.11v-.02c-.18.02-.22-.1-.26-.2-.03-.07-.06-.15-.16-.15s-.21-.02-.32-.05a1.9 1.9 0 0 0-.44-.06l.1.1c.05.07.1.14.2.06.14-.11.35.01.47.24a.64.64 0 0 0-.43 0c.11.1.25.17.4.19Zm.47-.83a.58.58 0 0 1-.06.05c-.05.05-.11.1-.11.17a.45.45 0 0 0 .29.34.83.83 0 0 1 0-.38c.03-.06-.02-.16-.12-.18Zm.39.06v.19H21c0 .03-.01.07-.03.1-.02.08-.05.15.03.21.07.05.12 0 .16-.07.03-.03.06-.07.09-.07l.3-.17-.48-.19Zm.48 14.17c-.1.01-.2.03-.13.17l.17-.18h-.04Zm-.74.93a.92.92 0 0 0 .36-.79.54.54 0 0 0-.1-.21c-.08-.14-.16-.28 0-.44a.76.76 0 0 0-.3.75.45.45 0 0 1-.26.57c-.25.1-.34.27-.1.48.13-.23.13-.23.4-.36Zm-1.02.76c.06.1.11.2.19.11.08-.1.18-.13.29-.18.08-.04.17-.08.26-.14a1.34 1.34 0 0 0-.83.08l.1.13Zm-5.88 6.54c0 .04-.01.08.07.08.04-.01.15-.05.12-.1l-.02-.05c-.01-.04-.02-.08-.08-.09-.08-.02-.08.07-.08.12v.04Zm-4.08 2.73.05-.01v-.01c.05-.03.05-.05.05-.12a2.12 2.12 0 0 1-.13-.69c-.12.07-.16.16-.2.25l-.04.09c.16.07.18.2.2.34 0 .05 0 .1.02.14l.05.01Zm-1.81 1a.49.49 0 0 0 .19-.15l-.02.05c.07-.06.07-.06.03-.13l-.03-.05c-.03-.05-.04-.08-.06-.08l-.08.08c-.04.03-.06.09-.1.14-.03.1-.08.18-.17.18.08 0 .16 0 .24-.04Z" clip-rule="evenodd"/><path fill="#1D1D1B" d="M60.62 42.19c-1-.3-1.9-.81-2.69-1.49l.86-1.84a7 7 0 0 0 2.38 1.38c.96.35 1.98.53 3 .53a5.38 5.38 0 0 0 3-.7 2.12 2.12 0 0 0 1-1.84 1.8 1.8 0 0 0-.55-1.37 3.4 3.4 0 0 0-1.35-.81c-.53-.19-1.29-.4-2.27-.64a23.28 23.28 0 0 1-3-.89 4.84 4.84 0 0 1-1.93-1.38c-.57-.7-.86-1.6-.81-2.5a4.27 4.27 0 0 1 2.77-4.06 8.44 8.44 0 0 1 3.47-.63c.96 0 1.91.12 2.84.37.86.22 1.67.58 2.4 1.08l-.77 1.88a8.5 8.5 0 0 0-4.47-1.34 5 5 0 0 0-3 .73 2.24 2.24 0 0 0-.87 2.62c.1.24.25.45.43.63.4.37.87.66 1.39.83.55.19 1.3.4 2.24.62 1.02.23 2.02.52 3 .89.74.3 1.4.76 1.92 1.36.56.7.84 1.58.8 2.47 0 .84-.24 1.66-.7 2.36a4.69 4.69 0 0 1-2.12 1.69c-1.1.44-2.3.65-3.49.62-1.2 0-2.4-.19-3.54-.57M87.87 26.14v16.44h-2.32v-7.33h-9.36v7.33h-2.33V26.14h2.33v7.06h9.36v-7.06h2.32ZM99 36.89v5.69h-2.3v-5.74l-6.48-10.7h2.5l5.2 8.66 5.24-8.66h2.3L99 36.89ZM122.64 42.58l-.03-11.98-5.88 9.98h-1.07l-5.9-9.91v11.91h-2.23V26.14h1.9l6.8 11.55 6.7-11.55h1.92l.02 16.44h-2.23ZM140.42 40.01a2.3 2.3 0 0 0 1-2.06c0-1.84-1.33-2.75-4-2.75h-5.35v5.47h5.35a5.46 5.46 0 0 0 3-.66Zm-8.33-12v5.27h4.77c.96.06 1.92-.18 2.75-.67a2.23 2.23 0 0 0 1-2 2.22 2.22 0 0 0-1-2 4.76 4.76 0 0 0-2.75-.67l-4.77.07Zm10.86 7.45c.57.76.86 1.7.82 2.64a3.8 3.8 0 0 1-1.6 3.29 7.85 7.85 0 0 1-4.64 1.15h-7.77V26.13h7.3c1.52-.1 3.04.3 4.32 1.13a3.66 3.66 0 0 1 1.53 3.13 3.86 3.86 0 0 1-2.19 3.66c.88.22 1.66.73 2.23 1.44M149.05 40.88a7.46 7.46 0 0 1-1.81-5.4v-9.35h2.31v9.26c0 3.52 1.53 5.28 4.59 5.28a4.4 4.4 0 0 0 3.42-1.3 5.77 5.77 0 0 0 1.18-4v-9.26H161v9.35a7.47 7.47 0 0 1-1.81 5.41 6.75 6.75 0 0 1-5.08 1.87 6.73 6.73 0 0 1-5.07-1.88M165.78 26.14h2.32v14.39h8.82v2.05h-11.14V26.14ZM190.86 36.59l-3.51-8.06-3.51 8.06h7.02Zm.82 1.87h-8.66l-1.79 4.11h-2.4l7.38-16.44h2.34l7.4 16.44h-2.44l-1.83-4.11ZM209.5 26.14l-8.84 9.18v-9.18h-2.33v16.44h2.33v-4.26l2.97-3.05 6.24 7.31h2.72l-7.4-9.05 6.96-7.39h-2.65Z"/><path fill="#057AB4" d="M88.02 52.72a3.37 3.37 0 0 1 .83 2.47v4.38h-1.37v-4.23c.05-.6-.13-1.19-.5-1.66a1.83 1.83 0 0 0-1.45-.56 2.18 2.18 0 0 0-1.65.65c-.43.53-.65 1.2-.61 1.88v3.92h-1.36v-4.23c.04-.6-.14-1.19-.51-1.66a1.83 1.83 0 0 0-1.45-.56 2.18 2.18 0 0 0-1.65.65c-.44.52-.66 1.2-.61 1.88v3.92h-1.37v-7.62h1.31v1.14c.28-.39.65-.7 1.09-.9.48-.21 1-.32 1.52-.31.55-.01 1.08.11 1.57.36.44.22.8.57 1.05 1 .3-.44.7-.78 1.19-1a3.8 3.8 0 0 1 1.71-.38 3 3 0 0 1 2.26.84M95.95 58.11c.39-.24.7-.59.9-1 .23-.43.34-.91.33-1.4 0-.49-.1-.97-.33-1.4-.2-.4-.52-.72-.9-.94a2.6 2.6 0 0 0-1.31-.33c-.46 0-.9.1-1.3.33-.39.22-.7.55-.91.94a2.9 2.9 0 0 0-.33 1.4c-.01.49.1.97.33 1.4.2.41.52.76.91 1 .4.23.84.34 1.3.34.46 0 .91-.11 1.31-.34Zm-3.33 1a3.6 3.6 0 0 1-1.4-1.39c-.35-.6-.52-1.3-.51-2-.01-.7.16-1.4.51-2 .33-.58.81-1.06 1.4-1.38.61-.33 1.3-.5 2-.5s1.39.17 2 .5c.58.32 1.06.8 1.39 1.38.35.6.52 1.3.51 2 .01.7-.16 1.4-.51 2-.32.58-.8 1.07-1.39 1.39a4 4 0 0 1-2 .5 4 4 0 0 1-2-.5ZM107.48 51.95v7.62h-1.29v-1.15c-.28.4-.65.7-1.09.91a3.3 3.3 0 0 1-1.47.32 3.28 3.28 0 0 1-2.38-.84 3.26 3.26 0 0 1-.87-2.47v-4.39h1.37v4.23c-.05.6.14 1.2.52 1.67a2 2 0 0 0 1.51.57 2.25 2.25 0 0 0 1.71-.66 2.6 2.6 0 0 0 .63-1.87v-3.94h1.36ZM116.4 52.72a3.3 3.3 0 0 1 .85 2.47v4.38h-1.37v-4.23a2.3 2.3 0 0 0-.53-1.66 1.94 1.94 0 0 0-1.5-.56 2.35 2.35 0 0 0-1.75.65 2.56 2.56 0 0 0-.65 1.88v3.92h-1.36v-7.62h1.31v1.15c.28-.4.67-.7 1.12-.9.5-.22 1.05-.33 1.6-.32a3.08 3.08 0 0 1 2.28.84ZM124.02 59.12a2 2 0 0 1-.74.4 3 3 0 0 1-.91.13 2.38 2.38 0 0 1-1.76-.61 2.38 2.38 0 0 1-.63-1.77v-4.18h-1.28v-1.14h1.28v-1.67h1.37v1.66h2.2v1.14h-2.16v4.12c-.04.36.07.72.3 1a1.14 1.14 0 0 0 .88.33c.39.01.77-.12 1.07-.36l.38.95ZM129.46 58.28a2 2 0 0 0 .83-1v-1.1h-2.1c-1.17 0-1.75.39-1.75 1.18a1.05 1.05 0 0 0 .45.9 2 2 0 0 0 1.22.33c.47.01.94-.11 1.35-.35m1.36-5.58a3 3 0 0 1 .83 2.31v4.6h-1.29v-1c-.24.37-.59.65-1 .81-.47.2-.99.3-1.5.28a3.15 3.15 0 0 1-2-.61 2 2 0 0 1-.76-1.63 2 2 0 0 1 .73-1.61 3.52 3.52 0 0 1 2.3-.61h2.17v-.28a1.75 1.75 0 0 0-.52-1.36 2.11 2.11 0 0 0-1.5-.48 3.88 3.88 0 0 0-2.4.82l-.57-1c.42-.33.9-.58 1.4-.73a6.06 6.06 0 0 1 1.72-.25c.87-.06 1.73.22 2.4.78M134.19 51.95h1.36v7.62h-1.36v-7.62Zm0-1.72a.82.82 0 0 1-.26-.63.86.86 0 0 1 .26-.64.88.88 0 0 1 .66-.27.93.93 0 0 1 .86.54c.05.1.07.22.07.34a.87.87 0 0 1-.27.65.86.86 0 0 1-.66.27.9.9 0 0 1-.66-.26ZM144.47 52.72a3.3 3.3 0 0 1 .85 2.47v4.38h-1.37v-4.23c.05-.6-.14-1.2-.52-1.66a2 2 0 0 0-1.51-.56 2.35 2.35 0 0 0-1.75.65 2.56 2.56 0 0 0-.65 1.88v3.92h-1.36v-7.62h1.31v1.15c.28-.4.67-.7 1.12-.9.5-.22 1.05-.33 1.6-.32a3.08 3.08 0 0 1 2.28.84ZM154.04 52.28a3.82 3.82 0 0 1 1.7-.35v1.34h-.31a2.32 2.32 0 0 0-1.75.67 2.68 2.68 0 0 0-.63 1.91v3.79h-1.37v-7.62h1.31v1.26c.22-.43.57-.78 1-1M158.8 53.65c-.45.41-.73.98-.79 1.58h4.84a2.41 2.41 0 0 0-.77-1.57 2.32 2.32 0 0 0-1.64-.61c-.6-.02-1.2.2-1.65.6Zm5.34 2.57h-6.13c.07.63.39 1.22.88 1.62.53.41 1.19.63 1.86.61a2.8 2.8 0 0 0 2.18-.92l.75.89c-.34.4-.78.72-1.27.92-.54.21-1.12.32-1.7.31a4.46 4.46 0 0 1-2.13-.49c-.6-.32-1.1-.8-1.43-1.39a4 4 0 0 1-.5-2c-.01-.7.16-1.39.5-2 .3-.58.77-1.05 1.34-1.38.61-.35 1.3-.52 2-.5.67-.01 1.34.16 1.92.5.56.33 1.03.8 1.33 1.38.32.62.48 1.3.47 2v.42M166.44 59.4a3.8 3.8 0 0 1-1.34-.64l.57-1.09c.37.25.78.45 1.21.58.47.14.95.2 1.44.21 1.2 0 1.79-.34 1.79-1a.69.69 0 0 0-.24-.55 1.54 1.54 0 0 0-.6-.29c-.24-.07-.59-.13-1-.21-.5-.08-1-.19-1.49-.33a2.34 2.34 0 0 1-1-.63c-.3-.35-.44-.8-.41-1.25a1.93 1.93 0 0 1 .85-1.66 3.77 3.77 0 0 1 2.29-.63 6 6 0 0 1 1.51.19c.44.1.86.27 1.24.5l-.58 1.09a3.94 3.94 0 0 0-2.18-.6c-.46-.03-.92.07-1.33.29a.86.86 0 0 0-.45.76.7.7 0 0 0 .26.59c.18.15.4.26.63.31.25.07.6.15 1.06.23.5.08.99.2 1.47.34.38.1.73.32 1 .61.29.34.43.77.4 1.21a1.9 1.9 0 0 1-.87 1.64c-.72.44-1.55.66-2.39.61-.6 0-1.2-.08-1.78-.25M177.72 58.11c.4-.24.71-.59.91-1a3 3 0 0 0 .32-1.4 3 3 0 0 0-.32-1.4 2.3 2.3 0 0 0-.9-.94c-.4-.22-.85-.34-1.3-.33-.46 0-.91.1-1.3.33-.4.22-.71.54-.92.94a2.8 2.8 0 0 0-.34 1.4c-.01.49.1.97.34 1.4a2.38 2.38 0 0 0 2.21 1.34c.46 0 .9-.11 1.3-.34Zm-3.32 1a3.53 3.53 0 0 1-1.4-1.39 3.9 3.9 0 0 1-.5-2c-.02-.7.16-1.4.5-2a3.5 3.5 0 0 1 1.4-1.38c.61-.33 1.3-.5 2-.5a4 4 0 0 1 2 .5c.59.32 1.07.8 1.4 1.38.34.61.52 1.3.5 2 .02.7-.16 1.4-.5 2a3.6 3.6 0 0 1-1.4 1.39 4 4 0 0 1-2 .5 4 4 0 0 1-2-.5ZM184.55 52.28a3.82 3.82 0 0 1 1.7-.35v1.34h-.32a2.3 2.3 0 0 0-1.74.67 2.7 2.7 0 0 0-.64 1.84v3.79h-1.36v-7.62h1.36v1.33c.22-.43.57-.78 1-1ZM192.55 59.12a2.1 2.1 0 0 1-.74.4c-.3.09-.6.13-.91.13a2.43 2.43 0 0 1-1.77-.61 2.42 2.42 0 0 1-.62-1.77v-4.18h-1.28v-1.14h1.28v-1.67h1.36v1.66h2.17v1.14h-2.17v4.12c-.03.36.08.72.31 1a1.14 1.14 0 0 0 .88.33c.38.01.76-.12 1.06-.36l.43.95Z"/></g><defs><clipPath id="a"><path fill="#fff" d="M0 0h212.59v83.06H0z"/></clipPath></defs></svg>