<svg xmlns="http://www.w3.org/2000/svg" preserveAspectRatio="xMinYMid meet" viewBox="0 0 212 73"><g><g><path d="M14.67 72.95c18.07.79 30.56-14.22 23.14-32-2.99-7.14-8.23-9.62-10.76-18.56a22.5 22.5 0 0 1 .33-13.58 14.18 14.18 0 0 1 2.73-4.7l3.11-4.17C-2.49 1.9-11.59 46.22 16.62 48.59c-3-2.43-7.48-5.34-8.85-9.78a12.05 12.05 0 0 1 .14-7.21 11.93 11.93 0 0 1 4.23-5.82l3 3.27 5.47-8.66 1.5 2.2c.39.7.52 1.14.88 1.94 7.6 17.17 13.2 15.18 10.8 31.27a6.06 6.06 0 0 1-.33-.74c-2.07-4.86-2.54-7.75-7.15-10.93 1.8 6.77 3.98 11.08 0 17.98a27.4 27.4 0 0 1-5.35 5.91c-.99.77-2 1.22-3.4 2.25l-2.9 2.68Z"/></g><path d="M193.54 39.7c2.57.1 4.48-.99 4.8-3.61.68-4.77.19-1.06-.74-2.54-4.33-1.67-6.4 2.55-4.06 6.16ZM60.35 41.28c-4.98 1.63-6.26.12-10.13-1.43l.1 3.94c11.84 3.36 26.5-5.57 11.94-13.8-3.17-1.79-4.88-3.02-4.33-5.62.27-1.37.6-1.4 2.05-1.4 4.48 0 6.3 5.16 7.33-2.07-5.98-.57-16.25-.16-16.43 6.75-.24 7.81 11.28 4.72 10.68 11.91-.1 1.23 0 1.38-1.1 1.72"/><path d="M201.22 40.11c-2.38.12-3.56-3.4-1.05-6.23 2.5-2.82 5.7-.28 5.7-.28s-.55 6.3-4.66 6.51Zm-24.56 0c-2.36.34-3.84-3.1-1.6-6.15 2.24-3.05 5.62-.8 5.62-.8s-.47 6.44-4.02 6.95Zm-24.67-.09c-2.37 0-3.7-2.49-1.82-5.82a4.01 4.01 0 0 1 2.44-1.92 3.97 3.97 0 0 1 3.06.41s.36 7.45-3.68 7.4m-48.98.1c-2.36.28-3.58-3.4-1.25-6.37s5.5-.45 5.5-.45-.78 6.41-4.25 6.82Zm108.88-10.7s-7.96-.36-12.62 1.93c-4.66 2.3-7.18 4.68-7.47 8.81 0 0-4.12 1.24-5.2-1.61-1.07-2.85 1.21-9.05 1.21-9.05a2.8 2.8 0 0 0-2.98.63s-14.13-3.02-17.93 9.67c0 0-5.1 3.02-5.57-3.86-.46-6.88 2.03-19.16 2.03-23.49 0 0-5.53 0-7.7 1.6 0 0 .6 11.2.23 15.8 0 0-12.2.14-14.04 10.2 0 0-3.18 1.5-4.15-4.11-.97-5.61-1.88-6.04-1.88-6.04a7.56 7.56 0 0 0-3.24.5 7.63 7.63 0 0 0-2.74 1.83c-2.63 2.73-4.65 4.52-4.65 4.52s.18-19.1 2.45-24c0 0-5.7-.2-8.44 1.31l-.09 25.65s-4.6 2.32-5.97-1.72a11.71 11.71 0 0 1 .97-8.33s-.9-1.05-2.99.49c0 0-5.72-1.09-9.89.86a12.09 12.09 0 0 0-4.39 2.97 12.24 12.24 0 0 0-2.72 4.57c-.88 2.88.7 6.03 4.19 5.57a15.15 15.15 0 0 0 7.97-3.88 3.98 3.98 0 0 0 1.37 2.86 3.93 3.93 0 0 0 3.01.94 16.5 16.5 0 0 0 8.54-2.7s-.09 1.33-.13 1.89c-.04.55.16 1.5 2.05.68a9.97 9.97 0 0 0 4.33-4.1c1.5-2.17 4.2-5.62 5.36-3.6a14.65 14.65 0 0 1 1.35 5.76 2.06 2.06 0 0 0 .67 1.63 2.01 2.01 0 0 0 1.67.49 13.71 13.71 0 0 0 8.05-2.72s3 6.73 12.95-1.03c0 0 .26-.4.26.41a3.05 3.05 0 0 0 .95 2.65 2.96 2.96 0 0 0 2.7.7 28.82 28.82 0 0 0 7.91-2.58 4.66 4.66 0 0 0 1.99 2.07 4.6 4.6 0 0 0 2.8.5c3.49-.43 7.76-3.79 7.76-3.79s0 4.31 4.88 3.83a16.62 16.62 0 0 0 7.58-2.44 5.06 5.06 0 0 0 2.32 2.13 5 5 0 0 0 3.13.33c3.8-.7 7.9-4.86 7.9-4.86l-.13 14.42a4.2 4.2 0 0 1-1.55 2.67 4.11 4.11 0 0 1-2.94.86c-3.57-.29-5.97-3.44-5.78-5.61.2-2.17 4-5.06 4-5.06a15.87 15.87 0 0 0-9.25 4.74c-3.92 4.24 2.88 8.6 9.42 8.1s10.05-4.15 11.31-7.89c1.67-4.9 1.09-22.07 1.09-22.07"/><path d="M94.05 39.12v2.25a13.58 13.58 0 0 1-7.56 2.38 2 2 0 0 1-1.67-.5 2.04 2.04 0 0 1-.67-1.61 14.66 14.66 0 0 0-1.35-5.77c-1.16-2.02-3.85 1.44-5.36 3.6a9.85 9.85 0 0 1-4.33 4.08c-1.03.47-1.5.4-1.83.14V13.82c2.74-1.51 8.44-1.3 8.44-1.3-2.27 4.89-2.45 24-2.45 24s2.02-1.84 4.65-4.52a7.55 7.55 0 0 1 2.73-1.83 7.5 7.5 0 0 1 3.25-.48s.92.42 1.9 6.03 4.15 4.1 4.15 4.1c0-.24.09-.45.13-.67"/></g></svg>