<svg xmlns="http://www.w3.org/2000/svg" fill="none" viewBox="0 0 108 89"><g clip-path="url(#a)"><path fill="#084792" d="m103.95 68.2-4.35 8.57-4.36-8.54h-4.06l6.57 12.37v8.26h3.74V80.6l6.53-12.4h-4.07ZM84.47 85.55c1.67 0 2.96-.52 2.96-3.12v-7.75c0-2.59-1.29-3.12-2.96-3.12s-3 .53-3 3.12v7.75c0 2.6 1.32 3.12 3 3.12Zm0 3.45c-3.86 0-6.74-1.47-6.74-6.5v-7.9c0-5.05 2.88-6.52 6.74-6.52 3.86 0 6.71 1.47 6.71 6.51v7.9c0 5.04-2.86 6.51-6.7 6.51Zm-22.82-5.69c0 4.52 4.24 5.69 7.21 5.69 2.97 0 6.8-.97 6.8-5.53 0-2.98-1.61-4.43-4.73-6.25-3.4-1.92-4.96-2.71-4.96-4 0-1.02.8-1.66 2.45-1.66 2.3 0 2.92 1.42 2.92 3.42l3.73-.58v-.6c0-4.36-3.53-5.69-6.5-5.69-2.98 0-6.33 1.27-6.33 5.19 0 2.77 1.2 4.22 5.38 6.48 2.98 1.62 4.3 2.22 4.3 3.83 0 1.1-1 1.97-2.97 1.97-2.57 0-3.56-1.1-3.56-3.23v-.69l-3.74.6v1.05Zm-10.81-5.27v-6.37h2.03c2.21 0 3.56.68 3.56 2.98v.4c0 2.31-1.35 2.99-3.56 2.99h-2.03Zm10.21 10.82-3.97-8.17c1.8-.88 3.09-2.57 3.09-5.72v-.23c0-5.33-3.74-6.5-7.3-6.5H47.1v20.62h3.74v-7.37H53.6l3.39 7.4 4.05-.03ZM40.42 68.23h3.74v20.63h-3.74V68.23Zm-6.63 0L28.02 78.4l-5.77-10.16H18.5v20.63h3.62V75.89l5.78 9.72 5.77-9.72v12.97h3.73V68.23H33.8ZM5.94 81.63l2.46-8.5 2.48 8.5H5.94ZM13 88.86h3.74l-6.3-20.63H6.38L.08 88.86H3.8l1.11-3.78h7.01L13 88.86ZM37.12 25.4C29.45 13.68 5.15 48.62 3.37 55.94c6.12 1.42 8.18-3.77 13.16-.78 2.93 1.75 4.59 2 10.17-1.11 4.69-2.61 9.1 2.92 9.1 2.92 5.08-14.71 36.9-13.72 27.48-22.8-5.09-4.9 1.6-10.06 10.33-11.26C72.6 17.7 60.22 4.28 55 4.28c-5.22 0-15.97 11.38-17.87 21.1"/><path fill="#1A9EDA" d="M106.62 55.95c-1.34-5.1-18.12-25.2-30.2-30.21-3.98 1-12.98 4.21-6.98 8.1 10.09 6.54-12.87 11.55-16.59 23.15 11.06 2.82 16.77-6.81 25.66-1.77 8.9 5.05 20.27-7.52 28.09.73M32.77 0a6.75 6.75 0 1 1 0 13.5 6.75 6.75 0 0 1 0-13.5Z"/></g><defs><clipPath id="a"><path fill="#fff" d="M0 0h108v89H0z"/></clipPath></defs></svg>