<svg xmlns="http://www.w3.org/2000/svg" viewBox="0 0 213 49"><path d="M0 0v49l7.403-1.578 43.3-7.477-7.482-36.062zm8.658 47.002c-.193.022-.312-.029-.261-.182.056-.165.255-.37-.233-.312-.006 0-.051-.074-.046-.08.142-.085.148-.26.341-.3.142-.03.028.09.068.102.33.107.023.272.08.403.215-.052.29-.216.448-.318.16.374 0 .641-.397.687m2.924-1.113c-.137.09-.273-.023-.46.023.13-.17.278-.165.437-.114.023.006.04.074.023.085zm4.167-1.573c-.103-.017-.21-.068-.176-.13.062-.108.215-.136.374-.136.08 0 .176 0 .154.079-.046.125-.227.13-.352.187m1.311-.823c-.051.034-.113.068-.187.114 0-.074-.034-.165.005-.2.102-.073.244-.124.375-.175 0 0 .063.045.068.068.034.148-.17.13-.261.193m2.504-1.408c-.17.17-.296.37-.596.488-.165-.323.21-.482.369-.698.034-.045.153-.051.21-.011.085.062.08.164.022.221zm23.56-37.793c-.324.085-.54.307-.931.33-.3.01-.505.25-.817.3-.023 0-.125.012-.057.046.136.068.181.153.05.21-.079.034-.226-.04-.306-.114-.125-.12-.096.017-.113.04a1 1 0 0 0-.142.25c-.063.17-.142.346-.443.318-.34-.035-.028-.267-.21-.352-.261.113-.04.278-.051.431-.006.114.108.312-.097.318-.198 0-.51-.017-.556-.261-.017-.068.057-.17-.108-.193-.148-.017-.238.062-.3.136-.08.097.09.125.141.182.046.045.136.062.182.102.147.125.136.29.017.403-.205.193-.21-.068-.312-.102-.222-.08-.38-.176-.494.113-.097.256-.347.472-.523.716-.05.062-.068.09-.198.08-.812-.086-.988.135-1.164.533-.307-.193-.318-.188-.483.08-.011.016-.045.022-.074.028-.686.13-.862.715-1.515.902-.33.097-.403.489-.886.534 0-.176-.102-.3-.33-.397-.266-.114-.175-.301-.09-.489.034-.068.187-.21-.034-.25-.233-.05-.17.142-.187.205-.091.261-.143.522-.534.658.142.131.335.035.482.12-.153.164-.408.193-.635.26-.131.04-.358.046-.17.273.164.199-.04.454-.194.665-.05.068-.17.124-.221-.017-.12-.33-.296-.103-.364 0-.125.187-.272.187-.539.187-.272 0-.102-.114-.136-.16-.284.307-.5.67-1.13.688-.13 0-.244.096-.33-.051-.01-.017-.152-.034-.164-.017-.181.244-.675.119-.846.425-.153.273-.59.387-.954.511-.295.097-.113-.124-.215-.175-.392.278-.648.686-1.175.851-.59.187-1.13.42-1.641.704-.091.051-.193.114-.38 0-.154-.097-.398.08-.511.239-.284.374-.693.647-1.255.794-.114.029-.244.023-.415.04.392.142.194.324.08.488-.256.358-.812.568-.869 1.016 0 .018-.034.046-.05.052-.245.056-.722-.017-.45.346.143.193 0 .414.228.573-.153.114-.346.012-.602.137.687-.091.766.119.721.493-.028.222.403.17.613.256.074.034.244-.04.284.051.04.09-.085.125-.193.165-.125.04-.221.142-.136.215.102.091.227.069.386-.034.204-.136.482-.312.755-.017.062.069.238.12.113.205-.136.09-.198-.057-.29-.108-.045-.029-.062-.074-.096-.114-.119.125-.232.279-.454.313-.284.045-.136.198-.153.3-.023.148.153.103.267.114.437.057.874.13 1.311 0v.006h.011c.154-.12.335-.04.511-.04-.164.04-.323.113-.51.04h-.006c-.006.113.05.198.21.244.17.05.255-.046.295-.114.148-.215.625-.159.687-.46.011-.05.278-.04.431.012.131.05.267.147.426.074.102-.046.176-.046.239.017.102.096-.199.073-.091.17.369-.046.76-.108.846.278.187.028.403-.454.534.04-.114.074-.233.142-.341.216-.108.079-.17.13-.284-.012-.125-.153-.267 0-.397.034-.188.04-.352.199-.568.04-.16-.017-.301 0-.437.13h.562c.085 0 .215-.034.227.069 0 .09-.114.119-.227.142-.16.04-.312-.165-.471.022.25.17.652.16.857.38.164-.119.176-.272.244-.408.04-.074.045-.193.204-.193.046 0 .12.045.13.085.035.09.08.182-.096.261-.176.085-.335.216-.193.398.012.017.029.215.16.017.05-.074.266-.483.59-.102.267-.165.516.062.783.022.12-.022.176-.034.21-.136.097-.261.506-.29.727-.471.051-.04.278-.034.352.011.12.08-.102.136-.114.221.25.08.347-.079.454-.17.341-.29.352-.29.71.034.017-.074.006-.142.04-.198.045-.08.182-.074.238-.046.16.074-.08.057-.068.12.023.09-.028.25.029.277.159.063.357.154.533-.017a.5.5 0 0 1 .426-.147c.017 0 .04.062.034.09-.028.16-.227.177-.375.216a1 1 0 0 0-.323.12c.176.09.318-.029.477-.034.108 0 .221-.012.227.108.011.113-.046.187-.21.158-.557-.085-1.033.114-1.561.25.374.13.93.216 1.05.017.187-.295.437-.204.624-.17.205.034.352.017.528-.023.063-.017.364.051.432.063.13.017.187.05.062.113-.221.12-.062.182.023.29.187.244.397.346.783.227a.67.67 0 0 1 .41.023c.277.125.47.04.663-.091-.028-.012-.05-.023-.08-.029-.17-.05-.255-.147-.255-.278 0-.011.131-.04.2-.04.238.006.249.137.243.262.284-.08.562-.165.88-.131.12.011.278-.011.29.108.005.074-.046.17-.227.176-.097 0-.188.068-.29.102.494.324 1.13.233 1.42-.176.073-.108.158-.267.374-.221.108.022.278.119.25.221-.04.159-.227 0-.409.08.38.09.38.403.721.522.17.062.301.113.466.045.136-.056.221-.017.335.04.357.193.363.187.726-.04.023-.011.08-.022.08-.022.221.278.534.045.8.085-.278.233.165.46.017.687-.05.08-.176.056-.238.011a1.3 1.3 0 0 0-.386-.159c.062.17.13.324.176.488a.31.31 0 0 0 .284.239c.147.017.176-.108.227-.188.09-.13.176-.26.238-.403.046-.102.114-.164.267-.147.165.017.125.125.102.187-.08.3-.045.619-.26.908-.097.125.056.193.192.256.437.199.863.403 1.124.744.136.176.318.346.08.55.142.085-.307.432.272.324.108-.017.097.074.102.125.154 1.186-.193 2.293-1.016 3.32-.352.438-.727.858-1.096 1.284-.056.068-.05.148-.255.114-.318-.052-.54.198-.608.437-.073.272-.05.619-.675.641-.324.012-.267.284-.37.471.069-.193-.42-.357-.039-.573.097-.057-.034-.193-.09-.278-.03-.046-.091-.057-.154-.023-.13.063-.114.153-.114.244.006.835-.556 1.43-1.481 1.862-.034.017-.097.029-.102.057-.245.505-.37.04-.562-.028-.347.278-.324.715-.676 1.005-.176.147-.346.3-.642.119-.221-.13-.346.011-.454.113-.522.511-1.067 1.01-1.8 1.363-.357.176-.658.5-1.214.346-.131-.034-.148.091-.108.142.227.261-.034.324-.284.392-1.062.29-2.004.738-2.975 1.147-.244.108-.227.283-.324.425-.255.364-.278.375-.647.097-.3.3-.164.744-.613.993-.051-.13-.142-.141-.29-.073-.153.073-.3.017-.43-.04-.217-.097-.046-.17.039-.25q-.442-.023-.477.239c-.193.05-.159-.182-.335-.137-.034.012-.08.086-.062.114.079.176.238.284.51.29-.096.033-.193.073-.295.09-.414.04-.817 0-.92.477-.102.483-.766.721-1.237 1.016-.409.261-.852.483-1.204.79-.176.153-.493.22-.749.312-.187.068-.193-.057-.153-.12a.73.73 0 0 1 .25-.278c.278-.17.42-.403.613-.664-.228.023-.523-.113-.42.205.045.136-.023.21-.245.204-.278 0-.46.113-.47.33-.006.147-.205.164-.273.141-.37-.12-.324.045-.33.216 0 .17-.142.261-.369.284v.272c-.005.085-.011.17-.187.102a1.13 1.13 0 0 0-.642-.022c-.215.056-.55.062-.579.306-.01.142-.204.216-.238.153-.165-.272-.466.04-.636-.107-.017-.012-.057-.012-.085-.012-.017.37-.891.386-.664.869.04.085-.108.199-.233.12-.199-.12-.358-.052-.522.044-.068-.204.352-.255.17-.47-.25.102-.38.425-.79.283-.016 0-.073.034-.067.04.3.426-.54.272-.528.55 0 .018-.068.035-.102.052-.216-.244-.324.096-.426.056-.37-.141-.29.154-.273.182.074.148-.13.239-.176.222-.562-.142-.55.232-.738.42-.023.022-.068.04-.136.074a9 9 0 0 0-.045-.494c-.245.158-.614.21-.358.522.062.074.023.193-.114.238-.215.069-.204-.136-.335-.17-.034.011-.056.017-.08.028-.21.154.359.29.012.449-.193.09-.477.13-.442.375 0 0-.018.01-.035.017-.181.062-.363-.142-.562.011-.113.09-.891.409-1.135.324.148-.137.829-.506.727-.682-.034-.056-.057-.17.113-.187.125-.011.256-.023.256.12 0 .056-.006.17.119.118.08-.028.233-.034.227-.198-.006-.21 0-.432.034-.648 0-.028.034-.056.062-.107.16.073.131.147.063.232-.074.097-.045.188.085.233.159.057.187-.057.267-.125.272-.238-.063-.386-.148-.584-.278.176-.647.283-.8.584-.267-.176-.216-.38-.16-.568.069-.232.307-.198.552-.141.397.085.806-.142.613-.324-.335-.33.159-.3.221-.448.17.056-.006.244.193.238.114 0 .284-.04.278-.182 0-.028.04-.062.057-.09.057-.126.216-.21.34-.17.177.05-.005.17-.022.306.182-.068.346-.193.534-.097.187.091.21-.017.255-.096.12-.176.216-.358.33-.54-.16.006-.296 0-.268-.164.023-.142.143-.188.324-.17.216.016.204.084-.04.34.188.09.029.216.057.335h.409c.159 0 .278-.028.08-.142-.086-.051 0-.074.016-.102.318-.392.318-.398-.34-.432.352-.136.675-.244.789-.51.034-.074.199-.086.238-.04.182.221.324.045.472-.017.05-.023.153-.057.102-.125-.04-.063-.108-.04-.188-.034-.221.017-.221 0-.153-.165.08-.199-.153-.074-.227-.114.04-.21.437-.22.449-.482.005-.114.42-.062.635-.09.216-.03-.045.124.012.192q.092.094.176.188c-.136 0-.222-.057-.335-.114-.312-.153-.193.204-.409.221-.08.006-.08.108.006.125.17.04.363.091.528.063.181-.023.244-.16.21-.296h.005c.21-.062.472.057.659-.119.045-.045.187.068.238.13.091.109.16.222.38.268.143-.347-.425-.693.03-1.028.198-.051.022.261.26.17.102-.04.233-.096.205-.204-.023-.085-.136-.136-.256-.114-.272.052-.414-.102-.59-.198-.091-.04-.108-.125-.046-.182.069-.062.165-.051.239.011.386.307.88.142 1.323.142.29 0 .295-.278.352-.431.073-.199-.25-.142-.415-.216-.028.199-.023.403-.176.568-.193-.233-.045-.625.278-.727.068-.022.17-.028.205-.068.488-.545 1.396-.522 2.066-.817.148-.069.244-.091.102-.21.21-.097.245-.37.63-.296.188.04.415.034.455-.187.034-.17.238-.187.403-.13.238.079.3.016.346-.142.12-.42.511-.693.994-.898.147-.068.26-.09.17-.25-.085-.153.08-.294.153-.442.023-.051.108-.091.13-.068.268.25.614-.046.886.08.063.033.108.016.165 0 .42-.131.886-.16 1.045-.608.153-.403.443-.806 1.124-.954.363-.08.33-.42.386-.647.034-.148.04-.199.255-.222.358-.028.455-.193.279-.42-.233-.306-.176-.425.266-.533.256-.063.534-.097.8-.142.075-.012.188.017.205-.046.08-.25.335-.147.54-.159.181-.011.386.057.46-.17.04-.114.244-.244.306.045.028.131.227.034.346.057.057.011.142 0 .137-.062-.012-.091-.08-.148-.216-.125-.051 0-.12.062-.125-.023 0-.028.04-.074.068-.08.42-.05.573-.34.863-.505.09-.045.176-.13.284-.08.12.063-.085.097-.063.154.034.08.046.199.182.216.142.011.136-.091.165-.165.176-.465.426-.925.198-1.42-.045-.101.023-.175.125-.238.137-.079.284-.159.46-.136.42.046.267-.346.505-.369.2-.017.426.267.653-.034-.147-.011-.272-.017-.397-.028.096-.511.886-.585 1.141-1.01-.028.141-.085.266.102.363.063.034.074.142.193.079.08-.045.273-.102.13-.204-.6-.437-.022-.699.29-.977a6 6 0 0 0 1.283-1.595c.239-.437.142-.63-.528-1-.5-.277-1.107-.442-1.623-.692-1.107-.545-2.402-.613-3.622-.857a119 119 0 0 1-5.19-1.153c-.243-.062-.522-.04-.726-.221-.12-.102-.323.017-.448.09-.182.109-.426.148-.54.035-.227-.216-.477-.182-.772-.16-.323.03-.596-.096-.88-.18-.54-.16-1.09-.313-1.64-.432-.42-.091-.66-.324-.954-.523-.284-.187-.483-.46-.903-.516-.136-.017-.108-.085-.13-.148-.086-.295-.165-.596-.744-.477-.034 0-.085-.028-.12-.045-.034-.023-.045-.057-.085-.102.165-.091.364-.017.557-.074-.21-.182-.398-.358-.602-.528-.114-.09-.21-.108-.142.062.023.052-.051.08-.12.074-.255-.034-.385-.193-.51-.33-.046-.05-.29-.158.028-.266.188-.062 0-.284 0-.42 0-.29-.04-.625-.414-.835-.057.137.159.245.034.432-.261-.409-.704-.733-.574-1.238.16.153.352.278.438.437.056.108-.137.273.102.37.011-.245.193-.057.26-.04.114.028.205.056.302 0 .147-.091-.046-.125-.063-.188-.085-.278-.159-.562-.238-.834-.114-.074-.176.011-.25.034-.182.062-.346.12-.261-.12.074-.198-.176-.295-.278-.43-.16-.205-.25-.37.17-.415.267-.029.159-.165.17-.261.08-.71.574-1.221 1.272-1.704.199-.136.545-.215.647-.476.091-.245-.017-.29-.34-.284.658-.199.965-.58 1.266-.988.147-.193.295-.477.8-.386.318.056.744-.295.795-.562.011-.057.034-.091.102-.085.148.022.363-.091.437.085.046.119.097.096.165.034.102-.102-.085-.358.335-.295.233.034.159-.273.414-.262q.097.33.727.284c-.057-.102-.216-.017-.29-.09-.034-.131.165-.108.233-.176.097-.108.364-.17.029-.324-.193-.085-.074-.199.08-.295 1.038-.642 2.31-.92 3.559-1.227.982-.244 1.902-.562 2.566-1.158.33-.295.727-.034 1.061-.147.188-.069.415-.034.477-.245.04-.136.25-.119.403-.107.256.022.42-.069.41-.233-.018-.29.255-.278.499-.324.34-.057.727-.068.755-.426.011-.079.13-.107.25-.13.255-.04.528-.074.743-.165.517-.221 1.079-.244 1.652-.244.154 0 .352.034.42-.09.154-.302.415-.137.58-.057.255.119.448.022.465-.097.034-.25.239-.312.488-.375a4.6 4.6 0 0 0 1.04-.408c.46-.25 1.078-.301 1.64-.404.46-.079 1.073-.244 1.391-.102.642.284 1.198.233 1.822.097.085-.023.142.034.137.102 0 .062.028.13-.097.159zm-4.91 17.15c-.273.12-.432.216-.62.097-.034-.017-.005-.119.035-.153.193-.159.3.04.584.057m-.994.063v-.437c.062.16.176.244 0 .437m-1.68-.613c-.131-.006-.182-.062-.216-.125-.051-.09-.16-.17-.046-.278.08-.074.188-.074.295-.062.017 0 .137.01.057.04-.312.113.13.312-.085.425zm.703-.25c-.278.125-.386.046-.607 0zm-2.543-.159-.062.069c-.432-.182-.597.096-.858.238-.17.09-.38.09-.568-.068.347-.006.5-.16.557-.37.034-.136.148-.26.29-.192.351.164.755.09 1.14.159-.09.147-.187.096-.289.073-.114-.028-.29-.113-.204.091zm-1.578-.442c-.006-.04 0-.108.085-.091.153.028.244.113.312.29-.199-.069-.369-.046-.397-.2m-.29-.284c-.045.142-.199.142-.426.221.12-.193.233-.227.426-.221m-4.985-.648h.08c.153 0 .312-.017.369.131 0 .017-.045.046-.068.068-.114-.08-.392.012-.38-.193h-.012.012-.006.011zm.75.506c-.199.153-.352.153-.574 0zm-3.997-.948c-.147.08-.25-.023-.369-.08.142.023.256-.159.403-.04.023.017 0 .103-.028.12zm-7.465-.318c-.148-.012-.21-.085-.21-.193 0-.063-.018-.136.119-.142.113.074.335.062.33.21 0 .085-.114.136-.24.125m.045 22.635c.125 0 .233.17.204.267-.062.204-.295.011-.448.085.13-.114-.017-.335.244-.347zm.318-.71c0-.102.113-.17.255-.142.17.034.341.08.46.182-.108.113-.096.244-.267.284-.068-.17-.442-.114-.442-.318zm5.388-2.895c.21-.148.42-.284.71-.483-.097.295-.29.454-.45.63-.073.085-.204.176-.346.085-.113-.079-.01-.17.08-.232zm8.135-5.547c-.04.244-.148.454-.397.721-.108-.38.176-.545.397-.72m1.522-.869c.238.154.204.239.13.341-.221-.068-.08-.176-.13-.34"/><path d="M20.154 38.406c.21-.142.415-.278.71-.482-.102.295-.29.454-.443.624-.08.085-.199.182-.346.085-.114-.08-.017-.164.08-.227M14.676 42.261c-.062.199-.3.017-.443.085.131-.113-.017-.335.239-.352.12 0 .238.17.21.267zM15.046 41.143c.164.034.335.085.454.187-.102.108-.091.239-.267.278-.062-.17-.437-.113-.437-.318 0-.108.113-.17.25-.153zM28.25 32.888c-.046.244-.154.454-.398.715-.108-.38.182-.545.398-.715M29.903 32.36c-.222-.062-.08-.17-.136-.335.238.153.21.239.136.335M66.464 21.221q-1.193-.56-1.857-1.606-.665-1.04-.681-2.447h2.867q.04 1.003.653 1.556.612.552 1.737.55c.75 0 1.272-.142 1.652-.42s.573-.664.573-1.141q.001-.579-.363-.954a2.7 2.7 0 0 0-.891-.602 19 19 0 0 0-1.516-.55c-.92-.307-1.67-.608-2.248-.892q-.861-.434-1.482-1.294-.62-.86-.619-2.265c0-.733.204-1.403.613-1.999s.982-1.056 1.726-1.39c.744-.336 1.578-.5 2.515-.5.857 0 1.652.17 2.396.51q1.115.513 1.794 1.494.68.98.704 2.328H71.17q-.042-.8-.55-1.312-.512-.51-1.517-.51c-.601 0-1.073.13-1.425.39a1.26 1.26 0 0 0-.522 1.057c0 .375.114.687.352.942q.35.384.903.613c.369.154.863.33 1.493.534.925.307 1.675.607 2.254.891.579.29 1.078.721 1.493 1.306q.62.871.619 2.294c0 .732-.21 1.408-.62 2.015q-.622.913-1.765 1.442c-.76.352-1.652.534-2.668.534s-1.964-.187-2.76-.562zM85.573 13.024V7.51h2.81v14.04h-2.81v-5.916h-5.916v5.916h-2.81V7.51h2.81v5.513zM96.075 12.961l2.81-5.456h3.129l-4.57 8.363v5.677h-2.805v-5.677l-4.553-8.363h3.19l2.805 5.456zM117.439 7.505l1.925 14.04h-2.827l-1.125-8.521-3.769 8.521h-1.465l-3.792-8.561-1.124 8.561h-2.805l1.925-14.04h2.327l4.23 9.584 4.212-9.584zM131.343 15.312c.432.59.653 1.283.653 2.083q.001 1.866-1.334 3.009c-.891.76-2.175 1.141-3.861 1.141h-4.791V7.505h4.473q2.308-.001 3.611 1.01 1.305 1.015 1.306 2.737 0 .905-.511 1.647a3.3 3.3 0 0 1-1.312 1.124c.75.267 1.34.698 1.777 1.283zm-6.529-5.4v3.31h1.647q1.003 0 1.555-.46c.369-.306.551-.71.551-1.203s-.182-.874-.551-1.181q-.552-.46-1.555-.46h-1.647zm2.044 9.226q1.08-.002 1.675-.522c.397-.347.59-.778.59-1.283 0-.506-.198-.954-.59-1.295s-.954-.51-1.675-.51h-2.044v3.61zM136.975 21.074a4.9 4.9 0 0 1-1.987-2.004c-.46-.863-.693-1.845-.693-2.958V7.511h2.804v8.442c0 .96.25 1.743.75 2.339.499.596 1.215.891 2.134.891.92 0 1.653-.295 2.158-.891q.749-.893.749-2.339V7.511h2.805v8.601c0 1.113-.233 2.095-.704 2.958a4.9 4.9 0 0 1-1.999 2.004c-.863.477-1.867.71-3.02.71q-1.727-.002-3.02-.71zM157.02 21.545h-8.101V7.505h2.81v11.429h5.291v2.611M171.917 21.545h-3.009l-1.061-2.93h-5.615l-1.062 2.93h-2.969l5.473-14.04h2.77zm-4.933-5.535-1.925-5.195-1.924 5.195zM179.235 14.267l5.995 7.278h-3.548l-5.211-6.438v6.438h-2.805V7.505h2.805v6.2l4.973-6.2h3.327l-5.536 6.756zM78.362 25.843l1.704 14.04h-1.607l-1.204-10.35-4.61 10.35h-.8l-4.65-10.407-1.203 10.406h-1.567l1.703-14.04h1.124l5.013 11.253 5.013-11.252zM84.597 39.411a5 5 0 0 1-1.862-1.845 5.03 5.03 0 0 1-.693-2.594c0-.948.233-1.817.693-2.595a5.075 5.075 0 0 1 4.44-2.515 5.09 5.09 0 0 1 4.445 2.515 5.03 5.03 0 0 1 .692 2.595c0 .948-.233 1.816-.692 2.594a5 5 0 0 1-1.868 1.845 5.1 5.1 0 0 1-2.578.67 5.1 5.1 0 0 1-2.577-.67m4.371-1.226a3.7 3.7 0 0 0 1.777-3.219 3.71 3.71 0 0 0-1.777-3.219 3.4 3.4 0 0 0-1.794-.494c-.653 0-1.255.165-1.794.494a3.7 3.7 0 0 0-1.777 3.219 3.71 3.71 0 0 0 1.777 3.219c.54.33 1.141.494 1.794.494s1.255-.165 1.794-.494M96.32 39.53a3.83 3.83 0 0 1-1.504-1.532c-.352-.653-.534-1.397-.534-2.226v-5.717h1.505v5.717q.001 1.286.76 2.095.76.811 2.005.812 1.244-.002 2.004-.812.759-.81.76-2.095v-5.717h1.505v5.717q.001 1.245-.534 2.226a3.8 3.8 0 0 1-1.504 1.532q-.97.553-2.237.551-1.268.002-2.237-.55zM112.233 30.424q.911.569 1.414 1.556c.335.653.499 1.385.499 2.185v5.717h-1.504v-5.717q.001-1.304-.721-2.106c-.483-.533-1.141-.8-1.987-.8q-.8.001-1.465.369c-.443.244-.789.59-1.05 1.033a2.9 2.9 0 0 0-.392 1.504v5.717h-1.505v-9.827h1.505v1.306a4.14 4.14 0 0 1 1.391-1.124 3.9 3.9 0 0 1 1.714-.38q1.184 0 2.095.573zM121.175 31.418h-2.504v5.456q-.001.74.431 1.175c.29.29.682.431 1.176.431h.902v1.402h-.999q-1.347-.001-2.174-.811-.835-.81-.835-2.095v-5.558h-1.607v-1.363h1.607V27.45h1.505v2.606h2.503v1.363zM130.713 30.055h1.504v9.828h-1.504v-1.505a4.5 4.5 0 0 1-1.561 1.243 4.6 4.6 0 0 1-2.044.46 4.93 4.93 0 0 1-2.509-.67 4.96 4.96 0 0 1-1.845-1.845 5.07 5.07 0 0 1-.682-2.594c0-.948.227-1.817.682-2.595a4.96 4.96 0 0 1 1.845-1.845 4.93 4.93 0 0 1 2.509-.67c.732 0 1.419.154 2.044.46.63.307 1.147.721 1.561 1.243v-1.51m-1.68 8.13c.55-.33.982-.772 1.305-1.334a3.7 3.7 0 0 0 .483-1.885q.001-1.04-.483-1.885a3.63 3.63 0 0 0-1.305-1.334 3.46 3.46 0 0 0-1.806-.494q-.979 0-1.805.494c-.551.33-.982.772-1.306 1.334a3.7 3.7 0 0 0-.483 1.885q-.001 1.04.483 1.885a3.6 3.6 0 0 0 1.306 1.334 3.44 3.44 0 0 0 1.805.494c.659 0 1.255-.165 1.806-.494M136.629 28.17h-1.743v-1.845h1.743zm-.125 11.712h-1.505v-9.827h1.505zM145.995 30.424q.912.569 1.414 1.556.501.986.5 2.185v5.717h-1.505v-5.717q.002-1.304-.721-2.106c-.482-.533-1.141-.8-1.987-.8q-.8.001-1.465.369c-.442.25-.794.59-1.055 1.033a2.9 2.9 0 0 0-.392 1.504v5.717h-1.505v-9.827h1.505v1.306a4.1 4.1 0 0 1 1.391-1.124 3.9 3.9 0 0 1 1.714-.38q1.184 0 2.095.573zM165.059 39.882l-4.973-6.017h-1.646v6.017h-1.607v-14.04h4.11c.897 0 1.686.177 2.379.523a3.95 3.95 0 0 1 1.607 1.436c.386.613.573 1.295.573 2.055q0 1.506-.954 2.578t-2.554 1.351l5.075 6.097h-2.01m-6.619-12.535v5.013h2.503q1.321 0 2.107-.681.783-.681.783-1.823 0-1.14-.783-1.822-.786-.681-2.107-.681h-2.503zM174.994 30.464a4.46 4.46 0 0 1 1.755 1.726q.64 1.116.641 2.538c0 .323-.011.567-.04.743h-8.163c.096.977.437 1.755 1.033 2.34q.894.875 2.316.874c1.391 0 2.39-.568 3.009-1.704h1.607q-.606 1.506-1.783 2.305-1.183.8-2.827.8c-.925 0-1.76-.22-2.515-.67a4.83 4.83 0 0 1-1.777-1.833q-.64-1.166-.642-2.606c0-.96.216-1.833.642-2.606a4.76 4.76 0 0 1 1.777-1.833q1.134-.672 2.515-.67c.92 0 1.714.204 2.458.613zm-4.649 1.556c-.579.505-.948 1.203-1.096 2.083h6.557q-.138-1.284-1.05-2.067-.91-.783-2.214-.783c-.869 0-1.612.256-2.197.76zM180.797 39.678q-.87-.402-1.374-1.101a2.88 2.88 0 0 1-.539-1.607h1.504c.04.505.273.92.704 1.232.426.312 1.005.471 1.726.471q.904.001 1.493-.38c.392-.256.591-.613.591-1.084 0-.364-.108-.653-.324-.875a2 2 0 0 0-.795-.494 16 16 0 0 0-1.334-.363q-1.08-.239-1.726-.494a2.64 2.64 0 0 1-1.101-.812c-.307-.374-.46-.885-.46-1.521 0-.523.159-.994.483-1.425a3.2 3.2 0 0 1 1.294-1.01 4.2 4.2 0 0 1 1.777-.37c.647 0 1.209.137 1.737.403q.793.401 1.272 1.085c.318.454.488.965.499 1.521h-1.504q-.041-.68-.619-1.141-.579-.46-1.465-.46c-.533 0-.987.125-1.351.38q-.552.384-.55 1.022c0 .324.102.58.312.784q.308.298.761.46.452.16 1.271.363 1.082.239 1.755.511.673.273 1.152.852.485.579.483 1.584.001 1.286-1.062 2.077t-2.629.79q-1.099-.002-1.975-.404zM190.618 39.411a5 5 0 0 1-1.862-1.845 5.03 5.03 0 0 1-.693-2.594c0-.948.233-1.817.693-2.595a5.077 5.077 0 0 1 4.44-2.515 5.09 5.09 0 0 1 4.445 2.515q.691 1.174.693 2.595c0 .948-.233 1.816-.693 2.594a5 5 0 0 1-1.868 1.845 5.1 5.1 0 0 1-2.577.67 5.1 5.1 0 0 1-2.578-.67m4.372-1.226a3.7 3.7 0 0 0 1.777-3.219 3.71 3.71 0 0 0-1.777-3.219 3.4 3.4 0 0 0-1.794-.494c-.653 0-1.255.165-1.794.494a3.69 3.69 0 0 0-1.777 3.219q-.001 1.04.482 1.885.477.842 1.295 1.334c.539.33 1.141.494 1.794.494s1.254-.165 1.794-.494M205.885 29.953v1.402h-1.005q-.8.001-1.465.37c-.443.25-.795.59-1.056 1.033a2.9 2.9 0 0 0-.392 1.504v5.615h-1.504V30.05h1.504v1.402a4.1 4.1 0 0 1 1.391-1.124 3.9 3.9 0 0 1 1.715-.38h.8zM212.612 31.418h-2.504v5.456q-.001.74.432 1.175c.289.29.675.431 1.175.431h.903v1.402h-1.005q-1.347-.001-2.175-.811-.834-.81-.834-2.095v-5.558h-1.607v-1.363h1.607V27.45h1.504v2.606h2.504z"/></svg>