<svg xmlns="http://www.w3.org/2000/svg" width="212" height="73" fill="none"><g clip-path="url(#a)"><mask id="b" width="41" height="73" x="0" y="0" maskUnits="userSpaceOnUse" style="mask-type:luminance"><path fill="#fff" d="M31.1.12C11.92 2.128.972 16.61.06 29.252v3.364c.612 8.267 5.975 15.086 16.551 15.991-2.988-2.428-7.469-5.34-8.843-9.775a12.045 12.045 0 0 1 .14-7.219 11.925 11.925 0 0 1 4.237-5.815l2.987 3.258 5.482-8.644 1.494 2.188c.326.633.62 1.282.882 1.945 7.603 17.168 13.205 15.177 10.8 31.273a6.068 6.068 0 0 1-.329-.739c-2.076-4.858-2.54-7.754-7.155-10.937 1.807 6.773 3.988 11.088 0 17.982a27.405 27.405 0 0 1-5.348 5.914c-.986.754-2.002 1.222-3.39 2.248l-2.87 2.624c18.076.785 30.564-14.225 23.14-32.012-2.988-7.135-8.23-9.61-10.755-18.555a22.507 22.507 0 0 1 .328-13.577 14.18 14.18 0 0 1 2.734-4.692L33.132.06l-2.031.06Z"/></mask><g mask="url(#b)"><path fill="#fff" d="M14.67 72.955c18.074.784 30.562-14.226 23.138-32.012-2.987-7.136-8.23-9.61-10.755-18.556A22.507 22.507 0 0 1 27.38 8.81a14.181 14.181 0 0 1 2.734-4.692L33.222-.06C-2.495 1.9-11.592 46.223 16.612 48.59c-2.988-2.429-7.47-5.34-8.844-9.775a12.046 12.046 0 0 1 .14-7.219 11.925 11.925 0 0 1 4.237-5.815l2.987 3.273 5.482-8.66 1.494 2.188c.389.71.523 1.147.882 1.946 7.603 17.168 13.205 15.177 10.8 31.273a6.061 6.061 0 0 1-.329-.739c-2.076-4.858-2.54-7.754-7.155-10.937 1.807 6.773 3.988 11.088 0 17.982a27.404 27.404 0 0 1-5.348 5.914c-.986.77-2.002 1.222-3.39 2.247l-2.899 2.686Z"/></g><path fill="#fff" d="M193.536 39.706c2.57.09 4.482-.996 4.796-3.62.687-4.768.194-1.057-.732-2.535-4.332-1.675-6.409 2.55-4.064 6.155ZM60.35 41.275c-4.975 1.629-6.26.12-10.129-1.433l.09 3.937c11.846 3.364 26.515-5.567 11.95-13.804-3.167-1.78-4.884-3.017-4.332-5.612.27-1.372.598-1.402 2.047-1.402 4.481 0 6.304 5.159 7.334-2.067-5.975-.573-16.252-.166-16.431 6.743-.24 7.815 11.278 4.722 10.68 11.918-.104 1.222 0 1.373-1.09 1.72"/><path fill="#fff" d="M201.215 40.113c-2.376.12-3.556-3.41-1.046-6.23 2.51-2.821 5.706-.287 5.706-.287s-.552 6.306-4.66 6.517Zm-24.558 0c-2.361.332-3.84-3.108-1.599-6.155 2.241-3.047 5.617-.8 5.617-.8s-.463 6.442-4.018 6.955Zm-24.663-.09c-2.375 0-3.705-2.49-1.822-5.824a4.012 4.012 0 0 1 2.436-1.914 3.967 3.967 0 0 1 3.061.406s.358 7.452-3.675 7.392m-48.982.105c-2.36.287-3.585-3.394-1.254-6.366 2.33-2.972 5.497-.452 5.497-.452s-.777 6.411-4.243 6.819Zm108.883-10.695s-7.962-.362-12.622 1.93c-4.661 2.294-7.185 4.677-7.469 8.81 0 0-4.123 1.238-5.199-1.613-1.075-2.852 1.21-9.052 1.21-9.052a2.796 2.796 0 0 0-2.987.634s-14.132-3.018-17.926 9.67c0 0-5.109 3.017-5.572-3.862-.463-6.88 2.032-19.16 2.032-23.489 0 0-5.527 0-7.693 1.6 0 0 .597 11.193.224 15.794 0 0-12.205.15-14.042 10.198 0 0-3.182 1.509-4.153-4.103-.971-5.612-1.882-6.035-1.882-6.035a7.563 7.563 0 0 0-3.24.499 7.626 7.626 0 0 0-2.735 1.825c-2.629 2.73-4.646 4.525-4.646 4.525s.179-19.113 2.45-24.001c0 0-5.706-.211-8.44 1.312l-.09 25.646s-4.6 2.323-5.975-1.72a11.71 11.71 0 0 1 .971-8.327s-.896-1.056-2.987.483c0 0-5.722-1.086-9.889.86a12.09 12.09 0 0 0-4.391 2.968 12.243 12.243 0 0 0-2.72 4.575c-.881 2.881.702 6.034 4.183 5.566a15.148 15.148 0 0 0 7.977-3.877 3.98 3.98 0 0 0 1.369 2.863 3.93 3.93 0 0 0 3.008.939 16.497 16.497 0 0 0 8.544-2.7s-.09 1.327-.134 1.885c-.045.558.164 1.509 2.046.679a9.973 9.973 0 0 0 4.332-4.103c1.494-2.158 4.198-5.612 5.363-3.59a14.653 14.653 0 0 1 1.344 5.762 2.063 2.063 0 0 0 .672 1.623 2.01 2.01 0 0 0 1.674.489 13.714 13.714 0 0 0 8.051-2.715s2.988 6.728 12.951-1.026c0 0 .254-.408.254.407-.067.487-.015.983.151 1.445.166.463.442.877.802 1.207a2.96 2.96 0 0 0 2.707.697 28.82 28.82 0 0 0 7.902-2.58 4.658 4.658 0 0 0 1.987 2.066c.861.46 1.844.635 2.808.499 3.481-.422 7.753-3.786 7.753-3.786s0 4.314 4.885 3.831a16.621 16.621 0 0 0 7.574-2.444 5.064 5.064 0 0 0 2.327 2.131 5.004 5.004 0 0 0 3.125.328c3.794-.694 7.902-4.857 7.902-4.857s-.134 14.105-.134 14.422a4.192 4.192 0 0 1-1.546 2.665 4.11 4.11 0 0 1-2.936.865c-3.57-.287-5.975-3.44-5.781-5.612.194-2.172 4.004-5.054 4.004-5.054a15.87 15.87 0 0 0-9.262 4.737c-3.914 4.24 2.883 8.599 9.426 8.101 6.543-.498 10.053-4.148 11.308-7.89 1.673-4.903 1.09-22.07 1.09-22.07"/><path fill="#fff" d="M94.05 39.117v2.248a13.576 13.576 0 0 1-7.559 2.384 1.997 1.997 0 0 1-1.673-.49 2.037 2.037 0 0 1-.672-1.622 14.661 14.661 0 0 0-1.345-5.763c-1.165-2.022-3.854 1.433-5.362 3.59a9.854 9.854 0 0 1-4.332 4.089c-1.031.467-1.494.392-1.823.135v-29.87c2.734-1.508 8.44-1.297 8.44-1.297-2.27 4.888-2.45 24.002-2.45 24.002s2.017-1.84 4.646-4.526a7.553 7.553 0 0 1 2.734-1.824 7.492 7.492 0 0 1 3.241-.484s.926.422 1.897 6.034 4.153 4.103 4.153 4.103c0-.241.09-.452.135-.678"/></g><defs><clipPath id="a"><path fill="#fff" d="M0 0h212v73H0z"/></clipPath></defs></svg>