<svg width="626" height="95" viewBox="0 0 626 95" fill="none" xmlns="http://www.w3.org/2000/svg">
<path d="M220.355 28.0289C206.855 28.0289 195.875 39.0089 195.875 52.5089C195.875 66.0089 206.855 76.9889 220.355 76.9889C233.855 76.9889 244.835 66.0089 244.835 52.5089C244.835 39.0089 233.855 28.0289 220.355 28.0289ZM230.085 62.8389C227.495 65.5289 224.245 66.8789 220.345 66.8789C216.445 66.8789 213.145 65.5289 210.575 62.8389C208.005 60.1489 206.715 56.6989 206.715 52.5089C206.715 48.3189 208.005 44.8689 210.575 42.1789C213.145 39.4889 216.405 38.1389 220.345 38.1389C224.285 38.1389 227.495 39.4989 230.085 42.2089C232.675 44.9289 233.975 48.3589 233.975 52.5089C233.975 56.6589 232.675 60.1489 230.085 62.8389ZM270.755 48.6789L265.415 46.4789C263.395 45.6189 262.165 44.9389 261.395 44.2589C261.059 43.9674 260.791 43.606 260.61 43.2001C260.428 42.7941 260.338 42.3534 260.345 41.9089C260.32 41.4307 260.422 40.9544 260.639 40.5279C260.857 40.1014 261.183 39.7396 261.585 39.4789C262.585 38.7489 263.895 38.3689 265.495 38.3489C268.605 38.3189 271.415 39.8289 273.825 42.8489L274.095 43.1889L281.525 37.5189L281.295 37.1789C279.602 34.5125 277.245 32.3312 274.457 30.8483C271.668 29.3655 268.542 28.6317 265.385 28.7189C260.815 28.7689 256.995 30.0289 254.025 32.4689C251.025 34.9289 249.525 38.1889 249.575 42.1489C249.635 47.8089 253.595 52.3189 261.335 55.5389L266.385 57.6789C268.705 58.6789 269.915 59.3289 270.685 59.9989C271.098 60.3105 271.435 60.7118 271.671 61.1725C271.906 61.6333 272.034 62.1415 272.045 62.6589C272.069 63.2518 271.948 63.8417 271.692 64.3769C271.436 64.9121 271.052 65.3763 270.575 65.7289C269.485 66.5689 267.935 67.0089 265.965 67.0289C262.415 67.0689 258.665 64.7889 255.375 60.6089L255.105 60.2689L247.295 66.1289L247.505 66.4689C249.382 69.5746 252.045 72.1305 255.225 73.8789C258.464 75.6355 262.1 76.534 265.785 76.4889H266.075C270.885 76.4389 274.615 75.1789 277.815 72.5189C280.955 69.9189 282.515 66.4689 282.475 62.2889C282.532 59.3635 281.47 56.5266 279.505 54.3589C277.465 52.1589 274.605 50.2989 270.765 48.6889L270.755 48.6789ZM613.685 58.3489C618.535 55.5189 621.095 51.0389 621.095 45.3889C621.095 39.4189 618.825 35.0089 614.355 32.2989C610.265 29.8189 605.365 29.4489 602.815 29.4489H586.775V75.5689H597.235V61.3989H602.405C602.855 61.3989 603.365 61.3789 603.905 61.3289L612.785 75.5689H625.435L613.685 58.3489ZM602.555 52.4189H597.225V38.4789H602.555C605.515 38.4789 610.485 39.3789 610.485 45.3789C610.485 50.5689 606.385 52.4189 602.555 52.4189ZM190.265 45.3889C190.265 39.4189 187.995 35.0089 183.525 32.2989C179.435 29.8189 174.535 29.4489 171.985 29.4489H155.945V75.5689H166.405V61.3989H171.575C172.025 61.3989 172.535 61.3789 173.075 61.3289L181.955 75.5689H194.605L182.855 58.3489C187.705 55.5189 190.265 51.0389 190.265 45.3889ZM171.735 52.4189H166.405V38.4789H171.735C174.695 38.4789 179.665 39.3789 179.665 45.3789C179.665 50.5689 175.565 52.4189 171.735 52.4189ZM476.185 56.2989C476.185 59.4789 475.295 62.0489 473.605 63.7389C471.825 65.5189 469.105 66.5789 466.335 66.5789C463.565 66.5789 460.895 65.5189 459.095 63.7389C457.385 62.0489 456.485 59.4789 456.485 56.2989V29.4389H445.995V56.2289C445.995 62.5089 447.765 67.4489 451.245 70.9089C454.745 74.3889 460.245 76.3789 466.345 76.3789C472.445 76.3789 477.885 74.3789 481.405 70.9089C484.905 67.4489 486.685 62.5089 486.685 56.2289V29.4389H476.195V56.2989H476.185ZM304.095 29.4489L283.995 75.6389H295.475L298.015 69.7389H315.945L318.485 75.6389H329.965L309.935 29.4489H304.125H304.095ZM301.325 61.1789L306.965 46.3289L312.605 61.1789H301.325ZM556.125 28.0289C542.625 28.0289 531.645 39.0089 531.645 52.5089C531.645 66.0089 542.625 76.9889 556.125 76.9889C569.625 76.9889 580.605 66.0089 580.605 52.5089C580.605 39.0089 569.625 28.0289 556.125 28.0289ZM565.865 62.8389C563.275 65.5289 560.025 66.8789 556.125 66.8789C552.225 66.8789 548.925 65.5289 546.355 62.8389C543.785 60.1489 542.495 56.6989 542.495 52.5089C542.495 48.3189 543.785 44.8689 546.355 42.1789C548.925 39.4889 552.185 38.1389 556.125 38.1389C560.065 38.1389 563.275 39.4989 565.865 42.2089C568.455 44.9289 569.755 48.3589 569.755 52.5089C569.755 56.6589 568.455 60.1489 565.865 62.8389ZM492.225 38.9389H506.265V75.5689H516.905V38.9389H531.005V29.4389H492.225V38.9389ZM389.865 29.4489H377.105L361.695 49.2089V29.4489H351.205V75.5689H361.695V54.6189L378.175 75.5689H392.435L372.995 51.5489L389.875 29.4489H389.865ZM426.335 47.2289H407.375V29.4489H396.885V75.5689H407.375V56.6489H426.335V75.5689H436.825V29.4489H426.335V47.2289ZM130.535 55.8489L128.335 26.3789C128.238 25.0326 127.77 23.7396 126.983 22.6433C126.195 21.547 125.12 20.6905 123.875 20.1689C122.573 19.593 121.139 19.3836 119.728 19.5634C118.316 19.7432 116.98 20.3052 115.865 21.1889L89.8647 41.7489L86.8347 39.2989L94.2347 32.4689C95.0519 31.7182 95.6904 30.7938 96.103 29.7637C96.5157 28.7336 96.692 27.6241 96.6191 26.5168C96.5462 25.4096 96.2258 24.3327 95.6817 23.3657C95.1375 22.3986 94.3833 21.5659 93.4747 20.9289L65.8647 1.37888C64.8475 0.658661 63.6668 0.203316 62.4293 0.0540088C61.1919 -0.0952988 59.9368 0.0661389 58.7774 0.52373C57.6181 0.98132 56.591 1.72063 55.7892 2.67484C54.9873 3.62904 54.4358 4.76804 54.1847 5.98888L49.7147 28.2589L49.6147 28.2889C48.8347 28.5089 48.1447 28.8089 47.5047 29.2289L45.7047 30.3989L45.8747 29.5889C46.0909 28.5042 46.0635 27.3852 45.7946 26.3124C45.5256 25.2396 45.0218 24.24 44.3196 23.3856C43.6173 22.5312 42.7341 21.8434 41.7337 21.3719C40.7333 20.9003 39.6407 20.6568 38.5347 20.6589L7.51472 20.6389C6.03818 20.6231 4.59076 21.05 3.35912 21.8646C2.12749 22.6791 1.16811 23.844 0.604722 25.2089C0.0221196 26.5518 -0.144462 28.0386 0.126492 29.4771C0.397447 30.9157 1.09349 32.2399 2.12472 33.2789L17.2947 48.8689L10.0747 53.5689C9.02548 54.2514 8.16513 55.1874 7.57312 56.2902C6.98111 57.3931 6.67652 58.6274 6.68748 59.879C6.69844 61.1307 7.0246 62.3594 7.63584 63.4518C8.24708 64.5441 9.12369 65.4648 10.1847 66.1289L53.1147 92.9189C54.3018 93.6696 55.6765 94.0704 57.0811 94.0753C58.4856 94.0803 59.8631 93.6891 61.0554 92.9468C62.2478 92.2044 63.2067 91.141 63.8221 89.8784C64.4375 88.6159 64.6845 87.2054 64.5347 85.8089L61.9947 62.2689L64.8347 59.6489L68.1747 82.8289C68.3524 84.0666 68.8062 85.2485 69.5024 86.2872C70.1986 87.3258 71.1194 88.1946 72.1968 88.8293C73.2741 89.464 74.4804 89.8483 75.7263 89.9539C76.9723 90.0594 78.226 89.8834 79.3947 89.4389L113.205 76.7789C114.399 76.3312 115.474 75.6154 116.348 74.6864C117.222 73.7575 117.871 72.6404 118.245 71.4211C118.619 70.2018 118.708 68.9129 118.505 67.6538C118.302 66.3947 117.813 65.199 117.075 64.1589L116.895 63.9089L122.935 63.8589C123.999 63.8455 125.049 63.6161 126.022 63.1847C126.995 62.7532 127.87 62.1287 128.595 61.3489C129.276 60.6137 129.798 59.7457 130.129 58.7993C130.459 57.8529 130.591 56.8484 130.515 55.8489H130.535ZM89.4247 50.1789L95.5647 54.7489L86.4647 54.7989C86.2573 54.8011 86.0545 54.7374 85.8856 54.617C85.7167 54.4966 85.5903 54.3257 85.5247 54.1289C85.4512 53.9325 85.4427 53.7178 85.5003 53.5162C85.5579 53.3146 85.6786 53.1368 85.8447 53.0089L89.4247 50.1789ZM49.9547 59.6389L53.5247 38.6989L55.1147 57.7489L55.0547 57.7989L53.4147 59.3489L51.9347 60.7389C51.5347 61.0989 50.9747 61.1689 50.5247 60.8989C50.3055 60.7764 50.131 60.5873 50.0267 60.3589C49.9224 60.1305 49.8937 59.8747 49.9447 59.6289L49.9547 59.6389ZM12.6847 29.5589C12.4764 29.347 12.3358 29.078 12.2806 28.786C12.2254 28.494 12.2581 28.1922 12.3747 27.9189C12.4892 27.6402 12.6849 27.4024 12.9364 27.2366C13.1879 27.0707 13.4835 26.9844 13.7847 26.9889L37.9447 27.0089C38.5047 27.0089 39.0047 27.2389 39.2547 27.5289C39.5047 27.8389 39.7047 28.3689 39.5947 28.8989L38.2147 35.2889L25.9547 43.2589L12.6947 29.5689L12.6847 29.5589ZM36.6747 43.6889L35.3547 49.1989C35.296 49.498 35.1556 49.775 34.9491 49.9992C34.7426 50.2233 34.478 50.3859 34.1847 50.4689C33.5947 50.6289 32.9347 50.4689 32.5047 50.0189L30.4447 47.8989L36.6747 43.6789V43.6889ZM56.7547 82.2789C56.1847 82.6389 55.4147 82.6389 54.8347 82.2789L18.0247 59.2489C17.7489 59.0777 17.521 58.8393 17.3623 58.5561C17.2036 58.2729 17.1193 57.954 17.1173 57.6294C17.1153 57.3048 17.1957 56.9849 17.3509 56.6998C17.5061 56.4146 17.731 56.1735 18.0047 55.9989L21.8547 53.4989L27.7947 59.6089C28.7405 60.5953 29.9409 61.3006 31.2629 61.6466C32.585 61.9925 33.977 61.9656 35.2847 61.5689C36.5936 61.2014 37.7748 60.4777 38.6964 59.4783C39.6181 58.4789 40.2442 57.2432 40.5047 55.9089L43.9347 39.1489L48.0747 36.4589L43.0547 61.3689C42.7272 62.914 42.9075 64.5236 43.5688 65.9579C44.2301 67.3922 45.337 68.5746 46.7247 69.3289C48.1031 70.1225 49.7005 70.4509 51.2802 70.2653C52.8599 70.0798 54.3377 69.3903 55.4947 68.2989L56.1747 67.6689L57.5647 80.5889C57.6447 81.2689 57.3247 81.9189 56.7447 82.2889L56.7547 82.2789ZM65.8047 29.1389C62.7647 30.8689 61.5347 33.5689 61.9947 37.3689L63.4447 49.7789L63.3847 49.8389L61.1547 51.9789L60.9247 52.1989L59.0447 34.6789C58.9394 33.6586 58.6205 32.6718 58.1088 31.7828C57.5972 30.8938 56.9041 30.1225 56.0747 29.5189L55.9947 29.4589L59.5847 11.2889C59.6847 10.8089 59.9147 10.0289 60.6847 9.74888C61.5447 9.43888 62.2047 9.86888 62.6147 10.1589L84.8247 26.0789C85.0542 26.2417 85.2451 26.4529 85.3838 26.6976C85.5226 26.9423 85.6059 27.2146 85.6279 27.495C85.6498 27.7755 85.6099 28.0574 85.5108 28.3207C85.4118 28.584 85.2561 28.8224 85.0547 29.0189L80.1647 33.7389L80.0647 33.8289L75.2247 29.9189C73.9232 28.8396 72.3213 28.1868 70.6361 28.049C68.9509 27.9113 67.2642 28.2953 65.8047 29.1489V29.1389ZM69.7547 43.7389L69.5347 43.9489L68.4747 36.5789C68.3847 35.9489 68.6747 35.3689 69.2147 35.0589C69.4547 34.9189 69.7147 34.8589 69.9647 34.8589C70.3047 34.8589 70.6347 34.9689 70.9147 35.1989L75.1047 38.5989L74.9747 38.7189L73.7447 39.8989L71.4847 42.0689L69.7447 43.7389H69.7547ZM108.455 67.0589C108.393 67.4642 108.225 67.8457 107.966 68.164C107.708 68.4822 107.369 68.7256 106.985 68.8689L77.7747 79.8889C77.4247 80.0215 77.0493 80.0738 76.6763 80.042C76.3033 80.0101 75.9423 79.8949 75.6198 79.7049C75.2972 79.5148 75.0215 79.2548 74.813 78.9439C74.6044 78.6331 74.4683 78.2794 74.4147 77.9089L70.9747 53.9789L81.7847 43.9889L84.3947 46.0989L78.4847 51.3489C75.4147 53.7789 74.8947 56.8589 75.7347 59.2189C76.7647 62.1489 79.5347 63.9789 83.0047 63.9789L106.515 64.0089L107.625 64.9089C108.275 65.4389 108.585 66.2489 108.455 67.0689V67.0589ZM120.015 54.1189C119.725 54.4389 119.295 54.6289 118.855 54.6389L105.875 54.7089L94.9247 45.8489L116.265 28.9689C116.665 28.6489 117.215 28.2789 117.795 28.5189C118.405 28.7689 118.425 29.3189 118.465 29.8289L120.425 52.9489C120.455 53.3889 120.315 53.8089 120.015 54.1389V54.1189Z" fill="#050F58"/>
</svg>
