<svg width="131" height="55" viewBox="0 0 131 55" fill="none" xmlns="http://www.w3.org/2000/svg">
<path d="M22.89 39.52L28.09 37.77V42.9L24.45 44.13L24.9 45.46C25.59 47.2 25.51 49.15 24.68 50.82C23.9 52.4 22.54 53.58 20.87 54.15C19.25 54.69 17.51 54.59 15.99 53.89C14.49 53.14 13.32 51.84 12.74 50.24C12.14 48.58 12.22 46.79 12.97 45.19C13.76 43.5 15.23 42.22 17.02 41.67L18.34 41.19L17.03 37.58L21.04 34.38L22.91 39.53L22.89 39.52ZM18.08 49.5C18.47 49.66 18.9 49.67 19.3 49.54C19.74 49.39 20.1 49.08 20.31 48.66C20.61 48.05 20.47 47.5 20.36 47.22L20.31 47.08L19.88 45.8L18.61 46.26L18.46 46.31C18.18 46.39 17.65 46.63 17.37 47.24C17.17 47.66 17.15 48.14 17.31 48.58C17.45 48.98 17.73 49.3 18.1 49.51L18.08 49.5Z" fill="#936FE3"/>
<path d="M33.27 39.52L35.14 34.37L39.15 37.57L37.84 41.18L39.16 41.66C40.95 42.21 42.42 43.49 43.21 45.18C43.96 46.78 44.04 48.57 43.44 50.23C42.86 51.83 41.69 53.13 40.19 53.88C38.67 54.59 36.92 54.69 35.31 54.14C33.64 53.58 32.28 52.39 31.5 50.81C30.67 49.14 30.59 47.19 31.28 45.45L31.73 44.12L28.09 42.89V37.76L33.29 39.51L33.27 39.52ZM38.08 49.5C38.45 49.3 38.72 48.97 38.87 48.57C39.03 48.13 39.01 47.66 38.81 47.23C38.52 46.61 38 46.38 37.72 46.3L37.57 46.25L36.3 45.79L35.87 47.07L35.82 47.21C35.71 47.49 35.56 48.04 35.87 48.65C36.08 49.07 36.43 49.38 36.88 49.53C37.28 49.67 37.71 49.65 38.1 49.49L38.08 49.5Z" fill="#EC4023"/>
<path d="M39.75 31.41L36.89 26.73L41.89 25.59L43.9 28.87L45.09 28.14C46.63 27.08 48.55 26.73 50.37 27.16C52.09 27.57 53.54 28.63 54.46 30.13C55.35 31.58 55.64 33.31 55.29 34.95C54.89 36.58 53.88 38.01 52.45 38.93C50.97 39.89 49.2 40.21 47.47 39.83C45.65 39.44 44.07 38.28 43.14 36.66L42.38 35.48L39.15 37.56L35.14 34.36L39.75 31.39V31.41ZM50.54 33.87C50.61 33.46 50.53 33.04 50.31 32.67C50.07 32.27 49.68 31.99 49.23 31.88C48.57 31.72 48.06 31.98 47.82 32.15L47.69 32.23L46.54 32.94L47.27 34.08L47.35 34.21C47.5 34.47 47.84 34.92 48.5 35.07C48.96 35.17 49.42 35.08 49.82 34.83C50.18 34.6 50.43 34.26 50.55 33.85L50.54 33.87Z" fill="#00BEFF"/>
<path d="M37.44 21.2799L32 20.5999L34.23 15.9799L38.04 16.4499L38.21 15.0599C38.35 13.1899 39.26 11.4699 40.74 10.3299C42.13 9.23991 43.87 8.76991 45.62 8.98991C47.31 9.19991 48.84 10.0499 49.91 11.3499C50.94 12.6799 51.42 14.3599 51.25 16.0499C51.07 17.8099 50.22 19.3899 48.85 20.5099C47.4 21.6899 45.52 22.1999 43.67 21.9199L42.28 21.7799L41.89 25.5999L36.89 26.7399L37.44 21.2899V21.2799ZM46.1 14.3799C45.82 14.0699 45.44 13.8699 45.02 13.8199C44.56 13.7599 44.1 13.8899 43.73 14.1799C43.19 14.5999 43.08 15.1599 43.06 15.4499V15.5999L42.88 16.9399L44.23 17.0799L44.38 17.0999C44.67 17.1499 45.24 17.1699 45.77 16.7299C46.13 16.4399 46.36 16.0199 46.4 15.5499C46.44 15.1299 46.33 14.7099 46.09 14.3699L46.1 14.3799Z" fill="#039847"/>
<path d="M32.47 12.3C33.84 11.03 34.62 9.23996 34.6 7.36996C34.58 5.59996 33.87 3.94997 32.61 2.71997C31.39 1.52997 29.78 0.859966 28.1 0.839966C26.42 0.859966 24.81 1.52997 23.59 2.71997C22.33 3.94997 21.62 5.60996 21.6 7.36996C21.58 9.23996 22.35 11.03 23.73 12.3L24.71 13.3L21.97 15.98L18.16 16.45L17.99 15.06C17.85 13.19 16.94 11.47 15.46 10.33C14.07 9.23997 12.33 8.76997 10.58 8.98997C8.89001 9.19997 7.36001 10.05 6.29001 11.35C5.26001 12.68 4.78 14.36 4.95 16.05C5.13 17.81 5.98 19.39 7.35 20.51C8.8 21.69 10.68 22.2 12.53 21.92L13.92 21.78L14.31 25.59L12.3 28.87L11.11 28.14C9.57001 27.08 7.65001 26.73 5.83001 27.16C4.11001 27.57 2.66 28.63 1.74 30.13C0.850003 31.58 0.560009 33.31 0.910009 34.95C1.31001 36.58 2.32001 38.01 3.75001 38.93C5.23001 39.89 7.00001 40.21 8.73001 39.83C10.55 39.44 12.13 38.28 13.06 36.66L13.82 35.48L17.05 37.56L21.06 34.36L16.45 31.39L19.31 26.72L18.76 21.27L24.19 20.59L28.11 16.77L32.03 20.6L34.26 15.98L31.51 13.29L32.49 12.29L32.47 12.3ZM11.94 17.07L11.79 17.09C11.5 17.14 10.93 17.16 10.4 16.72C10.04 16.43 9.81 16.01 9.77 15.54C9.73 15.12 9.84001 14.7 10.08 14.36C10.36 14.05 10.74 13.85 11.16 13.8C11.62 13.74 12.08 13.87 12.45 14.16C12.99 14.58 13.1 15.14 13.12 15.43V15.58L13.3 16.92L11.95 17.06L11.94 17.07ZM8.90001 34.09L8.82001 34.22C8.67001 34.48 8.33 34.93 7.67 35.08C7.21 35.18 6.75 35.09 6.35 34.84C5.99 34.61 5.74001 34.27 5.62001 33.86C5.55001 33.45 5.63 33.03 5.85 32.66C6.09 32.26 6.48001 31.98 6.93001 31.87C7.59001 31.71 8.1 31.97 8.34 32.14L8.47001 32.22L9.62001 32.93L8.89001 34.07L8.90001 34.09ZM29.15 8.73997L29.04 8.84996L28.09 9.81997L27.14 8.84996L27.03 8.73997C26.81 8.53997 26.44 8.10996 26.45 7.41996C26.45 6.94996 26.64 6.51996 26.98 6.18996C27.28 5.88996 27.67 5.71997 28.09 5.69997C28.51 5.71997 28.9 5.89996 29.2 6.18996C29.53 6.51996 29.72 6.94996 29.73 7.41996C29.73 8.09996 29.37 8.53997 29.15 8.73997Z" fill="white"/>
<path d="M63.3201 15.7499V7.05994H69.2401V8.76994H64.4401L65.4301 7.85994V14.9299L64.4401 13.9999H69.3901V15.7399H63.3201V15.7499ZM64.4901 12.2099V10.5199H68.9201V12.2099H64.4901Z" fill="white"/>
<path d="M74.3401 15.8999C73.5701 15.8999 72.9101 15.7599 72.3501 15.4699C71.7901 15.1799 71.3601 14.7799 71.0601 14.2399C70.7601 13.6999 70.6101 13.0699 70.6101 12.3199V7.05994H72.7701V12.1499C72.7701 12.7399 72.9001 13.1799 73.1701 13.4799C73.4401 13.7799 73.8301 13.9299 74.3401 13.9299C74.8501 13.9299 75.2401 13.7799 75.5101 13.4799C75.7801 13.1799 75.9101 12.7299 75.9101 12.1499V7.05994H78.0701V12.3199C78.0701 13.0599 77.9201 13.6999 77.6201 14.2399C77.3201 14.7699 76.8901 15.1799 76.3301 15.4699C75.7701 15.7599 75.1101 15.8999 74.3401 15.8999Z" fill="white"/>
<path d="M79.8101 15.7499V7.05994H83.4701C84.1401 7.05994 84.7301 7.17994 85.2301 7.42994C85.7301 7.66994 86.1201 8.01993 86.4001 8.45993C86.6801 8.89993 86.8201 9.41993 86.8201 10.0099C86.8201 10.5999 86.6801 11.1399 86.4101 11.5799C86.1401 12.0199 85.7501 12.3599 85.2601 12.5999C84.7601 12.8399 84.1701 12.9599 83.4801 12.9599H81.4001V11.3299H83.2701C83.7201 11.3299 84.0601 11.2199 84.3001 10.9999C84.5401 10.7799 84.6601 10.4699 84.6601 10.0799C84.6601 9.68994 84.5401 9.36993 84.3001 9.15993C84.0601 8.94994 83.7201 8.82994 83.2701 8.82994H80.6901L81.9401 7.84993V11.6799L81.9801 12.0099V15.7499H79.8201H79.8101ZM84.7401 15.7499L82.9001 12.5999L84.9501 12.2799L87.0701 15.7499H84.7401Z" fill="white"/>
<path d="M87.7802 15.7499L91.1402 7.05994H93.4402L96.7702 15.7499H94.5502L93.7301 13.4999L93.6902 13.1199L92.0202 8.46994H92.6002L90.8502 13.1999V13.5399L90.0302 15.7599H87.7802V15.7499ZM89.7702 14.3499L90.2402 12.7999H94.4402L94.9102 14.3499H89.7702Z" fill="white"/>
<path d="M100.98 15.86C100.3 15.86 99.6501 15.76 99.0201 15.56C98.4001 15.36 97.8401 15.07 97.3401 14.7L98.2601 13.15C98.6901 13.45 99.1201 13.67 99.5601 13.81C100 13.96 100.45 14.0299 100.91 14.0299C101.34 14.0299 101.67 13.96 101.91 13.83C102.15 13.7 102.26 13.51 102.26 13.27C102.26 13.05 102.13 12.8499 101.88 12.6899C101.62 12.5299 101.17 12.3599 100.51 12.1899C99.5401 11.9299 98.8301 11.59 98.3801 11.15C97.9201 10.72 97.7001 10.1499 97.7001 9.43995C97.7001 8.94995 97.8301 8.51995 98.0801 8.13995C98.3401 7.75995 98.7001 7.46995 99.1801 7.25995C99.6601 7.04995 100.23 6.94995 100.88 6.94995C101.53 6.94995 102.09 7.03995 102.66 7.22995C103.23 7.41995 103.74 7.67995 104.2 8.01995L103.26 9.50995C102.96 9.28995 102.6 9.09995 102.19 8.95995C101.77 8.81995 101.36 8.74995 100.95 8.74995C100.6 8.74995 100.33 8.80995 100.12 8.93995C99.9101 9.05995 99.8101 9.22995 99.8101 9.41995C99.8101 9.63995 99.9301 9.81995 100.16 9.96995C100.39 10.12 100.83 10.29 101.46 10.47C102.48 10.75 103.23 11.11 103.71 11.56C104.19 12 104.43 12.57 104.43 13.25C104.43 13.77 104.29 14.2299 104 14.6199C103.71 15.0099 103.3 15.3199 102.78 15.5299C102.26 15.7399 101.65 15.8499 100.97 15.8499L100.98 15.86Z" fill="white"/>
<path d="M105.75 15.7499V7.05994H107.91V15.7499H105.75Z" fill="white"/>
<path d="M108.89 15.7499L112.25 7.05994H114.55L117.88 15.7499H115.66L114.84 13.4999L114.8 13.1199L113.13 8.46994H113.71L111.96 13.1999V13.5399L111.14 15.7599H108.89V15.7499ZM110.87 14.3499L111.34 12.7999H115.54L116.01 14.3499H110.87Z" fill="white"/>
<path d="M118.84 15.7499V7.05994H120.59L125.05 12.9799L124.44 13.5799V7.05994H126.51V15.7499H124.75L120.32 9.83994L120.92 9.21994V15.7499H118.85H118.84Z" fill="white"/>
<path d="M67.9301 21.6899L70.6501 18.0199H72.5601V26.7099H70.4101V21.4099L68.4201 24.1799H67.4501L65.4601 21.4299V26.7199H63.3101V18.0299H65.2201L67.9101 21.6999L67.9301 21.6899Z" fill="white"/>
<path d="M78.5602 26.87C77.6802 26.87 76.8902 26.68 76.1902 26.29C75.4902 25.9 74.9302 25.37 74.5302 24.68C74.1302 24 73.9302 23.23 73.9302 22.37C73.9302 21.51 74.1302 20.74 74.5302 20.06C74.9302 19.38 75.4802 18.84 76.1902 18.45C76.8902 18.06 77.6802 17.87 78.5602 17.87C79.4402 17.87 80.2402 18.06 80.9502 18.45C81.6602 18.84 82.2102 19.37 82.6102 20.06C83.0102 20.74 83.2102 21.51 83.2102 22.37C83.2102 23.23 83.0102 24 82.6102 24.68C82.2102 25.36 81.6602 25.9 80.9502 26.29C80.2402 26.68 79.4502 26.87 78.5602 26.87ZM78.5602 24.91C79.0302 24.91 79.4502 24.8 79.8302 24.58C80.2002 24.36 80.4902 24.06 80.7002 23.67C80.9102 23.28 81.0102 22.85 81.0102 22.36C81.0102 21.87 80.9102 21.44 80.7002 21.05C80.4902 20.66 80.2002 20.36 79.8302 20.14C79.4602 19.92 79.0402 19.81 78.5602 19.81C78.0802 19.81 77.6802 19.92 77.3102 20.14C76.9402 20.36 76.6502 20.66 76.4402 21.05C76.2302 21.44 76.1302 21.87 76.1302 22.36C76.1302 22.85 76.2302 23.28 76.4402 23.67C76.6502 24.06 76.9402 24.36 77.3102 24.58C77.6802 24.8 78.1002 24.91 78.5602 24.91Z" fill="white"/>
<path d="M88.2001 26.85C87.4301 26.85 86.7701 26.71 86.2101 26.42C85.6501 26.13 85.2201 25.73 84.9201 25.19C84.6201 24.65 84.4701 24.02 84.4701 23.27V18.01H86.6301V23.1C86.6301 23.69 86.7601 24.13 87.0301 24.43C87.3001 24.73 87.6901 24.88 88.2001 24.88C88.7101 24.88 89.1001 24.73 89.3701 24.43C89.6401 24.13 89.7701 23.68 89.7701 23.1V18.01H91.9301V23.27C91.9301 24.01 91.7801 24.65 91.4801 25.19C91.1801 25.72 90.7501 26.13 90.1901 26.42C89.6301 26.71 88.9701 26.85 88.2001 26.85Z" fill="white"/>
<path d="M93.6702 26.7099V18.0199H95.4202L99.8802 23.9399L99.2702 24.5399V18.0199H101.34V26.7099H99.5802L95.1502 20.7999L95.7502 20.1799V26.7099H93.6802H93.6702Z" fill="white"/>
<path d="M102.39 19.9899V18.0199H109.58V19.9899H102.39ZM104.91 26.7099V18.8499H107.07V26.7099H104.91Z" fill="white"/>
<path d="M108.99 26.7099L112.35 18.0199H114.65L117.98 26.7099H115.76L114.94 24.4599L114.9 24.0799L113.23 19.4299H113.81L112.06 24.1599V24.4999L111.24 26.7199H108.99V26.7099ZM110.97 25.2999L111.44 23.7499H115.64L116.11 25.2999H110.97Z" fill="white"/>
<path d="M118.94 26.7099V18.0199H121.1V26.7099H118.94Z" fill="white"/>
<path d="M122.9 26.7099V18.0199H124.65L129.11 23.9399L128.5 24.5399V18.0199H130.57V26.7099H128.81L124.38 20.7999L124.98 20.1799V26.7099H122.91H122.9Z" fill="white"/>
<path d="M63.3201 37.66V28.97H66.9801C67.6501 28.97 68.2401 29.09 68.7401 29.34C69.2401 29.58 69.6301 29.93 69.9101 30.37C70.1901 30.81 70.3301 31.33 70.3301 31.92C70.3301 32.51 70.1901 33.05 69.9201 33.49C69.6501 33.93 69.2601 34.27 68.7701 34.51C68.2701 34.75 67.6801 34.87 66.9901 34.87H64.9101V33.24H66.7801C67.2301 33.24 67.5701 33.13 67.8101 32.91C68.0501 32.69 68.1701 32.38 68.1701 31.99C68.1701 31.6 68.0501 31.28 67.8101 31.07C67.5701 30.86 67.2301 30.74 66.7801 30.74H64.2001L65.4501 29.76V33.59L65.4901 33.92V37.66H63.3301H63.3201ZM68.2501 37.66L66.4101 34.51L68.4601 34.19L70.5801 37.66H68.2501Z" fill="white"/>
<path d="M71.7902 37.66V28.97H77.7102V30.68H72.9102L73.9002 29.77V36.84L72.9102 35.91H77.8602V37.65H71.7902V37.66ZM72.9502 34.12V32.43H77.3802V34.12H72.9502Z" fill="white"/>
<path d="M82.3701 37.77C81.6901 37.77 81.0401 37.67 80.4101 37.47C79.7901 37.27 79.2301 36.98 78.7301 36.61L79.6501 35.06C80.0801 35.36 80.5101 35.58 80.9501 35.72C81.3901 35.87 81.8401 35.94 82.3001 35.94C82.7301 35.94 83.0601 35.87 83.3001 35.74C83.5401 35.61 83.6501 35.42 83.6501 35.18C83.6501 34.96 83.5201 34.76 83.2701 34.6C83.0101 34.44 82.5601 34.27 81.9001 34.1C80.9301 33.84 80.2201 33.5 79.7701 33.06C79.3101 32.63 79.0901 32.06 79.0901 31.35C79.0901 30.86 79.2201 30.43 79.4701 30.05C79.7301 29.67 80.0901 29.38 80.5701 29.17C81.0501 28.96 81.6201 28.86 82.2701 28.86C82.9201 28.86 83.4801 28.95 84.0501 29.14C84.6201 29.33 85.1301 29.59 85.5901 29.93L84.6501 31.42C84.3501 31.2 83.9901 31.01 83.5801 30.87C83.1601 30.73 82.7501 30.66 82.3401 30.66C81.9901 30.66 81.7201 30.72 81.5101 30.85C81.3001 30.97 81.2001 31.14 81.2001 31.33C81.2001 31.55 81.3201 31.73 81.5501 31.88C81.7801 32.03 82.2201 32.2 82.8501 32.38C83.8701 32.66 84.6201 33.02 85.1001 33.47C85.5801 33.91 85.8201 34.48 85.8201 35.16C85.8201 35.68 85.6801 36.14 85.3901 36.53C85.1001 36.92 84.6901 37.23 84.1701 37.44C83.6501 37.65 83.0401 37.76 82.3601 37.76L82.3701 37.77Z" fill="white"/>
<path d="M91.2501 37.8199C90.3701 37.8199 89.5801 37.6299 88.8801 37.2399C88.1801 36.8499 87.6201 36.3199 87.2201 35.6299C86.8201 34.9499 86.6201 34.1799 86.6201 33.3199C86.6201 32.4599 86.8201 31.6899 87.2201 31.0099C87.6201 30.3299 88.1701 29.7899 88.8801 29.3999C89.5801 29.0099 90.3701 28.8199 91.2501 28.8199C92.1301 28.8199 92.9301 29.0099 93.6401 29.3999C94.3501 29.7899 94.9001 30.3199 95.3001 31.0099C95.7001 31.6899 95.9001 32.4599 95.9001 33.3199C95.9001 34.1799 95.7001 34.9499 95.3001 35.6299C94.9001 36.3099 94.3501 36.8499 93.6401 37.2399C92.9301 37.6299 92.1401 37.8199 91.2501 37.8199ZM91.2501 35.8599C91.7201 35.8599 92.1401 35.7499 92.5201 35.5299C92.8901 35.3099 93.1801 35.0099 93.3901 34.6199C93.6001 34.2299 93.7001 33.7999 93.7001 33.3099C93.7001 32.8199 93.6001 32.3899 93.3901 31.9999C93.1801 31.6099 92.8901 31.3099 92.5201 31.0899C92.1501 30.8699 91.7301 30.7599 91.2501 30.7599C90.7701 30.7599 90.3701 30.8699 90.0001 31.0899C89.6301 31.3099 89.3401 31.6099 89.1301 31.9999C88.9201 32.3899 88.8201 32.8199 88.8201 33.3099C88.8201 33.7999 88.9201 34.2299 89.1301 34.6199C89.3401 35.0099 89.6301 35.3099 90.0001 35.5299C90.3701 35.7499 90.7901 35.8599 91.2501 35.8599Z" fill="white"/>
<path d="M97.2701 37.66V28.97H100.93C101.6 28.97 102.19 29.09 102.69 29.34C103.19 29.58 103.58 29.93 103.86 30.37C104.14 30.81 104.28 31.33 104.28 31.92C104.28 32.51 104.14 33.05 103.87 33.49C103.6 33.93 103.21 34.27 102.72 34.51C102.22 34.75 101.63 34.87 100.94 34.87H98.8601V33.24H100.73C101.18 33.24 101.52 33.13 101.76 32.91C102 32.69 102.12 32.38 102.12 31.99C102.12 31.6 102 31.28 101.76 31.07C101.52 30.86 101.18 30.74 100.73 30.74H98.1501L99.4001 29.76V33.59L99.4401 33.92V37.66H97.2801H97.2701ZM102.19 37.66L100.35 34.51L102.4 34.19L104.52 37.66H102.19Z" fill="white"/>
<path d="M105.03 30.95V28.98H112.22V30.95H105.03ZM107.55 37.66V29.8H109.71V37.66H107.55Z" fill="white"/>
<path d="M116.48 37.77C115.8 37.77 115.15 37.67 114.52 37.47C113.9 37.27 113.34 36.98 112.84 36.61L113.76 35.06C114.19 35.36 114.62 35.58 115.06 35.72C115.5 35.87 115.95 35.94 116.41 35.94C116.84 35.94 117.17 35.87 117.41 35.74C117.65 35.61 117.76 35.42 117.76 35.18C117.76 34.96 117.63 34.76 117.38 34.6C117.12 34.44 116.67 34.27 116.01 34.1C115.04 33.84 114.33 33.5 113.88 33.06C113.42 32.63 113.2 32.06 113.2 31.35C113.2 30.86 113.33 30.43 113.58 30.05C113.84 29.67 114.2 29.38 114.68 29.17C115.16 28.96 115.73 28.86 116.38 28.86C117.03 28.86 117.59 28.95 118.16 29.14C118.73 29.33 119.24 29.59 119.7 29.93L118.76 31.42C118.46 31.2 118.1 31.01 117.69 30.87C117.27 30.73 116.86 30.66 116.45 30.66C116.1 30.66 115.83 30.72 115.62 30.85C115.41 30.97 115.31 31.14 115.31 31.33C115.31 31.55 115.43 31.73 115.66 31.88C115.89 32.03 116.33 32.2 116.96 32.38C117.98 32.66 118.73 33.02 119.21 33.47C119.69 33.91 119.93 34.48 119.93 35.16C119.93 35.68 119.79 36.14 119.5 36.53C119.21 36.92 118.8 37.23 118.28 37.44C117.76 37.65 117.15 37.76 116.47 37.76L116.48 37.77Z" fill="white"/>
<path d="M62.6201 48.6199L65.9801 39.9299H68.2801L71.6101 48.6199H69.3901L68.5701 46.3699L68.5301 45.9899L66.8601 41.3399H67.4401L65.6901 46.0699V46.4099L64.8701 48.6299H62.6201V48.6199ZM64.6001 47.2099L65.0701 45.6599H69.2701L69.7401 47.2099H64.6001Z" fill="white"/>
<path d="M74.7301 47.8099L73.4501 46.6299H78.4001V48.6199H72.5701V39.9299H74.7301V47.8099Z" fill="white"/>
<path d="M81.6201 47.8099L80.3401 46.6299H85.2901V48.6199H79.4601V39.9299H81.6201V47.8099Z" fill="white"/>
<path d="M86.3601 48.6199V39.9299H88.5201V48.6199H86.3601Z" fill="white"/>
<path d="M89.5001 48.6199L92.8601 39.9299H95.1601L98.4901 48.6199H96.2701L95.4501 46.3699L95.4101 45.9899L93.7401 41.3399H94.3201L92.5701 46.0699V46.4099L91.7501 48.6299H89.5001V48.6199ZM91.4801 47.2099L91.9501 45.6599H96.1501L96.6201 47.2099H91.4801Z" fill="white"/>
<path d="M99.4501 48.6199V39.9299H101.2L105.66 45.8499L105.05 46.4499V39.9299H107.12V48.6199H105.36L100.93 42.7099L101.53 42.0899V48.6199H99.4601H99.4501Z" fill="white"/>
<path d="M112.97 48.7799C112.08 48.7799 111.3 48.5899 110.63 48.1999C109.96 47.8099 109.43 47.2799 109.06 46.5899C108.69 45.9099 108.5 45.1399 108.5 44.2799C108.5 43.4199 108.68 42.6699 109.05 41.9799C109.42 41.2899 109.94 40.7499 110.61 40.3599C111.28 39.9699 112.05 39.7699 112.93 39.7699C113.64 39.7699 114.31 39.9099 114.92 40.1999C115.54 40.4899 116.1 40.9099 116.6 41.4799L115.3 42.8699C115 42.4999 114.66 42.2099 114.28 42.0199C113.9 41.8299 113.49 41.7299 113.06 41.7299C112.6 41.7299 112.18 41.8399 111.82 42.0499C111.46 42.2699 111.18 42.5699 110.98 42.9499C110.78 43.3299 110.68 43.7799 110.68 44.2699C110.68 44.7599 110.78 45.2099 110.98 45.5899C111.18 45.9699 111.47 46.2799 111.83 46.4899C112.19 46.7099 112.61 46.8099 113.08 46.8099C113.55 46.8099 114 46.7099 114.4 46.4999C114.8 46.2899 115.15 45.9999 115.47 45.6099L116.77 46.9899C116.3 47.5899 115.73 48.0399 115.07 48.3399C114.41 48.6399 113.7 48.7799 112.95 48.7799H112.97Z" fill="white"/>
<path d="M117.85 48.6199V39.9299H123.77V41.6399H118.97L119.96 40.7299V47.7999L118.97 46.8699H123.92V48.6099H117.85V48.6199ZM119.02 45.0799V43.3899H123.45V45.0799H119.02Z" fill="white"/>
</svg>
