<svg xmlns="http://www.w3.org/2000/svg" fill="none" viewBox="0 0 201 48"><path fill="#171C6B" d="M86.54 13.33a7 7 0 0 0 3.58.89c1.15 0 2.24-.23 3.25-.67a6.9 6.9 0 0 0 2.61-2.06l-2-2.11c-.45.57-1 1.03-1.64 1.37a4.27 4.27 0 0 1-3.94-.01c-.56-.33-1-.8-1.3-1.38a4.28 4.28 0 0 1-.47-2.03c0-.77.15-1.44.46-2.03.3-.59.73-1.05 1.28-1.38a4 4 0 0 1 3.75-.05c.58.3 1.1.73 1.56 1.3l2-2.13a7.73 7.73 0 0 0-2.58-1.97c-.96-.44-2-.67-3.05-.66-1.34 0-2.53.3-3.56.9a6.27 6.27 0 0 0-2.39 2.48 7.24 7.24 0 0 0-.85 3.52c0 1.3.29 2.5.86 3.55a6.13 6.13 0 0 0 2.41 2.46l.02.01Zm20.92-12.02a7.4 7.4 0 0 0-3.66-.89 7.4 7.4 0 0 0-3.63.89 6.6 6.6 0 0 0-3.46 6.01c0 1.32.31 2.5.92 3.55a6.46 6.46 0 0 0 2.54 2.46c1.08.59 2.29.89 3.63.89 1.34 0 2.58-.3 3.66-.89a6.53 6.53 0 0 0 2.54-2.46c.61-1.05.91-2.23.91-3.55 0-1.32-.3-2.5-.91-3.55a6.4 6.4 0 0 0-2.54-2.46Zm-.39 8.02a3.56 3.56 0 0 1-3.27 1.89 3.56 3.56 0 0 1-3.25-1.89 4.15 4.15 0 0 1-.48-2.01c0-.75.16-1.42.48-2.01a3.56 3.56 0 0 1 3.25-1.89c.71 0 1.37.17 1.94.5.57.33 1.01.8 1.33 1.39.32.59.47 1.26.47 2.01 0 .75-.16 1.42-.47 2.01Zm9.21.37h1.75l2.49 4.28h3.58l-2.92-4.78.12-.05a4.16 4.16 0 0 0 2.4-3.98 4.27 4.27 0 0 0-2.43-3.95 6.12 6.12 0 0 0-2.69-.56h-5.61v13.31h3.31V9.69v.01Zm3.56-5.83c.37.34.55.81.55 1.42 0 .61-.18 1.08-.55 1.42-.37.34-.89.5-1.58.5h-2.03V3.37h2.03c.69 0 1.21.17 1.58.5Zm9.37 6.34h2.02a6.1 6.1 0 0 0 2.76-.58 4.17 4.17 0 0 0 1.79-1.66c.42-.72.63-1.57.63-2.53 0-.96-.21-1.83-.63-2.55a4.1 4.1 0 0 0-1.79-1.65c-.86-.4-1.8-.6-2.76-.57h-5.33v13.31h3.31v-3.77Zm3.29-6.22c.39.35.59.85.59 1.49s-.2 1.13-.59 1.48c-.39.35-.93.53-1.62.53h-1.71V3.46h1.71c.68 0 1.22.17 1.62.52v.01Zm8.6 9.34c1.08.6 2.29.89 3.63.89 1.34 0 2.58-.3 3.66-.89a6.53 6.53 0 0 0 2.54-2.46c.61-1.05.91-2.23.91-3.55 0-1.32-.3-2.5-.91-3.55a6.46 6.46 0 0 0-2.54-2.46 7.51 7.51 0 0 0-3.66-.89c-1.36 0-2.56.3-3.63.89a6.67 6.67 0 0 0-3.46 6.01c0 1.32.31 2.5.92 3.55a6.46 6.46 0 0 0 2.54 2.46Zm.38-8.01a3.56 3.56 0 0 1 3.25-1.89A3.56 3.56 0 0 1 148 5.32c.32.59.48 1.26.48 2.01 0 .75-.16 1.42-.48 2.01a3.56 3.56 0 0 1-3.27 1.89c-.72 0-1.35-.17-1.92-.5a3.5 3.5 0 0 1-1.33-1.39 4.15 4.15 0 0 1-.48-2.01c0-.75.16-1.42.48-2.01Zm15.73 4.38h1.75l2.49 4.28h3.58l-2.92-4.78.12-.05a4.16 4.16 0 0 0 2.4-3.98 4.27 4.27 0 0 0-2.43-3.95 6.12 6.12 0 0 0-2.69-.56h-5.61v13.31h3.31V9.69v.01Zm3.55-5.83c.37.34.55.81.55 1.42 0 .61-.18 1.08-.55 1.42-.37.34-.89.5-1.58.5h-2.04V3.37h2.04c.68 0 1.21.17 1.58.5Zm9.53 7.96h5.36l.78 2.15h3.4L174.73.67h-3.52l-5.15 13.31h3.44l.78-2.15h.01ZM173 4.04l1.95 5.41H171l2-5.41Zm9.73 9.94h3.31V3.69h3.84V.67h-11.01v3.02h3.86v10.29Zm11.96-2.66V8.56h5.35V5.97h-5.35V3.29h5.84V.67h-9.07v13.31h9.3v-2.66h-6.07ZM91.93 25.25c0 .9-.21 1.58-.62 2.04-.41.46-1.01.69-1.8.69s-1.39-.23-1.8-.69c-.41-.46-.62-1.14-.62-2.04v-7.8h-3.31v8.06c0 1.14.23 2.12.69 2.94a4.56 4.56 0 0 0 1.98 1.88 6.6 6.6 0 0 0 3.05.66c1.18 0 2.2-.22 3.05-.66a4.73 4.73 0 0 0 1.98-1.88c.46-.82.69-1.8.69-2.94v-8.06h-3.31v7.8h.02Zm14.51.04-5.9-7.83h-2.68v13.31h3.17v-7.84l5.88 7.84h2.7V17.46h-3.17v7.83Zm5.87-7.83h3.31v13.31h-3.31V17.46Zm10.12 5.21-1.83-5.21h-3.53l4.96 13.31h3.48l4.89-13.31h-3.48l-1.83 5.21-1.32 4.17-1.34-4.17Zm12.64 2.68h5.35v-2.59h-5.35v-2.68h5.84v-2.62h-9.07v13.31h9.3v-2.66h-6.07v-2.76Zm16.47.59a4.16 4.16 0 0 0 2.4-3.98 4.27 4.27 0 0 0-2.43-3.95 6.12 6.12 0 0 0-2.69-.56h-5.61v13.31h3.31v-4.28h1.75l2.49 4.28h3.58l-2.92-4.78.12-.05v.01Zm-1.47-5.28c.37.34.55.81.55 1.42 0 .61-.18 1.08-.55 1.42-.37.34-.89.5-1.58.5h-2.03v-3.84h2.03c.69 0 1.21.17 1.58.5Zm11.45 2.03a8.35 8.35 0 0 1-2-.77c-.36-.23-.53-.52-.53-.85 0-.3.16-.55.48-.74.32-.19.74-.29 1.27-.29 1.27 0 2.5.41 3.53 1.16l1.45-2.28a8.55 8.55 0 0 0-5.1-1.64c-1 0-1.87.16-2.61.48a3.5 3.5 0 0 0-2.28 3.35c0 1.08.35 1.95 1.05 2.61.7.67 1.79 1.2 3.27 1.59 1 .27 1.7.52 2.09.77.39.25.59.54.59.88 0 .37-.18.65-.54.86-.36.2-.87.3-1.53.3a6.6 6.6 0 0 1-2.07-.33 7.73 7.73 0 0 1-2-1.02l-1.41 2.38a8.74 8.74 0 0 0 2.58 1.32 9.7 9.7 0 0 0 3 .47c1.04 0 1.96-.17 2.77-.49.8-.33 1.43-.8 1.87-1.4.44-.6.67-1.3.67-2.1a3.4 3.4 0 0 0-1.1-2.6 8.35 8.35 0 0 0-3.44-1.66h-.01Zm6.52-5.23h3.31v13.31h-3.31V17.46Zm4.88 3.02h3.86v10.29h3.31V20.48h3.84v-3.02h-11.01v3.02Zm21.35-3.02-1.51 2.73-1.25 2.38-1.22-2.38-1.48-2.73h-3.77l4.79 8.38v4.93h3.31v-4.94l4.78-8.37h-3.65ZM87.14 42.14h5.34v-2.59h-5.34v-2.68h5.84v-2.62H83.9v13.31h9.3v-2.67h-6.06v-2.75Zm15.19-2.27-4.13-5.62h-2.93v13.31h3.29v-8.1l3.04 4.22h1.49l3.04-4.24v8.12h3.29V34.25h-2.93l-4.16 5.62Zm18.13 2.86a4.16 4.16 0 0 0 2.4-3.98 4.27 4.27 0 0 0-2.43-3.95 6.12 6.12 0 0 0-2.69-.56h-5.61v13.31h3.31v-4.28h1.75l2.49 4.28h3.58l-2.92-4.78.12-.05v.01ZM119 37.45c.37.34.55.81.55 1.42 0 .61-.18 1.08-.55 1.42-.37.34-.89.5-1.58.5h-2.04v-3.84h2.04c.68 0 1.21.17 1.58.5Zm10.46-3.2-5.15 13.31h3.44l.78-2.15h5.36l.78 2.15h3.4l-5.1-13.31h-3.52.01Zm1.77 3.37 1.95 5.41h-3.95l2-5.41ZM24.2 34.16V24.11A23.45 23.45 0 0 0 .75 47.56H10.8c0-7.39 6.01-13.4 13.4-13.4Zm23.54-10.04H37.69c0 7.39-6.01 13.4-13.4 13.4v10.05a23.46 23.46 0 0 0 23.45-23.44v-.01Z"/><path fill="#946FE4" d="M47.74 37.51v10.05a23.44 23.44 0 0 0 23.44-23.45H61.13c0 7.39-6.01 13.4-13.4 13.4h.01Z"/><path fill="#171C6B" d="M24.3 10.71V.66A23.45 23.45 0 0 0 .85 24.11H10.9c0-7.39 6.01-13.4 13.4-13.4Z"/><path fill="#ED4023" d="M24.3 14.06v10.05A23.46 23.46 0 0 0 47.75.67H37.7c0 7.39-6.01 13.4-13.4 13.4v-.01Z"/><path fill="#00BFFF" d="M61.14.67c0 7.39-6.01 13.4-13.4 13.4v10.05A23.45 23.45 0 0 0 71.19.67H61.14Z"/></svg>