<svg xmlns="http://www.w3.org/2000/svg" preserveAspectRatio="xMidYMid meet" viewBox="0 0 626 95"><path d="M220.35 28.03a24.5 24.5 0 0 0-24.47 24.48 24.5 24.5 0 0 0 24.47 24.48 24.5 24.5 0 0 0 24.49-24.48 24.5 24.5 0 0 0-24.49-24.48Zm9.74 34.8a12.97 12.97 0 0 1-9.75 4.05 13 13 0 0 1-9.77-4.04c-2.56-2.7-3.85-6.14-3.85-10.33 0-4.2 1.28-7.64 3.85-10.33a12.94 12.94 0 0 1 9.78-4.04c3.94 0 7.15 1.36 9.74 4.07 2.59 2.72 3.88 6.15 3.88 10.3s-1.3 7.64-3.88 10.33Zm40.66-14.15-5.33-2.2c-2.03-.86-3.25-1.54-4.03-2.22a3.04 3.04 0 0 1-1.04-2.35 2.73 2.73 0 0 1 1.23-2.43c1-.73 2.31-1.11 3.92-1.13 3.1-.03 5.92 1.48 8.32 4.5l.28.34 7.42-5.67-.22-.34a18.25 18.25 0 0 0-15.92-8.46c-4.56.05-8.38 1.3-11.35 3.75-3 2.46-4.5 5.72-4.46 9.68.06 5.66 4.03 10.17 11.76 13.39l5.06 2.14c2.31 1 3.53 1.65 4.3 2.32a3.43 3.43 0 0 1 1.36 2.66 3.64 3.64 0 0 1-1.48 3.07c-1.08.84-2.63 1.28-4.6 1.3-3.56.04-7.3-2.24-10.6-6.42l-.27-.34-7.8 5.86.2.34a20.64 20.64 0 0 0 7.72 7.4 21.6 21.6 0 0 0 10.57 2.62h.28c4.81-.05 8.55-1.31 11.75-3.97 3.13-2.6 4.7-6.05 4.66-10.23.05-2.93-1.01-5.76-2.98-7.93-2.04-2.2-4.9-4.06-8.74-5.67v-.01Zm342.93 9.67c4.86-2.83 7.42-7.31 7.42-12.96 0-5.97-2.27-10.38-6.75-13.1-4.09-2.47-8.99-2.84-11.53-2.84h-16.05v46.12h10.47V61.4h5.16c.46 0 .97-.02 1.5-.07l8.88 14.24h12.65l-11.75-17.22Zm-11.13-5.93h-5.32V38.48h5.32c2.97 0 7.94.9 7.94 6.9 0 5.19-4.1 7.04-7.94 7.04Zm-412.28-7.03c0-5.97-2.28-10.38-6.75-13.1-4.09-2.47-8.99-2.84-11.53-2.84h-16.05v46.12h10.47V61.4h5.16c.46 0 .97-.02 1.5-.07l8.89 14.24h12.64l-11.75-17.22c4.86-2.83 7.41-7.31 7.41-12.96Zm-18.53 7.03h-5.34V38.48h5.34c2.95 0 7.92.9 7.92 6.9 0 5.19-4.1 7.04-7.92 7.04Zm304.44 3.88c0 3.18-.88 5.75-2.57 7.44a10.43 10.43 0 0 1-7.28 2.84 10.4 10.4 0 0 1-7.23-2.84c-1.72-1.7-2.62-4.26-2.62-7.44V29.44H446v26.79c0 6.28 1.77 11.22 5.25 14.68 3.5 3.48 9 5.47 15.1 5.47s11.55-2 15.06-5.47c3.5-3.46 5.29-8.4 5.29-14.68v-26.8h-10.5V56.3ZM304.1 29.45 284 75.64h11.48l2.53-5.9h17.94l2.54 5.9h11.47l-20.02-46.2h-5.84Zm-2.78 31.73 5.64-14.85 5.65 14.85h-11.29Zm254.8-33.15a24.5 24.5 0 0 0-24.48 24.48 24.5 24.5 0 0 0 24.49 24.48A24.5 24.5 0 0 0 580.6 52.5a24.5 24.5 0 0 0-24.49-24.48Zm9.75 34.8a12.97 12.97 0 0 1-9.75 4.05 13 13 0 0 1-9.76-4.04c-2.58-2.7-3.87-6.14-3.87-10.33 0-4.2 1.3-7.64 3.87-10.33a12.94 12.94 0 0 1 9.76-4.04c3.95 0 7.15 1.36 9.75 4.07 2.59 2.72 3.88 6.15 3.88 10.3s-1.3 7.64-3.88 10.33Zm-73.64-23.9h14.03v36.64h10.64V38.94H531v-9.5h-38.77v9.5Zm-102.37-9.48h-12.75L361.69 49.2V29.45H351.2v46.12h10.5V54.62l16.48 20.95h14.25L373 51.55l16.88-22.1Zm36.47 17.78h-18.95V29.45h-10.5v46.12h10.5V56.65h18.95v18.92h10.5V29.45h-10.5v17.78Zm-295.8 8.62-2.2-29.47a7.3 7.3 0 0 0-4.46-6.21 7.81 7.81 0 0 0-8 1.02l-26 20.56-3.04-2.45 7.4-6.83a7.42 7.42 0 0 0-.76-11.54L65.87 1.38a7.5 7.5 0 0 0-11.69 4.6l-4.47 22.28-.1.03c-.78.22-1.47.52-2.1.94l-1.8 1.17.16-.81a7.47 7.47 0 0 0-7.34-8.93l-31.02-.02a7.39 7.39 0 0 0-6.9 4.57 7.32 7.32 0 0 0 1.51 8.07L17.3 48.87l-7.22 4.7a7.45 7.45 0 0 0 .11 12.56l42.93 26.79a7.47 7.47 0 0 0 11.42-7.11L62 62.27l2.84-2.62 3.34 23.18a8.34 8.34 0 0 0 11.22 6.6l33.81-12.65a8.33 8.33 0 0 0 3.88-12.62l-.19-.25 6.05-.05a7.86 7.86 0 0 0 5.66-2.51 7.3 7.3 0 0 0 1.91-5.5h.03Zm-41.1-5.67 6.13 4.57-9.1.05a.98.98 0 0 1-.94-.67.98.98 0 0 1 .32-1.12l3.58-2.83Zm-39.48 9.46 3.57-20.94 1.6 19.05-.07.05-1.64 1.55-1.48 1.39c-.4.36-.96.43-1.4.16a1.18 1.18 0 0 1-.59-1.27h.01ZM12.68 29.56a1.5 1.5 0 0 1-.3-1.64 1.5 1.5 0 0 1 1.4-.93l24.16.02c.56 0 1.06.23 1.31.52.25.3.45.84.34 1.37l-1.38 6.39-12.26 7.97-13.26-13.7Zm24 14.13-1.33 5.5a1.65 1.65 0 0 1-1.17 1.28c-.59.16-1.25 0-1.68-.45l-2.06-2.12 6.23-4.22Zm20.07 38.59c-.57.36-1.34.36-1.92 0l-36.8-23.03A1.92 1.92 0 0 1 18 56l3.85-2.5 5.94 6.1a7.4 7.4 0 0 0 7.5 1.97 7.34 7.34 0 0 0 5.21-5.66l3.43-16.76 4.14-2.7-5.02 24.92a7.33 7.33 0 0 0 3.67 7.96 7.4 7.4 0 0 0 8.77-1.03l.68-.63 1.4 12.92c.07.68-.25 1.33-.83 1.7l.01-.01Zm9.05-53.14c-3.04 1.73-4.27 4.43-3.8 8.23l1.44 12.4-.06.07-2.23 2.14-.23.22-1.88-17.52a7.31 7.31 0 0 0-2.97-5.16l-.08-.06 3.6-18.17c.1-.48.32-1.26 1.1-1.54.85-.31 1.51.12 1.92.4l22.21 15.93a1.92 1.92 0 0 1 .23 2.94l-4.89 4.72-.1.09-4.84-3.91a8.24 8.24 0 0 0-9.42-.77v-.01Zm3.95 14.6-.22.2-1.06-7.36c-.09-.63.2-1.21.74-1.52.24-.14.5-.2.75-.2.34 0 .67.1.95.34l4.2 3.4-.14.12-1.23 1.18-2.26 2.17-1.74 1.67h.01Zm38.7 23.32a2.3 2.3 0 0 1-1.47 1.8L77.78 79.9a2.5 2.5 0 0 1-3.37-1.98l-3.44-23.93 10.81-10 2.61 2.12-5.9 5.25c-3.08 2.43-3.6 5.5-2.76 7.87 1.03 2.93 3.8 4.76 7.27 4.76l23.52.03 1.1.9c.66.53.96 1.34.83 2.16v-.01Zm11.56-12.94c-.29.32-.72.5-1.16.52l-12.97.07-10.96-8.86 21.34-16.88c.4-.32.95-.7 1.53-.45.61.25.63.8.67 1.3l1.97 23.13c.02.44-.12.86-.42 1.19v-.02Z"/></svg>