<svg xmlns="http://www.w3.org/2000/svg" fill="none" viewBox="0 0 250 103"><path fill="#171C6B" d="M121.34 28.83V12.21h11.32v3.27h-9.18l1.9-1.74v13.52l-1.9-1.78h9.47v3.33h-11.61v.02Zm2.24-6.77v-3.23h8.47v3.23h-8.47ZM142.41 29.12a8.16 8.16 0 0 1-3.8-.83 5.74 5.74 0 0 1-2.47-2.35 7.4 7.4 0 0 1-.86-3.67V12.21h4.13v9.73c0 1.13.25 1.97.77 2.55.51.57 1.26.86 2.23.86.98 0 1.73-.29 2.24-.86.52-.58.77-1.44.77-2.54V12.2h4.13v10.06c0 1.42-.29 2.64-.86 3.67a5.87 5.87 0 0 1-2.47 2.35 8.15 8.15 0 0 1-3.8.83ZM152.88 28.83V12.21h7c1.28 0 2.4.23 3.36.7s1.7 1.14 2.24 1.98c.53.84.8 1.83.8 2.96a5.2 5.2 0 0 1-2.98 4.95c-.96.46-2.09.7-3.4.7h-3.98v-3.12h3.57c.86 0 1.51-.21 1.97-.63.46-.43.7-1.02.7-1.76 0-.75-.24-1.36-.7-1.76a2.9 2.9 0 0 0-1.97-.63h-4.93l2.39-1.88v7.33l.08.63v7.15H152.88Zm9.43 0-3.53-6.02 3.93-.62 4.05 6.64h-4.45ZM168.12 28.83l6.42-16.62h4.4l6.37 16.62h-4.24l-1.57-4.3-.08-.73-3.2-8.9h1.12l-3.35 9.05v.65l-1.57 4.25h-4.3v-.02Zm3.8-2.68.9-2.96h8.04l.9 2.96h-9.83ZM193.36 29.04c-1.3 0-2.54-.2-3.75-.57a11.09 11.09 0 0 1-3.2-1.65l1.75-2.96c.82.57 1.65 1 2.49 1.26.84.29 1.7.42 2.58.42.82 0 1.45-.13 1.91-.38.46-.25.67-.61.67-1.07 0-.42-.25-.8-.72-1.11-.5-.3-1.36-.63-2.63-.96-1.85-.5-3.2-1.15-4.07-1.99a4.25 4.25 0 0 1-1.3-3.27c0-.94.25-1.76.73-2.48a4.78 4.78 0 0 1 2.1-1.69c.92-.4 2-.59 3.25-.59s2.32.17 3.4.54c1.1.36 2.07.86 2.95 1.5l-1.8 2.86a7.64 7.64 0 0 0-4.41-1.46c-.67 0-1.19.12-1.6.37-.4.23-.58.55-.58.91 0 .42.22.77.66 1.06.45.28 1.29.6 2.5.95 1.94.54 3.38 1.23 4.3 2.09a4.2 4.2 0 0 1 1.37 3.23c0 1-.27 1.87-.82 2.62a5.33 5.33 0 0 1-2.33 1.74c-1 .4-2.16.61-3.47.61l.02.02ZM202.49 28.83V12.21h4.13v16.62h-4.13ZM208.5 28.83l6.42-16.62h4.4l6.37 16.62h-4.25l-1.57-4.3-.08-.73-3.19-8.9h1.11l-3.35 9.05v.65l-1.57 4.25h-4.3v-.02Zm3.78-2.68.9-2.96h8.03l.9 2.96h-9.83ZM227.52 28.83V12.21h3.35l8.53 11.32-1.17 1.15V12.21h3.96v16.62h-3.37l-8.47-11.3 1.15-1.19v12.49h-3.98ZM130.16 40.19l5.2-7.02H139V49.8h-4.11V39.65l-3.8 5.3h-1.86l-3.8-5.26v10.12h-4.12V33.19h3.65l5.15 7.02.03-.02ZM150.49 50.1c-1.69 0-3.2-.37-4.54-1.11a8.19 8.19 0 0 1-3.17-3.08 8.55 8.55 0 0 1-1.15-4.42c0-1.64.38-3.12 1.15-4.42a8.2 8.2 0 0 1 3.17-3.08 9.15 9.15 0 0 1 4.54-1.1c1.68 0 3.2.36 4.57 1.1a8.06 8.06 0 0 1 3.17 3.08 8.55 8.55 0 0 1 1.15 4.42c0 1.65-.38 3.12-1.15 4.42a8.2 8.2 0 0 1-3.17 3.08 9.3 9.3 0 0 1-4.57 1.1Zm0-3.75c.9 0 1.7-.21 2.42-.63.71-.42 1.27-1 1.67-1.74.4-.75.6-1.57.6-2.5 0-.95-.2-1.77-.6-2.51a4.41 4.41 0 0 0-1.67-1.74 4.64 4.64 0 0 0-2.42-.64 4.5 4.5 0 0 0-4.06 2.38c-.4.74-.6 1.56-.6 2.5s.2 1.76.6 2.5c.4.75.96 1.33 1.66 1.75.71.42 1.52.63 2.4.63ZM168.92 50.06a8.16 8.16 0 0 1-3.8-.82 5.74 5.74 0 0 1-2.47-2.36 7.4 7.4 0 0 1-.86-3.67V33.15h4.13v9.74c0 1.13.25 1.97.76 2.54.52.57 1.27.86 2.24.86.98 0 1.72-.29 2.24-.86.52-.57.76-1.43.76-2.54v-9.74h4.14v10.06c0 1.42-.3 2.64-.87 3.67a5.86 5.86 0 0 1-2.46 2.36 8.16 8.16 0 0 1-3.8.82ZM179.38 49.8V33.16h3.35l8.53 11.32-1.17 1.15V33.17h3.96V49.8h-3.36l-8.48-11.3 1.15-1.19v12.5h-3.98ZM196.06 36.94v-3.77h13.75v3.77h-13.75Zm4.82 12.85V34.76h4.13v15.03h-4.13ZM208.68 49.8l6.43-16.63h4.4l6.37 16.62h-4.25l-1.57-4.3-.07-.73-3.2-8.9h1.11l-3.35 9.05v.65L213 49.81h-4.3v-.02Zm3.79-2.7.9-2.97h8.03l.9 2.96h-9.83ZM227.71 49.8V33.16h4.13V49.8h-4.13ZM235.29 49.8V33.16h3.34l8.53 11.32-1.16 1.15V33.17h3.96V49.8h-3.37l-8.47-11.3 1.14-1.19v12.5h-3.97ZM121.34 70.73V54.11h7c1.28 0 2.4.23 3.36.71.96.46 1.7 1.13 2.24 1.97.54.84.8 1.84.8 2.97a5.2 5.2 0 0 1-2.98 4.95c-.95.46-2.08.69-3.4.69h-3.98v-3.12h3.58c.86 0 1.5-.21 1.97-.63.45-.42.68-1.02.68-1.76 0-.75-.23-1.36-.68-1.76a2.9 2.9 0 0 0-1.97-.63h-4.94l2.4-1.88v7.33l.07.63v7.15H121.34Zm9.43 0-3.52-6.02 3.92-.61 4.05 6.63h-4.45ZM137.54 70.73V54.11h11.32v3.27h-9.18l1.9-1.74v13.52l-1.9-1.77h9.47v3.32h-11.61v.02Zm2.22-6.77v-3.23h8.47v3.23h-8.47ZM157.77 70.94c-1.3 0-2.54-.19-3.75-.57a11.11 11.11 0 0 1-3.21-1.65l1.76-2.96c.82.57 1.65 1 2.49 1.26.84.29 1.7.42 2.58.42.82 0 1.45-.13 1.91-.38.46-.25.67-.61.67-1.07 0-.42-.25-.8-.73-1.1-.5-.32-1.36-.64-2.62-.97-1.85-.5-3.21-1.14-4.07-1.98a4.25 4.25 0 0 1-1.3-3.27c0-.94.25-1.76.73-2.5a4.77 4.77 0 0 1 2.1-1.67c.92-.4 2-.6 3.25-.6 1.24 0 2.31.18 3.4.54 1.1.36 2.07.86 2.95 1.5l-1.8 2.86a7.62 7.62 0 0 0-4.41-1.45c-.68 0-1.2.11-1.6.36-.4.23-.59.55-.59.92 0 .42.23.76.67 1.05.44.29 1.29.61 2.49.95 1.95.54 3.38 1.23 4.3 2.09a4.2 4.2 0 0 1 1.38 3.23c0 1-.27 1.88-.82 2.62a5.34 5.34 0 0 1-2.34 1.74c-.99.4-2.16.61-3.46.61l.02.02ZM174.75 71.04c-1.68 0-3.19-.36-4.53-1.11a8.2 8.2 0 0 1-3.17-3.08 8.55 8.55 0 0 1-1.15-4.42c0-1.64.38-3.11 1.15-4.42a8.19 8.19 0 0 1 3.17-3.07 9.15 9.15 0 0 1 4.53-1.11c1.69 0 3.22.36 4.58 1.1a8.06 8.06 0 0 1 3.17 3.08 8.55 8.55 0 0 1 1.15 4.42c0 1.65-.38 3.12-1.15 4.42a8.2 8.2 0 0 1-3.17 3.08 9.3 9.3 0 0 1-4.58 1.1Zm0-3.75a4.42 4.42 0 0 0 4.1-2.37c.4-.75.6-1.57.6-2.5 0-.94-.2-1.77-.6-2.51a4.42 4.42 0 0 0-1.67-1.74 4.65 4.65 0 0 0-2.43-.63 4.51 4.51 0 0 0-4.05 2.37c-.4.74-.6 1.57-.6 2.5 0 .94.2 1.76.6 2.5a4.42 4.42 0 0 0 4.06 2.38ZM186.27 70.73V54.11h7c1.28 0 2.4.23 3.36.71.96.46 1.7 1.13 2.24 1.97.54.84.8 1.84.8 2.97 0 1.12-.26 2.16-.78 3a5.2 5.2 0 0 1-2.2 1.95c-.95.46-2.08.69-3.4.69h-3.98v-3.12h3.58c.86 0 1.5-.21 1.97-.63.45-.42.68-1.02.68-1.76 0-.75-.23-1.36-.69-1.76a2.9 2.9 0 0 0-1.96-.63h-4.94l2.4-1.88v7.33l.07.63v7.15H186.27Zm9.4 0-3.51-6.02 3.92-.61 4.05 6.63h-4.45ZM201.1 57.9v-3.77h13.76v3.77h-13.75Zm4.83 12.83V55.7h4.13v15.03h-4.13ZM223 70.94c-1.3 0-2.54-.19-3.74-.57a11.09 11.09 0 0 1-3.21-1.65l1.75-2.96c.83.57 1.65 1 2.5 1.26.83.29 1.7.42 2.57.42.83 0 1.46-.13 1.92-.38.46-.25.67-.61.67-1.07 0-.42-.25-.8-.73-1.1-.5-.32-1.36-.64-2.62-.97-1.86-.5-3.21-1.14-4.08-1.98a4.25 4.25 0 0 1-1.3-3.27c0-.94.25-1.76.73-2.5a4.77 4.77 0 0 1 2.1-1.67c.92-.4 2.01-.6 3.26-.6 1.24 0 2.31.18 3.4.54 1.1.36 2.07.86 2.95 1.5l-1.8 2.86a7.63 7.63 0 0 0-4.42-1.45c-.67 0-1.19.11-1.59.36-.4.23-.59.55-.59.92 0 .42.23.76.67 1.05.44.29 1.28.61 2.49.95 1.95.54 3.38 1.23 4.3 2.09a4.2 4.2 0 0 1 1.38 3.23c0 1-.27 1.88-.83 2.62a5.33 5.33 0 0 1-2.33 1.74c-1 .4-2.16.61-3.46.61l.02.02ZM120 91.7l6.43-16.63h4.4l6.36 16.62h-4.24l-1.57-4.3-.08-.73-3.2-8.89h1.12l-3.35 9.05v.65l-1.57 4.24H120v-.02Zm3.79-2.7.9-2.97h8.03l.9 2.97h-9.83ZM143.16 90.14l-2.45-2.25h9.47v3.8h-11.15V75.07h4.13v15.07ZM156.34 90.14l-2.45-2.25h9.47v3.8H152.2V75.07h4.13v15.07ZM165.4 91.7V75.06h4.13V91.7h-4.13ZM171.4 91.7l6.43-16.63h4.4l6.37 16.62h-4.24l-1.57-4.3-.08-.73-3.2-8.89h1.12l-3.35 9.05v.65l-1.57 4.24h-4.3v-.02Zm3.8-2.7.9-2.97h8.03l.9 2.97h-9.84ZM190.44 91.7V75.06h3.34l8.53 11.33-1.16 1.14V75.07h3.96V91.7h-3.37l-8.47-11.3 1.14-1.18v12.48h-3.97ZM216.3 92c-1.7 0-3.2-.36-4.48-1.1a7.75 7.75 0 0 1-3-3.09 9.1 9.1 0 0 1-1.07-4.42c0-1.64.34-3.08 1.05-4.4a7.76 7.76 0 0 1 2.98-3.1 8.64 8.64 0 0 1 4.44-1.12c1.36 0 2.64.27 3.8.82a9.72 9.72 0 0 1 3.22 2.45l-2.49 2.66a6 6 0 0 0-1.95-1.63 5.18 5.18 0 0 0-2.33-.55c-.88 0-1.69.2-2.38.6-.68.43-1.22 1-1.6 1.73a5.39 5.39 0 0 0-.58 2.52c0 .94.2 1.8.58 2.53.38.73.94 1.32 1.62 1.72a5.4 5.4 0 0 0 4.91.02c.77-.4 1.44-.96 2.06-1.7l2.48 2.64c-.9 1.14-1.99 2-3.25 2.58a9.69 9.69 0 0 1-4.05.84h.03ZM225.63 91.7V75.06h11.32v3.27h-9.18l1.9-1.74v13.53l-1.9-1.78h9.47v3.32h-11.61v.02Zm2.24-6.78V81.7h8.47v3.23h-8.47Z"/><path fill="#946FE4" d="m42.32 74.15 10.09-3.34v9.81L45.42 83l.86 2.52a12.57 12.57 0 0 1-3.44 14.18 12.59 12.59 0 0 1-4.3 2.45 12.62 12.62 0 0 1-9.37-.5 12.59 12.59 0 0 1-5.8-16.69 12.59 12.59 0 0 1 7.76-6.74l2.52-.9-2.52-6.93 7.56-6.14 3.63 9.91Zm-9.22 19.1c.74.31 1.57.31 2.32 0a3.3 3.3 0 0 0 1.94-1.68 3.37 3.37 0 0 0 0-2.74v-.28l-.83-2.52-2.52.89h-.28a3.3 3.3 0 0 0-2.12 1.78c-.33.81-.33 1.71 0 2.52a3.25 3.25 0 0 0 1.46 2.04h.03Z"/><path fill="#ED4023" d="m62.21 74.15 3.6-9.86 7.57 6.11-2.52 6.93 2.52.93a12.6 12.6 0 0 1 8.21 16.4 12.74 12.74 0 0 1-6.22 7.03 12.85 12.85 0 0 1-9.38.5 12.62 12.62 0 0 1-8.62-11.48c-.07-1.77.23-3.53.88-5.18l.86-2.52-6.98-2.34v-9.84l10.08 3.32Zm9.23 19.13a3.4 3.4 0 0 0 1.5-1.78 3.27 3.27 0 0 0 0-2.52 3.35 3.35 0 0 0-2.08-1.79h-.28l-2.52-.88-.83 2.52v.28a3.32 3.32 0 0 0 0 2.76c.4.8 1.08 1.4 1.91 1.7a3.4 3.4 0 0 0 2.3-.29Z"/><path fill="#00BFFF" d="m74.64 58.6-5.5-8.96 9.6-2.2 3.86 6.3 2.3-1.4a12.79 12.79 0 0 1 10.08-1.87 12.61 12.61 0 0 1 7.84 5.69 12.57 12.57 0 0 1 1.61 9.23 12.58 12.58 0 0 1-5.47 7.56 12.61 12.61 0 0 1-14.35-.42 12.6 12.6 0 0 1-3.5-3.91l-1.46-2.24-6.2 3.97-7.71-6.14 8.9-5.61Zm20.72 4.73c.14-.8-.02-1.61-.46-2.29a3.17 3.17 0 0 0-2.06-1.51 3.3 3.3 0 0 0-2.7.53l-.25.15-2.22 1.36 1.41 2.19.15.25a3.3 3.3 0 0 0 2.22 1.64 3.3 3.3 0 0 0 2.52-.46 3.32 3.32 0 0 0 1.29-1.86h.1Z"/><path fill="#039947" d="m70.23 39.12-10.46-1.29 4.28-8.86 7.31.9.35-2.66a12.57 12.57 0 0 1 14.2-11.58 12.6 12.6 0 0 1 8.24 4.53 12.57 12.57 0 0 1 2.52 9.01 12.57 12.57 0 0 1-4.62 8.54 12.6 12.6 0 0 1-9.93 2.69l-2.67-.25-.73 7.32-9.6 2.2 1.1-10.55Zm16.6-13.22a3.25 3.25 0 0 0-2.06-1.08 3.28 3.28 0 0 0-3.43 1.8c-.22.43-.34.9-.35 1.4v.3l-.33 2.51 2.52.26h.28a3.28 3.28 0 0 0 2.67-.7 3.17 3.17 0 0 0 1.21-2.27c.09-.75-.09-1.51-.5-2.14v-.08Z"/><path fill="#171C6B" d="M60.67 21.97a12.79 12.79 0 0 0 4.09-9.43 12.57 12.57 0 0 0-3.83-8.92A12.61 12.61 0 0 0 52.28 0a12.61 12.61 0 0 0-8.67 3.62 12.59 12.59 0 0 0 .25 18.35l1.9 1.92-5.28 5.03-7.33.9-.33-2.5A12.57 12.57 0 0 0 18.63 15.7c-3.23.38-6.18 2-8.24 4.5a12.57 12.57 0 0 0-2.52 9.01 12.57 12.57 0 0 0 4.59 8.54 12.81 12.81 0 0 0 10.08 2.72l2.67-.28.73 7.3-3.86 6.3-2.29-1.42a12.74 12.74 0 0 0-10.08-1.86 12.61 12.61 0 0 0-7.84 5.71 12.57 12.57 0 0 0-1.59 9.24 12.59 12.59 0 0 0 5.45 7.55 12.61 12.61 0 0 0 14.36-.42 12.59 12.59 0 0 0 3.5-3.93l1.44-2.24 6.2 3.97 7.72-6.11-8.85-5.72 5.47-8.93-1.06-10.45 10.44-1.3 7.56-7.36 7.56 7.35 4.28-8.86-5.29-5.16 1.61-1.89Zm-39.4 9.17H21a3.28 3.28 0 0 1-2.67-.7 3.3 3.3 0 0 1-.63-4.51 3.36 3.36 0 0 1 5.87 2.11v.3l.33 2.52-2.62.28Zm-5.84 32.6-.15.24a3.3 3.3 0 0 1-6.1-.67 3.37 3.37 0 0 1 3.94-3.83c.47.09.91.28 1.3.55l.23.18 2.22 1.33-1.44 2.2ZM54.3 15.14l-.2.2-1.82 1.87-1.84-1.87-.2-.2a3.25 3.25 0 0 1-1.11-2.51 3.17 3.17 0 0 1 1-2.35 3.3 3.3 0 0 1 2.15-.95c.8.05 1.55.39 2.12.96a3.17 3.17 0 0 1 1 2.34 3.24 3.24 0 0 1-1.1 2.51Z"/></svg>