<svg width="250" height="103" viewBox="0 0 250 103" fill="none" xmlns="http://www.w3.org/2000/svg">
<path d="M121.339 28.83V12.2103H132.661V15.4807H123.481L125.374 13.7403V27.2617L123.481 25.4831H132.948V28.8109H121.339V28.83ZM123.576 22.0597V18.8276H132.049V22.0597H123.576Z" fill="#171C6B"/>
<path d="M142.415 29.1169C140.942 29.1169 139.68 28.8491 138.609 28.2945C137.538 27.7399 136.715 26.9749 136.142 25.9421C135.568 24.9093 135.281 23.7045 135.281 22.2701V12.2103H139.412V21.945C139.412 23.0733 139.661 23.9148 140.177 24.4886C140.693 25.0623 141.439 25.3492 142.415 25.3492C143.39 25.3492 144.136 25.0623 144.652 24.4886C145.169 23.9148 145.417 23.0542 145.417 21.945V12.2103H149.548V22.2701C149.548 23.6853 149.261 24.9093 148.688 25.9421C148.114 26.9557 147.291 27.7399 146.22 28.2945C145.149 28.8491 143.887 29.1169 142.415 29.1169Z" fill="#171C6B"/>
<path d="M152.876 28.83V12.2103H159.876C161.157 12.2103 162.285 12.4398 163.242 12.918C164.198 13.377 164.944 14.0463 165.479 14.8878C166.015 15.7293 166.283 16.7238 166.283 17.8522C166.283 18.9806 166.015 20.0133 165.498 20.8548C164.982 21.6963 164.236 22.3466 163.299 22.8056C162.343 23.2646 161.214 23.4941 159.895 23.4941H155.917V20.3767H159.493C160.354 20.3767 161.004 20.1663 161.463 19.7456C161.922 19.3248 162.152 18.732 162.152 17.9861C162.152 17.2402 161.922 16.6282 161.463 16.2266C161.004 15.825 160.354 15.5955 159.493 15.5955H154.559L156.949 13.7212V21.0461L157.026 21.6772V28.83H152.895H152.876ZM162.305 28.83L158.785 22.8056L162.706 22.1936L166.761 28.83H162.305Z" fill="#171C6B"/>
<path d="M168.119 28.83L174.545 12.2103H178.943L185.312 28.83H181.066L179.498 24.5268L179.422 23.8001L176.228 14.907H177.337L173.99 23.9531V24.6033L172.422 28.8491H168.119V28.83ZM171.925 26.1525L172.823 23.1881H180.856L181.755 26.1525H171.925Z" fill="#171C6B"/>
<path d="M193.364 29.0404C192.063 29.0404 190.82 28.8492 189.615 28.4667C188.429 28.0842 187.358 27.5295 186.402 26.8219L188.162 23.8575C188.984 24.4313 189.806 24.852 190.648 25.1198C191.489 25.4066 192.35 25.5405 193.23 25.5405C194.052 25.5405 194.683 25.4066 195.142 25.158C195.601 24.9094 195.812 24.546 195.812 24.087C195.812 23.6663 195.563 23.2838 195.085 22.9778C194.588 22.6718 193.727 22.3466 192.465 22.0215C190.61 21.5243 189.252 20.874 188.391 20.0325C187.511 19.2101 187.091 18.12 187.091 16.7621C187.091 15.825 187.339 15.0026 187.817 14.2759C188.315 13.5491 189.003 12.9945 189.921 12.5929C190.839 12.1912 191.929 12 193.172 12C194.416 12 195.487 12.1721 196.577 12.5355C197.667 12.8989 198.642 13.3961 199.522 14.0464L197.724 16.896C197.15 16.4753 196.462 16.1119 195.678 15.8441C194.875 15.5764 194.09 15.4425 193.306 15.4425C192.637 15.4425 192.12 15.5573 191.719 15.8059C191.317 16.0354 191.126 16.3605 191.126 16.7239C191.126 17.1446 191.355 17.4889 191.795 17.7758C192.235 18.0626 193.077 18.3878 194.282 18.732C196.232 19.2675 197.667 19.956 198.585 20.8166C199.503 21.6581 199.962 22.7483 199.962 24.0488C199.962 25.0433 199.694 25.923 199.139 26.6689C198.585 27.4148 197.801 28.0076 196.806 28.4093C195.812 28.8109 194.645 29.0213 193.344 29.0213L193.364 29.0404Z" fill="#171C6B"/>
<path d="M202.486 28.83V12.2103H206.617V28.83H202.486Z" fill="#171C6B"/>
<path d="M208.492 28.83L214.918 12.2103H219.316L225.685 28.83H221.439L219.871 24.5268L219.794 23.8001L216.601 14.907H217.71L214.363 23.9531V24.6033L212.795 28.8491H208.492V28.83ZM212.278 26.1525L213.177 23.1881H221.21L222.109 26.1525H212.278Z" fill="#171C6B"/>
<path d="M227.521 28.83V12.2103H230.868L239.398 23.5323L238.231 24.6798V12.2103H242.19V28.83H238.824L230.351 17.5271L231.499 16.3413V28.83H227.54H227.521Z" fill="#171C6B"/>
<path d="M130.155 40.1902L135.357 33.1713H139.01V49.7909H134.898V39.6547L131.092 44.9523H129.237L125.431 39.6929V49.81H121.319V33.1904H124.972L130.117 40.2093L130.155 40.1902Z" fill="#171C6B"/>
<path d="M150.485 50.0972C148.802 50.0972 147.292 49.7338 145.953 48.9879C144.614 48.242 143.543 47.2284 142.778 45.9088C142.013 44.6083 141.63 43.1357 141.63 41.4909C141.63 39.8462 142.013 38.3735 142.778 37.073C143.543 35.7725 144.595 34.7398 145.953 33.9939C147.292 33.248 148.802 32.8846 150.485 32.8846C152.168 32.8846 153.698 33.248 155.056 33.9939C156.414 34.7398 157.466 35.7534 158.231 37.073C158.996 38.3735 159.379 39.8462 159.379 41.4909C159.379 43.1357 158.996 44.6083 158.231 45.9088C157.466 47.2093 156.414 48.242 155.056 48.9879C153.698 49.7338 152.188 50.0972 150.485 50.0972ZM150.485 46.3487C151.384 46.3487 152.188 46.1383 152.914 45.7175C153.622 45.2968 154.177 44.723 154.578 43.9772C154.98 43.2313 155.171 42.4089 155.171 41.4718C155.171 40.5347 154.98 39.7123 154.578 38.9664C154.177 38.2205 153.622 37.6468 152.914 37.226C152.207 36.8053 151.403 36.5949 150.485 36.5949C149.567 36.5949 148.802 36.8053 148.095 37.226C147.387 37.6468 146.833 38.2205 146.431 38.9664C146.029 39.7123 145.838 40.5347 145.838 41.4718C145.838 42.4089 146.029 43.2313 146.431 43.9772C146.833 44.723 147.387 45.2968 148.095 45.7175C148.802 46.1383 149.606 46.3487 150.485 46.3487Z" fill="#171C6B"/>
<path d="M168.922 50.0589C167.449 50.0589 166.187 49.7911 165.116 49.2365C164.045 48.6819 163.222 47.9169 162.649 46.8841C162.075 45.8514 161.788 44.6465 161.788 43.2121V33.1523H165.919V42.887C165.919 44.0154 166.168 44.8569 166.684 45.4306C167.2 46.0044 167.946 46.2912 168.922 46.2912C169.897 46.2912 170.643 46.0044 171.159 45.4306C171.676 44.8569 171.924 43.9962 171.924 42.887V33.1523H176.055V43.2121C176.055 44.6274 175.768 45.8514 175.195 46.8841C174.621 47.8977 173.799 48.6819 172.728 49.2365C171.657 49.7911 170.394 50.0589 168.922 50.0589Z" fill="#171C6B"/>
<path d="M179.383 49.7909V33.1713H182.73L191.26 44.4933L190.093 45.6408V33.1713H194.052V49.7909H190.686L182.214 38.488L183.361 37.3023V49.7909H179.402H179.383Z" fill="#171C6B"/>
<path d="M196.06 36.9389V33.1713H209.811V36.9389H196.06ZM200.88 49.7909V34.7586H205.011V49.7909H200.88Z" fill="#171C6B"/>
<path d="M208.683 49.7909L215.109 33.1713H219.507L225.876 49.7909H221.63L220.062 45.4878L219.986 44.761L216.792 35.8679H217.901L214.554 44.914V45.5643L212.986 49.81H208.683V49.7909ZM212.469 47.0943L213.368 44.1299H221.401L222.3 47.0943H212.469Z" fill="#171C6B"/>
<path d="M227.712 49.7909V33.1713H231.843V49.7909H227.712Z" fill="#171C6B"/>
<path d="M235.286 49.7909V33.1713H238.633L247.162 44.4933L245.996 45.6408V33.1713H249.955V49.7909H246.589L238.116 38.488L239.264 37.3023V49.7909H235.305H235.286Z" fill="#171C6B"/>
<path d="M121.339 70.7331V54.1134H128.338C129.62 54.1134 130.748 54.3429 131.704 54.821C132.661 55.28 133.407 55.9494 133.942 56.7909C134.478 57.6324 134.745 58.6269 134.745 59.7553C134.745 60.8837 134.478 61.9164 133.961 62.7579C133.445 63.5994 132.699 64.2497 131.762 64.7087C130.806 65.1677 129.677 65.3972 128.358 65.3972H124.379V62.2798H127.956C128.816 62.2798 129.467 62.0694 129.926 61.6487C130.385 61.2279 130.614 60.635 130.614 59.8892C130.614 59.1433 130.385 58.5313 129.926 58.1297C129.467 57.728 128.816 57.4985 127.956 57.4985H123.022L125.412 55.6243V62.9492L125.489 63.5803V70.7331H121.358H121.339ZM130.767 70.7331L127.248 64.7087L131.169 64.0967L135.223 70.7331H130.767Z" fill="#171C6B"/>
<path d="M137.538 70.7331V54.1134H148.86V57.3838H139.68L141.573 55.6434V69.1648L139.68 67.3862H149.147V70.7139H137.538V70.7331ZM139.756 63.9628V60.7307H148.229V63.9628H139.756Z" fill="#171C6B"/>
<path d="M157.772 70.9433C156.471 70.9433 155.228 70.7521 154.023 70.3696C152.838 69.9871 151.767 69.4325 150.81 68.7249L152.57 65.7605C153.392 66.3342 154.215 66.755 155.056 67.0227C155.898 67.3096 156.758 67.4435 157.638 67.4435C158.46 67.4435 159.092 67.3096 159.551 67.061C160.01 66.8123 160.22 66.449 160.22 65.99C160.22 65.5692 159.971 65.1867 159.493 64.8807C158.996 64.5747 158.135 64.2496 156.873 63.9245C155.018 63.4272 153.66 62.777 152.799 61.9355C151.92 61.1131 151.499 60.023 151.499 58.6651C151.499 57.728 151.748 56.9056 152.226 56.1788C152.723 55.4521 153.411 54.8975 154.329 54.4958C155.247 54.0942 156.338 53.903 157.581 53.903C158.824 53.903 159.895 54.0751 160.985 54.4385C162.075 54.8018 163.05 55.2991 163.93 55.9493L162.132 58.799C161.559 58.3782 160.87 58.0148 160.086 57.7471C159.283 57.4793 158.499 57.3455 157.715 57.3455C157.045 57.3455 156.529 57.4602 156.127 57.7088C155.726 57.9383 155.534 58.2635 155.534 58.6268C155.534 59.0476 155.764 59.3918 156.204 59.6787C156.644 59.9656 157.485 60.2907 158.69 60.635C160.641 61.1705 162.075 61.859 162.993 62.7196C163.911 63.5611 164.37 64.6512 164.37 65.9517C164.37 66.9462 164.102 67.826 163.548 68.5718C162.993 69.3177 162.209 69.9106 161.214 70.3122C160.22 70.7139 159.053 70.9242 157.753 70.9242L157.772 70.9433Z" fill="#171C6B"/>
<path d="M174.755 71.0389C173.072 71.0389 171.561 70.6756 170.222 69.9297C168.884 69.1838 167.813 68.1702 167.048 66.8506C166.283 65.5501 165.9 64.0774 165.9 62.4327C165.9 60.7879 166.283 59.3153 167.048 58.0148C167.813 56.7143 168.864 55.6815 170.222 54.9357C171.561 54.1898 173.072 53.8264 174.755 53.8264C176.438 53.8264 177.968 54.1898 179.326 54.9357C180.684 55.6815 181.736 56.6952 182.501 58.0148C183.266 59.3153 183.648 60.7879 183.648 62.4327C183.648 64.0774 183.266 65.5501 182.501 66.8506C181.736 68.1511 180.684 69.1838 179.326 69.9297C177.968 70.6756 176.457 71.0389 174.755 71.0389ZM174.755 67.2904C175.654 67.2904 176.457 67.0801 177.184 66.6593C177.891 66.2386 178.446 65.6648 178.848 64.9189C179.249 64.1731 179.441 63.3507 179.441 62.4136C179.441 61.4764 179.249 60.6541 178.848 59.9082C178.446 59.1623 177.891 58.5885 177.184 58.1678C176.476 57.747 175.673 57.5367 174.755 57.5367C173.837 57.5367 173.072 57.747 172.364 58.1678C171.657 58.5885 171.102 59.1623 170.7 59.9082C170.299 60.6541 170.108 61.4764 170.108 62.4136C170.108 63.3507 170.299 64.1731 170.7 64.9189C171.102 65.6648 171.657 66.2386 172.364 66.6593C173.072 67.0801 173.875 67.2904 174.755 67.2904Z" fill="#171C6B"/>
<path d="M186.268 70.7331V54.1134H193.268C194.549 54.1134 195.678 54.3429 196.634 54.821C197.59 55.28 198.336 55.9494 198.872 56.7909C199.407 57.6324 199.675 58.6269 199.675 59.7553C199.675 60.8837 199.407 61.9164 198.891 62.7579C198.374 63.5994 197.629 64.2497 196.691 64.7087C195.735 65.1677 194.607 65.3972 193.287 65.3972H189.309V62.2798H192.886C193.746 62.2798 194.396 62.0694 194.855 61.6487C195.314 61.2279 195.544 60.635 195.544 59.8892C195.544 59.1433 195.314 58.5313 194.855 58.1297C194.396 57.728 193.746 57.4985 192.886 57.4985H187.951L190.342 55.6243V62.9492L190.418 63.5803V70.7331H186.287H186.268ZM195.678 70.7331L192.159 64.7087L196.079 64.0967L200.134 70.7331H195.678Z" fill="#171C6B"/>
<path d="M201.109 57.9001V54.1324H214.86V57.9001H201.109ZM205.929 70.733V55.7007H210.06V70.733H205.929Z" fill="#171C6B"/>
<path d="M223.007 70.9433C221.707 70.9433 220.464 70.7521 219.259 70.3696C218.073 69.9871 217.002 69.4325 216.046 68.7249L217.805 65.7605C218.628 66.3342 219.45 66.755 220.292 67.0227C221.133 67.3096 221.994 67.4435 222.874 67.4435C223.696 67.4435 224.327 67.3096 224.786 67.061C225.245 66.8123 225.455 66.449 225.455 65.99C225.455 65.5692 225.207 65.1867 224.729 64.8807C224.231 64.5747 223.371 64.2496 222.109 63.9245C220.253 63.4272 218.896 62.777 218.035 61.9355C217.155 61.1131 216.734 60.023 216.734 58.6651C216.734 57.728 216.983 56.9056 217.461 56.1788C217.958 55.4521 218.647 54.8975 219.565 54.4958C220.483 54.0942 221.573 53.903 222.816 53.903C224.059 53.903 225.13 54.0751 226.22 54.4385C227.311 54.8018 228.286 55.2991 229.166 55.9493L227.368 58.799C226.794 58.3782 226.106 58.0148 225.322 57.7471C224.518 57.4793 223.734 57.3455 222.95 57.3455C222.281 57.3455 221.764 57.4602 221.363 57.7088C220.961 57.9383 220.77 58.2635 220.77 58.6268C220.77 59.0476 220.999 59.3918 221.439 59.6787C221.879 59.9656 222.721 60.2907 223.925 60.635C225.876 61.1705 227.311 61.859 228.229 62.7196C229.147 63.5611 229.606 64.6512 229.606 65.9517C229.606 66.9462 229.338 67.826 228.783 68.5718C228.229 69.3177 227.444 69.9106 226.45 70.3122C225.455 70.7139 224.289 70.9242 222.988 70.9242L223.007 70.9433Z" fill="#171C6B"/>
<path d="M120 91.694L126.426 75.0743H130.825L137.193 91.694H132.948L131.379 87.3909L131.303 86.6641L128.109 77.771H129.218L125.871 86.8171V87.4674L124.303 91.7131H120V91.694ZM123.787 88.9974L124.686 86.033H132.718L133.617 88.9974H123.787Z" fill="#171C6B"/>
<path d="M143.16 90.1449L140.712 87.8881H150.179V91.694H139.029V75.0743H143.16V90.1449Z" fill="#171C6B"/>
<path d="M156.338 90.1449L153.89 87.8881H163.356V91.694H152.207V75.0743H156.338V90.1449Z" fill="#171C6B"/>
<path d="M165.403 91.694V75.0743H169.534V91.694H165.403Z" fill="#171C6B"/>
<path d="M171.408 91.694L177.834 75.0743H182.233L188.601 91.694H184.356L182.787 87.3909L182.711 86.6641L179.517 77.771H180.626L177.279 86.8171V87.4674L175.711 91.7131H171.408V91.694ZM175.195 88.9974L176.094 86.033H184.126L185.025 88.9974H175.195Z" fill="#171C6B"/>
<path d="M190.437 91.694V75.0743H193.784L202.314 86.3964L201.147 87.5439V75.0743H205.106V91.694H201.74L193.268 80.3911L194.415 79.2053V91.694H190.457H190.437Z" fill="#171C6B"/>
<path d="M216.294 92C214.592 92 213.101 91.6366 211.819 90.8907C210.538 90.1448 209.524 89.1312 208.817 87.8116C208.109 86.5111 207.746 85.0385 207.746 83.3937C207.746 81.749 208.09 80.3146 208.797 78.995C209.505 77.6753 210.5 76.6426 211.781 75.8967C213.062 75.1508 214.535 74.7683 216.218 74.7683C217.576 74.7683 218.857 75.0361 220.024 75.5907C221.21 76.1453 222.281 76.9486 223.237 78.0387L220.751 80.6971C220.177 79.9895 219.527 79.4348 218.8 79.0714C218.073 78.7081 217.289 78.5168 216.467 78.5168C215.587 78.5168 214.784 78.7272 214.095 79.1288C213.407 79.5496 212.871 80.1233 212.489 80.8501C212.106 81.5768 211.915 82.4374 211.915 83.3746C211.915 84.3117 212.106 85.1723 212.489 85.8991C212.871 86.6258 213.426 87.2187 214.114 87.6203C214.803 88.0411 215.606 88.2323 216.505 88.2323C217.404 88.2323 218.264 88.0411 219.029 87.6395C219.794 87.2378 220.464 86.6832 221.076 85.9373L223.562 88.5766C222.663 89.7241 221.573 90.5847 220.311 91.1585C219.049 91.7322 217.691 92 216.256 92H216.294Z" fill="#171C6B"/>
<path d="M225.628 91.694V75.0743H236.95V78.3447H227.77L229.663 76.6043V90.1257L227.77 88.3471H237.236V91.6749H225.628V91.694ZM227.865 84.9237V81.6916H236.338V84.9237H227.865Z" fill="#171C6B"/>
<path d="M42.3245 74.1541L52.4067 70.8064V80.6231L45.4247 82.9892L46.2817 85.5063C46.938 87.1518 47.2391 88.9172 47.1653 90.6869C47.0914 92.4566 46.6443 94.1908 45.8533 95.7762C45.1165 97.2672 44.0912 98.5976 42.8366 99.6907C41.582 100.784 40.1229 101.618 38.5436 102.144C35.4699 103.189 32.1111 103.009 29.1672 101.641C26.2587 100.2 24.0194 97.693 22.9162 94.6434C22.346 93.0785 22.0926 91.4161 22.1705 89.7526C22.2484 88.0891 22.656 86.4575 23.3698 84.9525C24.1158 83.346 25.1929 81.9147 26.5307 80.7523C27.8685 79.5898 29.4368 78.7224 31.1332 78.2067L33.6537 77.3005L31.1332 70.3785L38.6949 64.2367L42.3245 74.1541ZM33.0993 93.259C33.8427 93.5612 34.6748 93.5612 35.4182 93.259C35.8382 93.1219 36.2264 92.902 36.5598 92.6123C36.8932 92.3226 37.165 91.969 37.359 91.5725C37.5515 91.1407 37.6509 90.6734 37.6509 90.2008C37.6509 89.7281 37.5515 89.2607 37.359 88.8289V88.5521L36.5272 86.0349L34.0067 86.9159H33.7294C33.2679 87.0427 32.8394 87.2682 32.4738 87.5768C32.1082 87.8854 31.8142 88.2697 31.6121 88.7031C31.2842 89.5102 31.2842 90.4131 31.6121 91.2202C31.7083 91.6398 31.8871 92.0362 32.1381 92.3862C32.3891 92.7362 32.7072 93.0329 33.0741 93.259H33.0993Z" fill="#946FE4"/>
<path d="M62.2112 74.1542L65.8156 64.2871L73.3773 70.4037L70.8567 77.3257L73.3773 78.2571C75.0783 78.7697 76.6516 79.6357 77.9939 80.7983C79.3362 81.9609 80.417 83.3938 81.1657 85.003C81.8721 86.5062 82.2737 88.1342 82.3472 89.7931C82.4207 91.452 82.1649 93.109 81.5943 94.6687C80.4891 97.7152 78.2627 100.227 75.3685 101.691C72.419 103.036 69.069 103.216 65.9921 102.195C64.4106 101.665 62.9502 100.827 61.6954 99.7299C60.4406 98.6324 59.4165 97.2971 58.6824 95.8013C57.8913 94.216 57.4443 92.4818 57.3704 90.7121C57.2966 88.9424 57.5977 87.1771 58.254 85.5315L59.1109 83.0144L52.129 80.6735V70.8316L62.2112 74.1542ZM71.4364 93.2842C72.1365 92.8861 72.6725 92.2528 72.9488 91.4971C73.1152 91.0983 73.2008 90.6706 73.2008 90.2385C73.2008 89.8065 73.1152 89.3788 72.9488 88.98C72.7467 88.5512 72.4555 88.1702 72.0948 87.8621C71.7342 87.554 71.3122 87.3259 70.8567 87.1928H70.5795L68.0589 86.3118L67.2271 88.829V89.1058C67.0277 89.5402 66.9245 90.0124 66.9245 90.4903C66.9245 90.9681 67.0277 91.4403 67.2271 91.8746C67.6243 92.6622 68.3105 93.2664 69.1428 93.5611C69.9163 93.7388 70.7276 93.6408 71.4364 93.2842Z" fill="#ED4023"/>
<path d="M74.638 58.5983L69.1432 49.6374L78.7465 47.4475L82.6029 53.7403L84.8966 52.3307C86.3573 51.3419 88.0072 50.6659 89.7424 50.3453C91.4776 50.0247 93.2606 50.0665 94.9789 50.468C96.5967 50.8528 98.1223 51.5536 99.4677 52.5299C100.813 53.5063 101.952 54.7389 102.818 56.1567C104.527 58.9135 105.105 62.2227 104.431 65.3945C103.643 68.5179 101.685 71.2205 98.9612 72.9459C97.563 73.8518 95.9988 74.4718 94.359 74.7699C92.7193 75.068 91.0366 75.0384 89.4084 74.6827C87.6769 74.3103 86.0435 73.5775 84.6147 72.5323C83.1858 71.487 81.9936 70.1527 81.1158 68.6164L79.6539 66.3762L73.4532 70.3533L65.7404 64.2115L74.638 58.5983ZM95.3568 63.3305C95.5028 62.5371 95.3406 61.7181 94.9032 61.0399C94.6825 60.6587 94.3849 60.3275 94.029 60.0675C93.6732 59.8075 93.2669 59.6243 92.8363 59.5297C92.3751 59.4192 91.8956 59.4092 91.4302 59.5004C90.9648 59.5916 90.5244 59.7819 90.1393 60.0583L89.8873 60.2093L87.6692 61.5685L89.0807 63.7584L89.2319 64.0101C89.4617 64.4264 89.7789 64.7881 90.1617 65.0705C90.5446 65.3529 90.9841 65.5493 91.45 65.6462C91.8792 65.7421 92.3233 65.7515 92.7561 65.6737C93.189 65.5959 93.6018 65.4325 93.9706 65.1932C94.604 64.7415 95.0589 64.0824 95.2561 63.3305H95.3568Z" fill="#00BFFF"/>
<path d="M70.226 39.116L59.7656 37.8323L64.0506 28.972L71.3603 29.8782L71.713 27.21C71.8364 25.4447 72.3312 23.7253 73.1651 22.1639C73.999 20.6025 75.1533 19.2342 76.5526 18.1484C77.8681 17.1338 79.3714 16.389 80.9763 15.957C82.5812 15.525 84.2558 15.4143 85.9037 15.6313C89.1338 16.0224 92.0873 17.646 94.146 20.1621C96.1145 22.7308 97.0172 25.9578 96.6665 29.1734C96.5009 30.8296 96.008 32.4367 95.2163 33.9014C94.4245 35.3661 93.3496 36.6594 92.0539 37.7064C90.6815 38.8278 89.0876 39.6473 87.3763 40.1114C85.665 40.5755 83.8748 40.6737 82.1229 40.3997L79.4511 40.148L78.7202 47.4728L69.1169 49.6627L70.226 39.116ZM86.8363 25.9011C86.3052 25.2974 85.569 24.9117 84.7696 24.8188C84.3253 24.7535 83.8722 24.7802 83.4386 24.8971C83.005 25.014 82.6001 25.2187 82.2491 25.4984C81.8674 25.8003 81.5565 26.1822 81.3388 26.6171C81.121 27.0521 81.0016 27.5294 80.9888 28.0155V28.3176L80.6611 30.8347L83.1817 31.0864H83.4589C83.9287 31.1703 84.4113 31.1508 84.8728 31.029C85.3343 30.9073 85.7636 30.6863 86.1307 30.3816C86.4793 30.1091 86.7671 29.7667 86.9754 29.3766C87.1838 28.9865 87.3081 28.5572 87.3405 28.1162C87.4288 27.3661 87.2503 26.6088 86.8363 25.9767V25.9011Z" fill="#039947"/>
<path d="M60.6735 21.9744C61.9712 20.7689 63.0041 19.3075 63.707 17.6827C64.4098 16.0579 64.7674 14.3051 64.7568 12.5352C64.74 10.8707 64.3926 9.22615 63.735 7.69664C63.0773 6.16712 62.1224 4.78305 60.9255 3.62461C58.6177 1.35094 55.5214 0.0528162 52.28 0C49.0299 0.046363 45.9233 1.34496 43.6093 3.62461C42.4124 4.78305 41.4575 6.16712 40.7998 7.69664C40.1422 9.22615 39.7948 10.8707 39.778 12.5352C39.7674 14.3051 40.1248 16.0579 40.8277 17.6827C41.5306 19.3075 42.5636 20.7689 43.8613 21.9744L45.7517 23.8874L40.4838 28.9216L33.149 29.8278L32.8213 27.3107C32.7013 25.541 32.2082 23.8166 31.3742 22.2507C30.5402 20.6847 29.3841 19.3124 27.9819 18.2239C26.6664 17.2092 25.1629 16.4645 23.558 16.0325C21.9531 15.6005 20.2785 15.4898 18.6305 15.7068C15.4043 16.0914 12.4515 17.7056 10.3884 20.2124C8.4199 22.7811 7.51728 26.0081 7.86789 29.2237C8.03035 30.8781 8.51941 32.4839 9.30678 33.9485C10.0942 35.4131 11.1643 36.7074 12.4553 37.7567C13.8502 38.8918 15.4691 39.7206 17.2063 40.189C18.9435 40.6574 20.7601 40.7549 22.5375 40.4751L25.2093 40.1983L25.9402 47.4979L22.0837 53.7907L19.7901 52.3811C18.3307 51.3895 16.6808 50.7118 14.9451 50.3911C13.2094 50.0705 11.4259 50.1138 9.70785 50.5184C8.08793 50.9062 6.56101 51.6109 5.2155 52.5916C3.86998 53.5724 2.73261 54.8098 1.86897 56.2323C0.168379 58.9925 -0.400435 62.3015 0.281006 65.4701C1.06318 68.5893 3.01118 71.2913 5.72533 73.0214C7.12353 73.9274 8.68792 74.5473 10.3277 74.8455C11.9674 75.1436 13.6501 75.1139 15.2783 74.7582C17.0166 74.3862 18.6562 73.6511 20.0897 72.6012C21.5233 71.5514 22.7183 70.2106 23.5961 68.6668L25.0328 66.4266L31.2333 70.4036L38.9462 64.287L30.0992 58.5732L35.5687 49.6374L34.5101 39.1914L44.9451 37.8825L52.5068 30.5326L60.0684 37.8825L64.3534 29.0223L59.0603 23.8622L60.6735 21.9744ZM21.2772 31.1367H20.9999C20.53 31.2206 20.0476 31.201 19.5861 31.0793C19.1246 30.9576 18.6952 30.7366 18.3281 30.4319C17.9832 30.1594 17.6964 29.8209 17.4843 29.4362C17.2722 29.0515 17.1392 28.6284 17.093 28.1917C17.0236 27.3891 17.2376 26.5876 17.698 25.9262C18.229 25.3225 18.9655 24.9368 19.7648 24.8439C20.2091 24.7831 20.6612 24.8118 21.0942 24.9286C21.5271 25.0453 21.9321 25.2476 22.2854 25.5235C22.6717 25.823 22.9873 26.2038 23.2095 26.6388C23.4317 27.0739 23.555 27.5525 23.5709 28.0406V28.3427L23.8986 30.8598L21.2772 31.1367ZM15.4296 63.7333L15.2783 63.985C15.054 64.4031 14.7419 64.768 14.3634 65.0547C13.985 65.3414 13.5491 65.5432 13.0855 65.6463C12.215 65.8269 11.3083 65.6549 10.5649 65.168C9.88881 64.7389 9.39502 64.0756 9.17848 63.3054C9.0518 62.5123 9.21282 61.7 9.63231 61.0148C9.8565 60.6364 10.1552 60.3075 10.5104 60.0479C10.8657 59.7883 11.2701 59.6034 11.699 59.5045C12.1644 59.3952 12.6477 59.3858 13.117 59.477C13.5863 59.5681 14.0308 59.7576 14.4213 60.0331L14.6482 60.2093L16.8663 61.5434L15.4296 63.7333ZM54.2964 15.153L54.0947 15.3544L52.28 17.217L50.4399 15.3544L50.2384 15.153C49.8804 14.84 49.5954 14.4524 49.4038 14.0175C49.2122 13.5826 49.1185 13.1109 49.1293 12.6359C49.1262 12.1973 49.2141 11.7628 49.3876 11.3598C49.5612 10.9569 49.8164 10.5943 50.1375 10.295C50.7102 9.72491 51.4727 9.38455 52.28 9.33847C53.0785 9.39056 53.8308 9.73048 54.3972 10.295C54.7182 10.5943 54.9736 10.9569 55.1472 11.3598C55.3207 11.7628 55.4086 12.1973 55.4055 12.6359C55.4163 13.1109 55.3226 13.5826 55.131 14.0175C54.9394 14.4524 54.6545 14.84 54.2964 15.153Z" fill="#171C6B"/>
</svg>
