<svg xmlns="http://www.w3.org/2000/svg" fill="none" viewBox="0 0 131 55"><path fill="#936FE3" d="m22.89 39.52 5.2-1.75v5.13l-3.64 1.23.45 1.33a6.59 6.59 0 0 1-8.91 8.43 6.6 6.6 0 0 1 1.03-12.22l1.32-.48-1.31-3.61 4.01-3.2 1.87 5.15-.02-.01Zm-4.81 9.98a1.75 1.75 0 0 0 2.28-2.28l-.05-.14-.43-1.28-1.27.46-.15.05a1.73 1.73 0 0 0-1.15 2.27c.14.4.42.72.79.93l-.02-.01Z"/><path fill="#EC4023" d="m33.27 39.52 1.87-5.15 4.01 3.2-1.31 3.61 1.32.48a6.61 6.61 0 0 1 1.03 12.22 6.54 6.54 0 0 1-4.88.26 6.59 6.59 0 0 1-4.03-8.69l.45-1.33-3.64-1.23v-5.13l5.2 1.75-.02.01Zm4.81 9.98c.37-.2.64-.53.79-.93a1.73 1.73 0 0 0-1.15-2.27l-.15-.05-1.27-.46-.43 1.28-.05.14c-.11.28-.26.83.05 1.44.21.42.56.73 1.01.88.4.14.83.12 1.22-.04l-.02.01Z"/><path fill="#00BEFF" d="m39.75 31.41-2.86-4.68 5-1.14 2.01 3.28 1.19-.73a6.62 6.62 0 0 1 9.37 1.99 6.6 6.6 0 0 1 .83 4.82 6.6 6.6 0 0 1-12.15 1.71l-.76-1.18-3.23 2.08-4.01-3.2 4.61-2.97v.02Zm10.79 2.46a1.76 1.76 0 0 0-1.31-1.99c-.66-.16-1.17.1-1.41.27l-.13.08-1.15.71.73 1.14.08.13c.15.26.49.71 1.15.86a1.76 1.76 0 0 0 2.05-1.22l-.01.02Z"/><path fill="#039847" d="M37.44 21.28 32 20.6l2.23-4.62 3.81.47.17-1.39a6.57 6.57 0 0 1 7.41-6.07 6.6 6.6 0 0 1 4.29 2.36 6.6 6.6 0 0 1-1.06 9.16 6.63 6.63 0 0 1-5.18 1.41l-1.39-.14-.39 3.82-5 1.14.55-5.45v-.01Zm8.66-6.9a1.73 1.73 0 0 0-1.08-.56 1.74 1.74 0 0 0-1.96 1.63v.15l-.18 1.34 1.35.14.15.02c.29.05.86.07 1.39-.37a1.76 1.76 0 0 0 .32-2.36l.01.01Z"/><path fill="#fff" d="M32.47 12.3a6.63 6.63 0 0 0 .14-9.58A6.57 6.57 0 0 0 28.1.84a6.57 6.57 0 0 0-6.5 6.53 6.6 6.6 0 0 0 2.13 4.93l.98 1-2.74 2.68-3.81.47-.17-1.39a6.57 6.57 0 0 0-7.41-6.07 6.6 6.6 0 0 0-4.29 2.36 6.6 6.6 0 0 0 1.06 9.16 6.63 6.63 0 0 0 5.18 1.41l1.39-.14.39 3.81-2.01 3.28-1.19-.73a6.62 6.62 0 0 0-9.37 1.99 6.6 6.6 0 0 0-.83 4.82 6.6 6.6 0 0 0 12.15 1.71l.76-1.18 3.23 2.08 4.01-3.2-4.61-2.97 2.86-4.67-.55-5.45 5.43-.68 3.92-3.82 3.92 3.83 2.23-4.62-2.75-2.69.98-1-.02.01Zm-20.53 4.77-.15.02a1.7 1.7 0 0 1-1.39-.37 1.76 1.76 0 0 1-.32-2.36c.28-.31.66-.51 1.08-.56a1.74 1.74 0 0 1 1.96 1.63v.15l.18 1.34-1.35.14-.01.01ZM8.9 34.09l-.08.13c-.15.26-.49.71-1.15.86a1.76 1.76 0 0 1-2.05-1.22 1.76 1.76 0 0 1 1.31-1.99c.66-.16 1.17.1 1.41.27l.13.08 1.15.71-.73 1.14.01.02ZM29.15 8.74l-.11.11-.95.97-.95-.97-.11-.11c-.22-.2-.59-.63-.58-1.32 0-.47.19-.9.53-1.23.3-.3.69-.47 1.11-.49.42.02.81.2 1.11.49.33.33.52.76.53 1.23 0 .68-.36 1.12-.58 1.32ZM63.32 15.75V7.06h5.92v1.71h-4.8l.99-.91v7.07l-.99-.93h4.95v1.74h-6.07v.01Zm1.17-3.54v-1.69h4.43v1.69h-4.43ZM74.34 15.9c-.77 0-1.43-.14-1.99-.43a3 3 0 0 1-1.29-1.23 3.87 3.87 0 0 1-.45-1.92V7.06h2.16v5.09c0 .59.13 1.03.4 1.33.27.3.66.45 1.17.45.51 0 .9-.15 1.17-.45.27-.3.4-.75.4-1.33V7.06h2.16v5.26a3.9 3.9 0 0 1-.45 1.92c-.3.53-.73.94-1.29 1.23-.56.29-1.22.43-1.99.43ZM79.81 15.75V7.06h3.66c.67 0 1.26.12 1.76.37.5.24.89.59 1.17 1.03.28.44.42.96.42 1.55a2.72 2.72 0 0 1-1.56 2.59c-.5.24-1.09.36-1.78.36H81.4v-1.63h1.87c.45 0 .79-.11 1.03-.33.24-.22.36-.53.36-.92s-.12-.71-.36-.92a1.51 1.51 0 0 0-1.03-.33h-2.58l1.25-.98v3.83l.04.33v3.74h-2.17Zm4.93 0L82.9 12.6l2.05-.32 2.12 3.47h-2.33ZM87.78 15.75l3.36-8.69h2.3l3.33 8.69h-2.22l-.82-2.25-.04-.38-1.67-4.65h.58l-1.75 4.73v.34l-.82 2.22h-2.25v-.01Zm1.99-1.4.47-1.55h4.2l.47 1.55h-5.14ZM100.98 15.86c-.68 0-1.33-.1-1.96-.3a5.8 5.8 0 0 1-1.68-.86l.92-1.55a4.84 4.84 0 0 0 2.65.88c.43 0 .76-.07 1-.2s.35-.32.35-.56c0-.22-.13-.42-.38-.58a5.36 5.36 0 0 0-1.37-.5 4.8 4.8 0 0 1-2.13-1.04c-.46-.43-.68-1-.68-1.71 0-.49.13-.92.38-1.3a2.5 2.5 0 0 1 1.1-.88 5.44 5.44 0 0 1 5.02.76l-.94 1.49a3.99 3.99 0 0 0-2.31-.76c-.35 0-.62.06-.83.19-.21.12-.31.29-.31.48 0 .22.12.4.35.55.23.15.67.32 1.3.5 1.02.28 1.77.64 2.25 1.09.48.44.72 1.01.72 1.69 0 .52-.14.98-.43 1.37-.29.39-.7.7-1.22.91-.52.21-1.13.32-1.81.32l.01.01ZM105.75 15.75V7.06h2.16v8.69h-2.16ZM108.89 15.75l3.36-8.69h2.3l3.33 8.69h-2.22l-.82-2.25-.04-.38-1.67-4.65h.58l-1.75 4.73v.34l-.82 2.22h-2.25v-.01Zm1.98-1.4.47-1.55h4.2l.47 1.55h-5.14ZM118.84 15.75V7.06h1.75l4.46 5.92-.61.6V7.06h2.07v8.69h-1.76l-4.43-5.91.6-.62v6.53H118.84ZM67.93 21.69l2.72-3.67h1.91v8.69h-2.15v-5.3l-1.99 2.77h-.97l-1.99-2.75v5.29h-2.15v-8.69h1.91l2.69 3.67.02-.01ZM78.56 26.87c-.88 0-1.67-.19-2.37-.58a4.28 4.28 0 0 1-2.26-3.92 4.28 4.28 0 0 1 2.26-3.92c.7-.39 1.49-.58 2.37-.58.88 0 1.68.19 2.39.58.71.39 1.26.92 1.66 1.61.4.68.6 1.45.6 2.31a4.28 4.28 0 0 1-2.26 3.92c-.71.39-1.5.58-2.39.58Zm0-1.96c.47 0 .89-.11 1.27-.33.37-.22.66-.52.87-.91.21-.39.31-.82.31-1.31 0-.49-.1-.92-.31-1.31s-.5-.69-.87-.91a2.43 2.43 0 0 0-1.27-.33 2.36 2.36 0 0 0-2.12 1.24 2.7 2.7 0 0 0-.31 1.31c0 .49.1.92.31 1.31s.5.69.87.91c.37.22.79.33 1.25.33ZM88.2 26.85c-.77 0-1.43-.14-1.99-.43a3 3 0 0 1-1.29-1.23 3.87 3.87 0 0 1-.45-1.92v-5.26h2.16v5.09c0 .59.13 1.03.4 1.33.27.3.66.45 1.17.45.51 0 .9-.15 1.17-.45.27-.3.4-.75.4-1.33v-5.09h2.16v5.26a3.9 3.9 0 0 1-.45 1.92c-.3.53-.73.94-1.29 1.23-.56.29-1.22.43-1.99.43ZM93.67 26.71v-8.69h1.75l4.46 5.92-.61.6v-6.52h2.07v8.69h-1.76l-4.43-5.91.6-.62v6.53H93.67ZM102.39 19.99v-1.97h7.19v1.97h-7.19Zm2.52 6.72v-7.86h2.16v7.86h-2.16ZM108.99 26.71l3.36-8.69h2.3l3.33 8.69h-2.22l-.82-2.25-.04-.38-1.67-4.65h.58l-1.75 4.73v.34l-.82 2.22h-2.25v-.01Zm1.98-1.41.47-1.55h4.2l.47 1.55h-5.14ZM118.94 26.71v-8.69h2.16v8.69h-2.16ZM122.9 26.71v-8.69h1.75l4.46 5.92-.61.6v-6.52h2.07v8.69h-1.76l-4.43-5.91.6-.62v6.53H122.9ZM63.32 37.66v-8.69h3.66c.67 0 1.26.12 1.76.37.5.24.89.59 1.17 1.03.28.44.42.96.42 1.55a2.72 2.72 0 0 1-1.56 2.59c-.5.24-1.09.36-1.78.36h-2.08v-1.63h1.87c.45 0 .79-.11 1.03-.33.24-.22.36-.53.36-.92s-.12-.71-.36-.92a1.51 1.51 0 0 0-1.03-.33H64.2l1.25-.98v3.83l.04.33v3.74h-2.17Zm4.93 0-1.84-3.15 2.05-.32 2.12 3.47h-2.33ZM71.79 37.66v-8.69h5.92v1.71h-4.8l.99-.91v7.07l-.99-.93h4.95v1.74h-6.07v.01Zm1.16-3.54v-1.69h4.43v1.69h-4.43ZM82.37 37.77c-.68 0-1.33-.1-1.96-.3a5.8 5.8 0 0 1-1.68-.86l.92-1.55a4.84 4.84 0 0 0 2.65.88c.43 0 .76-.07 1-.2s.35-.32.35-.56c0-.22-.13-.42-.38-.58a5.36 5.36 0 0 0-1.37-.5 4.8 4.8 0 0 1-2.13-1.04c-.46-.43-.68-1-.68-1.71 0-.49.13-.92.38-1.3a2.5 2.5 0 0 1 1.1-.88 5.44 5.44 0 0 1 5.02.76l-.94 1.49a3.99 3.99 0 0 0-2.31-.76c-.35 0-.62.06-.83.19-.21.12-.31.29-.31.48 0 .22.12.4.35.55.23.15.67.32 1.3.5 1.02.28 1.77.64 2.25 1.09.48.44.72 1.01.72 1.69 0 .52-.14.98-.43 1.37-.29.39-.7.7-1.22.91-.52.21-1.13.32-1.81.32l.01.01ZM91.25 37.82c-.88 0-1.67-.19-2.37-.58a4.28 4.28 0 0 1-2.26-3.92 4.28 4.28 0 0 1 2.26-3.92c.7-.39 1.49-.58 2.37-.58.88 0 1.68.19 2.39.58.71.39 1.26.92 1.66 1.61.4.68.6 1.45.6 2.31a4.28 4.28 0 0 1-2.26 3.92c-.71.39-1.5.58-2.39.58Zm0-1.96c.47 0 .89-.11 1.27-.33.37-.22.66-.52.87-.91.21-.39.31-.82.31-1.31 0-.49-.1-.92-.31-1.31s-.5-.69-.87-.91a2.43 2.43 0 0 0-1.27-.33A2.36 2.36 0 0 0 89.13 32a2.7 2.7 0 0 0-.31 1.31c0 .49.1.92.31 1.31s.5.69.87.91c.37.22.79.33 1.25.33ZM97.27 37.66v-8.69h3.66c.67 0 1.26.12 1.76.37.5.24.89.59 1.17 1.03.28.44.42.96.42 1.55a2.72 2.72 0 0 1-1.56 2.59c-.5.24-1.09.36-1.78.36h-2.08v-1.63h1.87c.45 0 .79-.11 1.03-.33.24-.22.36-.53.36-.92s-.12-.71-.36-.92a1.51 1.51 0 0 0-1.03-.33h-2.58l1.25-.98v3.83l.04.33v3.74h-2.17Zm4.92 0-1.84-3.15 2.05-.32 2.12 3.47h-2.33ZM105.03 30.95v-1.97h7.19v1.97h-7.19Zm2.52 6.71V29.8h2.16v7.86h-2.16ZM116.48 37.77c-.68 0-1.33-.1-1.96-.3a5.8 5.8 0 0 1-1.68-.86l.92-1.55a4.84 4.84 0 0 0 2.65.88c.43 0 .76-.07 1-.2s.35-.32.35-.56c0-.22-.13-.42-.38-.58a5.36 5.36 0 0 0-1.37-.5 4.8 4.8 0 0 1-2.13-1.04c-.46-.43-.68-1-.68-1.71 0-.49.13-.92.38-1.3a2.5 2.5 0 0 1 1.1-.88 5.44 5.44 0 0 1 5.02.76l-.94 1.49a3.99 3.99 0 0 0-2.31-.76c-.35 0-.62.06-.83.19-.21.12-.31.29-.31.48 0 .22.12.4.35.55.23.15.67.32 1.3.5 1.02.28 1.77.64 2.25 1.09.48.44.72 1.01.72 1.69 0 .52-.14.98-.43 1.37-.29.39-.7.7-1.22.91-.52.21-1.13.32-1.81.32l.01.01ZM62.62 48.62l3.36-8.69h2.3l3.33 8.69h-2.22l-.82-2.25-.04-.38-1.67-4.65h.58l-1.75 4.73v.34l-.82 2.22h-2.25v-.01Zm1.98-1.41.47-1.55h4.2l.47 1.55H64.6ZM74.73 47.81l-1.28-1.18h4.95v1.99h-5.83v-8.69h2.16v7.88ZM81.62 47.81l-1.28-1.18h4.95v1.99h-5.83v-8.69h2.16v7.88ZM86.36 48.62v-8.69h2.16v8.69h-2.16ZM89.5 48.62l3.36-8.69h2.3l3.33 8.69h-2.22l-.82-2.25-.04-.38-1.67-4.65h.58l-1.75 4.73v.34l-.82 2.22H89.5v-.01Zm1.98-1.41.47-1.55h4.2l.47 1.55h-5.14ZM99.45 48.62v-8.69h1.75l4.46 5.92-.61.6v-6.52h2.07v8.69h-1.76l-4.43-5.91.6-.62v6.53H99.45ZM112.97 48.78c-.89 0-1.67-.19-2.34-.58a4.05 4.05 0 0 1-1.57-1.61 4.76 4.76 0 0 1-.56-2.31c0-.86.18-1.61.55-2.3.37-.69.89-1.23 1.56-1.62a4.52 4.52 0 0 1 2.32-.59c.71 0 1.38.14 1.99.43.62.29 1.18.71 1.68 1.28l-1.3 1.39c-.3-.37-.64-.66-1.02-.85a2.7 2.7 0 0 0-1.22-.29c-.46 0-.88.11-1.24.32-.36.22-.64.52-.84.9-.2.38-.3.83-.3 1.32 0 .49.1.94.3 1.32.2.38.49.69.85.9a2.82 2.82 0 0 0 2.57.01c.4-.21.75-.5 1.07-.89l1.3 1.38a4.51 4.51 0 0 1-1.7 1.35c-.66.3-1.37.44-2.12.44h.02ZM117.85 48.62v-8.69h5.92v1.71h-4.8l.99-.91v7.07l-.99-.93h4.95v1.74h-6.07v.01Zm1.17-3.54v-1.69h4.43v1.69h-4.43Z"/></svg>