<svg width="201" height="48" viewBox="0 0 201 48" fill="none" xmlns="http://www.w3.org/2000/svg">
<path d="M86.54 13.33C87.6323 13.9414 88.8686 14.2487 90.12 14.22C91.27 14.22 92.36 13.99 93.37 13.55C94.3949 13.0863 95.2909 12.3791 95.98 11.49L93.98 9.37996C93.5349 9.94606 92.9763 10.4127 92.34 10.75C91.7307 11.0648 91.0546 11.2283 90.3688 11.2266C89.683 11.2248 89.0077 11.0579 88.4 10.74C87.8446 10.4125 87.3937 9.93392 87.1 9.35996C86.79 8.76996 86.63 8.09996 86.63 7.32996C86.63 6.55996 86.78 5.88996 87.09 5.29996C87.39 4.70996 87.82 4.24996 88.37 3.91996C88.9434 3.60579 89.585 3.43695 90.2388 3.42824C90.8925 3.41952 91.5385 3.57119 92.12 3.86996C92.7 4.16996 93.22 4.59996 93.68 5.16996L95.68 3.03996C94.9691 2.20809 94.0897 1.53662 93.1 1.06996C92.1443 0.628076 91.1029 0.40271 90.05 0.40996C88.71 0.40996 87.52 0.709959 86.49 1.30996C85.46 1.90996 84.67 2.73996 84.1 3.78996C83.53 4.83996 83.25 6.00996 83.25 7.30996C83.25 8.60996 83.54 9.80996 84.11 10.86C84.68 11.91 85.48 12.73 86.52 13.32L86.54 13.33ZM107.46 1.30996C106.38 0.709959 105.16 0.41996 103.8 0.41996C102.44 0.41996 101.25 0.719959 100.17 1.30996C99.0924 1.89206 98.1981 2.7625 97.587 3.82391C96.976 4.88531 96.6723 6.09581 96.71 7.31996C96.71 8.63996 97.02 9.81996 97.63 10.87C98.24 11.92 99.09 12.74 100.17 13.33C101.25 13.92 102.46 14.22 103.8 14.22C105.14 14.22 106.38 13.92 107.46 13.33C108.54 12.74 109.39 11.91 110 10.87C110.61 9.81996 110.91 8.63996 110.91 7.31996C110.91 5.99996 110.61 4.81996 110 3.76996C109.401 2.7277 108.521 1.87516 107.46 1.30996ZM107.07 9.32996C106.757 9.92001 106.285 10.4101 105.706 10.7444C105.128 11.0786 104.467 11.2434 103.8 11.22C103.136 11.2396 102.48 11.073 101.905 10.739C101.331 10.405 100.861 9.91689 100.55 9.32996C100.23 8.73996 100.07 8.06996 100.07 7.31996C100.07 6.56996 100.23 5.89996 100.55 5.30996C100.861 4.72303 101.331 4.23496 101.905 3.90095C102.48 3.56694 103.136 3.40033 103.8 3.41996C104.51 3.41996 105.17 3.58996 105.74 3.91996C106.31 4.24996 106.75 4.71996 107.07 5.30996C107.39 5.89996 107.54 6.56996 107.54 7.31996C107.54 8.06996 107.38 8.73996 107.07 9.32996ZM116.28 9.69996H118.03L120.52 13.98H124.1L121.18 9.19996L121.3 9.14996C122.051 8.80071 122.68 8.2354 123.108 7.52637C123.535 6.81735 123.741 5.99688 123.7 5.16996C123.719 4.34743 123.499 3.53706 123.068 2.83631C122.637 2.13557 122.013 1.57428 121.27 1.21996C120.427 0.831817 119.508 0.640325 118.58 0.65996H112.97V13.97H116.28V9.68996V9.69996ZM119.84 3.86996C120.21 4.20996 120.39 4.67996 120.39 5.28996C120.39 5.89996 120.21 6.36996 119.84 6.70996C119.47 7.04996 118.95 7.20996 118.26 7.20996H116.23V3.36996H118.26C118.95 3.36996 119.47 3.53996 119.84 3.86996ZM129.21 10.21H131.23C132.29 10.21 133.21 10.02 133.99 9.62996C134.77 9.23996 135.36 8.68996 135.78 7.96996C136.2 7.24996 136.41 6.39996 136.41 5.43996C136.41 4.47996 136.2 3.60996 135.78 2.88996C135.364 2.17142 134.74 1.59605 133.99 1.23996C133.126 0.839923 132.182 0.644852 131.23 0.66996H125.9V13.98H129.21V10.21ZM132.5 3.98996C132.89 4.33996 133.09 4.83996 133.09 5.47996C133.09 6.11996 132.89 6.60996 132.5 6.95996C132.11 7.30996 131.57 7.48996 130.88 7.48996H129.17V3.45996H130.88C131.56 3.45996 132.1 3.62996 132.5 3.97996V3.98996ZM141.1 13.33C142.18 13.93 143.39 14.22 144.73 14.22C146.07 14.22 147.31 13.92 148.39 13.33C149.47 12.74 150.32 11.91 150.93 10.87C151.54 9.81996 151.84 8.63996 151.84 7.31996C151.84 5.99996 151.54 4.81996 150.93 3.76996C150.32 2.71996 149.47 1.89996 148.39 1.30996C147.31 0.719959 146.09 0.41996 144.73 0.41996C143.37 0.41996 142.17 0.719959 141.1 1.30996C140.028 1.89821 139.138 2.76998 138.528 3.82994C137.917 4.88991 137.61 6.09725 137.64 7.31996C137.64 8.63996 137.95 9.81996 138.56 10.87C139.161 11.9102 140.041 12.7621 141.1 13.33ZM141.48 5.31996C141.791 4.73303 142.261 4.24496 142.835 3.91095C143.41 3.57694 144.066 3.41033 144.73 3.42996C145.397 3.40654 146.058 3.57135 146.636 3.90556C147.215 4.23978 147.687 4.72991 148 5.31996C148.32 5.90996 148.48 6.57996 148.48 7.32996C148.48 8.07996 148.32 8.74996 148 9.33996C147.687 9.93001 147.215 10.4201 146.636 10.7544C146.058 11.0886 145.397 11.2534 144.73 11.23C144.01 11.23 143.38 11.06 142.81 10.73C142.24 10.4 141.8 9.92996 141.48 9.33996C141.16 8.74996 141 8.07996 141 7.32996C141 6.57996 141.16 5.90996 141.48 5.31996ZM157.21 9.69996H158.96L161.45 13.98H165.03L162.11 9.19996L162.23 9.14996C162.981 8.80071 163.61 8.2354 164.038 7.52637C164.465 6.81735 164.671 5.99688 164.63 5.16996C164.649 4.34743 164.429 3.53706 163.998 2.83631C163.567 2.13557 162.943 1.57428 162.2 1.21996C161.357 0.831817 160.438 0.640325 159.51 0.65996H153.9V13.97H157.21V9.68996V9.69996ZM160.76 3.86996C161.13 4.20996 161.31 4.67996 161.31 5.28996C161.31 5.89996 161.13 6.36996 160.76 6.70996C160.39 7.04996 159.87 7.20996 159.18 7.20996H157.14V3.36996H159.18C159.86 3.36996 160.39 3.53996 160.76 3.86996ZM170.29 11.83H175.65L176.43 13.98H179.83L174.73 0.66996H171.21L166.06 13.98H169.5L170.28 11.83H170.29ZM173 4.03996L174.95 9.44996H171L173 4.03996ZM182.73 13.98H186.04V3.68996H189.88V0.66996H178.87V3.68996H182.73V13.98ZM194.69 11.32V8.55996H200.04V5.96996H194.69V3.28996H200.53V0.66996H191.46V13.98H200.76V11.32H194.69ZM91.93 25.25C91.93 26.15 91.72 26.83 91.31 27.29C90.9 27.75 90.3 27.98 89.51 27.98C88.72 27.98 88.12 27.75 87.71 27.29C87.3 26.83 87.09 26.15 87.09 25.25V17.45H83.78V25.51C83.78 26.65 84.01 27.63 84.47 28.45C84.9225 29.2641 85.6135 29.9202 86.45 30.33C87.31 30.77 88.32 30.99 89.5 30.99C90.68 30.99 91.7 30.77 92.55 30.33C93.3805 29.9116 94.0691 29.2576 94.53 28.45C94.99 27.63 95.22 26.65 95.22 25.51V17.45H91.91V25.25H91.93ZM106.44 25.29L100.54 17.46H97.86V30.77H101.03V22.93L106.91 30.77H109.61V17.46H106.44V25.29ZM112.31 17.46H115.62V30.77H112.31V17.46ZM122.43 22.67L120.6 17.46H117.07L122.03 30.77H125.51L130.4 17.46H126.92L125.09 22.67L123.77 26.84L122.43 22.67ZM135.07 25.35H140.42V22.76H135.07V20.08H140.91V17.46H131.84V30.77H141.14V28.11H135.07V25.35ZM151.54 25.94C152.291 25.5907 152.92 25.0254 153.348 24.3164C153.775 23.6074 153.981 22.7869 153.94 21.96C153.959 21.1374 153.739 20.3271 153.308 19.6263C152.877 18.9256 152.253 18.3643 151.51 18.01C150.667 17.6218 149.748 17.4303 148.82 17.45H143.21V30.76H146.52V26.48H148.27L150.76 30.76H154.34L151.42 25.98L151.54 25.93V25.94ZM150.07 20.66C150.44 21 150.62 21.47 150.62 22.08C150.62 22.69 150.44 23.16 150.07 23.5C149.7 23.84 149.18 24 148.49 24H146.46V20.16H148.49C149.18 20.16 149.7 20.33 150.07 20.66ZM161.52 22.69C160.823 22.5203 160.151 22.2615 159.52 21.92C159.16 21.69 158.99 21.4 158.99 21.07C158.99 20.77 159.15 20.52 159.47 20.33C159.79 20.14 160.21 20.04 160.74 20.04C162.009 20.0468 163.244 20.4526 164.27 21.2L165.72 18.92C164.24 17.8411 162.452 17.2662 160.62 17.28C159.62 17.28 158.75 17.44 158.01 17.76C157.33 18.0141 156.746 18.4728 156.338 19.0727C155.929 19.6726 155.717 20.3844 155.73 21.11C155.73 22.19 156.08 23.06 156.78 23.72C157.48 24.39 158.57 24.92 160.05 25.31C161.05 25.58 161.75 25.83 162.14 26.08C162.53 26.33 162.73 26.62 162.73 26.96C162.73 27.33 162.55 27.61 162.19 27.82C161.83 28.02 161.32 28.12 160.66 28.12C159.95 28.12 159.26 28.01 158.59 27.79C157.92 27.57 157.25 27.23 156.59 26.77L155.18 29.15C155.94 29.72 156.8 30.16 157.76 30.47C158.72 30.78 159.72 30.94 160.76 30.94C161.8 30.94 162.72 30.77 163.53 30.45C164.33 30.12 164.96 29.65 165.4 29.05C165.84 28.45 166.07 27.75 166.07 26.95C166.084 26.4631 165.992 25.979 165.803 25.5304C165.613 25.0818 165.329 24.6793 164.97 24.35C163.967 23.5383 162.79 22.9701 161.53 22.69H161.52ZM168.04 17.46H171.35V30.77H168.04V17.46ZM172.92 20.48H176.78V30.77H180.09V20.48H183.93V17.46H172.92V20.48ZM194.27 17.46L192.76 20.19L191.51 22.57L190.29 20.19L188.81 17.46H185.04L189.83 25.84V30.77H193.14V25.83L197.92 17.46H194.27ZM87.14 42.14H92.48V39.55H87.14V36.87H92.98V34.25H83.9V47.56H93.2V44.89H87.14V42.14ZM102.33 39.87L98.2 34.25H95.27V47.56H98.56V39.46L101.6 43.68H103.09L106.13 39.44V47.56H109.42V34.25H106.49L102.33 39.87ZM120.46 42.73C121.211 42.3807 121.84 41.8154 122.268 41.1064C122.695 40.3974 122.901 39.5769 122.86 38.75C122.879 37.9274 122.659 37.1171 122.228 36.4163C121.797 35.7156 121.173 35.1543 120.43 34.8C119.587 34.4118 118.668 34.2203 117.74 34.24H112.13V47.55H115.44V43.27H117.19L119.68 47.55H123.26L120.34 42.77L120.46 42.72V42.73ZM119 37.45C119.37 37.79 119.55 38.26 119.55 38.87C119.55 39.48 119.37 39.95 119 40.29C118.63 40.63 118.11 40.79 117.42 40.79H115.38V36.95H117.42C118.1 36.95 118.63 37.12 119 37.45ZM129.46 34.25L124.31 47.56H127.75L128.53 45.41H133.89L134.67 47.56H138.07L132.97 34.25H129.45H129.46ZM131.23 37.62L133.18 43.03H129.23L131.23 37.62Z" fill="#171C6B"/>
<path d="M24.2 34.16V24.11C17.9807 24.11 12.0161 26.5806 7.61835 30.9783C3.22062 35.3761 0.75 41.3407 0.75 47.56H10.8C10.8 40.17 16.81 34.16 24.2 34.16ZM47.74 24.12H37.69C37.69 31.51 31.68 37.52 24.29 37.52V47.57C30.5068 47.5673 36.4683 45.0972 40.8652 40.7022C45.2621 36.3073 47.7347 30.3468 47.74 24.13V24.12Z" fill="#171C6B"/>
<path d="M47.74 37.51V47.56C50.819 47.56 53.8679 46.9534 56.7124 45.7748C59.5569 44.5962 62.1414 42.8687 64.3181 40.691C66.4948 38.5134 68.2212 35.9282 69.3986 33.0832C70.576 30.2381 71.1813 27.189 71.18 24.11H61.13C61.13 31.5 55.12 37.51 47.73 37.51H47.74Z" fill="#946FE4"/>
<path d="M24.3 10.71V0.660034C18.0806 0.660034 12.116 3.13065 7.71832 7.52838C3.32059 11.9261 0.849976 17.8907 0.849976 24.11H10.9C10.9 16.72 16.91 10.71 24.3 10.71Z" fill="#171C6B"/>
<path d="M24.3 14.06V24.11C30.5168 24.1074 36.4784 21.6373 40.8752 17.2423C45.2721 12.8473 47.7448 6.88682 47.75 0.670044H37.7001C37.7001 8.06004 31.69 14.07 24.3 14.07V14.06Z" fill="#ED4023"/>
<path d="M61.14 0.670044C61.14 8.06004 55.13 14.07 47.74 14.07V24.12C53.9593 24.12 59.9239 21.6494 64.3216 17.2517C68.7194 12.854 71.19 6.88937 71.19 0.670044C71.19 0.670044 61.14 0.670044 61.14 0.670044Z" fill="#00BFFF"/>
</svg>
