<svg xmlns="http://www.w3.org/2000/svg" fill="none" viewBox="0 0 289 118"><path fill="#039947" d="M138.02 27v-6.11h-6.26V27h-3.12V12.14h3.12v5.84h6.26v-5.84h3.12V27h-3.12Zm5.1 0 5.77-14.86h3.46L158.06 27h-3.23l-1.04-2.82h-6.36L146.36 27h-3.24Zm5.09-5.24h4.8l-2.38-6.43-2.42 6.43ZM160.04 27V12.14h3.12v11.95h5.94V12.14h3.1v11.95h5.97V12.14h3.12V27h-21.25Zm23.2 0 5.78-14.86h3.46L198.19 27h-3.23l-1.04-2.82h-6.36L186.49 27h-3.25Zm5.1-5.24h4.8l-2.38-6.43-2.43 6.43Zm28.38 8.62V27h-11.87V12.14h3.12V24.1h6.26V12.14h3.12v11.95h2.27v6.29h-2.9ZM221.8 27V12.14h9.8v2.61h-6.74v3.46h6.2v2.57h-6.2v3.57h7V27h-10.06Zm11.27-2.63c.6-.16 1.09-.32 1.45-.49a2.6 2.6 0 0 0 1.4-1.74c.1-.4.17-.92.22-1.58l.6-8.42h10.69V27h-3.12V15.05h-4.7l-.4 5.94c-.14 1.92-.63 3.36-1.5 4.32-.85.95-2.16 1.57-3.91 1.84l-.73-2.78Zm17.6 2.63V12.14h3.12V17h2.88c1.65 0 2.98.45 3.97 1.36 1 .9 1.5 2.11 1.5 3.63 0 1.54-.5 2.76-1.49 3.66-.98.9-2.3 1.35-3.98 1.35h-6Zm3.08-2.72h2.61c.88 0 1.54-.2 2-.6.45-.4.68-.97.68-1.7 0-.74-.23-1.3-.69-1.7-.45-.4-1.11-.6-1.99-.6h-2.6v4.6Zm27.44-1.78h-12.71v-2.49h12.71v2.5ZM135.44 53.28a7.8 7.8 0 0 1-3.96-1 6.88 6.88 0 0 1-2.66-2.75 8.37 8.37 0 0 1-.92-3.96c0-1.08.18-2.1.54-3.04.36-.94.86-1.76 1.5-2.44a6.78 6.78 0 0 1 2.37-1.63 7.95 7.95 0 0 1 9.33 2.45l-2.02 1.99a5.23 5.23 0 0 0-4.12-2.13 4.1 4.1 0 0 0-3.2 1.35 4.92 4.92 0 0 0-1.22 3.45c0 1.42.41 2.58 1.24 3.47a4.25 4.25 0 0 0 3.26 1.33 5.31 5.31 0 0 0 4.4-2.23l2 1.97a8.03 8.03 0 0 1-6.54 3.17Zm15.08 0c-1.5 0-2.84-.33-4.04-1a7.18 7.18 0 0 1-2.78-2.75c-.67-1.18-1-2.5-1-3.96 0-1.47.34-2.79 1-3.96a7.11 7.11 0 0 1 2.8-2.75c1.19-.66 2.53-1 4.02-1 1.1 0 2.15.2 3.12.59a7.13 7.13 0 0 1 4.1 4.04c.38.95.58 1.98.58 3.08s-.2 2.13-.6 3.09a7.13 7.13 0 0 1-4.09 4.04c-.96.39-2 .58-3.11.58Zm-3.34-11.16c-.86.9-1.3 2.05-1.3 3.45 0 1.4.44 2.55 1.3 3.45.87.9 1.98 1.35 3.34 1.35a4.4 4.4 0 0 0 3.31-1.35c.87-.9 1.3-2.06 1.3-3.45 0-1.4-.43-2.54-1.3-3.44a4.38 4.38 0 0 0-3.31-1.36c-1.36 0-2.47.45-3.34 1.35ZM158.54 53l5.07-7.66-4.7-7.2h3.62l1.6 2.49 1.42 2.29 1.41-2.3 1.57-2.48h3.58l-4.66 7.22 4.99 7.64h-3.61l-1.56-2.45-1.76-2.81-1.76 2.81L162.2 53h-3.65Zm15.78 0V38.14h5.71a5.6 5.6 0 0 1 4.02 1.42c1 .94 1.5 2.2 1.5 3.8 0 1.58-.5 2.84-1.5 3.78a5.6 5.6 0 0 1-4.02 1.42h-2.59V53h-3.12Zm3.08-7.13h2.33c.84 0 1.5-.22 1.98-.66.48-.45.72-1.05.72-1.83 0-.79-.24-1.4-.72-1.83a2.8 2.8 0 0 0-1.98-.67h-2.33v4.99Zm7.69 7.13 5.77-14.86h3.46L200.04 53h-3.24l-1.04-2.82h-6.36L188.33 53h-3.24Zm5.09-5.24h4.8l-2.38-6.43-2.42 6.43ZM211.39 53v-6.11h-6.26V53h-3.12V38.14h3.12v5.84h6.26v-5.84h3.12V53h-3.12Zm6.4 0V38.14h9.8v2.61h-6.74v3.46h6.2v2.57h-6.2v3.57h7V53h-10.06Zm22.02 0v-6.11h-6.26V53h-3.12V38.14h3.12v5.84h6.26v-5.84h3.12V53h-3.12Zm6.4 0V38.14h3.05v9.74l7.05-9.74h2.7V53h-3.08v-9.72L248.9 53h-2.7Zm16.06 0V38.14h9.8v2.61h-6.74v3.46h6.2v2.57h-6.2v3.57h7V53h-10.06ZM138.02 79V67.05h-6.26V79h-3.12V64.14h12.5V79h-3.12Zm6.4 0V64.14h5.7a5.6 5.6 0 0 1 4.02 1.42c1 .94 1.5 2.2 1.5 3.8 0 1.58-.5 2.84-1.5 3.78a5.6 5.6 0 0 1-4.02 1.42h-2.59V79h-3.12Zm3.07-7.13h2.33c.84 0 1.5-.22 1.98-.66.48-.45.72-1.05.72-1.83 0-.79-.24-1.4-.72-1.83a2.8 2.8 0 0 0-1.98-.67h-2.33v4.99ZM157.72 79V64.14h3.06v9.74l7.04-9.74h2.7V79h-3.08v-9.72L160.41 79h-2.7Zm16.06 0V64.14h5.71a5.6 5.6 0 0 1 4.02 1.42c1 .94 1.5 2.2 1.5 3.8 0 1.58-.5 2.84-1.5 3.78a5.6 5.6 0 0 1-4.02 1.42h-2.59V79h-3.12Zm3.08-7.13h2.33c.85 0 1.5-.22 1.98-.66.48-.45.72-1.05.72-1.83 0-.79-.24-1.4-.72-1.83a2.8 2.8 0 0 0-1.98-.67h-2.33v4.99Zm17.3 7.41c-1.5 0-2.84-.33-4.03-1a7.18 7.18 0 0 1-2.8-2.75c-.65-1.18-.99-2.5-.99-3.96 0-1.47.34-2.79 1-3.96a7.11 7.11 0 0 1 2.8-2.75c1.2-.66 2.53-1 4.02-1 1.11 0 2.15.2 3.12.59a7.13 7.13 0 0 1 4.1 4.04c.39.95.58 1.98.58 3.08s-.2 2.13-.59 3.09a7.13 7.13 0 0 1-4.1 4.04c-.96.39-2 .58-3.11.58Zm-3.34-11.16c-.86.9-1.3 2.05-1.3 3.45 0 1.4.44 2.55 1.3 3.45.87.9 1.98 1.35 3.34 1.35a4.4 4.4 0 0 0 3.31-1.35c.88-.9 1.31-2.06 1.31-3.45 0-1.4-.43-2.54-1.3-3.44a4.38 4.38 0 0 0-3.32-1.36c-1.36 0-2.47.45-3.34 1.35Zm11.6 14.26v-6.3h1.78c.43-.37.75-.88.98-1.53.22-.65.38-1.6.46-2.86l.54-7.55h10.31v11.95h2.27v6.29h-2.89V79h-10.54v3.38h-2.91Zm5.26-6.18h5.71V67h-4.3l-.35 4.98a9.64 9.64 0 0 1-1.06 4.23Zm22.66 2.8v-6.11h-6.26V79h-3.12V64.14h3.12v5.84h6.26v-5.84h3.12V79h-3.12Zm6.4 0V64.14h3.11V69h2.89c1.65 0 2.97.45 3.96 1.36 1 .9 1.5 2.11 1.5 3.63 0 1.54-.5 2.76-1.49 3.66-.98.9-2.3 1.35-3.97 1.35h-6Zm3.07-2.72h2.61c.88 0 1.54-.2 2-.6.45-.4.68-.97.68-1.7 0-.74-.23-1.3-.69-1.7-.45-.4-1.1-.6-1.99-.6h-2.6v4.6Zm10.6 2.72V64.14h3.11V79h-3.12Zm4.97 0 5.07-7.66-4.7-7.2h3.62l1.6 2.49 1.42 2.29 1.42-2.3 1.56-2.48h3.58l-4.66 7.22 4.99 7.64h-3.61l-1.56-2.45-1.76-2.81-1.76 2.81-1.56 2.45h-3.65Zm-126.74 26V90.14h5.7a5.6 5.6 0 0 1 4.03 1.42c1 .94 1.5 2.2 1.5 3.8 0 1.58-.5 2.84-1.5 3.78a5.6 5.6 0 0 1-4.02 1.42h-2.6V105h-3.11Zm3.08-7.13h2.33c.84 0 1.5-.22 1.98-.66.47-.45.71-1.05.71-1.83 0-.79-.24-1.4-.71-1.83a2.8 2.8 0 0 0-1.98-.67h-2.33v4.99Zm10.22 7.13V90.14h9.8v2.61H145v3.46h6.2v2.57H145v3.57h7V105h-10.06Zm19.3.28a7.8 7.8 0 0 1-3.97-1 6.88 6.88 0 0 1-2.65-2.75 8.37 8.37 0 0 1-.92-3.96c0-1.08.18-2.1.54-3.04a6.79 6.79 0 0 1 3.87-4.07 7.95 7.95 0 0 1 9.33 2.45l-2.02 1.99a5.23 5.23 0 0 0-4.13-2.13c-1.3 0-2.37.45-3.19 1.35a4.92 4.92 0 0 0-1.22 3.45c0 1.42.41 2.58 1.23 3.47a4.25 4.25 0 0 0 3.27 1.33 5.3 5.3 0 0 0 4.4-2.23l2 1.97a8.02 8.02 0 0 1-6.55 3.17Zm10.81-.02c-.9 0-1.7-.14-2.37-.4l.68-2.75c.5.17.97.26 1.4.26.47 0 .86-.1 1.17-.31.32-.21.58-.54.78-.99l-5.47-10.93h3.46l1.59 3.3 2.08 4.33 1.88-4.34 1.45-3.3h3.4l-5.7 12.22a5.23 5.23 0 0 1-1.74 2.23c-.67.45-1.54.68-2.6.68ZM184 105V90.14h5.71a5.6 5.6 0 0 1 4.02 1.42c1 .94 1.5 2.2 1.5 3.8 0 1.58-.5 2.84-1.5 3.78a5.6 5.6 0 0 1-4.02 1.42h-2.59V105H184Zm3.08-7.13h2.33c.84 0 1.5-.22 1.98-.66.48-.45.72-1.05.72-1.83 0-.79-.24-1.4-.72-1.83a2.8 2.8 0 0 0-1.98-.67h-2.33v4.99Zm17.02 7.41a7.8 7.8 0 0 1-3.96-1 6.88 6.88 0 0 1-2.65-2.75 8.38 8.38 0 0 1-.93-3.96c0-1.08.18-2.1.54-3.04a7.3 7.3 0 0 1 1.5-2.44 6.77 6.77 0 0 1 2.37-1.63 7.95 7.95 0 0 1 9.33 2.45l-2.02 1.99a5.23 5.23 0 0 0-4.12-2.13 4.1 4.1 0 0 0-3.2 1.35 4.91 4.91 0 0 0-1.22 3.45c0 1.42.42 2.58 1.24 3.47a4.25 4.25 0 0 0 3.26 1.33 5.32 5.32 0 0 0 4.4-2.23l2 1.97a8.01 8.01 0 0 1-6.54 3.17Zm15.08 0c-1.5 0-2.84-.33-4.03-1a7.17 7.17 0 0 1-2.8-2.75 7.9 7.9 0 0 1-.99-3.96c0-1.47.34-2.79 1-3.96a7.1 7.1 0 0 1 2.8-2.75c1.2-.66 2.53-1 4.02-1 1.11 0 2.15.2 3.12.59a7.13 7.13 0 0 1 4.1 4.04 8 8 0 0 1 .58 3.08c0 1.1-.2 2.13-.59 3.09a7.13 7.13 0 0 1-4.1 4.04c-.96.39-2 .58-3.11.58Zm-3.34-11.16c-.86.9-1.3 2.05-1.3 3.45 0 1.4.44 2.55 1.3 3.45.87.9 1.98 1.35 3.34 1.35a4.4 4.4 0 0 0 3.31-1.35c.87-.9 1.31-2.06 1.31-3.45 0-1.4-.44-2.54-1.3-3.44a4.38 4.38 0 0 0-3.32-1.36c-1.36 0-2.47.45-3.34 1.35ZM229.52 105V90.14H236c1.34 0 2.42.36 3.23 1.1a3.7 3.7 0 0 1 1.22 2.89c0 1.32-.54 2.38-1.62 3.17a4.04 4.04 0 0 1 2.12 3.6c0 1.2-.43 2.2-1.3 2.96a4.87 4.87 0 0 1-3.33 1.14h-6.79Zm3.02-2.49h3.14c.7 0 1.24-.17 1.63-.5.4-.35.6-.82.6-1.43 0-.59-.2-1.06-.6-1.4-.39-.33-.94-.5-1.63-.5h-3.14v3.83Zm0-6.24h2.92c.62 0 1.11-.16 1.47-.5.37-.33.55-.77.55-1.32s-.18-1-.55-1.33c-.36-.33-.85-.5-1.47-.5h-2.92v3.65Z"/><g stroke="#039947" stroke-linecap="round" stroke-linejoin="round" stroke-width="5.46" clip-path="url(#a)"><path d="M2.84 5.18s53.84-8.59 45.35 45.35C-5.75 59.03 2.84 5.18 2.84 5.18ZM16.37 19.48l31.95 31.18"/><path d="M95.35 5.18S41.51-3.41 50.01 50.53c53.93 8.5 45.34-45.35 45.34-45.35ZM79.49 21.04 49.88 50.66"/><path d="M45.98 73.57c.85-4.97 1.72-12.57 2.05-23.7h2.39c.4 13.47 1.6 21.77 2.57 26.5 0 0-4.22-1.31-7.01-2.8Z"/><path d="M73.65 84.16 90.9 73.69a11.37 11.37 0 0 1 15.69 3.74 6.55 6.55 0 0 1-2.13 8.99l-14.5 9-19.23 11.89c-14.74 9.11-34.97 9.4-49.39 2.16 0 0-13.57-7.6-30.68-5.3V69.82l13.03-7.25c14.52-8.14 33.1 5.7 33.1 5.7 7.07 4.69 13.04 7.7 21.28 9.28 3.06.59 6.84.54 9.65 1.8 3.48 1.54 6.3 4.19 7.18 8.02.62 2.69-.54 6.05-2.85 7.61-3.13 2.11-7.83 1.37-11.3.93a103.53 103.53 0 0 1-25.06-6.66l-.31-.14"/><path d="m67.02 79.49 18.5-10.97a9.9 9.9 0 0 1 13.73 3.3"/><path d="m56.11 77.15 21.37-12.54a10.1 10.1 0 0 1 12.92 2.02"/></g><defs><clipPath id="a"><path fill="#fff" d="M113 0H0v118h113z"/></clipPath></defs></svg>