<svg xmlns="http://www.w3.org/2000/svg" fill="none" viewBox="0 0 300 103"><path fill="#946FE4" d="m42.32 74.15 10.09-3.34v9.81L45.42 83l.86 2.52a12.57 12.57 0 0 1-3.44 14.18 12.59 12.59 0 0 1-4.3 2.45 12.62 12.62 0 0 1-9.37-.5 12.6 12.6 0 0 1-5.8-16.69 12.59 12.59 0 0 1 7.76-6.74l2.52-.9-2.52-6.93 7.56-6.14 3.63 9.91Zm-9.22 19.1c.74.31 1.57.31 2.32 0a3.3 3.3 0 0 0 1.94-1.68 3.37 3.37 0 0 0 0-2.74v-.28l-.83-2.52-2.52.89h-.28a3.3 3.3 0 0 0-2.12 1.78c-.33.81-.33 1.71 0 2.52a3.25 3.25 0 0 0 1.46 2.04h.03Z"/><path fill="#ED4023" d="m62.21 74.15 3.6-9.86 7.57 6.11-2.52 6.93 2.52.93a12.6 12.6 0 0 1 8.21 16.4 12.74 12.74 0 0 1-6.22 7.03 12.85 12.85 0 0 1-9.38.5 12.62 12.62 0 0 1-8.62-11.48c-.07-1.77.23-3.53.88-5.18l.86-2.52-6.98-2.34v-9.84l10.08 3.32Zm9.23 19.13a3.4 3.4 0 0 0 1.5-1.78 3.27 3.27 0 0 0 0-2.52 3.35 3.35 0 0 0-2.08-1.79h-.28l-2.52-.88-.83 2.52v.28a3.32 3.32 0 0 0 0 2.76c.4.8 1.08 1.4 1.91 1.7a3.4 3.4 0 0 0 2.3-.29Z"/><path fill="#00BFFF" d="m74.64 58.6-5.5-8.96 9.6-2.2 3.86 6.3 2.3-1.4a12.79 12.79 0 0 1 10.08-1.87 12.61 12.61 0 0 1 7.84 5.69 12.57 12.57 0 0 1 1.61 9.23 12.59 12.59 0 0 1-5.47 7.56 12.61 12.61 0 0 1-14.35-.42 12.6 12.6 0 0 1-3.5-3.91l-1.46-2.24-6.2 3.97-7.71-6.14 8.9-5.61Zm20.72 4.73c.14-.8-.02-1.61-.46-2.29a3.17 3.17 0 0 0-2.06-1.51 3.3 3.3 0 0 0-2.7.53l-.25.15-2.22 1.36 1.41 2.19.15.25a3.3 3.3 0 0 0 2.22 1.64 3.3 3.3 0 0 0 2.52-.46 3.32 3.32 0 0 0 1.29-1.86h.1Z"/><path fill="#039947" d="m70.23 39.12-10.46-1.29 4.28-8.86 7.31.9.35-2.66a12.57 12.57 0 0 1 14.2-11.58 12.6 12.6 0 0 1 8.24 4.53 12.57 12.57 0 0 1 2.52 9.01 12.57 12.57 0 0 1-4.62 8.54 12.6 12.6 0 0 1-9.93 2.69l-2.67-.25-.73 7.32-9.6 2.2 1.1-10.55Zm16.6-13.22a3.25 3.25 0 0 0-2.06-1.08 3.28 3.28 0 0 0-3.43 1.8c-.22.43-.34.9-.35 1.4v.3l-.33 2.51 2.52.26h.28a3.28 3.28 0 0 0 2.67-.7 3.17 3.17 0 0 0 1.21-2.27c.09-.75-.09-1.51-.5-2.14v-.08Z"/><path fill="#171C6B" d="M60.67 21.97a12.79 12.79 0 0 0 4.09-9.43 12.57 12.57 0 0 0-3.83-8.92A12.61 12.61 0 0 0 52.28 0a12.61 12.61 0 0 0-8.67 3.62 12.59 12.59 0 0 0 .25 18.35l1.9 1.92-5.28 5.03-7.33.9-.33-2.5A12.57 12.57 0 0 0 18.63 15.7c-3.23.38-6.18 2-8.24 4.5a12.57 12.57 0 0 0-2.52 9.01 12.57 12.57 0 0 0 4.59 8.54 12.81 12.81 0 0 0 10.08 2.72l2.67-.28.73 7.3-3.86 6.3-2.29-1.42a12.74 12.74 0 0 0-10.08-1.86 12.61 12.61 0 0 0-7.84 5.71 12.57 12.57 0 0 0-1.59 9.24 12.59 12.59 0 0 0 5.45 7.55 12.61 12.61 0 0 0 14.36-.42 12.59 12.59 0 0 0 3.5-3.93l1.44-2.24 6.2 3.97 7.72-6.11-8.85-5.72 5.47-8.93-1.06-10.45 10.44-1.3 7.56-7.36 7.56 7.35 4.28-8.86-5.29-5.16 1.61-1.89Zm-39.4 9.17H21a3.28 3.28 0 0 1-2.67-.7 3.3 3.3 0 0 1-.63-4.51 3.36 3.36 0 0 1 5.87 2.11v.3l.33 2.52-2.62.28Zm-5.84 32.6-.15.24a3.3 3.3 0 0 1-6.1-.67 3.37 3.37 0 0 1 3.94-3.83c.47.09.91.28 1.3.55l.23.18 2.22 1.33-1.44 2.2ZM54.3 15.14l-.2.2-1.82 1.87-1.84-1.87-.2-.2a3.25 3.25 0 0 1-1.11-2.51 3.17 3.17 0 0 1 1-2.35 3.3 3.3 0 0 1 2.15-.95c.8.05 1.55.39 2.12.96a3.17 3.17 0 0 1 1 2.34 3.24 3.24 0 0 1-1.1 2.51ZM119.88 28.6V11.95h11.37v3.27h-9.23l1.92-1.74v13.57l-1.92-1.79h9.5v3.32h-11.64Zm2.24-6.78v-3.24h8.42v3.24h-8.42ZM134.1 28.6V11.95h7.56c.9-.02 1.81.16 2.65.52.72.35 1.33.89 1.76 1.57.41.69.62 1.48.6 2.29.05.89-.19 1.77-.67 2.51a5.25 5.25 0 0 1-2.07 1.71v-.83c1 .27 1.88.85 2.52 1.67.62.78.95 1.76.93 2.76.03.89-.2 1.76-.65 2.52a4.36 4.36 0 0 1-1.84 1.59c-.87.4-1.8.59-2.75.58l-8.04-.26Zm3.93-1.52-1.81-1.53H141c.62.02 1.22-.15 1.72-.5a1.82 1.82 0 0 0 .6-1.44 1.85 1.85 0 0 0-.6-1.46c-.5-.35-1.1-.53-1.72-.5h-4.36v-2.92h3.99c.4 0 .79-.07 1.16-.23.3-.14.57-.37.75-.65.18-.3.27-.66.25-1.01a1.62 1.62 0 0 0-.58-1.33 2.25 2.25 0 0 0-1.58-.53h-4.52l1.82-1.54.1 13.64ZM149.78 28.6V11.95h6.68c1.19-.04 2.37.2 3.45.7a5.04 5.04 0 0 1 2.24 2.07c.54.97.81 2.08.78 3.2a6.09 6.09 0 0 1-.78 3.14 5.04 5.04 0 0 1-2.24 2.09 7.57 7.57 0 0 1-3.45.73h-5.05v-3.4h4.49c.74.04 1.46-.2 2.02-.68a2.3 2.3 0 0 0 .75-1.84 2.37 2.37 0 0 0-.75-1.89 2.95 2.95 0 0 0-2.02-.65h-3.98l1.84-1.64V28.55l-3.98.04ZM162.88 28.6l6.45-16.64h4.39l6.4 16.63h-4.2l-1.57-4.3v-.73l-3.2-8.94h1.1l-3.34 9.07v.65l-1.54 4.25h-4.49Zm3.8-2.7.91-2.97h8.04l.91 2.97h-9.85ZM188.14 28.8a11 11 0 0 1-6.7-2.22l1.9-2.87a7.14 7.14 0 0 0 4.52 1.54c.74.05 1.48-.11 2.14-.46a1.46 1.46 0 0 0 .7-1.3c.02-.33-.08-.65-.27-.91-.2-.27-.48-.48-.8-.58-.39-.15-.8-.22-1.21-.2h-3.28v-3.32h2.97c.53.04 1.06-.12 1.49-.43a1.45 1.45 0 0 0 .56-1.21 1.33 1.33 0 0 0-.63-1.18 3.43 3.43 0 0 0-1.84-.43 6.46 6.46 0 0 0-4.14 1.43l-1.84-2.77a10.38 10.38 0 0 1 6.33-2.16 8.63 8.63 0 0 1 3.3.55c.84.32 1.58.87 2.12 1.59.47.7.72 1.52.7 2.37-.01.9-.3 1.77-.8 2.51a5.4 5.4 0 0 1-2.25 1.81v-1.1c1.05.3 1.99.91 2.67 1.76.65.77 1 1.74.99 2.74a4.17 4.17 0 0 1-1.7 3.48 7.93 7.93 0 0 1-4.93 1.36ZM197.21 28.6V11.95h4.06v13.82l-1.49-1.82 8.65-12h3.5v16.63h-4.06V14.75l1.47 1.89-8.62 11.95h-3.5ZM215.28 28.6V11.95h4.06v13.82l-1.49-1.82 8.65-12h3.5v16.63h-4.06V14.75l1.47 1.89-8.62 11.95h-3.5Zm7.56-18.25c-.96.06-1.92-.2-2.72-.76A3.35 3.35 0 0 1 219 7.27l2.52-.47c.01.37.16.72.4 1 .27.22.62.33.96.3.33.02.66-.08.9-.3.26-.27.41-.63.44-1l2.52.47a3.5 3.5 0 0 1-1.19 2.32c-.79.56-1.75.83-2.72.76h.03ZM241.12 28.9a9.09 9.09 0 0 1-4.51-1.11 7.88 7.88 0 0 1-3-3.1 9.16 9.16 0 0 1-1.09-4.43 9.24 9.24 0 0 1 1.06-4.4 8.05 8.05 0 0 1 3-3.1 8.65 8.65 0 0 1 4.46-1.13c1.32-.01 2.62.27 3.8.83a9.62 9.62 0 0 1 3.24 2.52l-2.53 2.64a5.9 5.9 0 0 0-1.94-1.61 5.05 5.05 0 0 0-4.7.05 4.15 4.15 0 0 0-1.62 1.74 5.4 5.4 0 0 0-.56 2.51c-.02.88.18 1.74.58 2.52.37.72.94 1.31 1.64 1.71.76.46 1.64.68 2.52.63.88.01 1.75-.2 2.52-.6.8-.42 1.5-1 2.04-1.71l2.53 2.64c-.88 1.1-2 1.96-3.28 2.52-1.31.58-2.73.88-4.16.88ZM250.62 28.6V11.95h4.13v16.63h-4.13Zm3.23-6.58v-3.65h3.22v3.65h-3.22Zm6.27 6.57-5.04-8.43 5.04-8.2h4.82l-5.7 8.98v-1.63l5.82 9.28h-4.94ZM267.13 28.6V11.95h4.03v13.82l-1.46-1.82 8.65-12h3.42v16.63h-4.05V14.75l1.46 1.89-8.65 11.95h-3.4ZM285.18 28.6V11.95h4.16v13.82l-1.49-1.82 8.65-12h3.5v16.63h-4.03V14.75l1.43 1.89-8.62 11.95h-3.6Zm7.56-18.25c-.96.06-1.91-.2-2.7-.76a3.47 3.47 0 0 1-1.16-2.32l2.53-.47c0 .37.16.73.42 1 .27.22.6.33.94.3.34.03.67-.08.93-.3.24-.28.4-.63.43-1l2.52.47c-.07.9-.49 1.73-1.16 2.32-.8.57-1.79.83-2.77.76h.02ZM118.52 49.59l6.45-16.64h4.41l6.38 16.64h-4.26l-1.56-4.3v-.74l-3.23-8.93h1.14l-3.36 9.06v.65l-1.56 4.26h-4.41Zm3.8-2.7.91-2.97h8.07l.9 2.97h-9.87ZM137.12 46.06c.7-.15 1.37-.4 2-.75.43-.28.78-.68.98-1.16.23-.67.36-1.36.4-2.06l.66-9.14h12.37v16.64h-4.1V35.06l1.8 1.69h-7.93l1.79-1.69-.56 7.7a9.38 9.38 0 0 1-.85 3.66 5.29 5.29 0 0 1-2.1 2.24c-1.07.6-2.25.99-3.47 1.13l-.99-3.73ZM156.93 49.59V32.95h4.14v14.77l-1.94-1.6h4.18a3.2 3.2 0 0 0 2.07-.59 2.18 2.18 0 0 0 .7-1.7 2.2 2.2 0 0 0-.7-1.74 3.08 3.08 0 0 0-2.07-.6h-4.79v-3.36h5.24c1.17-.02 2.32.21 3.38.68.93.42 1.7 1.12 2.22 2 .54.91.81 1.97.78 3.04a5.9 5.9 0 0 1-.75 3.07 5.04 5.04 0 0 1-2.22 1.99 7.9 7.9 0 0 1-3.4.68h-6.84ZM171.1 49.59l3.9-6.65 4.12.6-3.36 6.05h-4.66Zm9.83 0V34.43l2.52 1.9h-5.04a2.75 2.75 0 0 0-1.97.62 2.29 2.29 0 0 0-.68 1.76 2.31 2.31 0 0 0 .68 1.79c.56.45 1.26.67 1.97.63h3.6v3.02h-4a7.57 7.57 0 0 1-3.38-.73 5.17 5.17 0 0 1-2.22-1.99 5.4 5.4 0 0 1-.78-2.94 5.51 5.51 0 0 1 .8-2.97 5.04 5.04 0 0 1 2.25-1.97 7.34 7.34 0 0 1 3.33-.7h7.03v16.64l-4.11.1ZM188.52 49.59V32.95h4.13v16.64h-4.13Zm2.36-6.57v-3.9h9.66v3.8l-9.66.1Zm7.9 6.57V32.95h4.15v16.64h-4.16ZM213.92 49.89a8.65 8.65 0 0 1-4.48-1.1 7.7 7.7 0 0 1-3.03-3.08 9.23 9.23 0 0 1-1.06-4.45 9.07 9.07 0 0 1 1.06-4.38 7.7 7.7 0 0 1 2.98-3.13 8.65 8.65 0 0 1 4.46-1.13 8.96 8.96 0 0 1 7.06 3.35l-2.53 2.67a5.67 5.67 0 0 0-1.94-1.64 5.05 5.05 0 0 0-4.71.05 4.4 4.4 0 0 0-1.59 1.74c-.4.77-.6 1.64-.58 2.52 0 .87.2 1.73.58 2.51a4.36 4.36 0 0 0 4.04 2.34 5.55 5.55 0 0 0 4.58-2.31l2.52 2.52a8.34 8.34 0 0 1-3.27 2.51 10.1 10.1 0 0 1-4.09 1ZM119.88 70.58V53.94h10.66v3.78h-8.34l1.76-1.79v14.65h-4.08ZM140.63 70.9a9.19 9.19 0 0 1-4.54-1.13 7.94 7.94 0 0 1-3.18-3.07 8.5 8.5 0 0 1-1.16-4.43 8.53 8.53 0 0 1 1.16-4.45 8.11 8.11 0 0 1 3.18-3.07 9.18 9.18 0 0 1 4.54-1.11c1.6-.03 3.18.35 4.58 1.1a8.33 8.33 0 0 1 3.2 3.08 8.75 8.75 0 0 1 1.14 4.45 8.15 8.15 0 0 1-4.34 7.5 9.26 9.26 0 0 1-4.58 1.14Zm0-3.77c.88.03 1.75-.18 2.52-.63a4.25 4.25 0 0 0 1.66-1.73c.42-.78.63-1.64.6-2.52a5.03 5.03 0 0 0-.6-2.52 4.58 4.58 0 0 0-4.18-2.37 4.54 4.54 0 0 0-4.19 2.37 5.02 5.02 0 0 0-.6 2.52c-.03.88.18 1.74.6 2.52a4.54 4.54 0 0 0 4.18 2.37ZM151.97 70.58V53.94h6.65c1.2-.04 2.38.2 3.46.7a5.04 5.04 0 0 1 2.24 2.07c.54.98.81 2.08.78 3.2.03 1.1-.24 2.2-.78 3.17-.52.9-1.3 1.62-2.24 2.06a7.37 7.37 0 0 1-3.46.73h-5.04l.13-3.4h4.56c.74.04 1.46-.2 2.04-.65a2.52 2.52 0 0 0 .73-1.86 2.53 2.53 0 0 0-.73-1.87c-.57-.46-1.3-.7-2.04-.65h-3.96l1.82-1.64V70.58h-4.16ZM167.4 70.58V53.94h4.15v16.64h-4.16Zm2.51-6.54V60.2h9.63v3.83h-9.63Zm7.87 6.54V53.94h4.16v16.64h-4.16ZM185.16 70.58V53.94h4.16v14.8l-1.96-1.63h4.26c.74.05 1.48-.16 2.09-.58a2.2 2.2 0 0 0 .68-1.71 2.19 2.19 0 0 0-.68-1.74 3.15 3.15 0 0 0-2.1-.6h-4.78v-3.23h5.24a7.9 7.9 0 0 1 3.4.68 5.31 5.31 0 0 1 2.22 2c.52.93.78 1.99.76 3.06a5.88 5.88 0 0 1-.76 3.05 5.04 5.04 0 0 1-2.2 1.99 8 8 0 0 1-3.42.68l-6.9-.13Zm15.53 0V53.94h4.16v16.64h-4.16ZM207.02 70.58l6.22-9.59.86-.33 2.52-4.1 1.59-2.52h4.66l-5.7 8.96-.8.26-2.85 4.75-1.64 2.67-4.86-.1Zm11.34 0-1.66-2.67-2.93-5.03-.85-.4-5.52-8.64h4.68l1.64 2.52 2.52 4.43.78.25 5.98 9.34-4.64.2ZM119.88 91.57V74.93h4.16v16.64h-4.16Zm3.25-6.54v-3.68h3.2v3.68h-3.2Zm6.25 6.54-5.04-8.4 5.04-8.24h4.82l-5.7 9V82.3l5.85 9.26h-4.97ZM141.86 87.37l-6.2-12.44h4.59l1.59 3.43 2.26 4.9-2.24 4.1Zm-1.79 4.5c-.94.01-1.88-.13-2.77-.42l.8-3.58c.52.16 1.05.25 1.6.25.44.02.9-.1 1.28-.32.36-.25.64-.6.8-1.01l.4-.93.92-1.36 2.52-6.14 1.46-3.43h4.48l-6.22 13.45a6.65 6.65 0 0 1-2.12 2.69c-.94.6-2.03.91-3.15.9v-.1ZM153.73 91.57V74.93h6.68c1.2-.03 2.37.21 3.46.7a5.29 5.29 0 0 1 2.24 2.1c.53.97.8 2.06.78 3.17.02 1.1-.25 2.2-.78 3.17a5.44 5.44 0 0 1-2.25 2.1c-1.08.49-2.26.73-3.45.7h-5.04v-3.4h4.49c.73.04 1.45-.2 2.01-.66a2.35 2.35 0 0 0 .73-1.86 2.31 2.31 0 0 0-.73-1.86 2.95 2.95 0 0 0-2.01-.66h-3.99l1.84-1.63V91.58h-3.98ZM177.63 91.98a9.06 9.06 0 0 1-4.54-1.14 7.94 7.94 0 0 1-3.18-3.07 8.49 8.49 0 0 1-1.16-4.43 8.42 8.42 0 0 1 4.34-7.52 9.31 9.31 0 0 1 4.54-1.11c1.6-.02 3.17.36 4.58 1.1a8.42 8.42 0 0 1 4.34 7.53 8.5 8.5 0 0 1-1.16 4.43 7.93 7.93 0 0 1-3.18 3.07 9.26 9.26 0 0 1-4.58 1.14Zm0-3.78c.88.03 1.75-.19 2.52-.63a4.25 4.25 0 0 0 1.66-1.74c.4-.78.6-1.64.58-2.51a5.46 5.46 0 0 0-.58-2.52 4.58 4.58 0 0 0-4.18-2.37 4.55 4.55 0 0 0-4.06 2.37 5.15 5.15 0 0 0-.6 2.52c-.03.87.18 1.74.6 2.51.36.74.94 1.35 1.66 1.74.73.4 1.56.6 2.4.55v.08ZM189.04 91.57V74.93h6.66c1.19-.04 2.37.2 3.45.7a5.04 5.04 0 0 1 2.25 2.1c.54.97.8 2.06.78 3.17.03 1.1-.24 2.2-.78 3.17a5.3 5.3 0 0 1-2.25 2.1c-1.08.5-2.26.74-3.45.7h-5.04v-3.4h4.46c.74.03 1.46-.2 2.04-.66a2.52 2.52 0 0 0 .73-1.86 2.51 2.51 0 0 0-.73-1.86 3.05 3.05 0 0 0-2.04-.66h-3.98l1.84-1.63V91.58h-3.94ZM203.64 78.71v-3.78h13.79v3.78h-13.8Zm4.84 12.86v-15.1h4.13v15.1h-4.13ZM227.48 91.98a9.21 9.21 0 0 1-4.56-1.14 8.26 8.26 0 0 1-4.33-7.5 8.68 8.68 0 0 1 1.16-4.43 8.51 8.51 0 0 1 3.17-3.1 9.49 9.49 0 0 1 4.56-1.1 9.6 9.6 0 0 1 4.6 1.1 8.16 8.16 0 0 1 3.17 3.1 8.65 8.65 0 0 1 1.13 4.43 8.72 8.72 0 0 1-1.13 4.43 7.93 7.93 0 0 1-3.18 3.07 9.31 9.31 0 0 1-4.59 1.14Zm0-3.78a4.57 4.57 0 0 0 4.19-2.37c.42-.77.63-1.64.6-2.51.02-.88-.19-1.75-.6-2.52a4.57 4.57 0 0 0-4.18-2.37 4.69 4.69 0 0 0-2.53.63 4.58 4.58 0 0 0-1.66 1.74c-.4.78-.6 1.64-.58 2.52-.01.87.18 1.73.58 2.51a4.25 4.25 0 0 0 4.18 2.3v.07ZM238.93 91.57V74.93h7.56c.87 0 1.73.19 2.52.56a3.9 3.9 0 0 1 1.76 1.53c.44.7.65 1.5.63 2.32.02.84-.22 1.66-.68 2.37a5.34 5.34 0 0 1-2.09 1.7v-.82c1 .29 1.88.88 2.52 1.68.61.79.94 1.75.94 2.75.03.88-.2 1.76-.66 2.51-.46.7-1.1 1.26-1.87 1.61-.85.4-1.78.58-2.72.56l-7.91-.13Zm3.95-1.48-1.84-1.54h4.8c.61.04 1.22-.15 1.7-.53a1.7 1.7 0 0 0 .64-1.43 1.68 1.68 0 0 0-.63-1.44c-.5-.37-1.1-.55-1.72-.5h-4.38v-2.94h4.1c.4 0 .8-.07 1.17-.23.3-.13.56-.36.73-.66.18-.29.28-.63.27-.98a1.78 1.78 0 0 0-.57-1.36 2.35 2.35 0 0 0-1.6-.5h-4.53l1.84-1.54.02 13.65Z"/></svg>